<?xml version="1.0" encoding="UTF-8" standalone="no"?><svg xmlns="http://www.w3.org/2000/svg" xmlns:xlink="http://www.w3.org/1999/xlink" contentScriptType="application/ecmascript" contentStyleType="text/css" height="577px" preserveAspectRatio="none" style="width:301px;height:577px;" version="1.1" viewBox="0 0 301 577" width="301px" zoomAndPan="magnify"><defs><filter height="300%" id="f7dp6wz" width="300%" x="-1" y="-1"><feGaussianBlur result="blurOut" stdDeviation="2.0"/><feColorMatrix in="blurOut" result="blurOut2" type="matrix" values="0 0 0 0 0 0 0 0 0 0 0 0 0 0 0 0 0 0 .4 0"/><feOffset dx="4.0" dy="4.0" in="blurOut2" result="blurOut3"/><feBlend in="SourceGraphic" in2="blurOut3" mode="normal"/></filter></defs><g><!--class ApplicationProtocol--><a target="_top" xlink:actuate="onRequest" xlink:href="ApplicationProtocol.html" xlink:show="new" xlink:title="ApplicationProtocol.html" xlink:type="simple"><rect fill="#FEFECE" filter="url(#f7dp6wz)" height="560.1875" style="stroke: #A80036; stroke-width: 1.5;" width="286" x="6" y="8"/><ellipse cx="84.25" cy="24" fill="#ADD1B2" rx="11" ry="11" style="stroke: #A80036; stroke-width: 1.0;"/><path d="M87.2188,29.6406 Q86.6406,29.9375 86,30.0859 Q85.3594,30.2344 84.6563,30.2344 Q82.1563,30.2344 80.8359,28.5859 Q79.5156,26.9375 79.5156,23.8125 Q79.5156,20.6875 80.8359,19.0313 Q82.1563,17.375 84.6563,17.375 Q85.3594,17.375 86.0078,17.5313 Q86.6563,17.6875 87.2188,17.9844 L87.2188,20.7031 Q86.5938,20.125 86,19.8516 Q85.4063,19.5781 84.7813,19.5781 Q83.4375,19.5781 82.75,20.6484 Q82.0625,21.7188 82.0625,23.8125 Q82.0625,25.9063 82.75,26.9766 Q83.4375,28.0469 84.7813,28.0469 Q85.4063,28.0469 86,27.7734 Q86.5938,27.5 87.2188,26.9219 L87.2188,29.6406 Z "/><text fill="#000000" font-family="sans-serif" font-size="12" lengthAdjust="spacingAndGlyphs" textLength="121" x="104.75" y="28.1543">ApplicationProtocol</text><line style="stroke: #A80036; stroke-width: 1.5;" x1="7" x2="291" y1="40" y2="40"/><ellipse cx="17" cy="51.9023" fill="none" rx="3" ry="3" style="stroke: #038048; stroke-width: 1.0;"/><text fill="#000000" font-family="sans-serif" font-size="11" lengthAdjust="spacingAndGlyphs" text-decoration="underline" textLength="75" x="26" y="54.2104">myId: Integer</text><line style="stroke: #000000; stroke-width: 1.0;" x1="26" x2="101" y1="56.2104" y2="56.2104"/><ellipse cx="17" cy="64.707" fill="none" rx="3" ry="3" style="stroke: #038048; stroke-width: 1.0;"/><text fill="#000000" font-family="sans-serif" font-size="11" lengthAdjust="spacingAndGlyphs" text-decoration="underline" textLength="95" x="26" y="67.0151">serverId: Integer</text><line style="stroke: #000000; stroke-width: 1.0;" x1="26" x2="121" y1="69.0151" y2="69.0151"/><ellipse cx="17" cy="77.5117" fill="none" rx="3" ry="3" style="stroke: #038048; stroke-width: 1.0;"/><text fill="#000000" font-family="sans-serif" font-size="11" lengthAdjust="spacingAndGlyphs" text-decoration="underline" textLength="160" x="26" y="79.8198">serverAddress: InetAddress</text><line style="stroke: #000000; stroke-width: 1.0;" x1="26" x2="186" y1="81.8198" y2="81.8198"/><ellipse cx="17" cy="90.3164" fill="none" rx="3" ry="3" style="stroke: #038048; stroke-width: 1.0;"/><text fill="#000000" font-family="sans-serif" font-size="11" lengthAdjust="spacingAndGlyphs" text-decoration="underline" textLength="112" x="26" y="92.6245">serverName: String</text><line style="stroke: #000000; stroke-width: 1.0;" x1="26" x2="138" y1="94.6245" y2="94.6245"/><ellipse cx="17" cy="103.1211" fill="none" rx="3" ry="3" style="stroke: #038048; stroke-width: 1.0;"/><text fill="#000000" font-family="sans-serif" font-size="11" lengthAdjust="spacingAndGlyphs" text-decoration="underline" textLength="97" x="26" y="105.4292">SUCCESS: String</text><line style="stroke: #000000; stroke-width: 1.0;" x1="26" x2="123" y1="107.4292" y2="107.4292"/><ellipse cx="17" cy="115.9258" fill="none" rx="3" ry="3" style="stroke: #038048; stroke-width: 1.0;"/><text fill="#000000" font-family="sans-serif" font-size="11" lengthAdjust="spacingAndGlyphs" text-decoration="underline" textLength="79" x="26" y="118.2339">ERROR: String</text><line style="stroke: #000000; stroke-width: 1.0;" x1="26" x2="105" y1="120.2339" y2="120.2339"/><ellipse cx="17" cy="128.7305" fill="none" rx="3" ry="3" style="stroke: #038048; stroke-width: 1.0;"/><text fill="#000000" font-family="sans-serif" font-size="11" lengthAdjust="spacingAndGlyphs" text-decoration="underline" textLength="191" x="26" y="131.0386">SEND_FIRST_CONNECTION: String</text><line style="stroke: #000000; stroke-width: 1.0;" x1="26" x2="217" y1="133.0386" y2="133.0386"/><ellipse cx="17" cy="141.5352" fill="none" rx="3" ry="3" style="stroke: #038048; stroke-width: 1.0;"/><text fill="#000000" font-family="sans-serif" font-size="11" lengthAdjust="spacingAndGlyphs" text-decoration="underline" textLength="137" x="26" y="143.8433">TRACK_REQUEST: String</text><line style="stroke: #000000; stroke-width: 1.0;" x1="26" x2="163" y1="145.8433" y2="145.8433"/><ellipse cx="17" cy="154.3398" fill="none" rx="3" ry="3" style="stroke: #038048; stroke-width: 1.0;"/><text fill="#000000" font-family="sans-serif" font-size="11" lengthAdjust="spacingAndGlyphs" text-decoration="underline" textLength="143" x="26" y="156.6479">TRACK_ACCEPTED: String</text><line style="stroke: #000000; stroke-width: 1.0;" x1="26" x2="169" y1="158.6479" y2="158.6479"/><ellipse cx="17" cy="167.1445" fill="none" rx="3" ry="3" style="stroke: #038048; stroke-width: 1.0;"/><text fill="#000000" font-family="sans-serif" font-size="11" lengthAdjust="spacingAndGlyphs" text-decoration="underline" textLength="135" x="26" y="169.4526">TRACK_REFUSED: String</text><line style="stroke: #000000; stroke-width: 1.0;" x1="26" x2="161" y1="171.4526" y2="171.4526"/><ellipse cx="17" cy="179.9492" fill="none" rx="3" ry="3" style="stroke: #038048; stroke-width: 1.0;"/><text fill="#000000" font-family="sans-serif" font-size="11" lengthAdjust="spacingAndGlyphs" text-decoration="underline" textLength="121" x="26" y="182.2573">TRACK_SAVED: String</text><line style="stroke: #000000; stroke-width: 1.0;" x1="26" x2="147" y1="184.2573" y2="184.2573"/><ellipse cx="17" cy="192.7539" fill="none" rx="3" ry="3" style="stroke: #038048; stroke-width: 1.0;"/><text fill="#000000" font-family="sans-serif" font-size="11" lengthAdjust="spacingAndGlyphs" text-decoration="underline" textLength="135" x="26" y="195.062">SENDING_TRACK: String</text><line style="stroke: #000000; stroke-width: 1.0;" x1="26" x2="161" y1="197.062" y2="197.062"/><ellipse cx="17" cy="205.5586" fill="none" rx="3" ry="3" style="stroke: #038048; stroke-width: 1.0;"/><text fill="#000000" font-family="sans-serif" font-size="11" lengthAdjust="spacingAndGlyphs" text-decoration="underline" textLength="225" x="26" y="207.8667">SEND_UPVOTE_TRACK_REQUEST: String</text><line style="stroke: #000000; stroke-width: 1.0;" x1="26" x2="251" y1="209.8667" y2="209.8667"/><ellipse cx="17" cy="218.3633" fill="none" rx="3" ry="3" style="stroke: #038048; stroke-width: 1.0;"/><text fill="#000000" font-family="sans-serif" font-size="11" lengthAdjust="spacingAndGlyphs" text-decoration="underline" textLength="244" x="26" y="220.6714">SEND_DOWNVOTE_TRACK_REQUEST: String</text><line style="stroke: #000000; stroke-width: 1.0;" x1="26" x2="270" y1="222.6714" y2="222.6714"/><ellipse cx="17" cy="231.168" fill="none" rx="3" ry="3" style="stroke: #038048; stroke-width: 1.0;"/><text fill="#000000" font-family="sans-serif" font-size="11" lengthAdjust="spacingAndGlyphs" text-decoration="underline" textLength="188" x="26" y="233.4761">UPVOTE_TRACK_REQUEST: String</text><line style="stroke: #000000; stroke-width: 1.0;" x1="26" x2="214" y1="235.4761" y2="235.4761"/><ellipse cx="17" cy="243.9727" fill="none" rx="3" ry="3" style="stroke: #038048; stroke-width: 1.0;"/><text fill="#000000" font-family="sans-serif" font-size="11" lengthAdjust="spacingAndGlyphs" text-decoration="underline" textLength="207" x="26" y="246.2808">DOWNVOTE_TRACK_REQUEST: String</text><line style="stroke: #000000; stroke-width: 1.0;" x1="26" x2="233" y1="248.2808" y2="248.2808"/><ellipse cx="17" cy="256.7773" fill="none" rx="3" ry="3" style="stroke: #038048; stroke-width: 1.0;"/><text fill="#000000" font-family="sans-serif" font-size="11" lengthAdjust="spacingAndGlyphs" text-decoration="underline" textLength="156" x="26" y="259.0854">TRACK_DOWNVOTED: String</text><line style="stroke: #000000; stroke-width: 1.0;" x1="26" x2="182" y1="261.0854" y2="261.0854"/><ellipse cx="17" cy="269.582" fill="none" rx="3" ry="3" style="stroke: #038048; stroke-width: 1.0;"/><text fill="#000000" font-family="sans-serif" font-size="11" lengthAdjust="spacingAndGlyphs" text-decoration="underline" textLength="137" x="26" y="271.8901">TRACK_UPVOTED: String</text><line style="stroke: #000000; stroke-width: 1.0;" x1="26" x2="163" y1="273.8901" y2="273.8901"/><ellipse cx="17" cy="282.3867" fill="none" rx="3" ry="3" style="stroke: #038048; stroke-width: 1.0;"/><text fill="#000000" font-family="sans-serif" font-size="11" lengthAdjust="spacingAndGlyphs" text-decoration="underline" textLength="143" x="26" y="284.6948">PLAYLIST_UPDATE: String</text><line style="stroke: #000000; stroke-width: 1.0;" x1="26" x2="169" y1="286.6948" y2="286.6948"/><ellipse cx="17" cy="295.1914" fill="none" rx="3" ry="3" style="stroke: #038048; stroke-width: 1.0;"/><text fill="#000000" font-family="sans-serif" font-size="11" lengthAdjust="spacingAndGlyphs" text-decoration="underline" textLength="156" x="26" y="297.4995">NEW_ACTIVE_CLIENT: String</text><line style="stroke: #000000; stroke-width: 1.0;" x1="26" x2="182" y1="299.4995" y2="299.4995"/><ellipse cx="17" cy="307.9961" fill="none" rx="3" ry="3" style="stroke: #038048; stroke-width: 1.0;"/><text fill="#000000" font-family="sans-serif" font-size="11" lengthAdjust="spacingAndGlyphs" text-decoration="underline" textLength="180" x="26" y="310.3042">SEND_PLAYLIST_UPDATE: String</text><line style="stroke: #000000; stroke-width: 1.0;" x1="26" x2="206" y1="312.3042" y2="312.3042"/><ellipse cx="17" cy="320.8008" fill="none" rx="3" ry="3" style="stroke: #038048; stroke-width: 1.0;"/><text fill="#000000" font-family="sans-serif" font-size="11" lengthAdjust="spacingAndGlyphs" text-decoration="underline" textLength="174" x="26" y="323.1089">SEND_TRACK_REQUEST: String</text><line style="stroke: #000000; stroke-width: 1.0;" x1="26" x2="200" y1="325.1089" y2="325.1089"/><ellipse cx="17" cy="333.6055" fill="none" rx="3" ry="3" style="stroke: #038048; stroke-width: 1.0;"/><text fill="#000000" font-family="sans-serif" font-size="11" lengthAdjust="spacingAndGlyphs" text-decoration="underline" textLength="208" x="26" y="335.9136">SEND_PLAY_PAUSE_REQUEST: String</text><line style="stroke: #000000; stroke-width: 1.0;" x1="26" x2="234" y1="337.9136" y2="337.9136"/><ellipse cx="17" cy="346.4102" fill="none" rx="3" ry="3" style="stroke: #038048; stroke-width: 1.0;"/><text fill="#000000" font-family="sans-serif" font-size="11" lengthAdjust="spacingAndGlyphs" text-decoration="underline" textLength="171" x="26" y="348.7183">PLAY_PAUSE_REQUEST: String</text><line style="stroke: #000000; stroke-width: 1.0;" x1="26" x2="197" y1="350.7183" y2="350.7183"/><ellipse cx="17" cy="359.2148" fill="none" rx="3" ry="3" style="stroke: #038048; stroke-width: 1.0;"/><text fill="#000000" font-family="sans-serif" font-size="11" lengthAdjust="spacingAndGlyphs" text-decoration="underline" textLength="69" x="26" y="361.5229">PLAY: String</text><line style="stroke: #000000; stroke-width: 1.0;" x1="26" x2="95" y1="363.5229" y2="363.5229"/><ellipse cx="17" cy="372.0195" fill="none" rx="3" ry="3" style="stroke: #038048; stroke-width: 1.0;"/><text fill="#000000" font-family="sans-serif" font-size="11" lengthAdjust="spacingAndGlyphs" text-decoration="underline" textLength="79" x="26" y="374.3276">PAUSE: String</text><line style="stroke: #000000; stroke-width: 1.0;" x1="26" x2="105" y1="376.3276" y2="376.3276"/><ellipse cx="17" cy="384.8242" fill="none" rx="3" ry="3" style="stroke: #038048; stroke-width: 1.0;"/><text fill="#000000" font-family="sans-serif" font-size="11" lengthAdjust="spacingAndGlyphs" text-decoration="underline" textLength="209" x="26" y="387.1323">SEND_NEXT_TRACK_REQUEST: String</text><line style="stroke: #000000; stroke-width: 1.0;" x1="26" x2="235" y1="389.1323" y2="389.1323"/><ellipse cx="17" cy="397.6289" fill="none" rx="3" ry="3" style="stroke: #038048; stroke-width: 1.0;"/><text fill="#000000" font-family="sans-serif" font-size="11" lengthAdjust="spacingAndGlyphs" text-decoration="underline" textLength="172" x="26" y="399.937">NEXT_TRACK_REQUEST: String</text><line style="stroke: #000000; stroke-width: 1.0;" x1="26" x2="198" y1="401.937" y2="401.937"/><ellipse cx="17" cy="410.4336" fill="none" rx="3" ry="3" style="stroke: #038048; stroke-width: 1.0;"/><text fill="#000000" font-family="sans-serif" font-size="11" lengthAdjust="spacingAndGlyphs" text-decoration="underline" textLength="236" x="26" y="412.7417">SEND_PREVIOUS_TRACK_REQUEST: String</text><line style="stroke: #000000; stroke-width: 1.0;" x1="26" x2="262" y1="414.7417" y2="414.7417"/><ellipse cx="17" cy="423.2383" fill="none" rx="3" ry="3" style="stroke: #038048; stroke-width: 1.0;"/><text fill="#000000" font-family="sans-serif" font-size="11" lengthAdjust="spacingAndGlyphs" text-decoration="underline" textLength="199" x="26" y="425.5464">PREVIOUS_TRACK_REQUEST: String</text><line style="stroke: #000000; stroke-width: 1.0;" x1="26" x2="225" y1="427.5464" y2="427.5464"/><ellipse cx="17" cy="436.043" fill="none" rx="3" ry="3" style="stroke: #038048; stroke-width: 1.0;"/><text fill="#000000" font-family="sans-serif" font-size="11" lengthAdjust="spacingAndGlyphs" text-decoration="underline" textLength="241" x="26" y="438.3511">SEND_TURN_VOLUME_UP_REQUEST: String</text><line style="stroke: #000000; stroke-width: 1.0;" x1="26" x2="267" y1="440.3511" y2="440.3511"/><ellipse cx="17" cy="448.8477" fill="none" rx="3" ry="3" style="stroke: #038048; stroke-width: 1.0;"/><text fill="#000000" font-family="sans-serif" font-size="11" lengthAdjust="spacingAndGlyphs" text-decoration="underline" textLength="204" x="26" y="451.1558">TURN_VOLUME_UP_REQUEST: String</text><line style="stroke: #000000; stroke-width: 1.0;" x1="26" x2="230" y1="453.1558" y2="453.1558"/><ellipse cx="17" cy="461.6523" fill="none" rx="3" ry="3" style="stroke: #038048; stroke-width: 1.0;"/><text fill="#000000" font-family="sans-serif" font-size="11" lengthAdjust="spacingAndGlyphs" text-decoration="underline" textLength="160" x="26" y="463.9604">VOLUME_TURNED_UP: String</text><line style="stroke: #000000; stroke-width: 1.0;" x1="26" x2="186" y1="465.9604" y2="465.9604"/><ellipse cx="17" cy="474.457" fill="none" rx="3" ry="3" style="stroke: #038048; stroke-width: 1.0;"/><text fill="#000000" font-family="sans-serif" font-size="11" lengthAdjust="spacingAndGlyphs" text-decoration="underline" textLength="260" x="26" y="476.7651">SEND_TURN_VOLUME_DOWN_REQUEST: String</text><line style="stroke: #000000; stroke-width: 1.0;" x1="26" x2="286" y1="478.7651" y2="478.7651"/><ellipse cx="17" cy="487.2617" fill="none" rx="3" ry="3" style="stroke: #038048; stroke-width: 1.0;"/><text fill="#000000" font-family="sans-serif" font-size="11" lengthAdjust="spacingAndGlyphs" text-decoration="underline" textLength="223" x="26" y="489.5698">TURN_VOLUME_DOWN_REQUEST: String</text><line style="stroke: #000000; stroke-width: 1.0;" x1="26" x2="249" y1="491.5698" y2="491.5698"/><ellipse cx="17" cy="500.0664" fill="none" rx="3" ry="3" style="stroke: #038048; stroke-width: 1.0;"/><text fill="#000000" font-family="sans-serif" font-size="11" lengthAdjust="spacingAndGlyphs" text-decoration="underline" textLength="179" x="26" y="502.3745">VOLUME_TURNED_DOWN: String</text><line style="stroke: #000000; stroke-width: 1.0;" x1="26" x2="205" y1="504.3745" y2="504.3745"/><ellipse cx="17" cy="512.8711" fill="none" rx="3" ry="3" style="stroke: #038048; stroke-width: 1.0;"/><text fill="#000000" font-family="sans-serif" font-size="11" lengthAdjust="spacingAndGlyphs" text-decoration="underline" textLength="133" x="26" y="515.1792">SUCCESS_VOTE: String</text><line style="stroke: #000000; stroke-width: 1.0;" x1="26" x2="159" y1="517.1792" y2="517.1792"/><ellipse cx="17" cy="525.6758" fill="none" rx="3" ry="3" style="stroke: #038048; stroke-width: 1.0;"/><text fill="#000000" font-family="sans-serif" font-size="11" lengthAdjust="spacingAndGlyphs" text-decoration="underline" textLength="115" x="26" y="527.9839">ERROR_VOTE: String</text><line style="stroke: #000000; stroke-width: 1.0;" x1="26" x2="141" y1="529.9839" y2="529.9839"/><ellipse cx="17" cy="538.4805" fill="none" rx="3" ry="3" style="stroke: #038048; stroke-width: 1.0;"/><text fill="#000000" font-family="sans-serif" font-size="11" lengthAdjust="spacingAndGlyphs" text-decoration="underline" textLength="191" x="26" y="540.7886">ERROR_DURING_TRANSFER: String</text><line style="stroke: #000000; stroke-width: 1.0;" x1="26" x2="217" y1="542.7886" y2="542.7886"/><ellipse cx="17" cy="551.2852" fill="none" rx="3" ry="3" style="stroke: #038048; stroke-width: 1.0;"/><text fill="#000000" font-family="sans-serif" font-size="11" lengthAdjust="spacingAndGlyphs" text-decoration="underline" textLength="211" x="26" y="553.5933">ERROR_FILE_NOT_SUPPORTED: String</text><line style="stroke: #000000; stroke-width: 1.0;" x1="26" x2="237" y1="555.5933" y2="555.5933"/><line style="stroke: #A80036; stroke-width: 1.5;" x1="7" x2="291" y1="560.1875" y2="560.1875"/></a></g></svg>