<?xml version="1.0" encoding="UTF-8" standalone="no"?><svg xmlns="http://www.w3.org/2000/svg" xmlns:xlink="http://www.w3.org/1999/xlink" contentScriptType="application/ecmascript" contentStyleType="text/css" height="141px" preserveAspectRatio="none" style="width:281px;height:141px;" version="1.1" viewBox="0 0 281 141" width="281px" zoomAndPan="magnify"><defs><filter height="300%" id="f9b2ady" width="300%" x="-1" y="-1"><feGaussianBlur result="blurOut" stdDeviation="2.0"/><feColorMatrix in="blurOut" result="blurOut2" type="matrix" values="0 0 0 0 0 0 0 0 0 0 0 0 0 0 0 0 0 0 .4 0"/><feOffset dx="4.0" dy="4.0" in="blurOut2" result="blurOut3"/><feBlend in="SourceGraphic" in2="blurOut3" mode="normal"/></filter></defs><g><!--class Core--><a target="_top" xlink:actuate="onRequest" xlink:href="Core.html" xlink:show="new" xlink:title="Core.html" xlink:type="simple"><rect fill="#FEFECE" filter="url(#f9b2ady)" height="124.8281" style="stroke: #A80036; stroke-width: 1.5;" width="266" x="6" y="8"/><ellipse cx="120.25" cy="24" fill="#ADD1B2" rx="11" ry="11" style="stroke: #A80036; stroke-width: 1.0;"/><path d="M123.2188,29.6406 Q122.6406,29.9375 122,30.0859 Q121.3594,30.2344 120.6563,30.2344 Q118.1563,30.2344 116.8359,28.5859 Q115.5156,26.9375 115.5156,23.8125 Q115.5156,20.6875 116.8359,19.0313 Q118.1563,17.375 120.6563,17.375 Q121.3594,17.375 122.0078,17.5313 Q122.6563,17.6875 123.2188,17.9844 L123.2188,20.7031 Q122.5938,20.125 122,19.8516 Q121.4063,19.5781 120.7813,19.5781 Q119.4375,19.5781 118.75,20.6484 Q118.0625,21.7188 118.0625,23.8125 Q118.0625,25.9063 118.75,26.9766 Q119.4375,28.0469 120.7813,28.0469 Q121.4063,28.0469 122,27.7734 Q122.5938,27.5 123.2188,26.9219 L123.2188,29.6406 Z "/><text fill="#000000" font-family="sans-serif" font-size="12" lengthAdjust="spacingAndGlyphs" textLength="29" x="140.75" y="28.1543">Core</text><line style="stroke: #A80036; stroke-width: 1.5;" x1="7" x2="271" y1="40" y2="40"/><rect fill="none" height="6" style="stroke: #C82930; stroke-width: 1.0;" width="6" x="14" y="48.9023"/><text fill="#000000" font-family="sans-serif" font-size="11" lengthAdjust="spacingAndGlyphs" text-decoration="underline" textLength="130" x="26" y="54.2104">instance: AbstractCore</text><line style="stroke: #000000; stroke-width: 1.0;" x1="26" x2="156" y1="56.2104" y2="56.2104"/><line style="stroke: #A80036; stroke-width: 1.5;" x1="7" x2="271" y1="60.8047" y2="60.8047"/><ellipse cx="17" cy="72.707" fill="#84BE84" rx="3" ry="3" style="stroke: #038048; stroke-width: 1.0;"/><text fill="#000000" font-family="sans-serif" font-size="11" lengthAdjust="spacingAndGlyphs" text-decoration="underline" textLength="240" x="26" y="75.0151">execute(String, ArrayList&lt;Object&gt;): String</text><line style="stroke: #000000; stroke-width: 1.0;" x1="26" x2="266" y1="77.0151" y2="77.0151"/><ellipse cx="17" cy="85.5117" fill="#84BE84" rx="3" ry="3" style="stroke: #038048; stroke-width: 1.0;"/><text fill="#000000" font-family="sans-serif" font-size="11" lengthAdjust="spacingAndGlyphs" text-decoration="underline" textLength="109" x="26" y="87.8198">isServer(): boolean</text><line style="stroke: #000000; stroke-width: 1.0;" x1="26" x2="135" y1="89.8198" y2="89.8198"/><ellipse cx="17" cy="98.3164" fill="#84BE84" rx="3" ry="3" style="stroke: #038048; stroke-width: 1.0;"/><text fill="#000000" font-family="sans-serif" font-size="11" lengthAdjust="spacingAndGlyphs" text-decoration="underline" textLength="123" x="26" y="100.6245">setupAsServer(): void</text><line style="stroke: #000000; stroke-width: 1.0;" x1="26" x2="149" y1="102.6245" y2="102.6245"/><ellipse cx="17" cy="111.1211" fill="#84BE84" rx="3" ry="3" style="stroke: #038048; stroke-width: 1.0;"/><text fill="#000000" font-family="sans-serif" font-size="11" lengthAdjust="spacingAndGlyphs" text-decoration="underline" textLength="117" x="26" y="113.4292">setupAsClient(): void</text><line style="stroke: #000000; stroke-width: 1.0;" x1="26" x2="143" y1="115.4292" y2="115.4292"/><ellipse cx="17" cy="123.9258" fill="#84BE84" rx="3" ry="3" style="stroke: #038048; stroke-width: 1.0;"/><text fill="#000000" font-family="sans-serif" font-size="11" lengthAdjust="spacingAndGlyphs" text-decoration="underline" textLength="64" x="26" y="126.2339">stop(): void</text><line style="stroke: #000000; stroke-width: 1.0;" x1="26" x2="90" y1="128.2339" y2="128.2339"/></a></g></svg>