<?xml version="1.0" encoding="UTF-8" standalone="no"?><svg xmlns="http://www.w3.org/2000/svg" xmlns:xlink="http://www.w3.org/1999/xlink" contentScriptType="application/ecmascript" contentStyleType="text/css" height="103px" preserveAspectRatio="none" style="width:257px;height:103px;" version="1.1" viewBox="0 0 257 103" width="257px" zoomAndPan="magnify"><defs><filter height="300%" id="fbppo3i" width="300%" x="-1" y="-1"><feGaussianBlur result="blurOut" stdDeviation="2.0"/><feColorMatrix in="blurOut" result="blurOut2" type="matrix" values="0 0 0 0 0 0 0 0 0 0 0 0 0 0 0 0 0 0 .4 0"/><feOffset dx="4.0" dy="4.0" in="blurOut2" result="blurOut3"/><feBlend in="SourceGraphic" in2="blurOut3" mode="normal"/></filter></defs><g><!--class ICore--><a target="_top" xlink:actuate="onRequest" xlink:href="ICore.html" xlink:show="new" xlink:title="ICore.html" xlink:type="simple"><rect fill="#FEFECE" filter="url(#fbppo3i)" height="86.4141" style="stroke: #A80036; stroke-width: 1.5;" width="242" x="6" y="8"/><ellipse cx="106.25" cy="24" fill="#B4A7E5" rx="11" ry="11" style="stroke: #A80036; stroke-width: 1.0;"/><path d="M102.1719,19.7656 L102.1719,17.6094 L109.5625,17.6094 L109.5625,19.7656 L107.0938,19.7656 L107.0938,27.8438 L109.5625,27.8438 L109.5625,30 L102.1719,30 L102.1719,27.8438 L104.6406,27.8438 L104.6406,19.7656 L102.1719,19.7656 Z "/><text fill="#000000" font-family="sans-serif" font-size="12" font-style="italic" lengthAdjust="spacingAndGlyphs" textLength="33" x="126.75" y="28.1543">ICore</text><line style="stroke: #A80036; stroke-width: 1.5;" x1="7" x2="247" y1="40" y2="40"/><line style="stroke: #A80036; stroke-width: 1.5;" x1="7" x2="247" y1="48" y2="48"/><ellipse cx="17" cy="59.9023" fill="#84BE84" rx="3" ry="3" style="stroke: #038048; stroke-width: 1.0;"/><text fill="#000000" font-family="sans-serif" font-size="11" font-style="italic" lengthAdjust="spacingAndGlyphs" textLength="216" x="26" y="62.2104">sendUnicast(InetAddress, String): void</text><ellipse cx="17" cy="72.707" fill="#84BE84" rx="3" ry="3" style="stroke: #038048; stroke-width: 1.0;"/><text fill="#000000" font-family="sans-serif" font-size="11" font-style="italic" lengthAdjust="spacingAndGlyphs" textLength="149" x="26" y="75.0151">sendMulticast(String): void</text><ellipse cx="17" cy="85.5117" fill="#84BE84" rx="3" ry="3" style="stroke: #038048; stroke-width: 1.0;"/><text fill="#000000" font-family="sans-serif" font-size="11" font-style="italic" lengthAdjust="spacingAndGlyphs" textLength="64" x="26" y="87.8198">stop(): void</text></a></g></svg>