<?xml version="1.0" encoding="UTF-8" standalone="no"?><svg xmlns="http://www.w3.org/2000/svg" xmlns:xlink="http://www.w3.org/1999/xlink" contentScriptType="application/ecmascript" contentStyleType="text/css" height="1121px" preserveAspectRatio="none" style="width:1226px;height:1121px;" version="1.1" viewBox="0 0 1226 1121" width="1226px" zoomAndPan="magnify"><defs><filter height="300%" id="fi0ywcw" width="300%" x="-1" y="-1"><feGaussianBlur result="blurOut" stdDeviation="2.0"/><feColorMatrix in="blurOut" result="blurOut2" type="matrix" values="0 0 0 0 0 0 0 0 0 0 0 0 0 0 0 0 0 0 .4 0"/><feOffset dx="4.0" dy="4.0" in="blurOut2" result="blurOut3"/><feBlend in="SourceGraphic" in2="blurOut3" mode="normal"/></filter></defs><g><!--cluster ch.tofind.commusica.core--><polygon fill="#FFFFFF" filter="url(#fi0ywcw)" points="22,24,232,24,239,46.2969,1219,46.2969,1219,1114,22,1114,22,24" style="stroke: #000000; stroke-width: 2.0;"/><line style="stroke: #000000; stroke-width: 2.0;" x1="22" x2="239" y1="46.2969" y2="46.2969"/><text fill="#000000" font-family="sans-serif" font-size="14" font-weight="bold" lengthAdjust="spacingAndGlyphs" textLength="204" x="26" y="38.9951">ch.tofind.commusica.core</text><!--class ch.tofind.commusica.core.AbstractCore--><a target="_top" xlink:actuate="onRequest" xlink:href="AbstractCore.html" xlink:show="new" xlink:title="AbstractCore.html" xlink:type="simple"><rect fill="#FEFECE" filter="url(#fi0ywcw)" height="124.8281" style="stroke: #A80036; stroke-width: 1.5;" width="266" x="937" y="276.5"/><ellipse cx="1025.25" cy="292.5" fill="#A9DCDF" rx="11" ry="11" style="stroke: #A80036; stroke-width: 1.0;"/><path d="M1025.3594,287.8438 L1024.2031,292.9219 L1026.5313,292.9219 L1025.3594,287.8438 Z M1023.875,285.6094 L1026.8594,285.6094 L1030.2188,298 L1027.7656,298 L1027,294.9375 L1023.7188,294.9375 L1022.9688,298 L1020.5313,298 L1023.875,285.6094 Z "/><text fill="#000000" font-family="sans-serif" font-size="12" font-style="italic" lengthAdjust="spacingAndGlyphs" textLength="81" x="1045.75" y="296.6543">AbstractCore</text><line style="stroke: #A80036; stroke-width: 1.5;" x1="938" x2="1202" y1="308.5" y2="308.5"/><rect fill="none" height="6" style="stroke: #C82930; stroke-width: 1.0;" width="6" x="945" y="317.4023"/><text fill="#000000" font-family="sans-serif" font-size="11" lengthAdjust="spacingAndGlyphs" text-decoration="underline" textLength="71" x="957" y="322.7104">LOG: Logger</text><line style="stroke: #000000; stroke-width: 1.0;" x1="957" x2="1028" y1="324.7104" y2="324.7104"/><line style="stroke: #A80036; stroke-width: 1.5;" x1="938" x2="1202" y1="329.3047" y2="329.3047"/><ellipse cx="948" cy="341.207" fill="#84BE84" rx="3" ry="3" style="stroke: #038048; stroke-width: 1.0;"/><text fill="#000000" font-family="sans-serif" font-size="11" lengthAdjust="spacingAndGlyphs" textLength="240" x="957" y="343.5151">execute(String, ArrayList&lt;Object&gt;): String</text><polygon fill="#4177AF" points="948,350.0117,944,356.0117,952,356.0117" style="stroke: #1963A0; stroke-width: 1.0;"/><text fill="#000000" font-family="sans-serif" font-size="11" font-style="italic" lengthAdjust="spacingAndGlyphs" textLength="216" x="957" y="356.3198">sendUnicast(InetAddress, String): void</text><polygon fill="#4177AF" points="948,362.8164,944,368.8164,952,368.8164" style="stroke: #1963A0; stroke-width: 1.0;"/><text fill="#000000" font-family="sans-serif" font-size="11" font-style="italic" lengthAdjust="spacingAndGlyphs" textLength="149" x="957" y="369.1245">sendMulticast(String): void</text><polygon fill="#4177AF" points="948,375.6211,944,381.6211,952,381.6211" style="stroke: #1963A0; stroke-width: 1.0;"/><text fill="#000000" font-family="sans-serif" font-size="11" font-style="italic" lengthAdjust="spacingAndGlyphs" textLength="64" x="957" y="381.9292">stop(): void</text><polygon fill="#4177AF" points="948,388.4258,944,394.4258,952,394.4258" style="stroke: #1963A0; stroke-width: 1.0;"/><text fill="#000000" font-family="sans-serif" font-size="11" font-style="italic" lengthAdjust="spacingAndGlyphs" textLength="108" x="957" y="394.7339">isServer(): boolean</text></a><!--class ch.tofind.commusica.core.ServerCore--><a target="_top" xlink:actuate="onRequest" xlink:href="ServerCore.html" xlink:show="new" xlink:title="ServerCore.html" xlink:type="simple"><rect fill="#FEFECE" filter="url(#fi0ywcw)" height="419.3359" style="stroke: #A80036; stroke-width: 1.5;" width="398" x="205" y="679"/><ellipse cx="365.25" cy="695" fill="#ADD1B2" rx="11" ry="11" style="stroke: #A80036; stroke-width: 1.0;"/><path d="M368.2188,700.6406 Q367.6406,700.9375 367,701.0859 Q366.3594,701.2344 365.6563,701.2344 Q363.1563,701.2344 361.8359,699.5859 Q360.5156,697.9375 360.5156,694.8125 Q360.5156,691.6875 361.8359,690.0313 Q363.1563,688.375 365.6563,688.375 Q366.3594,688.375 367.0078,688.5313 Q367.6563,688.6875 368.2188,688.9844 L368.2188,691.7031 Q367.5938,691.125 367,690.8516 Q366.4063,690.5781 365.7813,690.5781 Q364.4375,690.5781 363.75,691.6484 Q363.0625,692.7188 363.0625,694.8125 Q363.0625,696.9063 363.75,697.9766 Q364.4375,699.0469 365.7813,699.0469 Q366.4063,699.0469 367,698.7734 Q367.5938,698.5 368.2188,697.9219 L368.2188,700.6406 Z "/><text fill="#000000" font-family="sans-serif" font-size="12" lengthAdjust="spacingAndGlyphs" textLength="69" x="385.75" y="699.1543">ServerCore</text><line style="stroke: #A80036; stroke-width: 1.5;" x1="206" x2="602" y1="711" y2="711"/><rect fill="none" height="6" style="stroke: #C82930; stroke-width: 1.0;" width="6" x="213" y="719.9023"/><text fill="#000000" font-family="sans-serif" font-size="11" lengthAdjust="spacingAndGlyphs" text-decoration="underline" textLength="71" x="225" y="725.2104">LOG: Logger</text><line style="stroke: #000000; stroke-width: 1.0;" x1="225" x2="296" y1="727.2104" y2="727.2104"/><rect fill="none" height="6" style="stroke: #C82930; stroke-width: 1.0;" width="6" x="213" y="732.707"/><text fill="#000000" font-family="sans-serif" font-size="11" lengthAdjust="spacingAndGlyphs" text-decoration="underline" textLength="205" x="225" y="738.0151">TIME_BEFORE_PLAYLIST_UPDATE: int</text><line style="stroke: #000000; stroke-width: 1.0;" x1="225" x2="430" y1="740.0151" y2="740.0151"/><rect fill="none" height="6" style="stroke: #C82930; stroke-width: 1.0;" width="6" x="213" y="745.5117"/><text fill="#000000" font-family="sans-serif" font-size="11" lengthAdjust="spacingAndGlyphs" text-decoration="underline" textLength="74" x="225" y="750.8198">name: String</text><line style="stroke: #000000; stroke-width: 1.0;" x1="225" x2="299" y1="752.8198" y2="752.8198"/><rect fill="none" height="6" style="stroke: #C82930; stroke-width: 1.0;" width="6" x="213" y="758.3164"/><text fill="#000000" font-family="sans-serif" font-size="11" lengthAdjust="spacingAndGlyphs" textLength="142" x="225" y="763.6245">multicast: MulticastClient</text><rect fill="none" height="6" style="stroke: #C82930; stroke-width: 1.0;" width="6" x="213" y="771.1211"/><text fill="#000000" font-family="sans-serif" font-size="11" lengthAdjust="spacingAndGlyphs" textLength="83" x="225" y="776.4292">server: Server</text><rect fill="none" height="6" style="stroke: #C82930; stroke-width: 1.0;" width="6" x="213" y="783.9258"/><text fill="#000000" font-family="sans-serif" font-size="11" lengthAdjust="spacingAndGlyphs" textLength="251" x="225" y="789.2339">userSessionManager: UserSessionManager</text><rect fill="none" height="6" style="stroke: #C82930; stroke-width: 1.0;" width="6" x="213" y="796.7305"/><text fill="#000000" font-family="sans-serif" font-size="11" lengthAdjust="spacingAndGlyphs" textLength="255" x="225" y="802.0386">broadcastPlaylist: ScheduledExecutorService</text><line style="stroke: #A80036; stroke-width: 1.5;" x1="206" x2="602" y1="808.6328" y2="808.6328"/><ellipse cx="216" cy="820.5352" fill="#84BE84" rx="3" ry="3" style="stroke: #038048; stroke-width: 1.0;"/><text fill="#000000" font-family="sans-serif" font-size="11" lengthAdjust="spacingAndGlyphs" textLength="300" x="225" y="822.8433">END_OF_COMMUNICATION(ArrayList&lt;Object&gt;): String</text><ellipse cx="216" cy="833.3398" fill="#84BE84" rx="3" ry="3" style="stroke: #038048; stroke-width: 1.0;"/><text fill="#000000" font-family="sans-serif" font-size="11" lengthAdjust="spacingAndGlyphs" textLength="292" x="225" y="835.6479">SEND_PLAYLIST_UPDATE(ArrayList&lt;Object&gt;): String</text><ellipse cx="216" cy="846.1445" fill="#84BE84" rx="3" ry="3" style="stroke: #038048; stroke-width: 1.0;"/><text fill="#000000" font-family="sans-serif" font-size="11" lengthAdjust="spacingAndGlyphs" textLength="268" x="225" y="848.4526">NEW_ACTIVE_CLIENT(ArrayList&lt;Object&gt;): String</text><ellipse cx="216" cy="858.9492" fill="#84BE84" rx="3" ry="3" style="stroke: #038048; stroke-width: 1.0;"/><text fill="#000000" font-family="sans-serif" font-size="11" lengthAdjust="spacingAndGlyphs" textLength="249" x="225" y="861.2573">TRACK_REQUEST(ArrayList&lt;Object&gt;): String</text><ellipse cx="216" cy="871.7539" fill="#84BE84" rx="3" ry="3" style="stroke: #038048; stroke-width: 1.0;"/><text fill="#000000" font-family="sans-serif" font-size="11" lengthAdjust="spacingAndGlyphs" textLength="247" x="225" y="874.062">SENDING_TRACK(ArrayList&lt;Object&gt;): String</text><ellipse cx="216" cy="884.5586" fill="#84BE84" rx="3" ry="3" style="stroke: #038048; stroke-width: 1.0;"/><text fill="#000000" font-family="sans-serif" font-size="11" lengthAdjust="spacingAndGlyphs" textLength="300" x="225" y="886.8667">UPVOTE_TRACK_REQUEST(ArrayList&lt;Object&gt;): String</text><ellipse cx="216" cy="897.3633" fill="#84BE84" rx="3" ry="3" style="stroke: #038048; stroke-width: 1.0;"/><text fill="#000000" font-family="sans-serif" font-size="11" lengthAdjust="spacingAndGlyphs" textLength="319" x="225" y="899.6714">DOWNVOTE_TRACK_REQUEST(ArrayList&lt;Object&gt;): String</text><ellipse cx="216" cy="910.168" fill="#84BE84" rx="3" ry="3" style="stroke: #038048; stroke-width: 1.0;"/><text fill="#000000" font-family="sans-serif" font-size="11" lengthAdjust="spacingAndGlyphs" textLength="321" x="225" y="912.4761">SEND_NEXT_TRACK_REQUEST(ArrayList&lt;Object&gt;): String</text><ellipse cx="216" cy="922.9727" fill="#84BE84" rx="3" ry="3" style="stroke: #038048; stroke-width: 1.0;"/><text fill="#000000" font-family="sans-serif" font-size="11" lengthAdjust="spacingAndGlyphs" textLength="320" x="225" y="925.2808">SEND_PLAY_PAUSE_REQUEST(ArrayList&lt;Object&gt;): String</text><ellipse cx="216" cy="935.7773" fill="#84BE84" rx="3" ry="3" style="stroke: #038048; stroke-width: 1.0;"/><text fill="#000000" font-family="sans-serif" font-size="11" lengthAdjust="spacingAndGlyphs" textLength="337" x="225" y="938.0854">SEND_UPVOTE_TRACK_REQUEST(ArrayList&lt;Object&gt;): String</text><ellipse cx="216" cy="948.582" fill="#84BE84" rx="3" ry="3" style="stroke: #038048; stroke-width: 1.0;"/><text fill="#000000" font-family="sans-serif" font-size="11" lengthAdjust="spacingAndGlyphs" textLength="356" x="225" y="950.8901">SEND_DOWNVOTE_TRACK_REQUEST(ArrayList&lt;Object&gt;): String</text><ellipse cx="216" cy="961.3867" fill="#84BE84" rx="3" ry="3" style="stroke: #038048; stroke-width: 1.0;"/><text fill="#000000" font-family="sans-serif" font-size="11" lengthAdjust="spacingAndGlyphs" textLength="283" x="225" y="963.6948">PLAY_PAUSE_REQUEST(ArrayList&lt;Object&gt;): String</text><ellipse cx="216" cy="974.1914" fill="#84BE84" rx="3" ry="3" style="stroke: #038048; stroke-width: 1.0;"/><text fill="#000000" font-family="sans-serif" font-size="11" lengthAdjust="spacingAndGlyphs" textLength="284" x="225" y="976.4995">NEXT_TRACK_REQUEST(ArrayList&lt;Object&gt;): String</text><ellipse cx="216" cy="986.9961" fill="#84BE84" rx="3" ry="3" style="stroke: #038048; stroke-width: 1.0;"/><text fill="#000000" font-family="sans-serif" font-size="11" lengthAdjust="spacingAndGlyphs" textLength="311" x="225" y="989.3042">PREVIOUS_TRACK_REQUEST(ArrayList&lt;Object&gt;): String</text><ellipse cx="216" cy="999.8008" fill="#84BE84" rx="3" ry="3" style="stroke: #038048; stroke-width: 1.0;"/><text fill="#000000" font-family="sans-serif" font-size="11" lengthAdjust="spacingAndGlyphs" textLength="353" x="225" y="1002.1089">SEND_TURN_VOLUME_UP_REQUEST(ArrayList&lt;Object&gt;): String</text><ellipse cx="216" cy="1012.6055" fill="#84BE84" rx="3" ry="3" style="stroke: #038048; stroke-width: 1.0;"/><text fill="#000000" font-family="sans-serif" font-size="11" lengthAdjust="spacingAndGlyphs" textLength="316" x="225" y="1014.9136">TURN_VOLUME_UP_REQUEST(ArrayList&lt;Object&gt;): String</text><ellipse cx="216" cy="1025.4102" fill="#84BE84" rx="3" ry="3" style="stroke: #038048; stroke-width: 1.0;"/><text fill="#000000" font-family="sans-serif" font-size="11" lengthAdjust="spacingAndGlyphs" textLength="372" x="225" y="1027.7183">SEND_TURN_VOLUME_DOWN_REQUEST(ArrayList&lt;Object&gt;): String</text><ellipse cx="216" cy="1038.2148" fill="#84BE84" rx="3" ry="3" style="stroke: #038048; stroke-width: 1.0;"/><text fill="#000000" font-family="sans-serif" font-size="11" lengthAdjust="spacingAndGlyphs" textLength="335" x="225" y="1040.5229">TURN_VOLUME_DOWN_REQUEST(ArrayList&lt;Object&gt;): String</text><ellipse cx="216" cy="1051.0195" fill="#84BE84" rx="3" ry="3" style="stroke: #038048; stroke-width: 1.0;"/><text fill="#000000" font-family="sans-serif" font-size="11" lengthAdjust="spacingAndGlyphs" textLength="219" x="225" y="1053.3276">sendUnicast(InetAddress, String): void</text><ellipse cx="216" cy="1063.8242" fill="#84BE84" rx="3" ry="3" style="stroke: #038048; stroke-width: 1.0;"/><text fill="#000000" font-family="sans-serif" font-size="11" lengthAdjust="spacingAndGlyphs" textLength="151" x="225" y="1066.1323">sendMulticast(String): void</text><ellipse cx="216" cy="1076.6289" fill="#84BE84" rx="3" ry="3" style="stroke: #038048; stroke-width: 1.0;"/><text fill="#000000" font-family="sans-serif" font-size="11" lengthAdjust="spacingAndGlyphs" textLength="64" x="225" y="1078.937">stop(): void</text><ellipse cx="216" cy="1089.4336" fill="#84BE84" rx="3" ry="3" style="stroke: #038048; stroke-width: 1.0;"/><text fill="#000000" font-family="sans-serif" font-size="11" lengthAdjust="spacingAndGlyphs" textLength="109" x="225" y="1091.7417">isServer(): boolean</text></a><!--class ch.tofind.commusica.core.ClientCore--><a target="_top" xlink:actuate="onRequest" xlink:href="ClientCore.html" xlink:show="new" xlink:title="ClientCore.html" xlink:type="simple"><rect fill="#FEFECE" filter="url(#fi0ywcw)" height="419.3359" style="stroke: #A80036; stroke-width: 1.5;" width="398" x="721" y="679"/><ellipse cx="883.75" cy="695" fill="#ADD1B2" rx="11" ry="11" style="stroke: #A80036; stroke-width: 1.0;"/><path d="M886.7188,700.6406 Q886.1406,700.9375 885.5,701.0859 Q884.8594,701.2344 884.1563,701.2344 Q881.6563,701.2344 880.3359,699.5859 Q879.0156,697.9375 879.0156,694.8125 Q879.0156,691.6875 880.3359,690.0313 Q881.6563,688.375 884.1563,688.375 Q884.8594,688.375 885.5078,688.5313 Q886.1563,688.6875 886.7188,688.9844 L886.7188,691.7031 Q886.0938,691.125 885.5,690.8516 Q884.9063,690.5781 884.2813,690.5781 Q882.9375,690.5781 882.25,691.6484 Q881.5625,692.7188 881.5625,694.8125 Q881.5625,696.9063 882.25,697.9766 Q882.9375,699.0469 884.2813,699.0469 Q884.9063,699.0469 885.5,698.7734 Q886.0938,698.5 886.7188,697.9219 L886.7188,700.6406 Z "/><text fill="#000000" font-family="sans-serif" font-size="12" lengthAdjust="spacingAndGlyphs" textLength="64" x="904.25" y="699.1543">ClientCore</text><line style="stroke: #A80036; stroke-width: 1.5;" x1="722" x2="1118" y1="711" y2="711"/><rect fill="none" height="6" style="stroke: #C82930; stroke-width: 1.0;" width="6" x="729" y="719.9023"/><text fill="#000000" font-family="sans-serif" font-size="11" lengthAdjust="spacingAndGlyphs" text-decoration="underline" textLength="71" x="741" y="725.2104">LOG: Logger</text><line style="stroke: #000000; stroke-width: 1.0;" x1="741" x2="812" y1="727.2104" y2="727.2104"/><rect fill="none" height="6" style="stroke: #C82930; stroke-width: 1.0;" width="6" x="729" y="732.707"/><text fill="#000000" font-family="sans-serif" font-size="11" lengthAdjust="spacingAndGlyphs" textLength="142" x="741" y="738.0151">multicast: MulticastClient</text><rect fill="none" height="6" style="stroke: #C82930; stroke-width: 1.0;" width="6" x="729" y="745.5117"/><text fill="#000000" font-family="sans-serif" font-size="11" lengthAdjust="spacingAndGlyphs" textLength="112" x="741" y="750.8198">client: UnicastClient</text><rect fill="none" height="6" style="stroke: #C82930; stroke-width: 1.0;" width="6" x="729" y="758.3164"/><text fill="#000000" font-family="sans-serif" font-size="11" lengthAdjust="spacingAndGlyphs" textLength="87" x="741" y="763.6245">fileToSend: File</text><rect fill="none" height="6" style="stroke: #C82930; stroke-width: 1.0;" width="6" x="729" y="771.1211"/><text fill="#000000" font-family="sans-serif" font-size="11" lengthAdjust="spacingAndGlyphs" textLength="110" x="741" y="776.4292">trackToSend: Track</text><rect fill="none" height="6" style="stroke: #C82930; stroke-width: 1.0;" width="6" x="729" y="783.9258"/><text fill="#000000" font-family="sans-serif" font-size="11" lengthAdjust="spacingAndGlyphs" textLength="273" x="741" y="789.2339">serverSessionManager: ServerSessionManager</text><rect fill="none" height="6" style="stroke: #C82930; stroke-width: 1.0;" width="6" x="729" y="796.7305"/><text fill="#000000" font-family="sans-serif" font-size="11" lengthAdjust="spacingAndGlyphs" textLength="160" x="741" y="802.0386">threadPool: ExecutorService</text><line style="stroke: #A80036; stroke-width: 1.5;" x1="722" x2="1118" y1="808.6328" y2="808.6328"/><ellipse cx="732" cy="820.5352" fill="#84BE84" rx="3" ry="3" style="stroke: #038048; stroke-width: 1.0;"/><text fill="#000000" font-family="sans-serif" font-size="11" lengthAdjust="spacingAndGlyphs" textLength="300" x="741" y="822.8433">END_OF_COMMUNICATION(ArrayList&lt;Object&gt;): String</text><ellipse cx="732" cy="833.3398" fill="#84BE84" rx="3" ry="3" style="stroke: #038048; stroke-width: 1.0;"/><text fill="#000000" font-family="sans-serif" font-size="11" lengthAdjust="spacingAndGlyphs" textLength="255" x="741" y="835.6479">PLAYLIST_UPDATE(ArrayList&lt;Object&gt;): String</text><ellipse cx="732" cy="846.1445" fill="#84BE84" rx="3" ry="3" style="stroke: #038048; stroke-width: 1.0;"/><text fill="#000000" font-family="sans-serif" font-size="11" lengthAdjust="spacingAndGlyphs" textLength="303" x="741" y="848.4526">SEND_FIRST_CONNECTION(ArrayList&lt;Object&gt;): String</text><ellipse cx="732" cy="858.9492" fill="#84BE84" rx="3" ry="3" style="stroke: #038048; stroke-width: 1.0;"/><text fill="#000000" font-family="sans-serif" font-size="11" lengthAdjust="spacingAndGlyphs" textLength="286" x="741" y="861.2573">SEND_TRACK_REQUEST(ArrayList&lt;Object&gt;): String</text><ellipse cx="732" cy="871.7539" fill="#84BE84" rx="3" ry="3" style="stroke: #038048; stroke-width: 1.0;"/><text fill="#000000" font-family="sans-serif" font-size="11" lengthAdjust="spacingAndGlyphs" textLength="255" x="741" y="874.062">TRACK_ACCEPTED(ArrayList&lt;Object&gt;): String</text><ellipse cx="732" cy="884.5586" fill="#84BE84" rx="3" ry="3" style="stroke: #038048; stroke-width: 1.0;"/><text fill="#000000" font-family="sans-serif" font-size="11" lengthAdjust="spacingAndGlyphs" textLength="247" x="741" y="886.8667">TRACK_REFUSED(ArrayList&lt;Object&gt;): String</text><ellipse cx="732" cy="897.3633" fill="#84BE84" rx="3" ry="3" style="stroke: #038048; stroke-width: 1.0;"/><text fill="#000000" font-family="sans-serif" font-size="11" lengthAdjust="spacingAndGlyphs" textLength="233" x="741" y="899.6714">TRACK_SAVED(ArrayList&lt;Object&gt;): String</text><ellipse cx="732" cy="910.168" fill="#84BE84" rx="3" ry="3" style="stroke: #038048; stroke-width: 1.0;"/><text fill="#000000" font-family="sans-serif" font-size="11" lengthAdjust="spacingAndGlyphs" textLength="320" x="741" y="912.4761">SEND_PLAY_PAUSE_REQUEST(ArrayList&lt;Object&gt;): String</text><ellipse cx="732" cy="922.9727" fill="#84BE84" rx="3" ry="3" style="stroke: #038048; stroke-width: 1.0;"/><text fill="#000000" font-family="sans-serif" font-size="11" lengthAdjust="spacingAndGlyphs" textLength="321" x="741" y="925.2808">SEND_NEXT_TRACK_REQUEST(ArrayList&lt;Object&gt;): String</text><ellipse cx="732" cy="935.7773" fill="#84BE84" rx="3" ry="3" style="stroke: #038048; stroke-width: 1.0;"/><text fill="#000000" font-family="sans-serif" font-size="11" lengthAdjust="spacingAndGlyphs" textLength="348" x="741" y="938.0854">SEND_PREVIOUS_TRACK_REQUEST(ArrayList&lt;Object&gt;): String</text><ellipse cx="732" cy="948.582" fill="#84BE84" rx="3" ry="3" style="stroke: #038048; stroke-width: 1.0;"/><text fill="#000000" font-family="sans-serif" font-size="11" lengthAdjust="spacingAndGlyphs" textLength="353" x="741" y="950.8901">SEND_TURN_VOLUME_UP_REQUEST(ArrayList&lt;Object&gt;): String</text><ellipse cx="732" cy="961.3867" fill="#84BE84" rx="3" ry="3" style="stroke: #038048; stroke-width: 1.0;"/><text fill="#000000" font-family="sans-serif" font-size="11" lengthAdjust="spacingAndGlyphs" textLength="372" x="741" y="963.6948">SEND_TURN_VOLUME_DOWN_REQUEST(ArrayList&lt;Object&gt;): String</text><ellipse cx="732" cy="974.1914" fill="#84BE84" rx="3" ry="3" style="stroke: #038048; stroke-width: 1.0;"/><text fill="#000000" font-family="sans-serif" font-size="11" lengthAdjust="spacingAndGlyphs" textLength="337" x="741" y="976.4995">SEND_UPVOTE_TRACK_REQUEST(ArrayList&lt;Object&gt;): String</text><ellipse cx="732" cy="986.9961" fill="#84BE84" rx="3" ry="3" style="stroke: #038048; stroke-width: 1.0;"/><text fill="#000000" font-family="sans-serif" font-size="11" lengthAdjust="spacingAndGlyphs" textLength="356" x="741" y="989.3042">SEND_DOWNVOTE_TRACK_REQUEST(ArrayList&lt;Object&gt;): String</text><ellipse cx="732" cy="999.8008" fill="#84BE84" rx="3" ry="3" style="stroke: #038048; stroke-width: 1.0;"/><text fill="#000000" font-family="sans-serif" font-size="11" lengthAdjust="spacingAndGlyphs" textLength="249" x="741" y="1002.1089">TRACK_UPVOTED(ArrayList&lt;Object&gt;): String</text><ellipse cx="732" cy="1012.6055" fill="#84BE84" rx="3" ry="3" style="stroke: #038048; stroke-width: 1.0;"/><text fill="#000000" font-family="sans-serif" font-size="11" lengthAdjust="spacingAndGlyphs" textLength="268" x="741" y="1014.9136">TRACK_DOWNVOTED(ArrayList&lt;Object&gt;): String</text><ellipse cx="732" cy="1025.4102" fill="#84BE84" rx="3" ry="3" style="stroke: #038048; stroke-width: 1.0;"/><text fill="#000000" font-family="sans-serif" font-size="11" lengthAdjust="spacingAndGlyphs" textLength="191" x="741" y="1027.7183">ERROR(ArrayList&lt;Object&gt;): String</text><ellipse cx="732" cy="1038.2148" fill="#84BE84" rx="3" ry="3" style="stroke: #038048; stroke-width: 1.0;"/><text fill="#000000" font-family="sans-serif" font-size="11" lengthAdjust="spacingAndGlyphs" textLength="209" x="741" y="1040.5229">SUCCESS(ArrayList&lt;Object&gt;): String</text><ellipse cx="732" cy="1051.0195" fill="#84BE84" rx="3" ry="3" style="stroke: #038048; stroke-width: 1.0;"/><text fill="#000000" font-family="sans-serif" font-size="11" lengthAdjust="spacingAndGlyphs" textLength="219" x="741" y="1053.3276">sendUnicast(InetAddress, String): void</text><ellipse cx="732" cy="1063.8242" fill="#84BE84" rx="3" ry="3" style="stroke: #038048; stroke-width: 1.0;"/><text fill="#000000" font-family="sans-serif" font-size="11" lengthAdjust="spacingAndGlyphs" textLength="151" x="741" y="1066.1323">sendMulticast(String): void</text><ellipse cx="732" cy="1076.6289" fill="#84BE84" rx="3" ry="3" style="stroke: #038048; stroke-width: 1.0;"/><text fill="#000000" font-family="sans-serif" font-size="11" lengthAdjust="spacingAndGlyphs" textLength="64" x="741" y="1078.937">stop(): void</text><ellipse cx="732" cy="1089.4336" fill="#84BE84" rx="3" ry="3" style="stroke: #038048; stroke-width: 1.0;"/><text fill="#000000" font-family="sans-serif" font-size="11" lengthAdjust="spacingAndGlyphs" textLength="109" x="741" y="1091.7417">isServer(): boolean</text></a><!--class ch.tofind.commusica.core.Core--><a target="_top" xlink:actuate="onRequest" xlink:href="Core.html" xlink:show="new" xlink:title="Core.html" xlink:type="simple"><rect fill="#FEFECE" filter="url(#fi0ywcw)" height="124.8281" style="stroke: #A80036; stroke-width: 1.5;" width="266" x="636" y="276.5"/><ellipse cx="750.25" cy="292.5" fill="#ADD1B2" rx="11" ry="11" style="stroke: #A80036; stroke-width: 1.0;"/><path d="M753.2188,298.1406 Q752.6406,298.4375 752,298.5859 Q751.3594,298.7344 750.6563,298.7344 Q748.1563,298.7344 746.8359,297.0859 Q745.5156,295.4375 745.5156,292.3125 Q745.5156,289.1875 746.8359,287.5313 Q748.1563,285.875 750.6563,285.875 Q751.3594,285.875 752.0078,286.0313 Q752.6563,286.1875 753.2188,286.4844 L753.2188,289.2031 Q752.5938,288.625 752,288.3516 Q751.4063,288.0781 750.7813,288.0781 Q749.4375,288.0781 748.75,289.1484 Q748.0625,290.2188 748.0625,292.3125 Q748.0625,294.4063 748.75,295.4766 Q749.4375,296.5469 750.7813,296.5469 Q751.4063,296.5469 752,296.2734 Q752.5938,296 753.2188,295.4219 L753.2188,298.1406 Z "/><text fill="#000000" font-family="sans-serif" font-size="12" lengthAdjust="spacingAndGlyphs" textLength="29" x="770.75" y="296.6543">Core</text><line style="stroke: #A80036; stroke-width: 1.5;" x1="637" x2="901" y1="308.5" y2="308.5"/><rect fill="none" height="6" style="stroke: #C82930; stroke-width: 1.0;" width="6" x="644" y="317.4023"/><text fill="#000000" font-family="sans-serif" font-size="11" lengthAdjust="spacingAndGlyphs" text-decoration="underline" textLength="130" x="656" y="322.7104">instance: AbstractCore</text><line style="stroke: #000000; stroke-width: 1.0;" x1="656" x2="786" y1="324.7104" y2="324.7104"/><line style="stroke: #A80036; stroke-width: 1.5;" x1="637" x2="901" y1="329.3047" y2="329.3047"/><ellipse cx="647" cy="341.207" fill="#84BE84" rx="3" ry="3" style="stroke: #038048; stroke-width: 1.0;"/><text fill="#000000" font-family="sans-serif" font-size="11" lengthAdjust="spacingAndGlyphs" text-decoration="underline" textLength="240" x="656" y="343.5151">execute(String, ArrayList&lt;Object&gt;): String</text><line style="stroke: #000000; stroke-width: 1.0;" x1="656" x2="896" y1="345.5151" y2="345.5151"/><ellipse cx="647" cy="354.0117" fill="#84BE84" rx="3" ry="3" style="stroke: #038048; stroke-width: 1.0;"/><text fill="#000000" font-family="sans-serif" font-size="11" lengthAdjust="spacingAndGlyphs" text-decoration="underline" textLength="109" x="656" y="356.3198">isServer(): boolean</text><line style="stroke: #000000; stroke-width: 1.0;" x1="656" x2="765" y1="358.3198" y2="358.3198"/><ellipse cx="647" cy="366.8164" fill="#84BE84" rx="3" ry="3" style="stroke: #038048; stroke-width: 1.0;"/><text fill="#000000" font-family="sans-serif" font-size="11" lengthAdjust="spacingAndGlyphs" text-decoration="underline" textLength="123" x="656" y="369.1245">setupAsServer(): void</text><line style="stroke: #000000; stroke-width: 1.0;" x1="656" x2="779" y1="371.1245" y2="371.1245"/><ellipse cx="647" cy="379.6211" fill="#84BE84" rx="3" ry="3" style="stroke: #038048; stroke-width: 1.0;"/><text fill="#000000" font-family="sans-serif" font-size="11" lengthAdjust="spacingAndGlyphs" text-decoration="underline" textLength="117" x="656" y="381.9292">setupAsClient(): void</text><line style="stroke: #000000; stroke-width: 1.0;" x1="656" x2="773" y1="383.9292" y2="383.9292"/><ellipse cx="647" cy="392.4258" fill="#84BE84" rx="3" ry="3" style="stroke: #038048; stroke-width: 1.0;"/><text fill="#000000" font-family="sans-serif" font-size="11" lengthAdjust="spacingAndGlyphs" text-decoration="underline" textLength="64" x="656" y="394.7339">stop(): void</text><line style="stroke: #000000; stroke-width: 1.0;" x1="656" x2="720" y1="396.7339" y2="396.7339"/></a><!--class ch.tofind.commusica.core.ApplicationProtocol--><a target="_top" xlink:actuate="onRequest" xlink:href="ApplicationProtocol.html" xlink:show="new" xlink:title="ApplicationProtocol.html" xlink:type="simple"><rect fill="#FEFECE" filter="url(#fi0ywcw)" height="560.1875" style="stroke: #A80036; stroke-width: 1.5;" width="286" x="315" y="59"/><ellipse cx="393.25" cy="75" fill="#ADD1B2" rx="11" ry="11" style="stroke: #A80036; stroke-width: 1.0;"/><path d="M396.2188,80.6406 Q395.6406,80.9375 395,81.0859 Q394.3594,81.2344 393.6563,81.2344 Q391.1563,81.2344 389.8359,79.5859 Q388.5156,77.9375 388.5156,74.8125 Q388.5156,71.6875 389.8359,70.0313 Q391.1563,68.375 393.6563,68.375 Q394.3594,68.375 395.0078,68.5313 Q395.6563,68.6875 396.2188,68.9844 L396.2188,71.7031 Q395.5938,71.125 395,70.8516 Q394.4063,70.5781 393.7813,70.5781 Q392.4375,70.5781 391.75,71.6484 Q391.0625,72.7188 391.0625,74.8125 Q391.0625,76.9063 391.75,77.9766 Q392.4375,79.0469 393.7813,79.0469 Q394.4063,79.0469 395,78.7734 Q395.5938,78.5 396.2188,77.9219 L396.2188,80.6406 Z "/><text fill="#000000" font-family="sans-serif" font-size="12" lengthAdjust="spacingAndGlyphs" textLength="121" x="413.75" y="79.1543">ApplicationProtocol</text><line style="stroke: #A80036; stroke-width: 1.5;" x1="316" x2="600" y1="91" y2="91"/><ellipse cx="326" cy="102.9023" fill="none" rx="3" ry="3" style="stroke: #038048; stroke-width: 1.0;"/><text fill="#000000" font-family="sans-serif" font-size="11" lengthAdjust="spacingAndGlyphs" text-decoration="underline" textLength="75" x="335" y="105.2104">myId: Integer</text><line style="stroke: #000000; stroke-width: 1.0;" x1="335" x2="410" y1="107.2104" y2="107.2104"/><ellipse cx="326" cy="115.707" fill="none" rx="3" ry="3" style="stroke: #038048; stroke-width: 1.0;"/><text fill="#000000" font-family="sans-serif" font-size="11" lengthAdjust="spacingAndGlyphs" text-decoration="underline" textLength="95" x="335" y="118.0151">serverId: Integer</text><line style="stroke: #000000; stroke-width: 1.0;" x1="335" x2="430" y1="120.0151" y2="120.0151"/><ellipse cx="326" cy="128.5117" fill="none" rx="3" ry="3" style="stroke: #038048; stroke-width: 1.0;"/><text fill="#000000" font-family="sans-serif" font-size="11" lengthAdjust="spacingAndGlyphs" text-decoration="underline" textLength="160" x="335" y="130.8198">serverAddress: InetAddress</text><line style="stroke: #000000; stroke-width: 1.0;" x1="335" x2="495" y1="132.8198" y2="132.8198"/><ellipse cx="326" cy="141.3164" fill="none" rx="3" ry="3" style="stroke: #038048; stroke-width: 1.0;"/><text fill="#000000" font-family="sans-serif" font-size="11" lengthAdjust="spacingAndGlyphs" text-decoration="underline" textLength="112" x="335" y="143.6245">serverName: String</text><line style="stroke: #000000; stroke-width: 1.0;" x1="335" x2="447" y1="145.6245" y2="145.6245"/><ellipse cx="326" cy="154.1211" fill="none" rx="3" ry="3" style="stroke: #038048; stroke-width: 1.0;"/><text fill="#000000" font-family="sans-serif" font-size="11" lengthAdjust="spacingAndGlyphs" text-decoration="underline" textLength="97" x="335" y="156.4292">SUCCESS: String</text><line style="stroke: #000000; stroke-width: 1.0;" x1="335" x2="432" y1="158.4292" y2="158.4292"/><ellipse cx="326" cy="166.9258" fill="none" rx="3" ry="3" style="stroke: #038048; stroke-width: 1.0;"/><text fill="#000000" font-family="sans-serif" font-size="11" lengthAdjust="spacingAndGlyphs" text-decoration="underline" textLength="79" x="335" y="169.2339">ERROR: String</text><line style="stroke: #000000; stroke-width: 1.0;" x1="335" x2="414" y1="171.2339" y2="171.2339"/><ellipse cx="326" cy="179.7305" fill="none" rx="3" ry="3" style="stroke: #038048; stroke-width: 1.0;"/><text fill="#000000" font-family="sans-serif" font-size="11" lengthAdjust="spacingAndGlyphs" text-decoration="underline" textLength="191" x="335" y="182.0386">SEND_FIRST_CONNECTION: String</text><line style="stroke: #000000; stroke-width: 1.0;" x1="335" x2="526" y1="184.0386" y2="184.0386"/><ellipse cx="326" cy="192.5352" fill="none" rx="3" ry="3" style="stroke: #038048; stroke-width: 1.0;"/><text fill="#000000" font-family="sans-serif" font-size="11" lengthAdjust="spacingAndGlyphs" text-decoration="underline" textLength="137" x="335" y="194.8433">TRACK_REQUEST: String</text><line style="stroke: #000000; stroke-width: 1.0;" x1="335" x2="472" y1="196.8433" y2="196.8433"/><ellipse cx="326" cy="205.3398" fill="none" rx="3" ry="3" style="stroke: #038048; stroke-width: 1.0;"/><text fill="#000000" font-family="sans-serif" font-size="11" lengthAdjust="spacingAndGlyphs" text-decoration="underline" textLength="143" x="335" y="207.6479">TRACK_ACCEPTED: String</text><line style="stroke: #000000; stroke-width: 1.0;" x1="335" x2="478" y1="209.6479" y2="209.6479"/><ellipse cx="326" cy="218.1445" fill="none" rx="3" ry="3" style="stroke: #038048; stroke-width: 1.0;"/><text fill="#000000" font-family="sans-serif" font-size="11" lengthAdjust="spacingAndGlyphs" text-decoration="underline" textLength="135" x="335" y="220.4526">TRACK_REFUSED: String</text><line style="stroke: #000000; stroke-width: 1.0;" x1="335" x2="470" y1="222.4526" y2="222.4526"/><ellipse cx="326" cy="230.9492" fill="none" rx="3" ry="3" style="stroke: #038048; stroke-width: 1.0;"/><text fill="#000000" font-family="sans-serif" font-size="11" lengthAdjust="spacingAndGlyphs" text-decoration="underline" textLength="121" x="335" y="233.2573">TRACK_SAVED: String</text><line style="stroke: #000000; stroke-width: 1.0;" x1="335" x2="456" y1="235.2573" y2="235.2573"/><ellipse cx="326" cy="243.7539" fill="none" rx="3" ry="3" style="stroke: #038048; stroke-width: 1.0;"/><text fill="#000000" font-family="sans-serif" font-size="11" lengthAdjust="spacingAndGlyphs" text-decoration="underline" textLength="135" x="335" y="246.062">SENDING_TRACK: String</text><line style="stroke: #000000; stroke-width: 1.0;" x1="335" x2="470" y1="248.062" y2="248.062"/><ellipse cx="326" cy="256.5586" fill="none" rx="3" ry="3" style="stroke: #038048; stroke-width: 1.0;"/><text fill="#000000" font-family="sans-serif" font-size="11" lengthAdjust="spacingAndGlyphs" text-decoration="underline" textLength="225" x="335" y="258.8667">SEND_UPVOTE_TRACK_REQUEST: String</text><line style="stroke: #000000; stroke-width: 1.0;" x1="335" x2="560" y1="260.8667" y2="260.8667"/><ellipse cx="326" cy="269.3633" fill="none" rx="3" ry="3" style="stroke: #038048; stroke-width: 1.0;"/><text fill="#000000" font-family="sans-serif" font-size="11" lengthAdjust="spacingAndGlyphs" text-decoration="underline" textLength="244" x="335" y="271.6714">SEND_DOWNVOTE_TRACK_REQUEST: String</text><line style="stroke: #000000; stroke-width: 1.0;" x1="335" x2="579" y1="273.6714" y2="273.6714"/><ellipse cx="326" cy="282.168" fill="none" rx="3" ry="3" style="stroke: #038048; stroke-width: 1.0;"/><text fill="#000000" font-family="sans-serif" font-size="11" lengthAdjust="spacingAndGlyphs" text-decoration="underline" textLength="188" x="335" y="284.4761">UPVOTE_TRACK_REQUEST: String</text><line style="stroke: #000000; stroke-width: 1.0;" x1="335" x2="523" y1="286.4761" y2="286.4761"/><ellipse cx="326" cy="294.9727" fill="none" rx="3" ry="3" style="stroke: #038048; stroke-width: 1.0;"/><text fill="#000000" font-family="sans-serif" font-size="11" lengthAdjust="spacingAndGlyphs" text-decoration="underline" textLength="207" x="335" y="297.2808">DOWNVOTE_TRACK_REQUEST: String</text><line style="stroke: #000000; stroke-width: 1.0;" x1="335" x2="542" y1="299.2808" y2="299.2808"/><ellipse cx="326" cy="307.7773" fill="none" rx="3" ry="3" style="stroke: #038048; stroke-width: 1.0;"/><text fill="#000000" font-family="sans-serif" font-size="11" lengthAdjust="spacingAndGlyphs" text-decoration="underline" textLength="156" x="335" y="310.0854">TRACK_DOWNVOTED: String</text><line style="stroke: #000000; stroke-width: 1.0;" x1="335" x2="491" y1="312.0854" y2="312.0854"/><ellipse cx="326" cy="320.582" fill="none" rx="3" ry="3" style="stroke: #038048; stroke-width: 1.0;"/><text fill="#000000" font-family="sans-serif" font-size="11" lengthAdjust="spacingAndGlyphs" text-decoration="underline" textLength="137" x="335" y="322.8901">TRACK_UPVOTED: String</text><line style="stroke: #000000; stroke-width: 1.0;" x1="335" x2="472" y1="324.8901" y2="324.8901"/><ellipse cx="326" cy="333.3867" fill="none" rx="3" ry="3" style="stroke: #038048; stroke-width: 1.0;"/><text fill="#000000" font-family="sans-serif" font-size="11" lengthAdjust="spacingAndGlyphs" text-decoration="underline" textLength="143" x="335" y="335.6948">PLAYLIST_UPDATE: String</text><line style="stroke: #000000; stroke-width: 1.0;" x1="335" x2="478" y1="337.6948" y2="337.6948"/><ellipse cx="326" cy="346.1914" fill="none" rx="3" ry="3" style="stroke: #038048; stroke-width: 1.0;"/><text fill="#000000" font-family="sans-serif" font-size="11" lengthAdjust="spacingAndGlyphs" text-decoration="underline" textLength="156" x="335" y="348.4995">NEW_ACTIVE_CLIENT: String</text><line style="stroke: #000000; stroke-width: 1.0;" x1="335" x2="491" y1="350.4995" y2="350.4995"/><ellipse cx="326" cy="358.9961" fill="none" rx="3" ry="3" style="stroke: #038048; stroke-width: 1.0;"/><text fill="#000000" font-family="sans-serif" font-size="11" lengthAdjust="spacingAndGlyphs" text-decoration="underline" textLength="180" x="335" y="361.3042">SEND_PLAYLIST_UPDATE: String</text><line style="stroke: #000000; stroke-width: 1.0;" x1="335" x2="515" y1="363.3042" y2="363.3042"/><ellipse cx="326" cy="371.8008" fill="none" rx="3" ry="3" style="stroke: #038048; stroke-width: 1.0;"/><text fill="#000000" font-family="sans-serif" font-size="11" lengthAdjust="spacingAndGlyphs" text-decoration="underline" textLength="174" x="335" y="374.1089">SEND_TRACK_REQUEST: String</text><line style="stroke: #000000; stroke-width: 1.0;" x1="335" x2="509" y1="376.1089" y2="376.1089"/><ellipse cx="326" cy="384.6055" fill="none" rx="3" ry="3" style="stroke: #038048; stroke-width: 1.0;"/><text fill="#000000" font-family="sans-serif" font-size="11" lengthAdjust="spacingAndGlyphs" text-decoration="underline" textLength="208" x="335" y="386.9136">SEND_PLAY_PAUSE_REQUEST: String</text><line style="stroke: #000000; stroke-width: 1.0;" x1="335" x2="543" y1="388.9136" y2="388.9136"/><ellipse cx="326" cy="397.4102" fill="none" rx="3" ry="3" style="stroke: #038048; stroke-width: 1.0;"/><text fill="#000000" font-family="sans-serif" font-size="11" lengthAdjust="spacingAndGlyphs" text-decoration="underline" textLength="171" x="335" y="399.7183">PLAY_PAUSE_REQUEST: String</text><line style="stroke: #000000; stroke-width: 1.0;" x1="335" x2="506" y1="401.7183" y2="401.7183"/><ellipse cx="326" cy="410.2148" fill="none" rx="3" ry="3" style="stroke: #038048; stroke-width: 1.0;"/><text fill="#000000" font-family="sans-serif" font-size="11" lengthAdjust="spacingAndGlyphs" text-decoration="underline" textLength="69" x="335" y="412.5229">PLAY: String</text><line style="stroke: #000000; stroke-width: 1.0;" x1="335" x2="404" y1="414.5229" y2="414.5229"/><ellipse cx="326" cy="423.0195" fill="none" rx="3" ry="3" style="stroke: #038048; stroke-width: 1.0;"/><text fill="#000000" font-family="sans-serif" font-size="11" lengthAdjust="spacingAndGlyphs" text-decoration="underline" textLength="79" x="335" y="425.3276">PAUSE: String</text><line style="stroke: #000000; stroke-width: 1.0;" x1="335" x2="414" y1="427.3276" y2="427.3276"/><ellipse cx="326" cy="435.8242" fill="none" rx="3" ry="3" style="stroke: #038048; stroke-width: 1.0;"/><text fill="#000000" font-family="sans-serif" font-size="11" lengthAdjust="spacingAndGlyphs" text-decoration="underline" textLength="209" x="335" y="438.1323">SEND_NEXT_TRACK_REQUEST: String</text><line style="stroke: #000000; stroke-width: 1.0;" x1="335" x2="544" y1="440.1323" y2="440.1323"/><ellipse cx="326" cy="448.6289" fill="none" rx="3" ry="3" style="stroke: #038048; stroke-width: 1.0;"/><text fill="#000000" font-family="sans-serif" font-size="11" lengthAdjust="spacingAndGlyphs" text-decoration="underline" textLength="172" x="335" y="450.937">NEXT_TRACK_REQUEST: String</text><line style="stroke: #000000; stroke-width: 1.0;" x1="335" x2="507" y1="452.937" y2="452.937"/><ellipse cx="326" cy="461.4336" fill="none" rx="3" ry="3" style="stroke: #038048; stroke-width: 1.0;"/><text fill="#000000" font-family="sans-serif" font-size="11" lengthAdjust="spacingAndGlyphs" text-decoration="underline" textLength="236" x="335" y="463.7417">SEND_PREVIOUS_TRACK_REQUEST: String</text><line style="stroke: #000000; stroke-width: 1.0;" x1="335" x2="571" y1="465.7417" y2="465.7417"/><ellipse cx="326" cy="474.2383" fill="none" rx="3" ry="3" style="stroke: #038048; stroke-width: 1.0;"/><text fill="#000000" font-family="sans-serif" font-size="11" lengthAdjust="spacingAndGlyphs" text-decoration="underline" textLength="199" x="335" y="476.5464">PREVIOUS_TRACK_REQUEST: String</text><line style="stroke: #000000; stroke-width: 1.0;" x1="335" x2="534" y1="478.5464" y2="478.5464"/><ellipse cx="326" cy="487.043" fill="none" rx="3" ry="3" style="stroke: #038048; stroke-width: 1.0;"/><text fill="#000000" font-family="sans-serif" font-size="11" lengthAdjust="spacingAndGlyphs" text-decoration="underline" textLength="241" x="335" y="489.3511">SEND_TURN_VOLUME_UP_REQUEST: String</text><line style="stroke: #000000; stroke-width: 1.0;" x1="335" x2="576" y1="491.3511" y2="491.3511"/><ellipse cx="326" cy="499.8477" fill="none" rx="3" ry="3" style="stroke: #038048; stroke-width: 1.0;"/><text fill="#000000" font-family="sans-serif" font-size="11" lengthAdjust="spacingAndGlyphs" text-decoration="underline" textLength="204" x="335" y="502.1558">TURN_VOLUME_UP_REQUEST: String</text><line style="stroke: #000000; stroke-width: 1.0;" x1="335" x2="539" y1="504.1558" y2="504.1558"/><ellipse cx="326" cy="512.6523" fill="none" rx="3" ry="3" style="stroke: #038048; stroke-width: 1.0;"/><text fill="#000000" font-family="sans-serif" font-size="11" lengthAdjust="spacingAndGlyphs" text-decoration="underline" textLength="160" x="335" y="514.9604">VOLUME_TURNED_UP: String</text><line style="stroke: #000000; stroke-width: 1.0;" x1="335" x2="495" y1="516.9604" y2="516.9604"/><ellipse cx="326" cy="525.457" fill="none" rx="3" ry="3" style="stroke: #038048; stroke-width: 1.0;"/><text fill="#000000" font-family="sans-serif" font-size="11" lengthAdjust="spacingAndGlyphs" text-decoration="underline" textLength="260" x="335" y="527.7651">SEND_TURN_VOLUME_DOWN_REQUEST: String</text><line style="stroke: #000000; stroke-width: 1.0;" x1="335" x2="595" y1="529.7651" y2="529.7651"/><ellipse cx="326" cy="538.2617" fill="none" rx="3" ry="3" style="stroke: #038048; stroke-width: 1.0;"/><text fill="#000000" font-family="sans-serif" font-size="11" lengthAdjust="spacingAndGlyphs" text-decoration="underline" textLength="223" x="335" y="540.5698">TURN_VOLUME_DOWN_REQUEST: String</text><line style="stroke: #000000; stroke-width: 1.0;" x1="335" x2="558" y1="542.5698" y2="542.5698"/><ellipse cx="326" cy="551.0664" fill="none" rx="3" ry="3" style="stroke: #038048; stroke-width: 1.0;"/><text fill="#000000" font-family="sans-serif" font-size="11" lengthAdjust="spacingAndGlyphs" text-decoration="underline" textLength="179" x="335" y="553.3745">VOLUME_TURNED_DOWN: String</text><line style="stroke: #000000; stroke-width: 1.0;" x1="335" x2="514" y1="555.3745" y2="555.3745"/><ellipse cx="326" cy="563.8711" fill="none" rx="3" ry="3" style="stroke: #038048; stroke-width: 1.0;"/><text fill="#000000" font-family="sans-serif" font-size="11" lengthAdjust="spacingAndGlyphs" text-decoration="underline" textLength="133" x="335" y="566.1792">SUCCESS_VOTE: String</text><line style="stroke: #000000; stroke-width: 1.0;" x1="335" x2="468" y1="568.1792" y2="568.1792"/><ellipse cx="326" cy="576.6758" fill="none" rx="3" ry="3" style="stroke: #038048; stroke-width: 1.0;"/><text fill="#000000" font-family="sans-serif" font-size="11" lengthAdjust="spacingAndGlyphs" text-decoration="underline" textLength="115" x="335" y="578.9839">ERROR_VOTE: String</text><line style="stroke: #000000; stroke-width: 1.0;" x1="335" x2="450" y1="580.9839" y2="580.9839"/><ellipse cx="326" cy="589.4805" fill="none" rx="3" ry="3" style="stroke: #038048; stroke-width: 1.0;"/><text fill="#000000" font-family="sans-serif" font-size="11" lengthAdjust="spacingAndGlyphs" text-decoration="underline" textLength="191" x="335" y="591.7886">ERROR_DURING_TRANSFER: String</text><line style="stroke: #000000; stroke-width: 1.0;" x1="335" x2="526" y1="593.7886" y2="593.7886"/><ellipse cx="326" cy="602.2852" fill="none" rx="3" ry="3" style="stroke: #038048; stroke-width: 1.0;"/><text fill="#000000" font-family="sans-serif" font-size="11" lengthAdjust="spacingAndGlyphs" text-decoration="underline" textLength="211" x="335" y="604.5933">ERROR_FILE_NOT_SUPPORTED: String</text><line style="stroke: #000000; stroke-width: 1.0;" x1="335" x2="546" y1="606.5933" y2="606.5933"/><line style="stroke: #A80036; stroke-width: 1.5;" x1="316" x2="600" y1="611.1875" y2="611.1875"/></a><!--class ch.tofind.commusica.core.ICore--><a target="_top" xlink:actuate="onRequest" xlink:href="ICore.html" xlink:show="new" xlink:title="ICore.html" xlink:type="simple"><rect fill="#FEFECE" filter="url(#fi0ywcw)" height="86.4141" style="stroke: #A80036; stroke-width: 1.5;" width="242" x="38" y="296"/><ellipse cx="138.25" cy="312" fill="#B4A7E5" rx="11" ry="11" style="stroke: #A80036; stroke-width: 1.0;"/><path d="M134.1719,307.7656 L134.1719,305.6094 L141.5625,305.6094 L141.5625,307.7656 L139.0938,307.7656 L139.0938,315.8438 L141.5625,315.8438 L141.5625,318 L134.1719,318 L134.1719,315.8438 L136.6406,315.8438 L136.6406,307.7656 L134.1719,307.7656 Z "/><text fill="#000000" font-family="sans-serif" font-size="12" font-style="italic" lengthAdjust="spacingAndGlyphs" textLength="33" x="158.75" y="316.1543">ICore</text><line style="stroke: #A80036; stroke-width: 1.5;" x1="39" x2="279" y1="328" y2="328"/><line style="stroke: #A80036; stroke-width: 1.5;" x1="39" x2="279" y1="336" y2="336"/><ellipse cx="49" cy="347.9023" fill="#84BE84" rx="3" ry="3" style="stroke: #038048; stroke-width: 1.0;"/><text fill="#000000" font-family="sans-serif" font-size="11" font-style="italic" lengthAdjust="spacingAndGlyphs" textLength="216" x="58" y="350.2104">sendUnicast(InetAddress, String): void</text><ellipse cx="49" cy="360.707" fill="#84BE84" rx="3" ry="3" style="stroke: #038048; stroke-width: 1.0;"/><text fill="#000000" font-family="sans-serif" font-size="11" font-style="italic" lengthAdjust="spacingAndGlyphs" textLength="149" x="58" y="363.0151">sendMulticast(String): void</text><ellipse cx="49" cy="373.5117" fill="#84BE84" rx="3" ry="3" style="stroke: #038048; stroke-width: 1.0;"/><text fill="#000000" font-family="sans-serif" font-size="11" font-style="italic" lengthAdjust="spacingAndGlyphs" textLength="64" x="58" y="375.8198">stop(): void</text></a><path d="M1046.11,420.707 C1023.46,483.568 983.325,568.394 920,619 C842.166,681.201 794.181,636.638 704,679 C670.129,694.911 635.936,714.562 603.368,735.385 " fill="none" style="stroke: #A80036; stroke-width: 1.0;"/><polygon fill="none" points="1039.58,418.174,1052.72,401.553,1052.81,422.742,1039.58,418.174" style="stroke: #A80036; stroke-width: 1.0;"/><path d="M186.093,400.545 C216.097,467.594 266.125,579.392 310.684,678.967 " fill="none" style="stroke: #A80036; stroke-width: 1.0; stroke-dasharray: 7.0,7.0;"/><polygon fill="none" points="179.598,403.167,177.818,382.052,192.377,397.449,179.598,403.167" style="stroke: #A80036; stroke-width: 1.0;"/><path d="M1047.73,421.289 C1029.14,489.124 1001.817,588.869 977.203,678.708 " fill="none" style="stroke: #A80036; stroke-width: 1.0;"/><polygon fill="none" points="1041.05,419.18,1053.08,401.741,1054.55,422.88,1041.05,419.18" style="stroke: #A80036; stroke-width: 1.0;"/><path d="M172.343,401.752 C189.663,466.345 226.414,565.612 297,619 C413.452,707.08 485.261,622.744 620,679 C654.24,693.296 688.497,711.946 720.976,732.213 " fill="none" style="stroke: #A80036; stroke-width: 1.0; stroke-dasharray: 7.0,7.0;"/><polygon fill="none" points="165.491,403.205,167.385,382.101,179.065,399.78,165.491,403.205" style="stroke: #A80036; stroke-width: 1.0;"/></g></svg>