<?xml version="1.0" encoding="UTF-8" standalone="no"?><svg xmlns="http://www.w3.org/2000/svg" xmlns:xlink="http://www.w3.org/1999/xlink" contentScriptType="application/ecmascript" contentStyleType="text/css" height="436px" preserveAspectRatio="none" style="width:413px;height:436px;" version="1.1" viewBox="0 0 413 436" width="413px" zoomAndPan="magnify"><defs><filter height="300%" id="fezjqby" width="300%" x="-1" y="-1"><feGaussianBlur result="blurOut" stdDeviation="2.0"/><feColorMatrix in="blurOut" result="blurOut2" type="matrix" values="0 0 0 0 0 0 0 0 0 0 0 0 0 0 0 0 0 0 .4 0"/><feOffset dx="4.0" dy="4.0" in="blurOut2" result="blurOut3"/><feBlend in="SourceGraphic" in2="blurOut3" mode="normal"/></filter></defs><g><!--class ServerCore--><a target="_top" xlink:actuate="onRequest" xlink:href="ServerCore.html" xlink:show="new" xlink:title="ServerCore.html" xlink:type="simple"><rect fill="#FEFECE" filter="url(#fezjqby)" height="419.3359" style="stroke: #A80036; stroke-width: 1.5;" width="398" x="6" y="8"/><ellipse cx="166.25" cy="24" fill="#ADD1B2" rx="11" ry="11" style="stroke: #A80036; stroke-width: 1.0;"/><path d="M169.2188,29.6406 Q168.6406,29.9375 168,30.0859 Q167.3594,30.2344 166.6563,30.2344 Q164.1563,30.2344 162.8359,28.5859 Q161.5156,26.9375 161.5156,23.8125 Q161.5156,20.6875 162.8359,19.0313 Q164.1563,17.375 166.6563,17.375 Q167.3594,17.375 168.0078,17.5313 Q168.6563,17.6875 169.2188,17.9844 L169.2188,20.7031 Q168.5938,20.125 168,19.8516 Q167.4063,19.5781 166.7813,19.5781 Q165.4375,19.5781 164.75,20.6484 Q164.0625,21.7188 164.0625,23.8125 Q164.0625,25.9063 164.75,26.9766 Q165.4375,28.0469 166.7813,28.0469 Q167.4063,28.0469 168,27.7734 Q168.5938,27.5 169.2188,26.9219 L169.2188,29.6406 Z "/><text fill="#000000" font-family="sans-serif" font-size="12" lengthAdjust="spacingAndGlyphs" textLength="69" x="186.75" y="28.1543">ServerCore</text><line style="stroke: #A80036; stroke-width: 1.5;" x1="7" x2="403" y1="40" y2="40"/><rect fill="none" height="6" style="stroke: #C82930; stroke-width: 1.0;" width="6" x="14" y="48.9023"/><text fill="#000000" font-family="sans-serif" font-size="11" lengthAdjust="spacingAndGlyphs" text-decoration="underline" textLength="71" x="26" y="54.2104">LOG: Logger</text><line style="stroke: #000000; stroke-width: 1.0;" x1="26" x2="97" y1="56.2104" y2="56.2104"/><rect fill="none" height="6" style="stroke: #C82930; stroke-width: 1.0;" width="6" x="14" y="61.707"/><text fill="#000000" font-family="sans-serif" font-size="11" lengthAdjust="spacingAndGlyphs" text-decoration="underline" textLength="205" x="26" y="67.0151">TIME_BEFORE_PLAYLIST_UPDATE: int</text><line style="stroke: #000000; stroke-width: 1.0;" x1="26" x2="231" y1="69.0151" y2="69.0151"/><rect fill="none" height="6" style="stroke: #C82930; stroke-width: 1.0;" width="6" x="14" y="74.5117"/><text fill="#000000" font-family="sans-serif" font-size="11" lengthAdjust="spacingAndGlyphs" text-decoration="underline" textLength="74" x="26" y="79.8198">name: String</text><line style="stroke: #000000; stroke-width: 1.0;" x1="26" x2="100" y1="81.8198" y2="81.8198"/><rect fill="none" height="6" style="stroke: #C82930; stroke-width: 1.0;" width="6" x="14" y="87.3164"/><text fill="#000000" font-family="sans-serif" font-size="11" lengthAdjust="spacingAndGlyphs" textLength="142" x="26" y="92.6245">multicast: MulticastClient</text><rect fill="none" height="6" style="stroke: #C82930; stroke-width: 1.0;" width="6" x="14" y="100.1211"/><text fill="#000000" font-family="sans-serif" font-size="11" lengthAdjust="spacingAndGlyphs" textLength="83" x="26" y="105.4292">server: Server</text><rect fill="none" height="6" style="stroke: #C82930; stroke-width: 1.0;" width="6" x="14" y="112.9258"/><text fill="#000000" font-family="sans-serif" font-size="11" lengthAdjust="spacingAndGlyphs" textLength="251" x="26" y="118.2339">userSessionManager: UserSessionManager</text><rect fill="none" height="6" style="stroke: #C82930; stroke-width: 1.0;" width="6" x="14" y="125.7305"/><text fill="#000000" font-family="sans-serif" font-size="11" lengthAdjust="spacingAndGlyphs" textLength="255" x="26" y="131.0386">broadcastPlaylist: ScheduledExecutorService</text><line style="stroke: #A80036; stroke-width: 1.5;" x1="7" x2="403" y1="137.6328" y2="137.6328"/><ellipse cx="17" cy="149.5352" fill="#84BE84" rx="3" ry="3" style="stroke: #038048; stroke-width: 1.0;"/><text fill="#000000" font-family="sans-serif" font-size="11" lengthAdjust="spacingAndGlyphs" textLength="300" x="26" y="151.8433">END_OF_COMMUNICATION(ArrayList&lt;Object&gt;): String</text><ellipse cx="17" cy="162.3398" fill="#84BE84" rx="3" ry="3" style="stroke: #038048; stroke-width: 1.0;"/><text fill="#000000" font-family="sans-serif" font-size="11" lengthAdjust="spacingAndGlyphs" textLength="292" x="26" y="164.6479">SEND_PLAYLIST_UPDATE(ArrayList&lt;Object&gt;): String</text><ellipse cx="17" cy="175.1445" fill="#84BE84" rx="3" ry="3" style="stroke: #038048; stroke-width: 1.0;"/><text fill="#000000" font-family="sans-serif" font-size="11" lengthAdjust="spacingAndGlyphs" textLength="268" x="26" y="177.4526">NEW_ACTIVE_CLIENT(ArrayList&lt;Object&gt;): String</text><ellipse cx="17" cy="187.9492" fill="#84BE84" rx="3" ry="3" style="stroke: #038048; stroke-width: 1.0;"/><text fill="#000000" font-family="sans-serif" font-size="11" lengthAdjust="spacingAndGlyphs" textLength="249" x="26" y="190.2573">TRACK_REQUEST(ArrayList&lt;Object&gt;): String</text><ellipse cx="17" cy="200.7539" fill="#84BE84" rx="3" ry="3" style="stroke: #038048; stroke-width: 1.0;"/><text fill="#000000" font-family="sans-serif" font-size="11" lengthAdjust="spacingAndGlyphs" textLength="247" x="26" y="203.062">SENDING_TRACK(ArrayList&lt;Object&gt;): String</text><ellipse cx="17" cy="213.5586" fill="#84BE84" rx="3" ry="3" style="stroke: #038048; stroke-width: 1.0;"/><text fill="#000000" font-family="sans-serif" font-size="11" lengthAdjust="spacingAndGlyphs" textLength="300" x="26" y="215.8667">UPVOTE_TRACK_REQUEST(ArrayList&lt;Object&gt;): String</text><ellipse cx="17" cy="226.3633" fill="#84BE84" rx="3" ry="3" style="stroke: #038048; stroke-width: 1.0;"/><text fill="#000000" font-family="sans-serif" font-size="11" lengthAdjust="spacingAndGlyphs" textLength="319" x="26" y="228.6714">DOWNVOTE_TRACK_REQUEST(ArrayList&lt;Object&gt;): String</text><ellipse cx="17" cy="239.168" fill="#84BE84" rx="3" ry="3" style="stroke: #038048; stroke-width: 1.0;"/><text fill="#000000" font-family="sans-serif" font-size="11" lengthAdjust="spacingAndGlyphs" textLength="321" x="26" y="241.4761">SEND_NEXT_TRACK_REQUEST(ArrayList&lt;Object&gt;): String</text><ellipse cx="17" cy="251.9727" fill="#84BE84" rx="3" ry="3" style="stroke: #038048; stroke-width: 1.0;"/><text fill="#000000" font-family="sans-serif" font-size="11" lengthAdjust="spacingAndGlyphs" textLength="320" x="26" y="254.2808">SEND_PLAY_PAUSE_REQUEST(ArrayList&lt;Object&gt;): String</text><ellipse cx="17" cy="264.7773" fill="#84BE84" rx="3" ry="3" style="stroke: #038048; stroke-width: 1.0;"/><text fill="#000000" font-family="sans-serif" font-size="11" lengthAdjust="spacingAndGlyphs" textLength="337" x="26" y="267.0854">SEND_UPVOTE_TRACK_REQUEST(ArrayList&lt;Object&gt;): String</text><ellipse cx="17" cy="277.582" fill="#84BE84" rx="3" ry="3" style="stroke: #038048; stroke-width: 1.0;"/><text fill="#000000" font-family="sans-serif" font-size="11" lengthAdjust="spacingAndGlyphs" textLength="356" x="26" y="279.8901">SEND_DOWNVOTE_TRACK_REQUEST(ArrayList&lt;Object&gt;): String</text><ellipse cx="17" cy="290.3867" fill="#84BE84" rx="3" ry="3" style="stroke: #038048; stroke-width: 1.0;"/><text fill="#000000" font-family="sans-serif" font-size="11" lengthAdjust="spacingAndGlyphs" textLength="283" x="26" y="292.6948">PLAY_PAUSE_REQUEST(ArrayList&lt;Object&gt;): String</text><ellipse cx="17" cy="303.1914" fill="#84BE84" rx="3" ry="3" style="stroke: #038048; stroke-width: 1.0;"/><text fill="#000000" font-family="sans-serif" font-size="11" lengthAdjust="spacingAndGlyphs" textLength="284" x="26" y="305.4995">NEXT_TRACK_REQUEST(ArrayList&lt;Object&gt;): String</text><ellipse cx="17" cy="315.9961" fill="#84BE84" rx="3" ry="3" style="stroke: #038048; stroke-width: 1.0;"/><text fill="#000000" font-family="sans-serif" font-size="11" lengthAdjust="spacingAndGlyphs" textLength="311" x="26" y="318.3042">PREVIOUS_TRACK_REQUEST(ArrayList&lt;Object&gt;): String</text><ellipse cx="17" cy="328.8008" fill="#84BE84" rx="3" ry="3" style="stroke: #038048; stroke-width: 1.0;"/><text fill="#000000" font-family="sans-serif" font-size="11" lengthAdjust="spacingAndGlyphs" textLength="353" x="26" y="331.1089">SEND_TURN_VOLUME_UP_REQUEST(ArrayList&lt;Object&gt;): String</text><ellipse cx="17" cy="341.6055" fill="#84BE84" rx="3" ry="3" style="stroke: #038048; stroke-width: 1.0;"/><text fill="#000000" font-family="sans-serif" font-size="11" lengthAdjust="spacingAndGlyphs" textLength="316" x="26" y="343.9136">TURN_VOLUME_UP_REQUEST(ArrayList&lt;Object&gt;): String</text><ellipse cx="17" cy="354.4102" fill="#84BE84" rx="3" ry="3" style="stroke: #038048; stroke-width: 1.0;"/><text fill="#000000" font-family="sans-serif" font-size="11" lengthAdjust="spacingAndGlyphs" textLength="372" x="26" y="356.7183">SEND_TURN_VOLUME_DOWN_REQUEST(ArrayList&lt;Object&gt;): String</text><ellipse cx="17" cy="367.2148" fill="#84BE84" rx="3" ry="3" style="stroke: #038048; stroke-width: 1.0;"/><text fill="#000000" font-family="sans-serif" font-size="11" lengthAdjust="spacingAndGlyphs" textLength="335" x="26" y="369.5229">TURN_VOLUME_DOWN_REQUEST(ArrayList&lt;Object&gt;): String</text><ellipse cx="17" cy="380.0195" fill="#84BE84" rx="3" ry="3" style="stroke: #038048; stroke-width: 1.0;"/><text fill="#000000" font-family="sans-serif" font-size="11" lengthAdjust="spacingAndGlyphs" textLength="219" x="26" y="382.3276">sendUnicast(InetAddress, String): void</text><ellipse cx="17" cy="392.8242" fill="#84BE84" rx="3" ry="3" style="stroke: #038048; stroke-width: 1.0;"/><text fill="#000000" font-family="sans-serif" font-size="11" lengthAdjust="spacingAndGlyphs" textLength="151" x="26" y="395.1323">sendMulticast(String): void</text><ellipse cx="17" cy="405.6289" fill="#84BE84" rx="3" ry="3" style="stroke: #038048; stroke-width: 1.0;"/><text fill="#000000" font-family="sans-serif" font-size="11" lengthAdjust="spacingAndGlyphs" textLength="64" x="26" y="407.937">stop(): void</text><ellipse cx="17" cy="418.4336" fill="#84BE84" rx="3" ry="3" style="stroke: #038048; stroke-width: 1.0;"/><text fill="#000000" font-family="sans-serif" font-size="11" lengthAdjust="spacingAndGlyphs" textLength="109" x="26" y="420.7417">isServer(): boolean</text></a></g></svg>