<?xml version="1.0" encoding="UTF-8" standalone="no"?><svg xmlns="http://www.w3.org/2000/svg" xmlns:xlink="http://www.w3.org/1999/xlink" contentScriptType="application/ecmascript" contentStyleType="text/css" height="116px" preserveAspectRatio="none" style="width:317px;height:116px;" version="1.1" viewBox="0 0 317 116" width="317px" zoomAndPan="magnify"><defs><filter height="300%" id="fbwn14p" width="300%" x="-1" y="-1"><feGaussianBlur result="blurOut" stdDeviation="2.0"/><feColorMatrix in="blurOut" result="blurOut2" type="matrix" values="0 0 0 0 0 0 0 0 0 0 0 0 0 0 0 0 0 0 .4 0"/><feOffset dx="4.0" dy="4.0" in="blurOut2" result="blurOut3"/><feBlend in="SourceGraphic" in2="blurOut3" mode="normal"/></filter></defs><g><!--class SQLiteDialectIdentityColumnSupport--><a target="_top" xlink:actuate="onRequest" xlink:href="SQLiteDialectIdentityColumnSupport.html" xlink:show="new" xlink:title="SQLiteDialectIdentityColumnSupport.html" xlink:type="simple"><rect fill="#FEFECE" filter="url(#fbwn14p)" height="99.2188" style="stroke: #A80036; stroke-width: 1.5;" width="302" x="6" y="8"/><ellipse cx="41.7" cy="24" fill="#ADD1B2" rx="11" ry="11" style="stroke: #A80036; stroke-width: 1.0;"/><path d="M44.6688,29.6406 Q44.0906,29.9375 43.45,30.0859 Q42.8094,30.2344 42.1063,30.2344 Q39.6063,30.2344 38.2859,28.5859 Q36.9656,26.9375 36.9656,23.8125 Q36.9656,20.6875 38.2859,19.0313 Q39.6063,17.375 42.1063,17.375 Q42.8094,17.375 43.4578,17.5313 Q44.1063,17.6875 44.6688,17.9844 L44.6688,20.7031 Q44.0438,20.125 43.45,19.8516 Q42.8563,19.5781 42.2313,19.5781 Q40.8875,19.5781 40.2,20.6484 Q39.5125,21.7188 39.5125,23.8125 Q39.5125,25.9063 40.2,26.9766 Q40.8875,28.0469 42.2313,28.0469 Q42.8563,28.0469 43.45,27.7734 Q44.0438,27.5 44.6688,26.9219 L44.6688,29.6406 Z "/><text fill="#000000" font-family="sans-serif" font-size="12" lengthAdjust="spacingAndGlyphs" textLength="224" x="60.3" y="28.1543">SQLiteDialectIdentityColumnSupport</text><line style="stroke: #A80036; stroke-width: 1.5;" x1="7" x2="307" y1="40" y2="40"/><line style="stroke: #A80036; stroke-width: 1.5;" x1="7" x2="307" y1="48" y2="48"/><ellipse cx="17" cy="59.9023" fill="#84BE84" rx="3" ry="3" style="stroke: #038048; stroke-width: 1.0;"/><text fill="#000000" font-family="sans-serif" font-size="11" lengthAdjust="spacingAndGlyphs" textLength="203" x="26" y="62.2104">supportsIdentityColumns(): boolean</text><ellipse cx="17" cy="72.707" fill="#84BE84" rx="3" ry="3" style="stroke: #038048; stroke-width: 1.0;"/><text fill="#000000" font-family="sans-serif" font-size="11" lengthAdjust="spacingAndGlyphs" textLength="229" x="26" y="75.0151">hasDataTypeInIdentityColumn(): boolean</text><ellipse cx="17" cy="85.5117" fill="#84BE84" rx="3" ry="3" style="stroke: #038048; stroke-width: 1.0;"/><text fill="#000000" font-family="sans-serif" font-size="11" lengthAdjust="spacingAndGlyphs" textLength="276" x="26" y="87.8198">getIdentitySelectString(String, String, int): String</text><ellipse cx="17" cy="98.3164" fill="#84BE84" rx="3" ry="3" style="stroke: #038048; stroke-width: 1.0;"/><text fill="#000000" font-family="sans-serif" font-size="11" lengthAdjust="spacingAndGlyphs" textLength="200" x="26" y="100.6245">getIdentityColumnString(int): String</text></a></g></svg>