<?xml version="1.0" encoding="UTF-8" standalone="no"?><svg xmlns="http://www.w3.org/2000/svg" xmlns:xlink="http://www.w3.org/1999/xlink" contentScriptType="application/ecmascript" contentStyleType="text/css" height="282px" preserveAspectRatio="none" style="width:327px;height:282px;" version="1.1" viewBox="0 0 327 282" width="327px" zoomAndPan="magnify"><defs><filter height="300%" id="fsjhmt9" width="300%" x="-1" y="-1"><feGaussianBlur result="blurOut" stdDeviation="2.0"/><feColorMatrix in="blurOut" result="blurOut2" type="matrix" values="0 0 0 0 0 0 0 0 0 0 0 0 0 0 0 0 0 0 .4 0"/><feOffset dx="4.0" dy="4.0" in="blurOut2" result="blurOut3"/><feBlend in="SourceGraphic" in2="blurOut3" mode="normal"/></filter></defs><g><!--class EphemeralPlaylist--><a target="_top" xlink:actuate="onRequest" xlink:href="EphemeralPlaylist.html" xlink:show="new" xlink:title="EphemeralPlaylist.html" xlink:type="simple"><rect fill="#FEFECE" filter="url(#fsjhmt9)" height="265.6797" style="stroke: #A80036; stroke-width: 1.5;" width="312" x="6" y="8"/><ellipse cx="102.75" cy="24" fill="#ADD1B2" rx="11" ry="11" style="stroke: #A80036; stroke-width: 1.0;"/><path d="M105.7188,29.6406 Q105.1406,29.9375 104.5,30.0859 Q103.8594,30.2344 103.1563,30.2344 Q100.6563,30.2344 99.3359,28.5859 Q98.0156,26.9375 98.0156,23.8125 Q98.0156,20.6875 99.3359,19.0313 Q100.6563,17.375 103.1563,17.375 Q103.8594,17.375 104.5078,17.5313 Q105.1563,17.6875 105.7188,17.9844 L105.7188,20.7031 Q105.0938,20.125 104.5,19.8516 Q103.9063,19.5781 103.2813,19.5781 Q101.9375,19.5781 101.25,20.6484 Q100.5625,21.7188 100.5625,23.8125 Q100.5625,25.9063 101.25,26.9766 Q101.9375,28.0469 103.2813,28.0469 Q103.9063,28.0469 104.5,27.7734 Q105.0938,27.5 105.7188,26.9219 L105.7188,29.6406 Z "/><text fill="#000000" font-family="sans-serif" font-size="12" lengthAdjust="spacingAndGlyphs" textLength="110" x="123.25" y="28.1543">EphemeralPlaylist</text><line style="stroke: #A80036; stroke-width: 1.5;" x1="7" x2="317" y1="40" y2="40"/><rect fill="none" height="6" style="stroke: #C82930; stroke-width: 1.0;" width="6" x="14" y="48.9023"/><text fill="#000000" font-family="sans-serif" font-size="11" lengthAdjust="spacingAndGlyphs" text-decoration="underline" textLength="71" x="26" y="54.2104">LOG: Logger</text><line style="stroke: #000000; stroke-width: 1.0;" x1="26" x2="97" y1="56.2104" y2="56.2104"/><rect fill="none" height="6" style="stroke: #C82930; stroke-width: 1.0;" width="6" x="14" y="61.707"/><text fill="#000000" font-family="sans-serif" font-size="11" lengthAdjust="spacingAndGlyphs" textLength="129" x="26" y="67.0151">dbTracks: List&lt;Track&gt;</text><rect fill="none" height="6" style="stroke: #C82930; stroke-width: 1.0;" width="6" x="14" y="74.5117"/><text fill="#000000" font-family="sans-serif" font-size="11" lengthAdjust="spacingAndGlyphs" textLength="257" x="26" y="79.8198">tracksList: ObservableSortedPlaylistTrackList</text><rect fill="none" height="6" style="stroke: #C82930; stroke-width: 1.0;" width="6" x="14" y="87.3164"/><text fill="#000000" font-family="sans-serif" font-size="11" lengthAdjust="spacingAndGlyphs" textLength="132" x="26" y="92.6245">delegate: SavedPlaylist</text><line style="stroke: #A80036; stroke-width: 1.5;" x1="7" x2="317" y1="99.2188" y2="99.2188"/><ellipse cx="17" cy="111.1211" fill="#84BE84" rx="3" ry="3" style="stroke: #038048; stroke-width: 1.0;"/><text fill="#000000" font-family="sans-serif" font-size="11" lengthAdjust="spacingAndGlyphs" textLength="143" x="26" y="113.4292">EphemeralPlaylist(String)</text><ellipse cx="17" cy="123.9258" fill="#84BE84" rx="3" ry="3" style="stroke: #038048; stroke-width: 1.0;"/><text fill="#000000" font-family="sans-serif" font-size="11" lengthAdjust="spacingAndGlyphs" textLength="177" x="26" y="126.2339">downvoteTrack(Track): boolean</text><ellipse cx="17" cy="136.7305" fill="#84BE84" rx="3" ry="3" style="stroke: #038048; stroke-width: 1.0;"/><text fill="#000000" font-family="sans-serif" font-size="11" lengthAdjust="spacingAndGlyphs" textLength="161" x="26" y="139.0386">upvoteTrack(Track): boolean</text><ellipse cx="17" cy="149.5352" fill="#84BE84" rx="3" ry="3" style="stroke: #038048; stroke-width: 1.0;"/><text fill="#000000" font-family="sans-serif" font-size="11" lengthAdjust="spacingAndGlyphs" textLength="101" x="26" y="151.8433">getName(): String</text><ellipse cx="17" cy="162.3398" fill="#84BE84" rx="3" ry="3" style="stroke: #038048; stroke-width: 1.0;"/><text fill="#000000" font-family="sans-serif" font-size="11" lengthAdjust="spacingAndGlyphs" textLength="66" x="26" y="164.6479">save(): void</text><ellipse cx="17" cy="175.1445" fill="#84BE84" rx="3" ry="3" style="stroke: #038048; stroke-width: 1.0;"/><text fill="#000000" font-family="sans-serif" font-size="11" lengthAdjust="spacingAndGlyphs" textLength="128" x="26" y="177.4526">saveTrack(Track): void</text><ellipse cx="17" cy="187.9492" fill="#84BE84" rx="3" ry="3" style="stroke: #038048; stroke-width: 1.0;"/><text fill="#000000" font-family="sans-serif" font-size="11" lengthAdjust="spacingAndGlyphs" textLength="124" x="26" y="190.2573">setName(String): void</text><ellipse cx="17" cy="200.7539" fill="#84BE84" rx="3" ry="3" style="stroke: #038048; stroke-width: 1.0;"/><text fill="#000000" font-family="sans-serif" font-size="11" lengthAdjust="spacingAndGlyphs" textLength="144" x="26" y="203.062">addTrack(Track): boolean</text><ellipse cx="17" cy="213.5586" fill="#84BE84" rx="3" ry="3" style="stroke: #038048; stroke-width: 1.0;"/><text fill="#000000" font-family="sans-serif" font-size="11" lengthAdjust="spacingAndGlyphs" textLength="140" x="26" y="215.8667">contains(Track): boolean</text><ellipse cx="17" cy="226.3633" fill="#84BE84" rx="3" ry="3" style="stroke: #038048; stroke-width: 1.0;"/><text fill="#000000" font-family="sans-serif" font-size="11" lengthAdjust="spacingAndGlyphs" textLength="207" x="26" y="228.6714">getPlaylistTrack(Track): PlaylistTrack</text><ellipse cx="17" cy="239.168" fill="#84BE84" rx="3" ry="3" style="stroke: #038048; stroke-width: 1.0;"/><text fill="#000000" font-family="sans-serif" font-size="11" lengthAdjust="spacingAndGlyphs" textLength="286" x="26" y="241.4761">getTracksList(): ObservableSortedPlaylistTrackList</text><ellipse cx="17" cy="251.9727" fill="#84BE84" rx="3" ry="3" style="stroke: #038048; stroke-width: 1.0;"/><text fill="#000000" font-family="sans-serif" font-size="11" lengthAdjust="spacingAndGlyphs" textLength="106" x="26" y="254.2808">isSaved(): boolean</text><rect fill="#F24D5C" height="6" style="stroke: #C82930; stroke-width: 1.0;" width="6" x="14" y="261.7773"/><text fill="#000000" font-family="sans-serif" font-size="11" lengthAdjust="spacingAndGlyphs" textLength="182" x="26" y="267.0854">retrieveDbTracks(): List&lt;Track&gt;</text></a></g></svg>