<?xml version="1.0" encoding="UTF-8" standalone="no"?><svg xmlns="http://www.w3.org/2000/svg" xmlns:xlink="http://www.w3.org/1999/xlink" contentScriptType="application/ecmascript" contentStyleType="text/css" height="129px" preserveAspectRatio="none" style="width:248px;height:129px;" version="1.1" viewBox="0 0 248 129" width="248px" zoomAndPan="magnify"><defs><filter height="300%" id="fyf0dun" width="300%" x="-1" y="-1"><feGaussianBlur result="blurOut" stdDeviation="2.0"/><feColorMatrix in="blurOut" result="blurOut2" type="matrix" values="0 0 0 0 0 0 0 0 0 0 0 0 0 0 0 0 0 0 .4 0"/><feOffset dx="4.0" dy="4.0" in="blurOut2" result="blurOut3"/><feBlend in="SourceGraphic" in2="blurOut3" mode="normal"/></filter></defs><g><!--class IPlaylist--><a target="_top" xlink:actuate="onRequest" xlink:href="IPlaylist.html" xlink:show="new" xlink:title="IPlaylist.html" xlink:type="simple"><rect fill="#FEFECE" filter="url(#fyf0dun)" height="112.0234" style="stroke: #A80036; stroke-width: 1.5;" width="233" x="6" y="8"/><ellipse cx="95.25" cy="24" fill="#B4A7E5" rx="11" ry="11" style="stroke: #A80036; stroke-width: 1.0;"/><path d="M91.1719,19.7656 L91.1719,17.6094 L98.5625,17.6094 L98.5625,19.7656 L96.0938,19.7656 L96.0938,27.8438 L98.5625,27.8438 L98.5625,30 L91.1719,30 L91.1719,27.8438 L93.6406,27.8438 L93.6406,19.7656 L91.1719,19.7656 Z "/><text fill="#000000" font-family="sans-serif" font-size="12" font-style="italic" lengthAdjust="spacingAndGlyphs" textLength="46" x="115.75" y="28.1543">IPlaylist</text><line style="stroke: #A80036; stroke-width: 1.5;" x1="7" x2="238" y1="40" y2="40"/><line style="stroke: #A80036; stroke-width: 1.5;" x1="7" x2="238" y1="48" y2="48"/><ellipse cx="17" cy="59.9023" fill="#84BE84" rx="3" ry="3" style="stroke: #038048; stroke-width: 1.0;"/><text fill="#000000" font-family="sans-serif" font-size="11" font-style="italic" lengthAdjust="spacingAndGlyphs" textLength="144" x="26" y="62.2104">addTrack(Track): boolean</text><ellipse cx="17" cy="72.707" fill="#84BE84" rx="3" ry="3" style="stroke: #038048; stroke-width: 1.0;"/><text fill="#000000" font-family="sans-serif" font-size="11" font-style="italic" lengthAdjust="spacingAndGlyphs" textLength="139" x="26" y="75.0151">contains(Track): boolean</text><ellipse cx="17" cy="85.5117" fill="#84BE84" rx="3" ry="3" style="stroke: #038048; stroke-width: 1.0;"/><text fill="#000000" font-family="sans-serif" font-size="11" font-style="italic" lengthAdjust="spacingAndGlyphs" textLength="207" x="26" y="87.8198">getPlaylistTrack(Track): PlaylistTrack</text><ellipse cx="17" cy="98.3164" fill="#84BE84" rx="3" ry="3" style="stroke: #038048; stroke-width: 1.0;"/><text fill="#000000" font-family="sans-serif" font-size="11" font-style="italic" lengthAdjust="spacingAndGlyphs" textLength="198" x="26" y="100.6245">getTracksList(): List&lt;PlaylistTrack&gt;</text><ellipse cx="17" cy="111.1211" fill="#84BE84" rx="3" ry="3" style="stroke: #038048; stroke-width: 1.0;"/><text fill="#000000" font-family="sans-serif" font-size="11" font-style="italic" lengthAdjust="spacingAndGlyphs" textLength="105" x="26" y="113.4292">isSaved(): boolean</text></a></g></svg>