<?xml version="1.0" encoding="UTF-8" standalone="no"?><svg xmlns="http://www.w3.org/2000/svg" xmlns:xlink="http://www.w3.org/1999/xlink" contentScriptType="application/ecmascript" contentStyleType="text/css" height="1068px" preserveAspectRatio="none" style="width:912px;height:1068px;" version="1.1" viewBox="0 0 912 1068" width="912px" zoomAndPan="magnify"><defs><filter height="300%" id="f64gfcv" width="300%" x="-1" y="-1"><feGaussianBlur result="blurOut" stdDeviation="2.0"/><feColorMatrix in="blurOut" result="blurOut2" type="matrix" values="0 0 0 0 0 0 0 0 0 0 0 0 0 0 0 0 0 0 .4 0"/><feOffset dx="4.0" dy="4.0" in="blurOut2" result="blurOut3"/><feBlend in="SourceGraphic" in2="blurOut3" mode="normal"/></filter></defs><g><!--cluster ch.tofind.commusica.media--><polygon fill="#FFFFFF" filter="url(#f64gfcv)" points="22,24,243,24,250,46.2969,745,46.2969,745,1061,22,1061,22,24" style="stroke: #000000; stroke-width: 2.0;"/><line style="stroke: #000000; stroke-width: 2.0;" x1="22" x2="250" y1="46.2969" y2="46.2969"/><text fill="#000000" font-family="sans-serif" font-size="14" font-weight="bold" lengthAdjust="spacingAndGlyphs" textLength="215" x="26" y="38.9951">ch.tofind.commusica.media</text><!--cluster java.io--><polygon fill="#FFFFFF" filter="url(#f64gfcv)" points="769,357,825,357,832,379.2969,905,379.2969,905,456,769,456,769,357" style="stroke: #000000; stroke-width: 2.0;"/><line style="stroke: #000000; stroke-width: 2.0;" x1="769" x2="832" y1="379.2969" y2="379.2969"/><text fill="#000000" font-family="sans-serif" font-size="14" font-weight="bold" lengthAdjust="spacingAndGlyphs" textLength="50" x="773" y="371.9951">java.io</text><!--class ch.tofind.commusica.media.IPlaylist--><a target="_top" xlink:actuate="onRequest" xlink:href="IPlaylist.html" xlink:show="new" xlink:title="IPlaylist.html" xlink:type="simple"><rect fill="#FEFECE" filter="url(#f64gfcv)" height="112.0234" style="stroke: #A80036; stroke-width: 1.5;" width="233" x="75.5" y="59"/><ellipse cx="164.75" cy="75" fill="#B4A7E5" rx="11" ry="11" style="stroke: #A80036; stroke-width: 1.0;"/><path d="M160.6719,70.7656 L160.6719,68.6094 L168.0625,68.6094 L168.0625,70.7656 L165.5938,70.7656 L165.5938,78.8438 L168.0625,78.8438 L168.0625,81 L160.6719,81 L160.6719,78.8438 L163.1406,78.8438 L163.1406,70.7656 L160.6719,70.7656 Z "/><text fill="#000000" font-family="sans-serif" font-size="12" font-style="italic" lengthAdjust="spacingAndGlyphs" textLength="46" x="185.25" y="79.1543">IPlaylist</text><line style="stroke: #A80036; stroke-width: 1.5;" x1="76.5" x2="307.5" y1="91" y2="91"/><line style="stroke: #A80036; stroke-width: 1.5;" x1="76.5" x2="307.5" y1="99" y2="99"/><ellipse cx="86.5" cy="110.9023" fill="#84BE84" rx="3" ry="3" style="stroke: #038048; stroke-width: 1.0;"/><text fill="#000000" font-family="sans-serif" font-size="11" font-style="italic" lengthAdjust="spacingAndGlyphs" textLength="144" x="95.5" y="113.2104">addTrack(Track): boolean</text><ellipse cx="86.5" cy="123.707" fill="#84BE84" rx="3" ry="3" style="stroke: #038048; stroke-width: 1.0;"/><text fill="#000000" font-family="sans-serif" font-size="11" font-style="italic" lengthAdjust="spacingAndGlyphs" textLength="139" x="95.5" y="126.0151">contains(Track): boolean</text><ellipse cx="86.5" cy="136.5117" fill="#84BE84" rx="3" ry="3" style="stroke: #038048; stroke-width: 1.0;"/><text fill="#000000" font-family="sans-serif" font-size="11" font-style="italic" lengthAdjust="spacingAndGlyphs" textLength="207" x="95.5" y="138.8198">getPlaylistTrack(Track): PlaylistTrack</text><ellipse cx="86.5" cy="149.3164" fill="#84BE84" rx="3" ry="3" style="stroke: #038048; stroke-width: 1.0;"/><text fill="#000000" font-family="sans-serif" font-size="11" font-style="italic" lengthAdjust="spacingAndGlyphs" textLength="198" x="95.5" y="151.6245">getTracksList(): List&lt;PlaylistTrack&gt;</text><ellipse cx="86.5" cy="162.1211" fill="#84BE84" rx="3" ry="3" style="stroke: #038048; stroke-width: 1.0;"/><text fill="#000000" font-family="sans-serif" font-size="11" font-style="italic" lengthAdjust="spacingAndGlyphs" textLength="105" x="95.5" y="164.4292">isSaved(): boolean</text></a><!--class ch.tofind.commusica.media.SavedPlaylist--><a target="_top" xlink:actuate="onRequest" xlink:href="SavedPlaylist.html" xlink:show="new" xlink:title="SavedPlaylist.html" xlink:type="simple"><rect fill="#FEFECE" filter="url(#f64gfcv)" height="278.4844" style="stroke: #A80036; stroke-width: 1.5;" width="233" x="114.5" y="722"/><ellipse cx="186.25" cy="738" fill="#ADD1B2" rx="11" ry="11" style="stroke: #A80036; stroke-width: 1.0;"/><path d="M189.2188,743.6406 Q188.6406,743.9375 188,744.0859 Q187.3594,744.2344 186.6563,744.2344 Q184.1563,744.2344 182.8359,742.5859 Q181.5156,740.9375 181.5156,737.8125 Q181.5156,734.6875 182.8359,733.0313 Q184.1563,731.375 186.6563,731.375 Q187.3594,731.375 188.0078,731.5313 Q188.6563,731.6875 189.2188,731.9844 L189.2188,734.7031 Q188.5938,734.125 188,733.8516 Q187.4063,733.5781 186.7813,733.5781 Q185.4375,733.5781 184.75,734.6484 Q184.0625,735.7188 184.0625,737.8125 Q184.0625,739.9063 184.75,740.9766 Q185.4375,742.0469 186.7813,742.0469 Q187.4063,742.0469 188,741.7734 Q188.5938,741.5 189.2188,740.9219 L189.2188,743.6406 Z "/><text fill="#000000" font-family="sans-serif" font-size="12" lengthAdjust="spacingAndGlyphs" textLength="81" x="206.75" y="742.1543">SavedPlaylist</text><line style="stroke: #A80036; stroke-width: 1.5;" x1="115.5" x2="346.5" y1="754" y2="754"/><rect fill="none" height="6" style="stroke: #C82930; stroke-width: 1.0;" width="6" x="122.5" y="762.9023"/><text fill="#000000" font-family="sans-serif" font-size="11" lengthAdjust="spacingAndGlyphs" textLength="58" x="134.5" y="768.2104">id: Integer</text><rect fill="none" height="6" style="stroke: #C82930; stroke-width: 1.0;" width="6" x="122.5" y="775.707"/><text fill="#000000" font-family="sans-serif" font-size="11" lengthAdjust="spacingAndGlyphs" textLength="74" x="134.5" y="781.0151">name: String</text><rect fill="none" height="6" style="stroke: #C82930; stroke-width: 1.0;" width="6" x="122.5" y="788.5117"/><text fill="#000000" font-family="sans-serif" font-size="11" lengthAdjust="spacingAndGlyphs" textLength="94" x="134.5" y="793.8198">dateAdded: Date</text><rect fill="none" height="6" style="stroke: #C82930; stroke-width: 1.0;" width="6" x="122.5" y="801.3164"/><text fill="#000000" font-family="sans-serif" font-size="11" lengthAdjust="spacingAndGlyphs" textLength="96" x="134.5" y="806.6245">datePlayed: Date</text><rect fill="none" height="6" style="stroke: #C82930; stroke-width: 1.0;" width="6" x="122.5" y="814.1211"/><text fill="#000000" font-family="sans-serif" font-size="11" lengthAdjust="spacingAndGlyphs" textLength="90" x="134.5" y="819.4292">version: Integer</text><line style="stroke: #A80036; stroke-width: 1.5;" x1="115.5" x2="346.5" y1="826.0234" y2="826.0234"/><rect fill="#F24D5C" height="6" style="stroke: #C82930; stroke-width: 1.0;" width="6" x="122.5" y="834.9258"/><text fill="#000000" font-family="sans-serif" font-size="11" lengthAdjust="spacingAndGlyphs" textLength="83" x="134.5" y="840.2339">SavedPlaylist()</text><ellipse cx="125.5" cy="850.7305" fill="#84BE84" rx="3" ry="3" style="stroke: #038048; stroke-width: 1.0;"/><text fill="#000000" font-family="sans-serif" font-size="11" lengthAdjust="spacingAndGlyphs" textLength="117" x="134.5" y="853.0386">SavedPlaylist(String)</text><ellipse cx="125.5" cy="863.5352" fill="#84BE84" rx="3" ry="3" style="stroke: #038048; stroke-width: 1.0;"/><text fill="#000000" font-family="sans-serif" font-size="11" lengthAdjust="spacingAndGlyphs" textLength="84" x="134.5" y="865.8433">getId(): Integer</text><ellipse cx="125.5" cy="876.3398" fill="#84BE84" rx="3" ry="3" style="stroke: #038048; stroke-width: 1.0;"/><text fill="#000000" font-family="sans-serif" font-size="11" lengthAdjust="spacingAndGlyphs" textLength="101" x="134.5" y="878.6479">getName(): String</text><ellipse cx="125.5" cy="889.1445" fill="#84BE84" rx="3" ry="3" style="stroke: #038048; stroke-width: 1.0;"/><text fill="#000000" font-family="sans-serif" font-size="11" lengthAdjust="spacingAndGlyphs" textLength="124" x="134.5" y="891.4526">setName(String): void</text><ellipse cx="125.5" cy="901.9492" fill="#84BE84" rx="3" ry="3" style="stroke: #038048; stroke-width: 1.0;"/><text fill="#000000" font-family="sans-serif" font-size="11" lengthAdjust="spacingAndGlyphs" textLength="121" x="134.5" y="904.2573">getDateAdded(): Date</text><ellipse cx="125.5" cy="914.7539" fill="#84BE84" rx="3" ry="3" style="stroke: #038048; stroke-width: 1.0;"/><text fill="#000000" font-family="sans-serif" font-size="11" lengthAdjust="spacingAndGlyphs" textLength="123" x="134.5" y="917.062">getDatePlayed(): Date</text><ellipse cx="125.5" cy="927.5586" fill="#84BE84" rx="3" ry="3" style="stroke: #038048; stroke-width: 1.0;"/><text fill="#000000" font-family="sans-serif" font-size="11" lengthAdjust="spacingAndGlyphs" textLength="78" x="134.5" y="929.8667">update(): void</text><ellipse cx="125.5" cy="940.3633" fill="#84BE84" rx="3" ry="3" style="stroke: #038048; stroke-width: 1.0;"/><text fill="#000000" font-family="sans-serif" font-size="11" lengthAdjust="spacingAndGlyphs" textLength="144" x="134.5" y="942.6714">addTrack(Track): boolean</text><ellipse cx="125.5" cy="953.168" fill="#84BE84" rx="3" ry="3" style="stroke: #038048; stroke-width: 1.0;"/><text fill="#000000" font-family="sans-serif" font-size="11" lengthAdjust="spacingAndGlyphs" textLength="140" x="134.5" y="955.4761">contains(Track): boolean</text><ellipse cx="125.5" cy="965.9727" fill="#84BE84" rx="3" ry="3" style="stroke: #038048; stroke-width: 1.0;"/><text fill="#000000" font-family="sans-serif" font-size="11" lengthAdjust="spacingAndGlyphs" textLength="207" x="134.5" y="968.2808">getPlaylistTrack(Track): PlaylistTrack</text><ellipse cx="125.5" cy="978.7773" fill="#84BE84" rx="3" ry="3" style="stroke: #038048; stroke-width: 1.0;"/><text fill="#000000" font-family="sans-serif" font-size="11" lengthAdjust="spacingAndGlyphs" textLength="201" x="134.5" y="981.0854">getTracksList(): List&lt;PlaylistTrack&gt;</text><ellipse cx="125.5" cy="991.582" fill="#84BE84" rx="3" ry="3" style="stroke: #038048; stroke-width: 1.0;"/><text fill="#000000" font-family="sans-serif" font-size="11" lengthAdjust="spacingAndGlyphs" textLength="106" x="134.5" y="993.8901">isSaved(): boolean</text></a><!--class ch.tofind.commusica.media.EphemeralPlaylist--><a target="_top" xlink:actuate="onRequest" xlink:href="EphemeralPlaylist.html" xlink:show="new" xlink:title="EphemeralPlaylist.html" xlink:type="simple"><rect fill="#FEFECE" filter="url(#f64gfcv)" height="240.0703" style="stroke: #A80036; stroke-width: 1.5;" width="312" x="75" y="296"/><ellipse cx="171.75" cy="312" fill="#ADD1B2" rx="11" ry="11" style="stroke: #A80036; stroke-width: 1.0;"/><path d="M174.7188,317.6406 Q174.1406,317.9375 173.5,318.0859 Q172.8594,318.2344 172.1563,318.2344 Q169.6563,318.2344 168.3359,316.5859 Q167.0156,314.9375 167.0156,311.8125 Q167.0156,308.6875 168.3359,307.0313 Q169.6563,305.375 172.1563,305.375 Q172.8594,305.375 173.5078,305.5313 Q174.1563,305.6875 174.7188,305.9844 L174.7188,308.7031 Q174.0938,308.125 173.5,307.8516 Q172.9063,307.5781 172.2813,307.5781 Q170.9375,307.5781 170.25,308.6484 Q169.5625,309.7188 169.5625,311.8125 Q169.5625,313.9063 170.25,314.9766 Q170.9375,316.0469 172.2813,316.0469 Q172.9063,316.0469 173.5,315.7734 Q174.0938,315.5 174.7188,314.9219 L174.7188,317.6406 Z "/><text fill="#000000" font-family="sans-serif" font-size="12" lengthAdjust="spacingAndGlyphs" textLength="110" x="192.25" y="316.1543">EphemeralPlaylist</text><line style="stroke: #A80036; stroke-width: 1.5;" x1="76" x2="386" y1="328" y2="328"/><rect fill="none" height="6" style="stroke: #C82930; stroke-width: 1.0;" width="6" x="83" y="336.9023"/><text fill="#000000" font-family="sans-serif" font-size="11" lengthAdjust="spacingAndGlyphs" text-decoration="underline" textLength="71" x="95" y="342.2104">LOG: Logger</text><line style="stroke: #000000; stroke-width: 1.0;" x1="95" x2="166" y1="344.2104" y2="344.2104"/><rect fill="none" height="6" style="stroke: #C82930; stroke-width: 1.0;" width="6" x="83" y="349.707"/><text fill="#000000" font-family="sans-serif" font-size="11" lengthAdjust="spacingAndGlyphs" textLength="257" x="95" y="355.0151">tracksList: ObservableSortedPlaylistTrackList</text><line style="stroke: #A80036; stroke-width: 1.5;" x1="76" x2="386" y1="361.6094" y2="361.6094"/><ellipse cx="86" cy="373.5117" fill="#84BE84" rx="3" ry="3" style="stroke: #038048; stroke-width: 1.0;"/><text fill="#000000" font-family="sans-serif" font-size="11" lengthAdjust="spacingAndGlyphs" textLength="143" x="95" y="375.8198">EphemeralPlaylist(String)</text><ellipse cx="86" cy="386.3164" fill="#84BE84" rx="3" ry="3" style="stroke: #038048; stroke-width: 1.0;"/><text fill="#000000" font-family="sans-serif" font-size="11" lengthAdjust="spacingAndGlyphs" textLength="177" x="95" y="388.6245">downvoteTrack(Track): boolean</text><ellipse cx="86" cy="399.1211" fill="#84BE84" rx="3" ry="3" style="stroke: #038048; stroke-width: 1.0;"/><text fill="#000000" font-family="sans-serif" font-size="11" lengthAdjust="spacingAndGlyphs" textLength="161" x="95" y="401.4292">upvoteTrack(Track): boolean</text><ellipse cx="86" cy="411.9258" fill="#84BE84" rx="3" ry="3" style="stroke: #038048; stroke-width: 1.0;"/><text fill="#000000" font-family="sans-serif" font-size="11" lengthAdjust="spacingAndGlyphs" textLength="101" x="95" y="414.2339">getName(): String</text><ellipse cx="86" cy="424.7305" fill="#84BE84" rx="3" ry="3" style="stroke: #038048; stroke-width: 1.0;"/><text fill="#000000" font-family="sans-serif" font-size="11" lengthAdjust="spacingAndGlyphs" textLength="66" x="95" y="427.0386">save(): void</text><ellipse cx="86" cy="437.5352" fill="#84BE84" rx="3" ry="3" style="stroke: #038048; stroke-width: 1.0;"/><text fill="#000000" font-family="sans-serif" font-size="11" lengthAdjust="spacingAndGlyphs" textLength="128" x="95" y="439.8433">saveTrack(Track): void</text><ellipse cx="86" cy="450.3398" fill="#84BE84" rx="3" ry="3" style="stroke: #038048; stroke-width: 1.0;"/><text fill="#000000" font-family="sans-serif" font-size="11" lengthAdjust="spacingAndGlyphs" textLength="124" x="95" y="452.6479">setName(String): void</text><ellipse cx="86" cy="463.1445" fill="#84BE84" rx="3" ry="3" style="stroke: #038048; stroke-width: 1.0;"/><text fill="#000000" font-family="sans-serif" font-size="11" lengthAdjust="spacingAndGlyphs" textLength="144" x="95" y="465.4526">addTrack(Track): boolean</text><ellipse cx="86" cy="475.9492" fill="#84BE84" rx="3" ry="3" style="stroke: #038048; stroke-width: 1.0;"/><text fill="#000000" font-family="sans-serif" font-size="11" lengthAdjust="spacingAndGlyphs" textLength="140" x="95" y="478.2573">contains(Track): boolean</text><ellipse cx="86" cy="488.7539" fill="#84BE84" rx="3" ry="3" style="stroke: #038048; stroke-width: 1.0;"/><text fill="#000000" font-family="sans-serif" font-size="11" lengthAdjust="spacingAndGlyphs" textLength="207" x="95" y="491.062">getPlaylistTrack(Track): PlaylistTrack</text><ellipse cx="86" cy="501.5586" fill="#84BE84" rx="3" ry="3" style="stroke: #038048; stroke-width: 1.0;"/><text fill="#000000" font-family="sans-serif" font-size="11" lengthAdjust="spacingAndGlyphs" textLength="286" x="95" y="503.8667">getTracksList(): ObservableSortedPlaylistTrackList</text><ellipse cx="86" cy="514.3633" fill="#84BE84" rx="3" ry="3" style="stroke: #038048; stroke-width: 1.0;"/><text fill="#000000" font-family="sans-serif" font-size="11" lengthAdjust="spacingAndGlyphs" textLength="106" x="95" y="516.6714">isSaved(): boolean</text><rect fill="#F24D5C" height="6" style="stroke: #C82930; stroke-width: 1.0;" width="6" x="83" y="524.168"/><text fill="#000000" font-family="sans-serif" font-size="11" lengthAdjust="spacingAndGlyphs" textLength="182" x="95" y="529.4761">retrieveDbTracks(): List&lt;Track&gt;</text></a><!--class ch.tofind.commusica.media.Track--><a target="_top" xlink:actuate="onRequest" xlink:href="Track.html" xlink:show="new" xlink:title="Track.html" xlink:type="simple"><rect fill="#FEFECE" filter="url(#f64gfcv)" height="368.1172" style="stroke: #A80036; stroke-width: 1.5;" width="315" x="413.5" y="677"/><ellipse cx="549.75" cy="693" fill="#ADD1B2" rx="11" ry="11" style="stroke: #A80036; stroke-width: 1.0;"/><path d="M552.7188,698.6406 Q552.1406,698.9375 551.5,699.0859 Q550.8594,699.2344 550.1563,699.2344 Q547.6563,699.2344 546.3359,697.5859 Q545.0156,695.9375 545.0156,692.8125 Q545.0156,689.6875 546.3359,688.0313 Q547.6563,686.375 550.1563,686.375 Q550.8594,686.375 551.5078,686.5313 Q552.1563,686.6875 552.7188,686.9844 L552.7188,689.7031 Q552.0938,689.125 551.5,688.8516 Q550.9063,688.5781 550.2813,688.5781 Q548.9375,688.5781 548.25,689.6484 Q547.5625,690.7188 547.5625,692.8125 Q547.5625,694.9063 548.25,695.9766 Q548.9375,697.0469 550.2813,697.0469 Q550.9063,697.0469 551.5,696.7734 Q552.0938,696.5 552.7188,695.9219 L552.7188,698.6406 Z "/><text fill="#000000" font-family="sans-serif" font-size="12" lengthAdjust="spacingAndGlyphs" textLength="34" x="570.25" y="697.1543">Track</text><line style="stroke: #A80036; stroke-width: 1.5;" x1="414.5" x2="727.5" y1="709" y2="709"/><rect fill="none" height="6" style="stroke: #C82930; stroke-width: 1.0;" width="6" x="421.5" y="717.9023"/><text fill="#000000" font-family="sans-serif" font-size="11" lengthAdjust="spacingAndGlyphs" textLength="52" x="433.5" y="723.2104">id: String</text><rect fill="none" height="6" style="stroke: #C82930; stroke-width: 1.0;" width="6" x="421.5" y="730.707"/><text fill="#000000" font-family="sans-serif" font-size="11" lengthAdjust="spacingAndGlyphs" textLength="63" x="433.5" y="736.0151">title: String</text><rect fill="none" height="6" style="stroke: #C82930; stroke-width: 1.0;" width="6" x="421.5" y="743.5117"/><text fill="#000000" font-family="sans-serif" font-size="11" lengthAdjust="spacingAndGlyphs" textLength="72" x="433.5" y="748.8198">artist: String</text><rect fill="none" height="6" style="stroke: #C82930; stroke-width: 1.0;" width="6" x="421.5" y="756.3164"/><text fill="#000000" font-family="sans-serif" font-size="11" lengthAdjust="spacingAndGlyphs" textLength="77" x="433.5" y="761.6245">album: String</text><rect fill="none" height="6" style="stroke: #C82930; stroke-width: 1.0;" width="6" x="421.5" y="769.1211"/><text fill="#000000" font-family="sans-serif" font-size="11" lengthAdjust="spacingAndGlyphs" textLength="83" x="433.5" y="774.4292">length: Integer</text><rect fill="none" height="6" style="stroke: #C82930; stroke-width: 1.0;" width="6" x="421.5" y="781.9258"/><text fill="#000000" font-family="sans-serif" font-size="11" lengthAdjust="spacingAndGlyphs" textLength="57" x="433.5" y="787.2339">uri: String</text><rect fill="none" height="6" style="stroke: #C82930; stroke-width: 1.0;" width="6" x="421.5" y="794.7305"/><text fill="#000000" font-family="sans-serif" font-size="11" lengthAdjust="spacingAndGlyphs" textLength="94" x="433.5" y="800.0386">dateAdded: Date</text><rect fill="none" height="6" style="stroke: #C82930; stroke-width: 1.0;" width="6" x="421.5" y="807.5352"/><text fill="#000000" font-family="sans-serif" font-size="11" lengthAdjust="spacingAndGlyphs" textLength="96" x="433.5" y="812.8433">datePlayed: Date</text><rect fill="none" height="6" style="stroke: #C82930; stroke-width: 1.0;" width="6" x="421.5" y="820.3398"/><text fill="#000000" font-family="sans-serif" font-size="11" lengthAdjust="spacingAndGlyphs" textLength="200" x="433.5" y="825.6479">favoritedProperty: BooleanProperty</text><rect fill="none" height="6" style="stroke: #C82930; stroke-width: 1.0;" width="6" x="421.5" y="833.1445"/><text fill="#000000" font-family="sans-serif" font-size="11" lengthAdjust="spacingAndGlyphs" textLength="90" x="433.5" y="838.4526">version: Integer</text><line style="stroke: #A80036; stroke-width: 1.5;" x1="414.5" x2="727.5" y1="845.0469" y2="845.0469"/><polygon fill="#FFFF44" points="424.5,851.9492,428.5,855.9492,424.5,859.9492,420.5,855.9492" style="stroke: #B38D22; stroke-width: 1.0;"/><text fill="#000000" font-family="sans-serif" font-size="11" lengthAdjust="spacingAndGlyphs" textLength="39" x="433.5" y="859.2573">Track()</text><ellipse cx="424.5" cy="869.7539" fill="#84BE84" rx="3" ry="3" style="stroke: #038048; stroke-width: 1.0;"/><text fill="#000000" font-family="sans-serif" font-size="11" lengthAdjust="spacingAndGlyphs" textLength="289" x="433.5" y="872.062">Track(String, String, String, String, Integer, String)</text><ellipse cx="424.5" cy="882.5586" fill="#84BE84" rx="3" ry="3" style="stroke: #038048; stroke-width: 1.0;"/><text fill="#000000" font-family="sans-serif" font-size="11" lengthAdjust="spacingAndGlyphs" textLength="89" x="433.5" y="884.8667">Track(AudioFile)</text><ellipse cx="424.5" cy="895.3633" fill="#84BE84" rx="3" ry="3" style="stroke: #038048; stroke-width: 1.0;"/><text fill="#000000" font-family="sans-serif" font-size="11" lengthAdjust="spacingAndGlyphs" textLength="78" x="433.5" y="897.6714">getId(): String</text><ellipse cx="424.5" cy="908.168" fill="#84BE84" rx="3" ry="3" style="stroke: #038048; stroke-width: 1.0;"/><text fill="#000000" font-family="sans-serif" font-size="11" lengthAdjust="spacingAndGlyphs" textLength="92" x="433.5" y="910.4761">getTitle(): String</text><ellipse cx="424.5" cy="920.9727" fill="#84BE84" rx="3" ry="3" style="stroke: #038048; stroke-width: 1.0;"/><text fill="#000000" font-family="sans-serif" font-size="11" lengthAdjust="spacingAndGlyphs" textLength="98" x="433.5" y="923.2808">getArtist(): String</text><ellipse cx="424.5" cy="933.7773" fill="#84BE84" rx="3" ry="3" style="stroke: #038048; stroke-width: 1.0;"/><text fill="#000000" font-family="sans-serif" font-size="11" lengthAdjust="spacingAndGlyphs" textLength="103" x="433.5" y="936.0854">getAlbum(): String</text><ellipse cx="424.5" cy="946.582" fill="#84BE84" rx="3" ry="3" style="stroke: #038048; stroke-width: 1.0;"/><text fill="#000000" font-family="sans-serif" font-size="11" lengthAdjust="spacingAndGlyphs" textLength="112" x="433.5" y="948.8901">getLength(): Integer</text><ellipse cx="424.5" cy="959.3867" fill="#84BE84" rx="3" ry="3" style="stroke: #038048; stroke-width: 1.0;"/><text fill="#000000" font-family="sans-serif" font-size="11" lengthAdjust="spacingAndGlyphs" textLength="84" x="433.5" y="961.6948">getUri(): String</text><ellipse cx="424.5" cy="972.1914" fill="#84BE84" rx="3" ry="3" style="stroke: #038048; stroke-width: 1.0;"/><text fill="#000000" font-family="sans-serif" font-size="11" lengthAdjust="spacingAndGlyphs" textLength="107" x="433.5" y="974.4995">setUri(String): void</text><ellipse cx="424.5" cy="984.9961" fill="#84BE84" rx="3" ry="3" style="stroke: #038048; stroke-width: 1.0;"/><text fill="#000000" font-family="sans-serif" font-size="11" lengthAdjust="spacingAndGlyphs" textLength="121" x="433.5" y="987.3042">getDateAdded(): Date</text><ellipse cx="424.5" cy="997.8008" fill="#84BE84" rx="3" ry="3" style="stroke: #038048; stroke-width: 1.0;"/><text fill="#000000" font-family="sans-serif" font-size="11" lengthAdjust="spacingAndGlyphs" textLength="123" x="433.5" y="1000.1089">getDatePlayed(): Date</text><ellipse cx="424.5" cy="1010.6055" fill="#84BE84" rx="3" ry="3" style="stroke: #038048; stroke-width: 1.0;"/><text fill="#000000" font-family="sans-serif" font-size="11" lengthAdjust="spacingAndGlyphs" textLength="228" x="433.5" y="1012.9136">getFavoritedProperty(): BooleanProperty</text><ellipse cx="424.5" cy="1023.4102" fill="#84BE84" rx="3" ry="3" style="stroke: #038048; stroke-width: 1.0;"/><text fill="#000000" font-family="sans-serif" font-size="11" lengthAdjust="spacingAndGlyphs" textLength="202" x="433.5" y="1025.7183">setFavoritedProperty(boolean): void</text><ellipse cx="424.5" cy="1036.2148" fill="#84BE84" rx="3" ry="3" style="stroke: #038048; stroke-width: 1.0;"/><text fill="#000000" font-family="sans-serif" font-size="11" lengthAdjust="spacingAndGlyphs" textLength="78" x="433.5" y="1038.5229">update(): void</text></a><!--class ch.tofind.commusica.media.Player--><a target="_top" xlink:actuate="onRequest" xlink:href="Player.html" xlink:show="new" xlink:title="Player.html" xlink:type="simple"><rect fill="#FEFECE" filter="url(#f64gfcv)" height="368.1172" style="stroke: #A80036; stroke-width: 1.5;" width="307" x="422.5" y="232"/><ellipse cx="552.75" cy="248" fill="#ADD1B2" rx="11" ry="11" style="stroke: #A80036; stroke-width: 1.0;"/><path d="M555.7188,253.6406 Q555.1406,253.9375 554.5,254.0859 Q553.8594,254.2344 553.1563,254.2344 Q550.6563,254.2344 549.3359,252.5859 Q548.0156,250.9375 548.0156,247.8125 Q548.0156,244.6875 549.3359,243.0313 Q550.6563,241.375 553.1563,241.375 Q553.8594,241.375 554.5078,241.5313 Q555.1563,241.6875 555.7188,241.9844 L555.7188,244.7031 Q555.0938,244.125 554.5,243.8516 Q553.9063,243.5781 553.2813,243.5781 Q551.9375,243.5781 551.25,244.6484 Q550.5625,245.7188 550.5625,247.8125 Q550.5625,249.9063 551.25,250.9766 Q551.9375,252.0469 553.2813,252.0469 Q553.9063,252.0469 554.5,251.7734 Q555.0938,251.5 555.7188,250.9219 L555.7188,253.6406 Z "/><text fill="#000000" font-family="sans-serif" font-size="12" lengthAdjust="spacingAndGlyphs" textLength="38" x="573.25" y="252.1543">Player</text><line style="stroke: #A80036; stroke-width: 1.5;" x1="423.5" x2="728.5" y1="264" y2="264"/><rect fill="none" height="6" style="stroke: #C82930; stroke-width: 1.0;" width="6" x="430.5" y="272.9023"/><text fill="#000000" font-family="sans-serif" font-size="11" lengthAdjust="spacingAndGlyphs" text-decoration="underline" textLength="71" x="442.5" y="278.2104">LOG: Logger</text><line style="stroke: #000000; stroke-width: 1.0;" x1="442.5" x2="513.5" y1="280.2104" y2="280.2104"/><rect fill="none" height="6" style="stroke: #C82930; stroke-width: 1.0;" width="6" x="430.5" y="285.707"/><text fill="#000000" font-family="sans-serif" font-size="11" lengthAdjust="spacingAndGlyphs" text-decoration="underline" textLength="119" x="442.5" y="291.0151">currentPlayer: Player</text><line style="stroke: #000000; stroke-width: 1.0;" x1="442.5" x2="561.5" y1="293.0151" y2="293.0151"/><rect fill="none" height="6" style="stroke: #C82930; stroke-width: 1.0;" width="6" x="430.5" y="298.5117"/><text fill="#000000" font-family="sans-serif" font-size="11" lengthAdjust="spacingAndGlyphs" textLength="111" x="442.5" y="303.8198">player: MediaPlayer</text><rect fill="none" height="6" style="stroke: #C82930; stroke-width: 1.0;" width="6" x="430.5" y="311.3164"/><text fill="#000000" font-family="sans-serif" font-size="11" lengthAdjust="spacingAndGlyphs" textLength="213" x="442.5" y="316.6245">currentTimeProperty: IntegerProperty</text><rect fill="none" height="6" style="stroke: #C82930; stroke-width: 1.0;" width="6" x="430.5" y="324.1211"/><text fill="#000000" font-family="sans-serif" font-size="11" lengthAdjust="spacingAndGlyphs" textLength="247" x="442.5" y="329.4292">currentTrackProperty: PlaylistTrackProperty</text><rect fill="none" height="6" style="stroke: #C82930; stroke-width: 1.0;" width="6" x="430.5" y="336.9258"/><text fill="#000000" font-family="sans-serif" font-size="11" lengthAdjust="spacingAndGlyphs" textLength="255" x="442.5" y="342.2339">previousTrackProperty: PlaylistTrackProperty</text><rect fill="none" height="6" style="stroke: #C82930; stroke-width: 1.0;" width="6" x="430.5" y="349.7305"/><text fill="#000000" font-family="sans-serif" font-size="11" lengthAdjust="spacingAndGlyphs" textLength="113" x="442.5" y="355.0386">volumeStep: double</text><rect fill="none" height="6" style="stroke: #C82930; stroke-width: 1.0;" width="6" x="430.5" y="362.5352"/><text fill="#000000" font-family="sans-serif" font-size="11" lengthAdjust="spacingAndGlyphs" textLength="200" x="442.5" y="367.8433">isPlayingProperty: BooleanProperty</text><rect fill="none" height="6" style="stroke: #C82930; stroke-width: 1.0;" width="6" x="430.5" y="375.3398"/><text fill="#000000" font-family="sans-serif" font-size="11" lengthAdjust="spacingAndGlyphs" textLength="184" x="442.5" y="380.6479">volumeProperty: DoubleProperty</text><rect fill="none" height="6" style="stroke: #C82930; stroke-width: 1.0;" width="6" x="430.5" y="388.1445"/><text fill="#000000" font-family="sans-serif" font-size="11" lengthAdjust="spacingAndGlyphs" textLength="118" x="442.5" y="393.4526">MIN_VOLUME: double</text><rect fill="none" height="6" style="stroke: #C82930; stroke-width: 1.0;" width="6" x="430.5" y="400.9492"/><text fill="#000000" font-family="sans-serif" font-size="11" lengthAdjust="spacingAndGlyphs" textLength="121" x="442.5" y="406.2573">MAX_VOLUME: double</text><line style="stroke: #A80036; stroke-width: 1.5;" x1="423.5" x2="728.5" y1="412.8516" y2="412.8516"/><rect fill="#F24D5C" height="6" style="stroke: #C82930; stroke-width: 1.0;" width="6" x="430.5" y="421.7539"/><text fill="#000000" font-family="sans-serif" font-size="11" lengthAdjust="spacingAndGlyphs" textLength="81" x="442.5" y="427.062">Player(double)</text><ellipse cx="433.5" cy="437.5586" fill="#84BE84" rx="3" ry="3" style="stroke: #038048; stroke-width: 1.0;"/><text fill="#000000" font-family="sans-serif" font-size="11" lengthAdjust="spacingAndGlyphs" text-decoration="underline" textLength="147" x="442.5" y="439.8667">getCurrentPlayer(): Player</text><line style="stroke: #000000; stroke-width: 1.0;" x1="442.5" x2="589.5" y1="441.8667" y2="441.8667"/><ellipse cx="433.5" cy="450.3633" fill="#84BE84" rx="3" ry="3" style="stroke: #038048; stroke-width: 1.0;"/><text fill="#000000" font-family="sans-serif" font-size="11" lengthAdjust="spacingAndGlyphs" textLength="63" x="442.5" y="452.6714">load(): void</text><ellipse cx="433.5" cy="463.168" fill="#84BE84" rx="3" ry="3" style="stroke: #038048; stroke-width: 1.0;"/><text fill="#000000" font-family="sans-serif" font-size="11" lengthAdjust="spacingAndGlyphs" textLength="241" x="442.5" y="465.4761">getCurrentTimeProperty(): IntegerProperty</text><ellipse cx="433.5" cy="475.9727" fill="#84BE84" rx="3" ry="3" style="stroke: #038048; stroke-width: 1.0;"/><text fill="#000000" font-family="sans-serif" font-size="11" lengthAdjust="spacingAndGlyphs" textLength="275" x="442.5" y="478.2808">getCurrentTrackProperty(): PlaylistTrackProperty</text><ellipse cx="433.5" cy="488.7773" fill="#84BE84" rx="3" ry="3" style="stroke: #038048; stroke-width: 1.0;"/><text fill="#000000" font-family="sans-serif" font-size="11" lengthAdjust="spacingAndGlyphs" textLength="281" x="442.5" y="491.0854">getPreviousTrackProperty(): PlaylistTrackProperty</text><ellipse cx="433.5" cy="501.582" fill="#84BE84" rx="3" ry="3" style="stroke: #038048; stroke-width: 1.0;"/><text fill="#000000" font-family="sans-serif" font-size="11" lengthAdjust="spacingAndGlyphs" textLength="226" x="442.5" y="503.8901">getIsPlayingProperty(): BooleanProperty</text><ellipse cx="433.5" cy="514.3867" fill="#84BE84" rx="3" ry="3" style="stroke: #038048; stroke-width: 1.0;"/><text fill="#000000" font-family="sans-serif" font-size="11" lengthAdjust="spacingAndGlyphs" textLength="211" x="442.5" y="516.6948">getVolumeProperty(): DoubleProperty</text><ellipse cx="433.5" cy="527.1914" fill="#84BE84" rx="3" ry="3" style="stroke: #038048; stroke-width: 1.0;"/><text fill="#000000" font-family="sans-serif" font-size="11" lengthAdjust="spacingAndGlyphs" textLength="111" x="442.5" y="529.4995">isPlaying(): boolean</text><ellipse cx="433.5" cy="539.9961" fill="#84BE84" rx="3" ry="3" style="stroke: #038048; stroke-width: 1.0;"/><text fill="#000000" font-family="sans-serif" font-size="11" lengthAdjust="spacingAndGlyphs" textLength="62" x="442.5" y="542.3042">play(): void</text><ellipse cx="433.5" cy="552.8008" fill="#84BE84" rx="3" ry="3" style="stroke: #038048; stroke-width: 1.0;"/><text fill="#000000" font-family="sans-serif" font-size="11" lengthAdjust="spacingAndGlyphs" textLength="74" x="442.5" y="555.1089">pause(): void</text><ellipse cx="433.5" cy="565.6055" fill="#84BE84" rx="3" ry="3" style="stroke: #038048; stroke-width: 1.0;"/><text fill="#000000" font-family="sans-serif" font-size="11" lengthAdjust="spacingAndGlyphs" textLength="64" x="442.5" y="567.9136">stop(): void</text><ellipse cx="433.5" cy="578.4102" fill="#84BE84" rx="3" ry="3" style="stroke: #038048; stroke-width: 1.0;"/><text fill="#000000" font-family="sans-serif" font-size="11" lengthAdjust="spacingAndGlyphs" textLength="103" x="442.5" y="580.7183">riseVolume(): void</text><ellipse cx="433.5" cy="591.2148" fill="#84BE84" rx="3" ry="3" style="stroke: #038048; stroke-width: 1.0;"/><text fill="#000000" font-family="sans-serif" font-size="11" lengthAdjust="spacingAndGlyphs" textLength="112" x="442.5" y="593.5229">lowerVolume(): void</text></a><!--class java.io.Serializable--><rect fill="#FEFECE" filter="url(#f64gfcv)" height="48" style="stroke: #A80036; stroke-width: 1.5;" width="103" x="785.5" y="392"/><ellipse cx="800.5" cy="408" fill="#B4A7E5" rx="11" ry="11" style="stroke: #A80036; stroke-width: 1.0;"/><path d="M796.4219,403.7656 L796.4219,401.6094 L803.8125,401.6094 L803.8125,403.7656 L801.3438,403.7656 L801.3438,411.8438 L803.8125,411.8438 L803.8125,414 L796.4219,414 L796.4219,411.8438 L798.8906,411.8438 L798.8906,403.7656 L796.4219,403.7656 Z "/><text fill="#000000" font-family="sans-serif" font-size="12" font-style="italic" lengthAdjust="spacingAndGlyphs" textLength="71" x="814.5" y="412.1543">Serializable</text><line style="stroke: #A80036; stroke-width: 1.5;" x1="786.5" x2="887.5" y1="424" y2="424"/><line style="stroke: #A80036; stroke-width: 1.5;" x1="786.5" x2="887.5" y1="432" y2="432"/><path d="M823.751,459.287 C809.489,499.358 783.531,559.304 745,600 C635.791,715.343 537.294,604.429 396,677 C373.739,688.433 353.036,704.198 334.341,721.716 " fill="none" style="stroke: #A80036; stroke-width: 1.0; stroke-dasharray: 7.0,7.0;"/><polygon fill="none" points="817.201,456.805,830.23,440.094,830.465,461.282,817.201,456.805" style="stroke: #A80036; stroke-width: 1.0;"/><path d="M90.6758,184.906 C77.0252,198.822 64.9915,214.597 57,232 C-11.2522,380.634 9.4654,443.504 57,600 C69.9047,642.485 92.3112,684.35 116.835,721.658 " fill="none" style="stroke: #A80036; stroke-width: 1.0; stroke-dasharray: 7.0,7.0;"/><polygon fill="none" points="86.0153,179.68,105.3847,171.087,95.6012,189.883,86.0153,179.68" style="stroke: #A80036; stroke-width: 1.0;"/><path d="M201.79,191.055 C205.921,222.731 210.834,260.392 215.44,295.707 " fill="none" style="stroke: #A80036; stroke-width: 1.0; stroke-dasharray: 7.0,7.0;"/><polygon fill="none" points="194.844,191.927,199.199,171.19,208.727,190.116,194.844,191.927" style="stroke: #A80036; stroke-width: 1.0;"/><path d="M829.14,459.881 C819.081,507.837 798.674,586.686 764,647 C753.678,664.954 741.631,682.684 728.69,699.792 " fill="none" style="stroke: #A80036; stroke-width: 1.0; stroke-dasharray: 7.0,7.0;"/><polygon fill="none" points="822.287,458.453,833.048,440.199,836.019,461.179,822.287,458.453" style="stroke: #A80036; stroke-width: 1.0;"/><path d="M322.337,536.007 C354.605,578.05 391.723,626.412 427.27,672.729 " fill="none" style="stroke: #A80036; stroke-width: 1.0;"/><polygon fill="#A80036" points="430.485,676.917,428.1793,667.3418,427.4411,672.9503,421.8326,672.2121,430.485,676.917" style="stroke: #A80036; stroke-width: 1.0;"/><text fill="#000000" font-family="sans-serif" font-size="13" lengthAdjust="spacingAndGlyphs" textLength="57" x="402" y="643.0669">dbTracks</text><text fill="#000000" font-family="sans-serif" font-size="13" lengthAdjust="spacingAndGlyphs" textLength="7" x="417.4094" y="665.9018">*</text><path d="M231,536.007 C231,591.608 231,658.262 231,716.619 " fill="none" style="stroke: #A80036; stroke-width: 1.0;"/><polygon fill="#A80036" points="231,721.88,235,712.88,231,716.88,227,712.88,231,721.88" style="stroke: #A80036; stroke-width: 1.0;"/><text fill="#000000" font-family="sans-serif" font-size="13" lengthAdjust="spacingAndGlyphs" textLength="56" x="232" y="643.0669">delegate</text><path d="M573.934,600.063 C573.667,623.745 573.392,648.032 573.124,671.796 " fill="none" style="stroke: #A80036; stroke-width: 1.0;"/><polygon fill="#A80036" points="573.067,676.858,577.1671,667.9031,573.1227,671.8583,569.1676,667.814,573.067,676.858" style="stroke: #A80036; stroke-width: 1.0;"/><text fill="#000000" font-family="sans-serif" font-size="13" lengthAdjust="spacingAndGlyphs" textLength="80" x="574" y="643.0669">currentTrack</text></g></svg>