<?xml version="1.0" encoding="UTF-8" standalone="no"?><svg xmlns="http://www.w3.org/2000/svg" xmlns:xlink="http://www.w3.org/1999/xlink" contentScriptType="application/ecmascript" contentStyleType="text/css" height="641px" preserveAspectRatio="none" style="width:514px;height:641px;" version="1.1" viewBox="0 0 514 641" width="514px" zoomAndPan="magnify"><defs><filter height="300%" id="f57bjba" width="300%" x="-1" y="-1"><feGaussianBlur result="blurOut" stdDeviation="2.0"/><feColorMatrix in="blurOut" result="blurOut2" type="matrix" values="0 0 0 0 0 0 0 0 0 0 0 0 0 0 0 0 0 0 .4 0"/><feOffset dx="4.0" dy="4.0" in="blurOut2" result="blurOut3"/><feBlend in="SourceGraphic" in2="blurOut3" mode="normal"/></filter></defs><g><!--class SQLiteDialect--><a target="_top" xlink:actuate="onRequest" xlink:href="SQLiteDialect.html" xlink:show="new" xlink:title="SQLiteDialect.html" xlink:type="simple"><rect fill="#FEFECE" filter="url(#f57bjba)" height="624.2109" style="stroke: #A80036; stroke-width: 1.5;" width="499" x="6" y="8"/><ellipse cx="210.25" cy="24" fill="#ADD1B2" rx="11" ry="11" style="stroke: #A80036; stroke-width: 1.0;"/><path d="M213.2188,29.6406 Q212.6406,29.9375 212,30.0859 Q211.3594,30.2344 210.6563,30.2344 Q208.1563,30.2344 206.8359,28.5859 Q205.5156,26.9375 205.5156,23.8125 Q205.5156,20.6875 206.8359,19.0313 Q208.1563,17.375 210.6563,17.375 Q211.3594,17.375 212.0078,17.5313 Q212.6563,17.6875 213.2188,17.9844 L213.2188,20.7031 Q212.5938,20.125 212,19.8516 Q211.4063,19.5781 210.7813,19.5781 Q209.4375,19.5781 208.75,20.6484 Q208.0625,21.7188 208.0625,23.8125 Q208.0625,25.9063 208.75,26.9766 Q209.4375,28.0469 210.7813,28.0469 Q211.4063,28.0469 212,27.7734 Q212.5938,27.5 213.2188,26.9219 L213.2188,29.6406 Z "/><text fill="#000000" font-family="sans-serif" font-size="12" lengthAdjust="spacingAndGlyphs" textLength="82" x="230.75" y="28.1543">SQLiteDialect</text><line style="stroke: #A80036; stroke-width: 1.5;" x1="7" x2="504" y1="40" y2="40"/><rect fill="none" height="6" style="stroke: #C82930; stroke-width: 1.0;" width="6" x="14" y="48.9023"/><text fill="#000000" font-family="sans-serif" font-size="11" lengthAdjust="spacingAndGlyphs" text-decoration="underline" textLength="375" x="26" y="54.2104">IDENTITY_COLUMN_SUPPORT: SQLiteDialectIdentityColumnSupport</text><line style="stroke: #000000; stroke-width: 1.0;" x1="26" x2="401" y1="56.2104" y2="56.2104"/><rect fill="none" height="6" style="stroke: #C82930; stroke-width: 1.0;" width="6" x="14" y="61.707"/><text fill="#000000" font-family="sans-serif" font-size="11" lengthAdjust="spacingAndGlyphs" text-decoration="underline" textLength="211" x="26" y="67.0151">LIMIT_HANDLER: AbstractLimitHandler</text><line style="stroke: #000000; stroke-width: 1.0;" x1="26" x2="237" y1="69.0151" y2="69.0151"/><rect fill="none" height="6" style="stroke: #C82930; stroke-width: 1.0;" width="6" x="14" y="74.5117"/><text fill="#000000" font-family="sans-serif" font-size="11" lengthAdjust="spacingAndGlyphs" text-decoration="underline" textLength="99" x="26" y="79.8198">SQLITE_BUSY: int</text><line style="stroke: #000000; stroke-width: 1.0;" x1="26" x2="125" y1="81.8198" y2="81.8198"/><rect fill="none" height="6" style="stroke: #C82930; stroke-width: 1.0;" width="6" x="14" y="87.3164"/><text fill="#000000" font-family="sans-serif" font-size="11" lengthAdjust="spacingAndGlyphs" text-decoration="underline" textLength="113" x="26" y="92.6245">SQLITE_LOCKED: int</text><line style="stroke: #000000; stroke-width: 1.0;" x1="26" x2="139" y1="94.6245" y2="94.6245"/><rect fill="none" height="6" style="stroke: #C82930; stroke-width: 1.0;" width="6" x="14" y="100.1211"/><text fill="#000000" font-family="sans-serif" font-size="11" lengthAdjust="spacingAndGlyphs" text-decoration="underline" textLength="101" x="26" y="105.4292">SQLITE_IOERR: int</text><line style="stroke: #000000; stroke-width: 1.0;" x1="26" x2="127" y1="107.4292" y2="107.4292"/><rect fill="none" height="6" style="stroke: #C82930; stroke-width: 1.0;" width="6" x="14" y="112.9258"/><text fill="#000000" font-family="sans-serif" font-size="11" lengthAdjust="spacingAndGlyphs" text-decoration="underline" textLength="121" x="26" y="118.2339">SQLITE_CORRUPT: int</text><line style="stroke: #000000; stroke-width: 1.0;" x1="26" x2="147" y1="120.2339" y2="120.2339"/><rect fill="none" height="6" style="stroke: #C82930; stroke-width: 1.0;" width="6" x="14" y="125.7305"/><text fill="#000000" font-family="sans-serif" font-size="11" lengthAdjust="spacingAndGlyphs" text-decoration="underline" textLength="131" x="26" y="131.0386">SQLITE_NOTFOUND: int</text><line style="stroke: #000000; stroke-width: 1.0;" x1="26" x2="157" y1="133.0386" y2="133.0386"/><rect fill="none" height="6" style="stroke: #C82930; stroke-width: 1.0;" width="6" x="14" y="138.5352"/><text fill="#000000" font-family="sans-serif" font-size="11" lengthAdjust="spacingAndGlyphs" text-decoration="underline" textLength="94" x="26" y="143.8433">SQLITE_FULL: int</text><line style="stroke: #000000; stroke-width: 1.0;" x1="26" x2="120" y1="145.8433" y2="145.8433"/><rect fill="none" height="6" style="stroke: #C82930; stroke-width: 1.0;" width="6" x="14" y="151.3398"/><text fill="#000000" font-family="sans-serif" font-size="11" lengthAdjust="spacingAndGlyphs" text-decoration="underline" textLength="129" x="26" y="156.6479">SQLITE_CANTOPEN: int</text><line style="stroke: #000000; stroke-width: 1.0;" x1="26" x2="155" y1="158.6479" y2="158.6479"/><rect fill="none" height="6" style="stroke: #C82930; stroke-width: 1.0;" width="6" x="14" y="164.1445"/><text fill="#000000" font-family="sans-serif" font-size="11" lengthAdjust="spacingAndGlyphs" text-decoration="underline" textLength="130" x="26" y="169.4526">SQLITE_PROTOCOL: int</text><line style="stroke: #000000; stroke-width: 1.0;" x1="26" x2="156" y1="171.4526" y2="171.4526"/><rect fill="none" height="6" style="stroke: #C82930; stroke-width: 1.0;" width="6" x="14" y="176.9492"/><text fill="#000000" font-family="sans-serif" font-size="11" lengthAdjust="spacingAndGlyphs" text-decoration="underline" textLength="113" x="26" y="182.2573">SQLITE_TOOBIG: int</text><line style="stroke: #000000; stroke-width: 1.0;" x1="26" x2="139" y1="184.2573" y2="184.2573"/><rect fill="none" height="6" style="stroke: #C82930; stroke-width: 1.0;" width="6" x="14" y="189.7539"/><text fill="#000000" font-family="sans-serif" font-size="11" lengthAdjust="spacingAndGlyphs" text-decoration="underline" textLength="140" x="26" y="195.062">SQLITE_CONSTRAINT: int</text><line style="stroke: #000000; stroke-width: 1.0;" x1="26" x2="166" y1="197.062" y2="197.062"/><rect fill="none" height="6" style="stroke: #C82930; stroke-width: 1.0;" width="6" x="14" y="202.5586"/><text fill="#000000" font-family="sans-serif" font-size="11" lengthAdjust="spacingAndGlyphs" text-decoration="underline" textLength="127" x="26" y="207.8667">SQLITE_MISMATCH: int</text><line style="stroke: #000000; stroke-width: 1.0;" x1="26" x2="153" y1="209.8667" y2="209.8667"/><rect fill="none" height="6" style="stroke: #C82930; stroke-width: 1.0;" width="6" x="14" y="215.3633"/><text fill="#000000" font-family="sans-serif" font-size="11" lengthAdjust="spacingAndGlyphs" text-decoration="underline" textLength="115" x="26" y="220.6714">SQLITE_NOTADB: int</text><line style="stroke: #000000; stroke-width: 1.0;" x1="26" x2="141" y1="222.6714" y2="222.6714"/><rect fill="none" height="6" style="stroke: #C82930; stroke-width: 1.0;" width="6" x="14" y="228.168"/><text fill="#000000" font-family="sans-serif" font-size="11" lengthAdjust="spacingAndGlyphs" text-decoration="underline" textLength="260" x="26" y="233.4761">EXTRACTER: ViolatedConstraintNameExtracter</text><line style="stroke: #000000; stroke-width: 1.0;" x1="26" x2="286" y1="235.4761" y2="235.4761"/><rect fill="none" height="6" style="stroke: #C82930; stroke-width: 1.0;" width="6" x="14" y="240.9727"/><text fill="#000000" font-family="sans-serif" font-size="11" lengthAdjust="spacingAndGlyphs" textLength="185" x="26" y="246.2808">uniqueDelegate: UniqueDelegate</text><line style="stroke: #A80036; stroke-width: 1.5;" x1="7" x2="504" y1="252.875" y2="252.875"/><ellipse cx="17" cy="264.7773" fill="#84BE84" rx="3" ry="3" style="stroke: #038048; stroke-width: 1.0;"/><text fill="#000000" font-family="sans-serif" font-size="11" lengthAdjust="spacingAndGlyphs" textLength="168" x="26" y="267.0854">getCastTypeName(int): String</text><ellipse cx="17" cy="277.582" fill="#84BE84" rx="3" ry="3" style="stroke: #038048; stroke-width: 1.0;"/><text fill="#000000" font-family="sans-serif" font-size="11" lengthAdjust="spacingAndGlyphs" textLength="292" x="26" y="279.8901">getIdentityColumnSupport(): IdentityColumnSupport</text><ellipse cx="17" cy="290.3867" fill="#84BE84" rx="3" ry="3" style="stroke: #038048; stroke-width: 1.0;"/><text fill="#000000" font-family="sans-serif" font-size="11" lengthAdjust="spacingAndGlyphs" textLength="176" x="26" y="292.6948">getLimitHandler(): LimitHandler</text><ellipse cx="17" cy="303.1914" fill="#84BE84" rx="3" ry="3" style="stroke: #038048; stroke-width: 1.0;"/><text fill="#000000" font-family="sans-serif" font-size="11" lengthAdjust="spacingAndGlyphs" textLength="190" x="26" y="305.4995">supportsLockTimeouts(): boolean</text><ellipse cx="17" cy="315.9961" fill="#84BE84" rx="3" ry="3" style="stroke: #038048; stroke-width: 1.0;"/><text fill="#000000" font-family="sans-serif" font-size="11" lengthAdjust="spacingAndGlyphs" textLength="160" x="26" y="318.3042">getForUpdateString(): String</text><ellipse cx="17" cy="328.8008" fill="#84BE84" rx="3" ry="3" style="stroke: #038048; stroke-width: 1.0;"/><text fill="#000000" font-family="sans-serif" font-size="11" lengthAdjust="spacingAndGlyphs" textLength="222" x="26" y="331.1089">supportsOuterJoinForUpdate(): boolean</text><ellipse cx="17" cy="341.6055" fill="#84BE84" rx="3" ry="3" style="stroke: #038048; stroke-width: 1.0;"/><text fill="#000000" font-family="sans-serif" font-size="11" lengthAdjust="spacingAndGlyphs" textLength="271" x="26" y="343.9136">supportsCurrentTimestampSelection(): boolean</text><ellipse cx="17" cy="354.4102" fill="#84BE84" rx="3" ry="3" style="stroke: #038048; stroke-width: 1.0;"/><text fill="#000000" font-family="sans-serif" font-size="11" lengthAdjust="spacingAndGlyphs" textLength="292" x="26" y="356.7183">isCurrentTimestampSelectStringCallable(): boolean</text><ellipse cx="17" cy="367.2148" fill="#84BE84" rx="3" ry="3" style="stroke: #038048; stroke-width: 1.0;"/><text fill="#000000" font-family="sans-serif" font-size="11" lengthAdjust="spacingAndGlyphs" textLength="244" x="26" y="369.5229">getCurrentTimestampSelectString(): String</text><ellipse cx="17" cy="380.0195" fill="#84BE84" rx="3" ry="3" style="stroke: #038048; stroke-width: 1.0;"/><text fill="#000000" font-family="sans-serif" font-size="11" lengthAdjust="spacingAndGlyphs" textLength="425" x="26" y="382.3276">buildSQLExceptionConversionDelegate(): SQLExceptionConversionDelegate</text><ellipse cx="17" cy="392.8242" fill="#84BE84" rx="3" ry="3" style="stroke: #038048; stroke-width: 1.0;"/><text fill="#000000" font-family="sans-serif" font-size="11" lengthAdjust="spacingAndGlyphs" textLength="410" x="26" y="395.1323">getViolatedConstraintNameExtracter(): ViolatedConstraintNameExtracter</text><ellipse cx="17" cy="405.6289" fill="#84BE84" rx="3" ry="3" style="stroke: #038048; stroke-width: 1.0;"/><text fill="#000000" font-family="sans-serif" font-size="11" lengthAdjust="spacingAndGlyphs" textLength="157" x="26" y="407.937">supportsUnionAll(): boolean</text><ellipse cx="17" cy="418.4336" fill="#84BE84" rx="3" ry="3" style="stroke: #038048; stroke-width: 1.0;"/><text fill="#000000" font-family="sans-serif" font-size="11" lengthAdjust="spacingAndGlyphs" textLength="165" x="26" y="420.7417">canCreateSchema(): boolean</text><ellipse cx="17" cy="431.2383" fill="#84BE84" rx="3" ry="3" style="stroke: #038048; stroke-width: 1.0;"/><text fill="#000000" font-family="sans-serif" font-size="11" lengthAdjust="spacingAndGlyphs" textLength="139" x="26" y="433.5464">hasAlterTable(): boolean</text><ellipse cx="17" cy="444.043" fill="#84BE84" rx="3" ry="3" style="stroke: #038048; stroke-width: 1.0;"/><text fill="#000000" font-family="sans-serif" font-size="11" lengthAdjust="spacingAndGlyphs" textLength="153" x="26" y="446.3511">dropConstraints(): boolean</text><ellipse cx="17" cy="456.8477" fill="#84BE84" rx="3" ry="3" style="stroke: #038048; stroke-width: 1.0;"/><text fill="#000000" font-family="sans-serif" font-size="11" lengthAdjust="spacingAndGlyphs" textLength="161" x="26" y="459.1558">qualifyIndexName(): boolean</text><ellipse cx="17" cy="469.6523" fill="#84BE84" rx="3" ry="3" style="stroke: #038048; stroke-width: 1.0;"/><text fill="#000000" font-family="sans-serif" font-size="11" lengthAdjust="spacingAndGlyphs" textLength="166" x="26" y="471.9604">getAddColumnString(): String</text><ellipse cx="17" cy="482.457" fill="#84BE84" rx="3" ry="3" style="stroke: #038048; stroke-width: 1.0;"/><text fill="#000000" font-family="sans-serif" font-size="11" lengthAdjust="spacingAndGlyphs" textLength="191" x="26" y="484.7651">getDropForeignKeyString(): String</text><ellipse cx="17" cy="495.2617" fill="#84BE84" rx="3" ry="3" style="stroke: #038048; stroke-width: 1.0;"/><text fill="#000000" font-family="sans-serif" font-size="11" lengthAdjust="spacingAndGlyphs" textLength="473" x="26" y="497.5698">getAddForeignKeyConstraintString(String, String[], String, String[], boolean): String</text><ellipse cx="17" cy="508.0664" fill="#84BE84" rx="3" ry="3" style="stroke: #038048; stroke-width: 1.0;"/><text fill="#000000" font-family="sans-serif" font-size="11" lengthAdjust="spacingAndGlyphs" textLength="280" x="26" y="510.3745">getAddPrimaryKeyConstraintString(String): String</text><ellipse cx="17" cy="520.8711" fill="#84BE84" rx="3" ry="3" style="stroke: #038048; stroke-width: 1.0;"/><text fill="#000000" font-family="sans-serif" font-size="11" lengthAdjust="spacingAndGlyphs" textLength="183" x="26" y="523.1792">supportsCommentOn(): boolean</text><ellipse cx="17" cy="533.6758" fill="#84BE84" rx="3" ry="3" style="stroke: #038048; stroke-width: 1.0;"/><text fill="#000000" font-family="sans-serif" font-size="11" lengthAdjust="spacingAndGlyphs" textLength="255" x="26" y="535.9839">supportsIfExistsBeforeTableName(): boolean</text><ellipse cx="17" cy="546.4805" fill="#84BE84" rx="3" ry="3" style="stroke: #038048; stroke-width: 1.0;"/><text fill="#000000" font-family="sans-serif" font-size="11" lengthAdjust="spacingAndGlyphs" textLength="346" x="26" y="548.7886">doesReadCommittedCauseWritersToBlockReaders(): boolean</text><ellipse cx="17" cy="559.2852" fill="#84BE84" rx="3" ry="3" style="stroke: #038048; stroke-width: 1.0;"/><text fill="#000000" font-family="sans-serif" font-size="11" lengthAdjust="spacingAndGlyphs" textLength="347" x="26" y="561.5933">doesRepeatableReadCauseReadersToBlockWriters(): boolean</text><ellipse cx="17" cy="572.0898" fill="#84BE84" rx="3" ry="3" style="stroke: #038048; stroke-width: 1.0;"/><text fill="#000000" font-family="sans-serif" font-size="11" lengthAdjust="spacingAndGlyphs" textLength="225" x="26" y="574.3979">supportsTupleDistinctCounts(): boolean</text><ellipse cx="17" cy="584.8945" fill="#84BE84" rx="3" ry="3" style="stroke: #038048; stroke-width: 1.0;"/><text fill="#000000" font-family="sans-serif" font-size="11" lengthAdjust="spacingAndGlyphs" textLength="181" x="26" y="587.2026">getInExpressionCountLimit(): int</text><ellipse cx="17" cy="597.6992" fill="#84BE84" rx="3" ry="3" style="stroke: #038048; stroke-width: 1.0;"/><text fill="#000000" font-family="sans-serif" font-size="11" lengthAdjust="spacingAndGlyphs" textLength="212" x="26" y="600.0073">getUniqueDelegate(): UniqueDelegate</text><ellipse cx="17" cy="610.5039" fill="#84BE84" rx="3" ry="3" style="stroke: #038048; stroke-width: 1.0;"/><text fill="#000000" font-family="sans-serif" font-size="11" lengthAdjust="spacingAndGlyphs" textLength="165" x="26" y="612.812">getSelectGUIDString(): String</text><ellipse cx="17" cy="623.3086" fill="#84BE84" rx="3" ry="3" style="stroke: #038048; stroke-width: 1.0;"/><text fill="#000000" font-family="sans-serif" font-size="11" lengthAdjust="spacingAndGlyphs" textLength="179" x="26" y="625.6167">defaultScrollMode(): ScrollMode</text></a></g></svg>