<?xml version="1.0" encoding="UTF-8" standalone="no"?><svg xmlns="http://www.w3.org/2000/svg" xmlns:xlink="http://www.w3.org/1999/xlink" contentScriptType="application/ecmascript" contentStyleType="text/css" height="180px" preserveAspectRatio="none" style="width:263px;height:180px;" version="1.1" viewBox="0 0 263 180" width="263px" zoomAndPan="magnify"><defs><filter height="300%" id="fmtsgd0" width="300%" x="-1" y="-1"><feGaussianBlur result="blurOut" stdDeviation="2.0"/><feColorMatrix in="blurOut" result="blurOut2" type="matrix" values="0 0 0 0 0 0 0 0 0 0 0 0 0 0 0 0 0 0 .4 0"/><feOffset dx="4.0" dy="4.0" in="blurOut2" result="blurOut3"/><feBlend in="SourceGraphic" in2="blurOut3" mode="normal"/></filter></defs><g><!--class MulticastClient--><a target="_top" xlink:actuate="onRequest" xlink:href="MulticastClient.html" xlink:show="new" xlink:title="MulticastClient.html" xlink:type="simple"><rect fill="#FEFECE" filter="url(#fmtsgd0)" height="163.2422" style="stroke: #A80036; stroke-width: 1.5;" width="248" x="6" y="8"/><ellipse cx="80.25" cy="24" fill="#ADD1B2" rx="11" ry="11" style="stroke: #A80036; stroke-width: 1.0;"/><path d="M83.2188,29.6406 Q82.6406,29.9375 82,30.0859 Q81.3594,30.2344 80.6563,30.2344 Q78.1563,30.2344 76.8359,28.5859 Q75.5156,26.9375 75.5156,23.8125 Q75.5156,20.6875 76.8359,19.0313 Q78.1563,17.375 80.6563,17.375 Q81.3594,17.375 82.0078,17.5313 Q82.6563,17.6875 83.2188,17.9844 L83.2188,20.7031 Q82.5938,20.125 82,19.8516 Q81.4063,19.5781 80.7813,19.5781 Q79.4375,19.5781 78.75,20.6484 Q78.0625,21.7188 78.0625,23.8125 Q78.0625,25.9063 78.75,26.9766 Q79.4375,28.0469 80.7813,28.0469 Q81.4063,28.0469 82,27.7734 Q82.5938,27.5 83.2188,26.9219 L83.2188,29.6406 Z "/><text fill="#000000" font-family="sans-serif" font-size="12" lengthAdjust="spacingAndGlyphs" textLength="91" x="100.75" y="28.1543">MulticastClient</text><line style="stroke: #A80036; stroke-width: 1.5;" x1="7" x2="253" y1="40" y2="40"/><rect fill="none" height="6" style="stroke: #C82930; stroke-width: 1.0;" width="6" x="14" y="48.9023"/><text fill="#000000" font-family="sans-serif" font-size="11" lengthAdjust="spacingAndGlyphs" text-decoration="underline" textLength="71" x="26" y="54.2104">LOG: Logger</text><line style="stroke: #000000; stroke-width: 1.0;" x1="26" x2="97" y1="56.2104" y2="56.2104"/><rect fill="none" height="6" style="stroke: #C82930; stroke-width: 1.0;" width="6" x="14" y="61.707"/><text fill="#000000" font-family="sans-serif" font-size="11" lengthAdjust="spacingAndGlyphs" textLength="45" x="26" y="67.0151">port: int</text><rect fill="none" height="6" style="stroke: #C82930; stroke-width: 1.0;" width="6" x="14" y="74.5117"/><text fill="#000000" font-family="sans-serif" font-size="11" lengthAdjust="spacingAndGlyphs" textLength="163" x="26" y="79.8198">multicastGroup: InetAddress</text><rect fill="none" height="6" style="stroke: #C82930; stroke-width: 1.0;" width="6" x="14" y="87.3164"/><text fill="#000000" font-family="sans-serif" font-size="11" lengthAdjust="spacingAndGlyphs" textLength="133" x="26" y="92.6245">socket: MulticastSocket</text><rect fill="none" height="6" style="stroke: #C82930; stroke-width: 1.0;" width="6" x="14" y="100.1211"/><text fill="#000000" font-family="sans-serif" font-size="11" lengthAdjust="spacingAndGlyphs" textLength="96" x="26" y="105.4292">running: boolean</text><line style="stroke: #A80036; stroke-width: 1.5;" x1="7" x2="253" y1="112.0234" y2="112.0234"/><ellipse cx="17" cy="123.9258" fill="#84BE84" rx="3" ry="3" style="stroke: #038048; stroke-width: 1.0;"/><text fill="#000000" font-family="sans-serif" font-size="11" lengthAdjust="spacingAndGlyphs" textLength="222" x="26" y="126.2339">MulticastClient(String, int, InetAddress)</text><ellipse cx="17" cy="136.7305" fill="#84BE84" rx="3" ry="3" style="stroke: #038048; stroke-width: 1.0;"/><text fill="#000000" font-family="sans-serif" font-size="11" lengthAdjust="spacingAndGlyphs" textLength="64" x="26" y="139.0386">stop(): void</text><ellipse cx="17" cy="149.5352" fill="#84BE84" rx="3" ry="3" style="stroke: #038048; stroke-width: 1.0;"/><text fill="#000000" font-family="sans-serif" font-size="11" lengthAdjust="spacingAndGlyphs" textLength="101" x="26" y="151.8433">send(String): void</text><ellipse cx="17" cy="162.3398" fill="#84BE84" rx="3" ry="3" style="stroke: #038048; stroke-width: 1.0;"/><text fill="#000000" font-family="sans-serif" font-size="11" lengthAdjust="spacingAndGlyphs" textLength="58" x="26" y="164.6479">run(): void</text></a></g></svg>