<?xml version="1.0" encoding="UTF-8" standalone="no"?><svg xmlns="http://www.w3.org/2000/svg" xmlns:xlink="http://www.w3.org/1999/xlink" contentScriptType="application/ecmascript" contentStyleType="text/css" height="154px" preserveAspectRatio="none" style="width:229px;height:154px;" version="1.1" viewBox="0 0 229 154" width="229px" zoomAndPan="magnify"><defs><filter height="300%" id="fsr9qkl" width="300%" x="-1" y="-1"><feGaussianBlur result="blurOut" stdDeviation="2.0"/><feColorMatrix in="blurOut" result="blurOut2" type="matrix" values="0 0 0 0 0 0 0 0 0 0 0 0 0 0 0 0 0 0 .4 0"/><feOffset dx="4.0" dy="4.0" in="blurOut2" result="blurOut3"/><feBlend in="SourceGraphic" in2="blurOut3" mode="normal"/></filter></defs><g><!--class NetworkProtocol--><a target="_top" xlink:actuate="onRequest" xlink:href="NetworkProtocol.html" xlink:show="new" xlink:title="NetworkProtocol.html" xlink:type="simple"><rect fill="#FEFECE" filter="url(#fsr9qkl)" height="137.6328" style="stroke: #A80036; stroke-width: 1.5;" width="214" x="6" y="8"/><ellipse cx="57.25" cy="24" fill="#ADD1B2" rx="11" ry="11" style="stroke: #A80036; stroke-width: 1.0;"/><path d="M60.2188,29.6406 Q59.6406,29.9375 59,30.0859 Q58.3594,30.2344 57.6563,30.2344 Q55.1563,30.2344 53.8359,28.5859 Q52.5156,26.9375 52.5156,23.8125 Q52.5156,20.6875 53.8359,19.0313 Q55.1563,17.375 57.6563,17.375 Q58.3594,17.375 59.0078,17.5313 Q59.6563,17.6875 60.2188,17.9844 L60.2188,20.7031 Q59.5938,20.125 59,19.8516 Q58.4063,19.5781 57.7813,19.5781 Q56.4375,19.5781 55.75,20.6484 Q55.0625,21.7188 55.0625,23.8125 Q55.0625,25.9063 55.75,26.9766 Q56.4375,28.0469 57.7813,28.0469 Q58.4063,28.0469 59,27.7734 Q59.5938,27.5 60.2188,26.9219 L60.2188,29.6406 Z "/><text fill="#000000" font-family="sans-serif" font-size="12" lengthAdjust="spacingAndGlyphs" textLength="103" x="77.75" y="28.1543">NetworkProtocol</text><line style="stroke: #A80036; stroke-width: 1.5;" x1="7" x2="219" y1="40" y2="40"/><ellipse cx="17" cy="51.9023" fill="none" rx="3" ry="3" style="stroke: #038048; stroke-width: 1.0;"/><text fill="#000000" font-family="sans-serif" font-size="11" lengthAdjust="spacingAndGlyphs" text-decoration="underline" textLength="162" x="26" y="54.2104">interfaceToUse: InetAddress</text><line style="stroke: #000000; stroke-width: 1.0;" x1="26" x2="188" y1="56.2104" y2="56.2104"/><ellipse cx="17" cy="64.707" fill="none" rx="3" ry="3" style="stroke: #038048; stroke-width: 1.0;"/><text fill="#000000" font-family="sans-serif" font-size="11" lengthAdjust="spacingAndGlyphs" text-decoration="underline" textLength="121" x="26" y="67.0151">MULTICAST_PORT: int</text><line style="stroke: #000000; stroke-width: 1.0;" x1="26" x2="147" y1="69.0151" y2="69.0151"/><ellipse cx="17" cy="77.5117" fill="none" rx="3" ry="3" style="stroke: #038048; stroke-width: 1.0;"/><text fill="#000000" font-family="sans-serif" font-size="11" lengthAdjust="spacingAndGlyphs" text-decoration="underline" textLength="107" x="26" y="79.8198">UNICAST_PORT: int</text><line style="stroke: #000000; stroke-width: 1.0;" x1="26" x2="133" y1="81.8198" y2="81.8198"/><ellipse cx="17" cy="90.3164" fill="none" rx="3" ry="3" style="stroke: #038048; stroke-width: 1.0;"/><text fill="#000000" font-family="sans-serif" font-size="11" lengthAdjust="spacingAndGlyphs" text-decoration="underline" textLength="164" x="26" y="92.6245">MULTICAST_ADDRESS: String</text><line style="stroke: #000000; stroke-width: 1.0;" x1="26" x2="190" y1="94.6245" y2="94.6245"/><ellipse cx="17" cy="103.1211" fill="none" rx="3" ry="3" style="stroke: #038048; stroke-width: 1.0;"/><text fill="#000000" font-family="sans-serif" font-size="11" lengthAdjust="spacingAndGlyphs" text-decoration="underline" textLength="116" x="26" y="105.4292">END_OF_LINE: String</text><line style="stroke: #000000; stroke-width: 1.0;" x1="26" x2="142" y1="107.4292" y2="107.4292"/><ellipse cx="17" cy="115.9258" fill="none" rx="3" ry="3" style="stroke: #038048; stroke-width: 1.0;"/><text fill="#000000" font-family="sans-serif" font-size="11" lengthAdjust="spacingAndGlyphs" text-decoration="underline" textLength="150" x="26" y="118.2339">END_OF_COMMAND: String</text><line style="stroke: #000000; stroke-width: 1.0;" x1="26" x2="176" y1="120.2339" y2="120.2339"/><ellipse cx="17" cy="128.7305" fill="none" rx="3" ry="3" style="stroke: #038048; stroke-width: 1.0;"/><text fill="#000000" font-family="sans-serif" font-size="11" lengthAdjust="spacingAndGlyphs" text-decoration="underline" textLength="188" x="26" y="131.0386">END_OF_COMMUNICATION: String</text><line style="stroke: #000000; stroke-width: 1.0;" x1="26" x2="214" y1="133.0386" y2="133.0386"/><line style="stroke: #A80036; stroke-width: 1.5;" x1="7" x2="219" y1="137.6328" y2="137.6328"/></a></g></svg>