<?xml version="1.0" encoding="UTF-8" standalone="no"?><svg xmlns="http://www.w3.org/2000/svg" xmlns:xlink="http://www.w3.org/1999/xlink" contentScriptType="application/ecmascript" contentStyleType="text/css" height="381px" preserveAspectRatio="none" style="width:1012px;height:381px;" version="1.1" viewBox="0 0 1012 381" width="1012px" zoomAndPan="magnify"><defs><filter height="300%" id="fw3zdq8" width="300%" x="-1" y="-1"><feGaussianBlur result="blurOut" stdDeviation="2.0"/><feColorMatrix in="blurOut" result="blurOut2" type="matrix" values="0 0 0 0 0 0 0 0 0 0 0 0 0 0 0 0 0 0 .4 0"/><feOffset dx="4.0" dy="4.0" in="blurOut2" result="blurOut3"/><feBlend in="SourceGraphic" in2="blurOut3" mode="normal"/></filter></defs><g><!--cluster ch.tofind.commusica.network--><polygon fill="#FFFFFF" filter="url(#fw3zdq8)" points="22,160,262,160,269,182.2969,1005,182.2969,1005,374,22,374,22,160" style="stroke: #000000; stroke-width: 2.0;"/><line style="stroke: #000000; stroke-width: 2.0;" x1="22" x2="269" y1="182.2969" y2="182.2969"/><text fill="#000000" font-family="sans-serif" font-size="14" font-weight="bold" lengthAdjust="spacingAndGlyphs" textLength="234" x="26" y="174.9951">ch.tofind.commusica.network</text><!--cluster java.lang--><polygon fill="#FFFFFF" filter="url(#fw3zdq8)" points="570,24,645,24,652,46.2969,694,46.2969,694,136,570,136,570,24" style="stroke: #000000; stroke-width: 2.0;"/><line style="stroke: #000000; stroke-width: 2.0;" x1="570" x2="652" y1="46.2969" y2="46.2969"/><text fill="#000000" font-family="sans-serif" font-size="14" font-weight="bold" lengthAdjust="spacingAndGlyphs" textLength="69" x="574" y="38.9951">java.lang</text><!--class ch.tofind.commusica.network.UnicastClient--><a target="_top" xlink:actuate="onRequest" xlink:href="UnicastClient.html" xlink:show="new" xlink:title="UnicastClient.html" xlink:type="simple"><rect fill="#FEFECE" filter="url(#fw3zdq8)" height="163.2422" style="stroke: #A80036; stroke-width: 1.5;" width="198" x="791" y="195"/><ellipse cx="844.75" cy="211" fill="#ADD1B2" rx="11" ry="11" style="stroke: #A80036; stroke-width: 1.0;"/><path d="M847.7188,216.6406 Q847.1406,216.9375 846.5,217.0859 Q845.8594,217.2344 845.1563,217.2344 Q842.6563,217.2344 841.3359,215.5859 Q840.0156,213.9375 840.0156,210.8125 Q840.0156,207.6875 841.3359,206.0313 Q842.6563,204.375 845.1563,204.375 Q845.8594,204.375 846.5078,204.5313 Q847.1563,204.6875 847.7188,204.9844 L847.7188,207.7031 Q847.0938,207.125 846.5,206.8516 Q845.9063,206.5781 845.2813,206.5781 Q843.9375,206.5781 843.25,207.6484 Q842.5625,208.7188 842.5625,210.8125 Q842.5625,212.9063 843.25,213.9766 Q843.9375,215.0469 845.2813,215.0469 Q845.9063,215.0469 846.5,214.7734 Q847.0938,214.5 847.7188,213.9219 L847.7188,216.6406 Z "/><text fill="#000000" font-family="sans-serif" font-size="12" lengthAdjust="spacingAndGlyphs" textLength="82" x="865.25" y="215.1543">UnicastClient</text><line style="stroke: #A80036; stroke-width: 1.5;" x1="792" x2="988" y1="227" y2="227"/><rect fill="none" height="6" style="stroke: #C82930; stroke-width: 1.0;" width="6" x="799" y="235.9023"/><text fill="#000000" font-family="sans-serif" font-size="11" lengthAdjust="spacingAndGlyphs" text-decoration="underline" textLength="71" x="811" y="241.2104">LOG: Logger</text><line style="stroke: #000000; stroke-width: 1.0;" x1="811" x2="882" y1="243.2104" y2="243.2104"/><rect fill="none" height="6" style="stroke: #C82930; stroke-width: 1.0;" width="6" x="799" y="248.707"/><text fill="#000000" font-family="sans-serif" font-size="11" lengthAdjust="spacingAndGlyphs" textLength="83" x="811" y="254.0151">socket: Socket</text><rect fill="none" height="6" style="stroke: #C82930; stroke-width: 1.0;" width="6" x="799" y="261.5117"/><text fill="#000000" font-family="sans-serif" font-size="11" lengthAdjust="spacingAndGlyphs" textLength="85" x="811" y="266.8198">out: PrintWriter</text><rect fill="none" height="6" style="stroke: #C82930; stroke-width: 1.0;" width="6" x="799" y="274.3164"/><text fill="#000000" font-family="sans-serif" font-size="11" lengthAdjust="spacingAndGlyphs" textLength="107" x="811" y="279.6245">in: BufferedReader</text><line style="stroke: #A80036; stroke-width: 1.5;" x1="792" x2="988" y1="286.2188" y2="286.2188"/><ellipse cx="802" cy="298.1211" fill="#84BE84" rx="3" ry="3" style="stroke: #038048; stroke-width: 1.0;"/><text fill="#000000" font-family="sans-serif" font-size="11" lengthAdjust="spacingAndGlyphs" textLength="172" x="811" y="300.4292">UnicastClient(InetAddress, int)</text><ellipse cx="802" cy="310.9258" fill="#84BE84" rx="3" ry="3" style="stroke: #038048; stroke-width: 1.0;"/><text fill="#000000" font-family="sans-serif" font-size="11" lengthAdjust="spacingAndGlyphs" textLength="120" x="811" y="313.2339">UnicastClient(Socket)</text><ellipse cx="802" cy="323.7305" fill="#84BE84" rx="3" ry="3" style="stroke: #038048; stroke-width: 1.0;"/><text fill="#000000" font-family="sans-serif" font-size="11" lengthAdjust="spacingAndGlyphs" textLength="101" x="811" y="326.0386">send(String): void</text><ellipse cx="802" cy="336.5352" fill="#84BE84" rx="3" ry="3" style="stroke: #038048; stroke-width: 1.0;"/><text fill="#000000" font-family="sans-serif" font-size="11" lengthAdjust="spacingAndGlyphs" textLength="86" x="811" y="338.8433">send(File): void</text><ellipse cx="802" cy="349.3398" fill="#84BE84" rx="3" ry="3" style="stroke: #038048; stroke-width: 1.0;"/><text fill="#000000" font-family="sans-serif" font-size="11" lengthAdjust="spacingAndGlyphs" textLength="58" x="811" y="351.6479">run(): void</text></a><!--class ch.tofind.commusica.network.MulticastClient--><a target="_top" xlink:actuate="onRequest" xlink:href="MulticastClient.html" xlink:show="new" xlink:title="MulticastClient.html" xlink:type="simple"><rect fill="#FEFECE" filter="url(#fw3zdq8)" height="163.2422" style="stroke: #A80036; stroke-width: 1.5;" width="248" x="508" y="195"/><ellipse cx="582.25" cy="211" fill="#ADD1B2" rx="11" ry="11" style="stroke: #A80036; stroke-width: 1.0;"/><path d="M585.2188,216.6406 Q584.6406,216.9375 584,217.0859 Q583.3594,217.2344 582.6563,217.2344 Q580.1563,217.2344 578.8359,215.5859 Q577.5156,213.9375 577.5156,210.8125 Q577.5156,207.6875 578.8359,206.0313 Q580.1563,204.375 582.6563,204.375 Q583.3594,204.375 584.0078,204.5313 Q584.6563,204.6875 585.2188,204.9844 L585.2188,207.7031 Q584.5938,207.125 584,206.8516 Q583.4063,206.5781 582.7813,206.5781 Q581.4375,206.5781 580.75,207.6484 Q580.0625,208.7188 580.0625,210.8125 Q580.0625,212.9063 580.75,213.9766 Q581.4375,215.0469 582.7813,215.0469 Q583.4063,215.0469 584,214.7734 Q584.5938,214.5 585.2188,213.9219 L585.2188,216.6406 Z "/><text fill="#000000" font-family="sans-serif" font-size="12" lengthAdjust="spacingAndGlyphs" textLength="91" x="602.75" y="215.1543">MulticastClient</text><line style="stroke: #A80036; stroke-width: 1.5;" x1="509" x2="755" y1="227" y2="227"/><rect fill="none" height="6" style="stroke: #C82930; stroke-width: 1.0;" width="6" x="516" y="235.9023"/><text fill="#000000" font-family="sans-serif" font-size="11" lengthAdjust="spacingAndGlyphs" text-decoration="underline" textLength="71" x="528" y="241.2104">LOG: Logger</text><line style="stroke: #000000; stroke-width: 1.0;" x1="528" x2="599" y1="243.2104" y2="243.2104"/><rect fill="none" height="6" style="stroke: #C82930; stroke-width: 1.0;" width="6" x="516" y="248.707"/><text fill="#000000" font-family="sans-serif" font-size="11" lengthAdjust="spacingAndGlyphs" textLength="45" x="528" y="254.0151">port: int</text><rect fill="none" height="6" style="stroke: #C82930; stroke-width: 1.0;" width="6" x="516" y="261.5117"/><text fill="#000000" font-family="sans-serif" font-size="11" lengthAdjust="spacingAndGlyphs" textLength="163" x="528" y="266.8198">multicastGroup: InetAddress</text><rect fill="none" height="6" style="stroke: #C82930; stroke-width: 1.0;" width="6" x="516" y="274.3164"/><text fill="#000000" font-family="sans-serif" font-size="11" lengthAdjust="spacingAndGlyphs" textLength="133" x="528" y="279.6245">socket: MulticastSocket</text><rect fill="none" height="6" style="stroke: #C82930; stroke-width: 1.0;" width="6" x="516" y="287.1211"/><text fill="#000000" font-family="sans-serif" font-size="11" lengthAdjust="spacingAndGlyphs" textLength="96" x="528" y="292.4292">running: boolean</text><line style="stroke: #A80036; stroke-width: 1.5;" x1="509" x2="755" y1="299.0234" y2="299.0234"/><ellipse cx="519" cy="310.9258" fill="#84BE84" rx="3" ry="3" style="stroke: #038048; stroke-width: 1.0;"/><text fill="#000000" font-family="sans-serif" font-size="11" lengthAdjust="spacingAndGlyphs" textLength="222" x="528" y="313.2339">MulticastClient(String, int, InetAddress)</text><ellipse cx="519" cy="323.7305" fill="#84BE84" rx="3" ry="3" style="stroke: #038048; stroke-width: 1.0;"/><text fill="#000000" font-family="sans-serif" font-size="11" lengthAdjust="spacingAndGlyphs" textLength="64" x="528" y="326.0386">stop(): void</text><ellipse cx="519" cy="336.5352" fill="#84BE84" rx="3" ry="3" style="stroke: #038048; stroke-width: 1.0;"/><text fill="#000000" font-family="sans-serif" font-size="11" lengthAdjust="spacingAndGlyphs" textLength="101" x="528" y="338.8433">send(String): void</text><ellipse cx="519" cy="349.3398" fill="#84BE84" rx="3" ry="3" style="stroke: #038048; stroke-width: 1.0;"/><text fill="#000000" font-family="sans-serif" font-size="11" lengthAdjust="spacingAndGlyphs" textLength="58" x="528" y="351.6479">run(): void</text></a><!--class ch.tofind.commusica.network.Server--><a target="_top" xlink:actuate="onRequest" xlink:href="Server.html" xlink:show="new" xlink:title="Server.html" xlink:type="simple"><rect fill="#FEFECE" filter="url(#fw3zdq8)" height="150.4375" style="stroke: #A80036; stroke-width: 1.5;" width="186" x="287" y="201.5"/><ellipse cx="355.75" cy="217.5" fill="#ADD1B2" rx="11" ry="11" style="stroke: #A80036; stroke-width: 1.0;"/><path d="M358.7188,223.1406 Q358.1406,223.4375 357.5,223.5859 Q356.8594,223.7344 356.1563,223.7344 Q353.6563,223.7344 352.3359,222.0859 Q351.0156,220.4375 351.0156,217.3125 Q351.0156,214.1875 352.3359,212.5313 Q353.6563,210.875 356.1563,210.875 Q356.8594,210.875 357.5078,211.0313 Q358.1563,211.1875 358.7188,211.4844 L358.7188,214.2031 Q358.0938,213.625 357.5,213.3516 Q356.9063,213.0781 356.2813,213.0781 Q354.9375,213.0781 354.25,214.1484 Q353.5625,215.2188 353.5625,217.3125 Q353.5625,219.4063 354.25,220.4766 Q354.9375,221.5469 356.2813,221.5469 Q356.9063,221.5469 357.5,221.2734 Q358.0938,221 358.7188,220.4219 L358.7188,223.1406 Z "/><text fill="#000000" font-family="sans-serif" font-size="12" lengthAdjust="spacingAndGlyphs" textLength="40" x="376.25" y="221.6543">Server</text><line style="stroke: #A80036; stroke-width: 1.5;" x1="288" x2="472" y1="233.5" y2="233.5"/><rect fill="none" height="6" style="stroke: #C82930; stroke-width: 1.0;" width="6" x="295" y="242.4023"/><text fill="#000000" font-family="sans-serif" font-size="11" lengthAdjust="spacingAndGlyphs" text-decoration="underline" textLength="71" x="307" y="247.7104">LOG: Logger</text><line style="stroke: #000000; stroke-width: 1.0;" x1="307" x2="378" y1="249.7104" y2="249.7104"/><rect fill="none" height="6" style="stroke: #C82930; stroke-width: 1.0;" width="6" x="295" y="255.207"/><text fill="#000000" font-family="sans-serif" font-size="11" lengthAdjust="spacingAndGlyphs" textLength="121" x="307" y="260.5151">socket: ServerSocket</text><rect fill="none" height="6" style="stroke: #C82930; stroke-width: 1.0;" width="6" x="295" y="268.0117"/><text fill="#000000" font-family="sans-serif" font-size="11" lengthAdjust="spacingAndGlyphs" textLength="45" x="307" y="273.3198">port: int</text><rect fill="none" height="6" style="stroke: #C82930; stroke-width: 1.0;" width="6" x="295" y="280.8164"/><text fill="#000000" font-family="sans-serif" font-size="11" lengthAdjust="spacingAndGlyphs" textLength="96" x="307" y="286.1245">running: boolean</text><rect fill="none" height="6" style="stroke: #C82930; stroke-width: 1.0;" width="6" x="295" y="293.6211"/><text fill="#000000" font-family="sans-serif" font-size="11" lengthAdjust="spacingAndGlyphs" textLength="160" x="307" y="298.9292">threadPool: ExecutorService</text><line style="stroke: #A80036; stroke-width: 1.5;" x1="288" x2="472" y1="305.5234" y2="305.5234"/><ellipse cx="298" cy="317.4258" fill="#84BE84" rx="3" ry="3" style="stroke: #038048; stroke-width: 1.0;"/><text fill="#000000" font-family="sans-serif" font-size="11" lengthAdjust="spacingAndGlyphs" textLength="60" x="307" y="319.7339">Server(int)</text><ellipse cx="298" cy="330.2305" fill="#84BE84" rx="3" ry="3" style="stroke: #038048; stroke-width: 1.0;"/><text fill="#000000" font-family="sans-serif" font-size="11" lengthAdjust="spacingAndGlyphs" textLength="64" x="307" y="332.5386">stop(): void</text><ellipse cx="298" cy="343.0352" fill="#84BE84" rx="3" ry="3" style="stroke: #038048; stroke-width: 1.0;"/><text fill="#000000" font-family="sans-serif" font-size="11" lengthAdjust="spacingAndGlyphs" textLength="58" x="307" y="345.3433">run(): void</text></a><!--class ch.tofind.commusica.network.NetworkProtocol--><a target="_top" xlink:actuate="onRequest" xlink:href="NetworkProtocol.html" xlink:show="new" xlink:title="NetworkProtocol.html" xlink:type="simple"><rect fill="#FEFECE" filter="url(#fw3zdq8)" height="137.6328" style="stroke: #A80036; stroke-width: 1.5;" width="214" x="38" y="207.5"/><ellipse cx="89.25" cy="223.5" fill="#ADD1B2" rx="11" ry="11" style="stroke: #A80036; stroke-width: 1.0;"/><path d="M92.2188,229.1406 Q91.6406,229.4375 91,229.5859 Q90.3594,229.7344 89.6563,229.7344 Q87.1563,229.7344 85.8359,228.0859 Q84.5156,226.4375 84.5156,223.3125 Q84.5156,220.1875 85.8359,218.5313 Q87.1563,216.875 89.6563,216.875 Q90.3594,216.875 91.0078,217.0313 Q91.6563,217.1875 92.2188,217.4844 L92.2188,220.2031 Q91.5938,219.625 91,219.3516 Q90.4063,219.0781 89.7813,219.0781 Q88.4375,219.0781 87.75,220.1484 Q87.0625,221.2188 87.0625,223.3125 Q87.0625,225.4063 87.75,226.4766 Q88.4375,227.5469 89.7813,227.5469 Q90.4063,227.5469 91,227.2734 Q91.5938,227 92.2188,226.4219 L92.2188,229.1406 Z "/><text fill="#000000" font-family="sans-serif" font-size="12" lengthAdjust="spacingAndGlyphs" textLength="103" x="109.75" y="227.6543">NetworkProtocol</text><line style="stroke: #A80036; stroke-width: 1.5;" x1="39" x2="251" y1="239.5" y2="239.5"/><ellipse cx="49" cy="251.4023" fill="none" rx="3" ry="3" style="stroke: #038048; stroke-width: 1.0;"/><text fill="#000000" font-family="sans-serif" font-size="11" lengthAdjust="spacingAndGlyphs" text-decoration="underline" textLength="162" x="58" y="253.7104">interfaceToUse: InetAddress</text><line style="stroke: #000000; stroke-width: 1.0;" x1="58" x2="220" y1="255.7104" y2="255.7104"/><ellipse cx="49" cy="264.207" fill="none" rx="3" ry="3" style="stroke: #038048; stroke-width: 1.0;"/><text fill="#000000" font-family="sans-serif" font-size="11" lengthAdjust="spacingAndGlyphs" text-decoration="underline" textLength="121" x="58" y="266.5151">MULTICAST_PORT: int</text><line style="stroke: #000000; stroke-width: 1.0;" x1="58" x2="179" y1="268.5151" y2="268.5151"/><ellipse cx="49" cy="277.0117" fill="none" rx="3" ry="3" style="stroke: #038048; stroke-width: 1.0;"/><text fill="#000000" font-family="sans-serif" font-size="11" lengthAdjust="spacingAndGlyphs" text-decoration="underline" textLength="107" x="58" y="279.3198">UNICAST_PORT: int</text><line style="stroke: #000000; stroke-width: 1.0;" x1="58" x2="165" y1="281.3198" y2="281.3198"/><ellipse cx="49" cy="289.8164" fill="none" rx="3" ry="3" style="stroke: #038048; stroke-width: 1.0;"/><text fill="#000000" font-family="sans-serif" font-size="11" lengthAdjust="spacingAndGlyphs" text-decoration="underline" textLength="164" x="58" y="292.1245">MULTICAST_ADDRESS: String</text><line style="stroke: #000000; stroke-width: 1.0;" x1="58" x2="222" y1="294.1245" y2="294.1245"/><ellipse cx="49" cy="302.6211" fill="none" rx="3" ry="3" style="stroke: #038048; stroke-width: 1.0;"/><text fill="#000000" font-family="sans-serif" font-size="11" lengthAdjust="spacingAndGlyphs" text-decoration="underline" textLength="116" x="58" y="304.9292">END_OF_LINE: String</text><line style="stroke: #000000; stroke-width: 1.0;" x1="58" x2="174" y1="306.9292" y2="306.9292"/><ellipse cx="49" cy="315.4258" fill="none" rx="3" ry="3" style="stroke: #038048; stroke-width: 1.0;"/><text fill="#000000" font-family="sans-serif" font-size="11" lengthAdjust="spacingAndGlyphs" text-decoration="underline" textLength="150" x="58" y="317.7339">END_OF_COMMAND: String</text><line style="stroke: #000000; stroke-width: 1.0;" x1="58" x2="208" y1="319.7339" y2="319.7339"/><ellipse cx="49" cy="328.2305" fill="none" rx="3" ry="3" style="stroke: #038048; stroke-width: 1.0;"/><text fill="#000000" font-family="sans-serif" font-size="11" lengthAdjust="spacingAndGlyphs" text-decoration="underline" textLength="188" x="58" y="330.5386">END_OF_COMMUNICATION: String</text><line style="stroke: #000000; stroke-width: 1.0;" x1="58" x2="246" y1="332.5386" y2="332.5386"/><line style="stroke: #A80036; stroke-width: 1.5;" x1="39" x2="251" y1="337.1328" y2="337.1328"/></a><!--class java.lang.Runnable--><rect fill="#FEFECE" filter="url(#fw3zdq8)" height="60.8047" style="stroke: #A80036; stroke-width: 1.5;" width="91" x="586.5" y="59"/><ellipse cx="601.5" cy="75" fill="#B4A7E5" rx="11" ry="11" style="stroke: #A80036; stroke-width: 1.0;"/><path d="M597.4219,70.7656 L597.4219,68.6094 L604.8125,68.6094 L604.8125,70.7656 L602.3438,70.7656 L602.3438,78.8438 L604.8125,78.8438 L604.8125,81 L597.4219,81 L597.4219,78.8438 L599.8906,78.8438 L599.8906,70.7656 L597.4219,70.7656 Z "/><text fill="#000000" font-family="sans-serif" font-size="12" font-style="italic" lengthAdjust="spacingAndGlyphs" textLength="59" x="615.5" y="79.1543">Runnable</text><line style="stroke: #A80036; stroke-width: 1.5;" x1="587.5" x2="676.5" y1="91" y2="91"/><line style="stroke: #A80036; stroke-width: 1.5;" x1="587.5" x2="676.5" y1="99" y2="99"/><ellipse cx="597.5" cy="110.9023" fill="#84BE84" rx="3" ry="3" style="stroke: #038048; stroke-width: 1.0;"/><text fill="#000000" font-family="sans-serif" font-size="11" font-style="italic" lengthAdjust="spacingAndGlyphs" textLength="59" x="606.5" y="113.2104">run(): void</text><path d="M696.662,112.047 C722.003,122.099 750.559,135.522 774,152 C791.327,164.18 808.083,179.278 823.219,194.689 " fill="none" style="stroke: #A80036; stroke-width: 1.0; stroke-dasharray: 7.0,7.0;"/><polygon fill="none" points="693.865,118.473,677.62,104.867,698.804,105.373,693.865,118.473" style="stroke: #A80036; stroke-width: 1.0;"/><path d="M632,140.288 C632,157.054 632,176.22 632,194.747 " fill="none" style="stroke: #A80036; stroke-width: 1.0; stroke-dasharray: 7.0,7.0;"/><polygon fill="none" points="625,140.223,632,120.223,639,140.223,625,140.223" style="stroke: #A80036; stroke-width: 1.0;"/><path d="M567.332,111.968 C542.215,121.981 514.014,135.397 491,152 C471.712,165.915 453.328,183.688 437.268,201.386 " fill="none" style="stroke: #A80036; stroke-width: 1.0; stroke-dasharray: 7.0,7.0;"/><polygon fill="none" points="565.044,105.349,586.227,104.824,569.995,118.444,565.044,105.349" style="stroke: #A80036; stroke-width: 1.0;"/></g></svg>