<?xml version="1.0" encoding="UTF-8" standalone="no"?><svg xmlns="http://www.w3.org/2000/svg" xmlns:xlink="http://www.w3.org/1999/xlink" contentScriptType="application/ecmascript" contentStyleType="text/css" height="694px" preserveAspectRatio="none" style="width:943px;height:694px;" version="1.1" viewBox="0 0 943 694" width="943px" zoomAndPan="magnify"><defs><filter height="300%" id="fa2vox8" width="300%" x="-1" y="-1"><feGaussianBlur result="blurOut" stdDeviation="2.0"/><feColorMatrix in="blurOut" result="blurOut2" type="matrix" values="0 0 0 0 0 0 0 0 0 0 0 0 0 0 0 0 0 0 .4 0"/><feOffset dx="4.0" dy="4.0" in="blurOut2" result="blurOut3"/><feBlend in="SourceGraphic" in2="blurOut3" mode="normal"/></filter></defs><g><!--cluster ch.tofind.commusica.playlist--><polygon fill="#FFFFFF" filter="url(#fa2vox8)" points="46.3308,169,275.3308,169,282.3308,191.2969,936.331,191.2969,936.331,687,46.3308,687,46.3308,169" style="stroke: #000000; stroke-width: 2.0;"/><line style="stroke: #000000; stroke-width: 2.0;" x1="46.3308" x2="282.3308" y1="191.2969" y2="191.2969"/><text fill="#000000" font-family="sans-serif" font-size="14" font-weight="bold" lengthAdjust="spacingAndGlyphs" textLength="223" x="50.3308" y="183.9951">ch.tofind.commusica.playlist</text><!--cluster java.io--><polygon fill="#FFFFFF" filter="url(#fa2vox8)" points="68.3308,30.5,124.3308,30.5,131.3308,52.7969,204.331,52.7969,204.331,129.5,68.3308,129.5,68.3308,30.5" style="stroke: #000000; stroke-width: 2.0;"/><line style="stroke: #000000; stroke-width: 2.0;" x1="68.3308" x2="131.3308" y1="52.7969" y2="52.7969"/><text fill="#000000" font-family="sans-serif" font-size="14" font-weight="bold" lengthAdjust="spacingAndGlyphs" textLength="50" x="72.3308" y="45.4951">java.io</text><!--cluster java.util--><polygon fill="#FFFFFF" filter="url(#fa2vox8)" points="712.331,24,778.331,24,785.331,46.2969,872.331,46.2969,872.331,136,712.331,136,712.331,24" style="stroke: #000000; stroke-width: 2.0;"/><line style="stroke: #000000; stroke-width: 2.0;" x1="712.331" x2="785.331" y1="46.2969" y2="46.2969"/><text fill="#000000" font-family="sans-serif" font-size="14" font-weight="bold" lengthAdjust="spacingAndGlyphs" textLength="60" x="716.331" y="38.9951">java.util</text><!--class ch.tofind.commusica.playlist.PlaylistTrack--><a target="_top" xlink:actuate="onRequest" xlink:href="PlaylistTrack.html" xlink:show="new" xlink:title="PlaylistTrack.html" xlink:type="simple"><rect fill="#FEFECE" filter="url(#fa2vox8)" height="201.6563" style="stroke: #A80036; stroke-width: 1.5;" width="276" x="62.3308" y="223"/><ellipse cx="157.5808" cy="239" fill="#ADD1B2" rx="11" ry="11" style="stroke: #A80036; stroke-width: 1.0;"/><path d="M160.5496,244.6406 Q159.9714,244.9375 159.3308,245.0859 Q158.6902,245.2344 157.9871,245.2344 Q155.4871,245.2344 154.1667,243.5859 Q152.8464,241.9375 152.8464,238.8125 Q152.8464,235.6875 154.1667,234.0313 Q155.4871,232.375 157.9871,232.375 Q158.6902,232.375 159.3386,232.5313 Q159.9871,232.6875 160.5496,232.9844 L160.5496,235.7031 Q159.9246,235.125 159.3308,234.8516 Q158.7371,234.5781 158.1121,234.5781 Q156.7683,234.5781 156.0808,235.6484 Q155.3933,236.7188 155.3933,238.8125 Q155.3933,240.9063 156.0808,241.9766 Q156.7683,243.0469 158.1121,243.0469 Q158.7371,243.0469 159.3308,242.7734 Q159.9246,242.5 160.5496,241.9219 L160.5496,244.6406 Z "/><text fill="#000000" font-family="sans-serif" font-size="12" lengthAdjust="spacingAndGlyphs" textLength="77" x="178.0808" y="243.1543">PlaylistTrack</text><line style="stroke: #A80036; stroke-width: 1.5;" x1="63.3308" x2="337.3308" y1="255" y2="255"/><rect fill="none" height="6" style="stroke: #C82930; stroke-width: 1.0;" width="6" x="70.3308" y="263.9023"/><text fill="#000000" font-family="sans-serif" font-size="11" lengthAdjust="spacingAndGlyphs" textLength="241" x="82.3308" y="269.2104">hasBeenPlayed: ReadOnlyBooleanWrapper</text><rect fill="none" height="6" style="stroke: #C82930; stroke-width: 1.0;" width="6" x="70.3308" y="276.707"/><text fill="#000000" font-family="sans-serif" font-size="11" lengthAdjust="spacingAndGlyphs" textLength="79" x="82.3308" y="282.0151">votes: Integer</text><rect fill="none" height="6" style="stroke: #C82930; stroke-width: 1.0;" width="6" x="70.3308" y="289.5117"/><text fill="#000000" font-family="sans-serif" font-size="11" lengthAdjust="spacingAndGlyphs" textLength="175" x="82.3308" y="294.8198">votesProperty: IntegerProperty</text><line style="stroke: #A80036; stroke-width: 1.5;" x1="63.3308" x2="337.3308" y1="301.4141" y2="301.4141"/><rect fill="#F24D5C" height="6" style="stroke: #C82930; stroke-width: 1.0;" width="6" x="70.3308" y="310.3164"/><text fill="#000000" font-family="sans-serif" font-size="11" lengthAdjust="spacingAndGlyphs" textLength="79" x="82.3308" y="315.6245">PlaylistTrack()</text><ellipse cx="73.3308" cy="326.1211" fill="#84BE84" rx="3" ry="3" style="stroke: #038048; stroke-width: 1.0;"/><text fill="#000000" font-family="sans-serif" font-size="11" lengthAdjust="spacingAndGlyphs" textLength="193" x="82.3308" y="328.4292">PlaylistTrack(SavedPlaylist, Track)</text><ellipse cx="73.3308" cy="338.9258" fill="#84BE84" rx="3" ry="3" style="stroke: #038048; stroke-width: 1.0;"/><text fill="#000000" font-family="sans-serif" font-size="11" lengthAdjust="spacingAndGlyphs" textLength="250" x="82.3308" y="341.2339">hasBeenPlayed(): ReadOnlyBooleanProperty</text><ellipse cx="73.3308" cy="351.7305" fill="#84BE84" rx="3" ry="3" style="stroke: #038048; stroke-width: 1.0;"/><text fill="#000000" font-family="sans-serif" font-size="11" lengthAdjust="spacingAndGlyphs" textLength="149" x="82.3308" y="354.0386">getPlaylist(): SavedPlaylist</text><ellipse cx="73.3308" cy="364.5352" fill="#84BE84" rx="3" ry="3" style="stroke: #038048; stroke-width: 1.0;"/><text fill="#000000" font-family="sans-serif" font-size="11" lengthAdjust="spacingAndGlyphs" textLength="96" x="82.3308" y="366.8433">getTrack(): Track</text><ellipse cx="73.3308" cy="377.3398" fill="#84BE84" rx="3" ry="3" style="stroke: #038048; stroke-width: 1.0;"/><text fill="#000000" font-family="sans-serif" font-size="11" lengthAdjust="spacingAndGlyphs" textLength="202" x="82.3308" y="379.6479">getVotesProperty(): IntegerProperty</text><ellipse cx="73.3308" cy="390.1445" fill="#84BE84" rx="3" ry="3" style="stroke: #038048; stroke-width: 1.0;"/><text fill="#000000" font-family="sans-serif" font-size="11" lengthAdjust="spacingAndGlyphs" textLength="77" x="82.3308" y="392.4526">upvote(): void</text><ellipse cx="73.3308" cy="402.9492" fill="#84BE84" rx="3" ry="3" style="stroke: #038048; stroke-width: 1.0;"/><text fill="#000000" font-family="sans-serif" font-size="11" lengthAdjust="spacingAndGlyphs" textLength="93" x="82.3308" y="405.2573">downvote(): void</text><ellipse cx="73.3308" cy="415.7539" fill="#84BE84" rx="3" ry="3" style="stroke: #038048; stroke-width: 1.0;"/><text fill="#000000" font-family="sans-serif" font-size="11" lengthAdjust="spacingAndGlyphs" textLength="78" x="82.3308" y="418.062">update(): void</text></a><!--class ch.tofind.commusica.playlist.PlaylistManager--><a target="_top" xlink:actuate="onRequest" xlink:href="PlaylistManager.html" xlink:show="new" xlink:title="PlaylistManager.html" xlink:type="simple"><rect fill="#FEFECE" filter="url(#fa2vox8)" height="240.0703" style="stroke: #A80036; stroke-width: 1.5;" width="255" x="373.831" y="204"/><ellipse cx="448.081" cy="220" fill="#ADD1B2" rx="11" ry="11" style="stroke: #A80036; stroke-width: 1.0;"/><path d="M451.0498,225.6406 Q450.4716,225.9375 449.831,226.0859 Q449.1904,226.2344 448.4873,226.2344 Q445.9873,226.2344 444.6669,224.5859 Q443.3466,222.9375 443.3466,219.8125 Q443.3466,216.6875 444.6669,215.0313 Q445.9873,213.375 448.4873,213.375 Q449.1904,213.375 449.8388,213.5313 Q450.4873,213.6875 451.0498,213.9844 L451.0498,216.7031 Q450.4248,216.125 449.831,215.8516 Q449.2373,215.5781 448.6123,215.5781 Q447.2685,215.5781 446.581,216.6484 Q445.8935,217.7188 445.8935,219.8125 Q445.8935,221.9063 446.581,222.9766 Q447.2685,224.0469 448.6123,224.0469 Q449.2373,224.0469 449.831,223.7734 Q450.4248,223.5 451.0498,222.9219 L451.0498,225.6406 Z "/><text fill="#000000" font-family="sans-serif" font-size="12" lengthAdjust="spacingAndGlyphs" textLength="98" x="468.581" y="224.1543">PlaylistManager</text><line style="stroke: #A80036; stroke-width: 1.5;" x1="374.831" x2="627.831" y1="236" y2="236"/><rect fill="none" height="6" style="stroke: #C82930; stroke-width: 1.0;" width="6" x="381.831" y="244.9023"/><text fill="#000000" font-family="sans-serif" font-size="11" lengthAdjust="spacingAndGlyphs" text-decoration="underline" textLength="71" x="393.831" y="250.2104">LOG: Logger</text><line style="stroke: #000000; stroke-width: 1.0;" x1="393.831" x2="464.831" y1="252.2104" y2="252.2104"/><rect fill="none" height="6" style="stroke: #C82930; stroke-width: 1.0;" width="6" x="381.831" y="257.707"/><text fill="#000000" font-family="sans-serif" font-size="11" lengthAdjust="spacingAndGlyphs" text-decoration="underline" textLength="145" x="393.831" y="263.0151">instance: PlaylistManager</text><line style="stroke: #000000; stroke-width: 1.0;" x1="393.831" x2="538.831" y1="265.0151" y2="265.0151"/><rect fill="none" height="6" style="stroke: #C82930; stroke-width: 1.0;" width="6" x="381.831" y="270.5117"/><text fill="#000000" font-family="sans-serif" font-size="11" lengthAdjust="spacingAndGlyphs" textLength="202" x="393.831" y="275.8198">savedPlaylists: List&lt;SavedPlaylist&gt;</text><rect fill="none" height="6" style="stroke: #C82930; stroke-width: 1.0;" width="6" x="381.831" y="283.3164"/><text fill="#000000" font-family="sans-serif" font-size="11" lengthAdjust="spacingAndGlyphs" textLength="149" x="393.831" y="288.6245">playlist: EphemeralPlaylist</text><rect fill="none" height="6" style="stroke: #C82930; stroke-width: 1.0;" width="6" x="381.831" y="296.1211"/><text fill="#000000" font-family="sans-serif" font-size="11" lengthAdjust="spacingAndGlyphs" textLength="173" x="393.831" y="301.4292">favoritesPlaylist: SavedPlaylist</text><line style="stroke: #A80036; stroke-width: 1.5;" x1="374.831" x2="627.831" y1="308.0234" y2="308.0234"/><ellipse cx="384.831" cy="319.9258" fill="#84BE84" rx="3" ry="3" style="stroke: #038048; stroke-width: 1.0;"/><text fill="#000000" font-family="sans-serif" font-size="11" lengthAdjust="spacingAndGlyphs" text-decoration="underline" textLength="171" x="393.831" y="322.2339">getInstance(): PlaylistManager</text><line style="stroke: #000000; stroke-width: 1.0;" x1="393.831" x2="564.831" y1="324.2339" y2="324.2339"/><ellipse cx="384.831" cy="332.7305" fill="#84BE84" rx="3" ry="3" style="stroke: #038048; stroke-width: 1.0;"/><text fill="#000000" font-family="sans-serif" font-size="11" lengthAdjust="spacingAndGlyphs" textLength="175" x="393.831" y="335.0386">getPlaylist(): EphemeralPlaylist</text><ellipse cx="384.831" cy="345.5352" fill="#84BE84" rx="3" ry="3" style="stroke: #038048; stroke-width: 1.0;"/><text fill="#000000" font-family="sans-serif" font-size="11" lengthAdjust="spacingAndGlyphs" textLength="201" x="393.831" y="347.8433">createPlaylist(String): SavedPlaylist</text><ellipse cx="384.831" cy="358.3398" fill="#84BE84" rx="3" ry="3" style="stroke: #038048; stroke-width: 1.0;"/><text fill="#000000" font-family="sans-serif" font-size="11" lengthAdjust="spacingAndGlyphs" textLength="197" x="393.831" y="360.6479">removePlaylist(SavedPlaylist): void</text><ellipse cx="384.831" cy="371.1445" fill="#84BE84" rx="3" ry="3" style="stroke: #038048; stroke-width: 1.0;"/><text fill="#000000" font-family="sans-serif" font-size="11" lengthAdjust="spacingAndGlyphs" textLength="229" x="393.831" y="373.4526">getSavedPlaylists(): List&lt;SavedPlaylist&gt;</text><ellipse cx="384.831" cy="383.9492" fill="#84BE84" rx="3" ry="3" style="stroke: #038048; stroke-width: 1.0;"/><text fill="#000000" font-family="sans-serif" font-size="11" lengthAdjust="spacingAndGlyphs" textLength="201" x="393.831" y="386.2573">getFavoritesPlaylist(): SavedPlaylist</text><ellipse cx="384.831" cy="396.7539" fill="#84BE84" rx="3" ry="3" style="stroke: #038048; stroke-width: 1.0;"/><text fill="#000000" font-family="sans-serif" font-size="11" lengthAdjust="spacingAndGlyphs" textLength="188" x="393.831" y="399.062">addTrackToFavorites(Track): void</text><ellipse cx="384.831" cy="409.5586" fill="#84BE84" rx="3" ry="3" style="stroke: #038048; stroke-width: 1.0;"/><text fill="#000000" font-family="sans-serif" font-size="11" lengthAdjust="spacingAndGlyphs" textLength="225" x="393.831" y="411.8667">removeTrackFromFavorites(Track): void</text><rect fill="#F24D5C" height="6" style="stroke: #C82930; stroke-width: 1.0;" width="6" x="381.831" y="419.3633"/><text fill="#000000" font-family="sans-serif" font-size="11" lengthAdjust="spacingAndGlyphs" textLength="227" x="393.831" y="424.6714">retrieveFavoritesPlaylist(): SavedPlaylist</text><rect fill="#F24D5C" height="6" style="stroke: #C82930; stroke-width: 1.0;" width="6" x="381.831" y="432.168"/><text fill="#000000" font-family="sans-serif" font-size="11" lengthAdjust="spacingAndGlyphs" textLength="220" x="393.831" y="437.4761">retrievePlaylists(): List&lt;SavedPlaylist&gt;</text></a><!--class ch.tofind.commusica.playlist.VoteComparator--><a target="_top" xlink:actuate="onRequest" xlink:href="VoteComparator.html" xlink:show="new" xlink:title="VoteComparator.html" xlink:type="simple"><rect fill="#FEFECE" filter="url(#fa2vox8)" height="60.8047" style="stroke: #A80036; stroke-width: 1.5;" width="256" x="664.331" y="293.5"/><ellipse cx="736.581" cy="309.5" fill="#ADD1B2" rx="11" ry="11" style="stroke: #A80036; stroke-width: 1.0;"/><path d="M739.5498,315.1406 Q738.9716,315.4375 738.331,315.5859 Q737.6904,315.7344 736.9873,315.7344 Q734.4873,315.7344 733.1669,314.0859 Q731.8466,312.4375 731.8466,309.3125 Q731.8466,306.1875 733.1669,304.5313 Q734.4873,302.875 736.9873,302.875 Q737.6904,302.875 738.3388,303.0313 Q738.9873,303.1875 739.5498,303.4844 L739.5498,306.2031 Q738.9248,305.625 738.331,305.3516 Q737.7373,305.0781 737.1123,305.0781 Q735.7685,305.0781 735.081,306.1484 Q734.3935,307.2188 734.3935,309.3125 Q734.3935,311.4063 735.081,312.4766 Q735.7685,313.5469 737.1123,313.5469 Q737.7373,313.5469 738.331,313.2734 Q738.9248,313 739.5498,312.4219 L739.5498,315.1406 Z "/><text fill="#000000" font-family="sans-serif" font-size="12" lengthAdjust="spacingAndGlyphs" textLength="103" x="757.081" y="313.6543">VoteComparator</text><line style="stroke: #A80036; stroke-width: 1.5;" x1="665.331" x2="919.331" y1="325.5" y2="325.5"/><line style="stroke: #A80036; stroke-width: 1.5;" x1="665.331" x2="919.331" y1="333.5" y2="333.5"/><ellipse cx="675.331" cy="345.4023" fill="#84BE84" rx="3" ry="3" style="stroke: #038048; stroke-width: 1.0;"/><text fill="#000000" font-family="sans-serif" font-size="11" lengthAdjust="spacingAndGlyphs" textLength="230" x="684.331" y="347.7104">compare(PlaylistTrack, PlaylistTrack): int</text></a><!--class ch.tofind.commusica.playlist.PlaylistTrackId--><a target="_top" xlink:actuate="onRequest" xlink:href="PlaylistTrackId.html" xlink:show="new" xlink:title="PlaylistTrackId.html" xlink:type="simple"><rect fill="#FEFECE" filter="url(#fa2vox8)" height="150.4375" style="stroke: #A80036; stroke-width: 1.5;" width="229" x="68.8308" y="521"/><ellipse cx="135.0808" cy="537" fill="#ADD1B2" rx="11" ry="11" style="stroke: #A80036; stroke-width: 1.0;"/><path d="M138.0496,542.6406 Q137.4714,542.9375 136.8308,543.0859 Q136.1902,543.2344 135.4871,543.2344 Q132.9871,543.2344 131.6667,541.5859 Q130.3464,539.9375 130.3464,536.8125 Q130.3464,533.6875 131.6667,532.0313 Q132.9871,530.375 135.4871,530.375 Q136.1902,530.375 136.8386,530.5313 Q137.4871,530.6875 138.0496,530.9844 L138.0496,533.7031 Q137.4246,533.125 136.8308,532.8516 Q136.2371,532.5781 135.6121,532.5781 Q134.2683,532.5781 133.5808,533.6484 Q132.8933,534.7188 132.8933,536.8125 Q132.8933,538.9063 133.5808,539.9766 Q134.2683,541.0469 135.6121,541.0469 Q136.2371,541.0469 136.8308,540.7734 Q137.4246,540.5 138.0496,539.9219 L138.0496,542.6406 Z "/><text fill="#000000" font-family="sans-serif" font-size="12" lengthAdjust="spacingAndGlyphs" textLength="88" x="155.5808" y="541.1543">PlaylistTrackId</text><line style="stroke: #A80036; stroke-width: 1.5;" x1="69.8308" x2="296.8308" y1="553" y2="553"/><rect fill="none" height="6" style="stroke: #C82930; stroke-width: 1.0;" width="6" x="76.8308" y="561.9023"/><text fill="#000000" font-family="sans-serif" font-size="11" lengthAdjust="spacingAndGlyphs" textLength="123" x="88.8308" y="567.2104">playlist: SavedPlaylist</text><rect fill="none" height="6" style="stroke: #C82930; stroke-width: 1.0;" width="6" x="76.8308" y="574.707"/><text fill="#000000" font-family="sans-serif" font-size="11" lengthAdjust="spacingAndGlyphs" textLength="67" x="88.8308" y="580.0151">track: Track</text><line style="stroke: #A80036; stroke-width: 1.5;" x1="69.8308" x2="296.8308" y1="586.6094" y2="586.6094"/><ellipse cx="79.8308" cy="598.5117" fill="#84BE84" rx="3" ry="3" style="stroke: #038048; stroke-width: 1.0;"/><text fill="#000000" font-family="sans-serif" font-size="11" lengthAdjust="spacingAndGlyphs" textLength="89" x="88.8308" y="600.8198">PlaylistTrackId()</text><ellipse cx="79.8308" cy="611.3164" fill="#84BE84" rx="3" ry="3" style="stroke: #038048; stroke-width: 1.0;"/><text fill="#000000" font-family="sans-serif" font-size="11" lengthAdjust="spacingAndGlyphs" textLength="203" x="88.8308" y="613.6245">PlaylistTrackId(SavedPlaylist, Track)</text><ellipse cx="79.8308" cy="624.1211" fill="#84BE84" rx="3" ry="3" style="stroke: #038048; stroke-width: 1.0;"/><text fill="#000000" font-family="sans-serif" font-size="11" lengthAdjust="spacingAndGlyphs" textLength="172" x="88.8308" y="626.4292">setPlaylist(SavedPlaylist): void</text><ellipse cx="79.8308" cy="636.9258" fill="#84BE84" rx="3" ry="3" style="stroke: #038048; stroke-width: 1.0;"/><text fill="#000000" font-family="sans-serif" font-size="11" lengthAdjust="spacingAndGlyphs" textLength="149" x="88.8308" y="639.2339">getPlaylist(): SavedPlaylist</text><ellipse cx="79.8308" cy="649.7305" fill="#84BE84" rx="3" ry="3" style="stroke: #038048; stroke-width: 1.0;"/><text fill="#000000" font-family="sans-serif" font-size="11" lengthAdjust="spacingAndGlyphs" textLength="119" x="88.8308" y="652.0386">setTrack(Track): void</text><ellipse cx="79.8308" cy="662.5352" fill="#84BE84" rx="3" ry="3" style="stroke: #038048; stroke-width: 1.0;"/><text fill="#000000" font-family="sans-serif" font-size="11" lengthAdjust="spacingAndGlyphs" textLength="96" x="88.8308" y="664.8433">getTrack(): Track</text></a><!--class java.io.Serializable--><rect fill="#FEFECE" filter="url(#fa2vox8)" height="48" style="stroke: #A80036; stroke-width: 1.5;" width="103" x="84.8308" y="65.5"/><ellipse cx="99.8308" cy="81.5" fill="#B4A7E5" rx="11" ry="11" style="stroke: #A80036; stroke-width: 1.0;"/><path d="M95.7527,77.2656 L95.7527,75.1094 L103.1433,75.1094 L103.1433,77.2656 L100.6746,77.2656 L100.6746,85.3438 L103.1433,85.3438 L103.1433,87.5 L95.7527,87.5 L95.7527,85.3438 L98.2214,85.3438 L98.2214,77.2656 L95.7527,77.2656 Z "/><text fill="#000000" font-family="sans-serif" font-size="12" font-style="italic" lengthAdjust="spacingAndGlyphs" textLength="71" x="113.8308" y="85.6543">Serializable</text><line style="stroke: #A80036; stroke-width: 1.5;" x1="85.8308" x2="186.8308" y1="97.5" y2="97.5"/><line style="stroke: #A80036; stroke-width: 1.5;" x1="85.8308" x2="186.8308" y1="105.5" y2="105.5"/><!--class java.util.Comparator--><rect fill="#FEFECE" filter="url(#fa2vox8)" height="60.8047" style="stroke: #A80036; stroke-width: 1.5;" width="128" x="728.331" y="59"/><ellipse cx="748.281" cy="75" fill="#B4A7E5" rx="11" ry="11" style="stroke: #A80036; stroke-width: 1.0;"/><path d="M744.2029,70.7656 L744.2029,68.6094 L751.5935,68.6094 L751.5935,70.7656 L749.1248,70.7656 L749.1248,78.8438 L751.5935,78.8438 L751.5935,81 L744.2029,81 L744.2029,78.8438 L746.6716,78.8438 L746.6716,70.7656 L744.2029,70.7656 Z "/><text fill="#000000" font-family="sans-serif" font-size="12" font-style="italic" lengthAdjust="spacingAndGlyphs" textLength="74" x="763.381" y="79.1543">Comparator</text><rect fill="#FFFFFF" height="15.9688" style="stroke: #000000; stroke-width: 1.0; stroke-dasharray: 2.0,2.0;" width="9" x="850.331" y="56"/><text fill="#000000" font-family="sans-serif" font-size="12" font-style="italic" lengthAdjust="spacingAndGlyphs" textLength="7" x="851.331" y="68.1387">T</text><line style="stroke: #A80036; stroke-width: 1.5;" x1="729.331" x2="855.331" y1="91" y2="91"/><line style="stroke: #A80036; stroke-width: 1.5;" x1="729.331" x2="855.331" y1="99" y2="99"/><ellipse cx="739.331" cy="110.9023" fill="#84BE84" rx="3" ry="3" style="stroke: #038048; stroke-width: 1.0;"/><text fill="#000000" font-family="sans-serif" font-size="11" font-style="italic" lengthAdjust="spacingAndGlyphs" textLength="102" x="748.331" y="113.2104">compare(T, T): int</text><path d="M148.076,133.168 C155.021,158.398 164.127,191.48 172.789,222.947 " fill="none" style="stroke: #A80036; stroke-width: 1.0; stroke-dasharray: 7.0,7.0;"/><polygon fill="none" points="141.26,134.784,142.701,113.643,154.758,131.068,141.26,134.784" style="stroke: #A80036; stroke-width: 1.0;"/><path d="M792.331,140.713 C792.331,187.181 792.331,254.714 792.331,293.196 " fill="none" style="stroke: #A80036; stroke-width: 1.0; stroke-dasharray: 7.0,7.0;"/><polygon fill="none" points="785.331,140.419,792.331,120.419,799.331,140.419,785.331,140.419" style="stroke: #A80036; stroke-width: 1.0;"/><path d="M73.7038,125.854 C61.8502,135.618 51.0658,147.354 44.3308,161 C-11.3356,273.789 -1.3894,326.826 44.3308,444 C55.3399,472.215 74.3623,498.34 94.863,520.653 " fill="none" style="stroke: #A80036; stroke-width: 1.0; stroke-dasharray: 7.0,7.0;"/><polygon fill="none" points="69.9711,119.912,90.2506,113.768,78.2286,131.218,69.9711,119.912" style="stroke: #A80036; stroke-width: 1.0;"/><path d="M194.025,425.154 C192.148,454.965 190.118,487.209 188.336,515.512 " fill="none" style="stroke: #A80036; stroke-width: 1.0;"/><polygon fill="#A80036" points="188.006,520.749,192.5638,512.0182,188.3203,515.7589,184.5796,511.5154,188.006,520.749" style="stroke: #A80036; stroke-width: 1.0;"/><text fill="#000000" font-family="sans-serif" font-size="13" lengthAdjust="spacingAndGlyphs" textLength="11" x="191.331" y="487.0669">id</text></g></svg>