<?xml version="1.0" encoding="UTF-8" standalone="no"?><svg xmlns="http://www.w3.org/2000/svg" xmlns:xlink="http://www.w3.org/1999/xlink" contentScriptType="application/ecmascript" contentStyleType="text/css" height="167px" preserveAspectRatio="none" style="width:244px;height:167px;" version="1.1" viewBox="0 0 244 167" width="244px" zoomAndPan="magnify"><defs><filter height="300%" id="faika99" width="300%" x="-1" y="-1"><feGaussianBlur result="blurOut" stdDeviation="2.0"/><feColorMatrix in="blurOut" result="blurOut2" type="matrix" values="0 0 0 0 0 0 0 0 0 0 0 0 0 0 0 0 0 0 .4 0"/><feOffset dx="4.0" dy="4.0" in="blurOut2" result="blurOut3"/><feBlend in="SourceGraphic" in2="blurOut3" mode="normal"/></filter></defs><g><!--class PlaylistTrackId--><a target="_top" xlink:actuate="onRequest" xlink:href="PlaylistTrackId.html" xlink:show="new" xlink:title="PlaylistTrackId.html" xlink:type="simple"><rect fill="#FEFECE" filter="url(#faika99)" height="150.4375" style="stroke: #A80036; stroke-width: 1.5;" width="229" x="6" y="8"/><ellipse cx="72.25" cy="24" fill="#ADD1B2" rx="11" ry="11" style="stroke: #A80036; stroke-width: 1.0;"/><path d="M75.2188,29.6406 Q74.6406,29.9375 74,30.0859 Q73.3594,30.2344 72.6563,30.2344 Q70.1563,30.2344 68.8359,28.5859 Q67.5156,26.9375 67.5156,23.8125 Q67.5156,20.6875 68.8359,19.0313 Q70.1563,17.375 72.6563,17.375 Q73.3594,17.375 74.0078,17.5313 Q74.6563,17.6875 75.2188,17.9844 L75.2188,20.7031 Q74.5938,20.125 74,19.8516 Q73.4063,19.5781 72.7813,19.5781 Q71.4375,19.5781 70.75,20.6484 Q70.0625,21.7188 70.0625,23.8125 Q70.0625,25.9063 70.75,26.9766 Q71.4375,28.0469 72.7813,28.0469 Q73.4063,28.0469 74,27.7734 Q74.5938,27.5 75.2188,26.9219 L75.2188,29.6406 Z "/><text fill="#000000" font-family="sans-serif" font-size="12" lengthAdjust="spacingAndGlyphs" textLength="88" x="92.75" y="28.1543">PlaylistTrackId</text><line style="stroke: #A80036; stroke-width: 1.5;" x1="7" x2="234" y1="40" y2="40"/><rect fill="none" height="6" style="stroke: #C82930; stroke-width: 1.0;" width="6" x="14" y="48.9023"/><text fill="#000000" font-family="sans-serif" font-size="11" lengthAdjust="spacingAndGlyphs" textLength="123" x="26" y="54.2104">playlist: SavedPlaylist</text><rect fill="none" height="6" style="stroke: #C82930; stroke-width: 1.0;" width="6" x="14" y="61.707"/><text fill="#000000" font-family="sans-serif" font-size="11" lengthAdjust="spacingAndGlyphs" textLength="67" x="26" y="67.0151">track: Track</text><line style="stroke: #A80036; stroke-width: 1.5;" x1="7" x2="234" y1="73.6094" y2="73.6094"/><ellipse cx="17" cy="85.5117" fill="#84BE84" rx="3" ry="3" style="stroke: #038048; stroke-width: 1.0;"/><text fill="#000000" font-family="sans-serif" font-size="11" lengthAdjust="spacingAndGlyphs" textLength="89" x="26" y="87.8198">PlaylistTrackId()</text><ellipse cx="17" cy="98.3164" fill="#84BE84" rx="3" ry="3" style="stroke: #038048; stroke-width: 1.0;"/><text fill="#000000" font-family="sans-serif" font-size="11" lengthAdjust="spacingAndGlyphs" textLength="203" x="26" y="100.6245">PlaylistTrackId(SavedPlaylist, Track)</text><ellipse cx="17" cy="111.1211" fill="#84BE84" rx="3" ry="3" style="stroke: #038048; stroke-width: 1.0;"/><text fill="#000000" font-family="sans-serif" font-size="11" lengthAdjust="spacingAndGlyphs" textLength="172" x="26" y="113.4292">setPlaylist(SavedPlaylist): void</text><ellipse cx="17" cy="123.9258" fill="#84BE84" rx="3" ry="3" style="stroke: #038048; stroke-width: 1.0;"/><text fill="#000000" font-family="sans-serif" font-size="11" lengthAdjust="spacingAndGlyphs" textLength="149" x="26" y="126.2339">getPlaylist(): SavedPlaylist</text><ellipse cx="17" cy="136.7305" fill="#84BE84" rx="3" ry="3" style="stroke: #038048; stroke-width: 1.0;"/><text fill="#000000" font-family="sans-serif" font-size="11" lengthAdjust="spacingAndGlyphs" textLength="119" x="26" y="139.0386">setTrack(Track): void</text><ellipse cx="17" cy="149.5352" fill="#84BE84" rx="3" ry="3" style="stroke: #038048; stroke-width: 1.0;"/><text fill="#000000" font-family="sans-serif" font-size="11" lengthAdjust="spacingAndGlyphs" textLength="96" x="26" y="151.8433">getTrack(): Track</text></a></g></svg>