<?xml version="1.0" encoding="UTF-8" standalone="no"?><svg xmlns="http://www.w3.org/2000/svg" xmlns:xlink="http://www.w3.org/1999/xlink" contentScriptType="application/ecmascript" contentStyleType="text/css" height="244px" preserveAspectRatio="none" style="width:291px;height:244px;" version="1.1" viewBox="0 0 291 244" width="291px" zoomAndPan="magnify"><defs><filter height="300%" id="fuhgvpy" width="300%" x="-1" y="-1"><feGaussianBlur result="blurOut" stdDeviation="2.0"/><feColorMatrix in="blurOut" result="blurOut2" type="matrix" values="0 0 0 0 0 0 0 0 0 0 0 0 0 0 0 0 0 0 .4 0"/><feOffset dx="4.0" dy="4.0" in="blurOut2" result="blurOut3"/><feBlend in="SourceGraphic" in2="blurOut3" mode="normal"/></filter></defs><g><!--class PlaylistTrack--><a target="_top" xlink:actuate="onRequest" xlink:href="PlaylistTrack.html" xlink:show="new" xlink:title="PlaylistTrack.html" xlink:type="simple"><rect fill="#FEFECE" filter="url(#fuhgvpy)" height="227.2656" style="stroke: #A80036; stroke-width: 1.5;" width="276" x="6" y="8"/><ellipse cx="101.25" cy="24" fill="#ADD1B2" rx="11" ry="11" style="stroke: #A80036; stroke-width: 1.0;"/><path d="M104.2188,29.6406 Q103.6406,29.9375 103,30.0859 Q102.3594,30.2344 101.6563,30.2344 Q99.1563,30.2344 97.8359,28.5859 Q96.5156,26.9375 96.5156,23.8125 Q96.5156,20.6875 97.8359,19.0313 Q99.1563,17.375 101.6563,17.375 Q102.3594,17.375 103.0078,17.5313 Q103.6563,17.6875 104.2188,17.9844 L104.2188,20.7031 Q103.5938,20.125 103,19.8516 Q102.4063,19.5781 101.7813,19.5781 Q100.4375,19.5781 99.75,20.6484 Q99.0625,21.7188 99.0625,23.8125 Q99.0625,25.9063 99.75,26.9766 Q100.4375,28.0469 101.7813,28.0469 Q102.4063,28.0469 103,27.7734 Q103.5938,27.5 104.2188,26.9219 L104.2188,29.6406 Z "/><text fill="#000000" font-family="sans-serif" font-size="12" lengthAdjust="spacingAndGlyphs" textLength="77" x="121.75" y="28.1543">PlaylistTrack</text><line style="stroke: #A80036; stroke-width: 1.5;" x1="7" x2="281" y1="40" y2="40"/><rect fill="none" height="6" style="stroke: #C82930; stroke-width: 1.0;" width="6" x="14" y="48.9023"/><text fill="#000000" font-family="sans-serif" font-size="11" lengthAdjust="spacingAndGlyphs" textLength="99" x="26" y="54.2104">id: PlaylistTrackId</text><rect fill="none" height="6" style="stroke: #C82930; stroke-width: 1.0;" width="6" x="14" y="61.707"/><text fill="#000000" font-family="sans-serif" font-size="11" lengthAdjust="spacingAndGlyphs" textLength="241" x="26" y="67.0151">hasBeenPlayed: ReadOnlyBooleanWrapper</text><rect fill="none" height="6" style="stroke: #C82930; stroke-width: 1.0;" width="6" x="14" y="74.5117"/><text fill="#000000" font-family="sans-serif" font-size="11" lengthAdjust="spacingAndGlyphs" textLength="79" x="26" y="79.8198">votes: Integer</text><rect fill="none" height="6" style="stroke: #C82930; stroke-width: 1.0;" width="6" x="14" y="87.3164"/><text fill="#000000" font-family="sans-serif" font-size="11" lengthAdjust="spacingAndGlyphs" textLength="175" x="26" y="92.6245">votesProperty: IntegerProperty</text><line style="stroke: #A80036; stroke-width: 1.5;" x1="7" x2="281" y1="99.2188" y2="99.2188"/><rect fill="#F24D5C" height="6" style="stroke: #C82930; stroke-width: 1.0;" width="6" x="14" y="108.1211"/><text fill="#000000" font-family="sans-serif" font-size="11" lengthAdjust="spacingAndGlyphs" textLength="79" x="26" y="113.4292">PlaylistTrack()</text><ellipse cx="17" cy="123.9258" fill="#84BE84" rx="3" ry="3" style="stroke: #038048; stroke-width: 1.0;"/><text fill="#000000" font-family="sans-serif" font-size="11" lengthAdjust="spacingAndGlyphs" textLength="193" x="26" y="126.2339">PlaylistTrack(SavedPlaylist, Track)</text><ellipse cx="17" cy="136.7305" fill="#84BE84" rx="3" ry="3" style="stroke: #038048; stroke-width: 1.0;"/><text fill="#000000" font-family="sans-serif" font-size="11" lengthAdjust="spacingAndGlyphs" textLength="250" x="26" y="139.0386">hasBeenPlayed(): ReadOnlyBooleanProperty</text><ellipse cx="17" cy="149.5352" fill="#84BE84" rx="3" ry="3" style="stroke: #038048; stroke-width: 1.0;"/><text fill="#000000" font-family="sans-serif" font-size="11" lengthAdjust="spacingAndGlyphs" textLength="149" x="26" y="151.8433">getPlaylist(): SavedPlaylist</text><ellipse cx="17" cy="162.3398" fill="#84BE84" rx="3" ry="3" style="stroke: #038048; stroke-width: 1.0;"/><text fill="#000000" font-family="sans-serif" font-size="11" lengthAdjust="spacingAndGlyphs" textLength="96" x="26" y="164.6479">getTrack(): Track</text><ellipse cx="17" cy="175.1445" fill="#84BE84" rx="3" ry="3" style="stroke: #038048; stroke-width: 1.0;"/><text fill="#000000" font-family="sans-serif" font-size="11" lengthAdjust="spacingAndGlyphs" textLength="202" x="26" y="177.4526">getVotesProperty(): IntegerProperty</text><ellipse cx="17" cy="187.9492" fill="#84BE84" rx="3" ry="3" style="stroke: #038048; stroke-width: 1.0;"/><text fill="#000000" font-family="sans-serif" font-size="11" lengthAdjust="spacingAndGlyphs" textLength="125" x="26" y="190.2573">getId(): PlaylistTrackId</text><ellipse cx="17" cy="200.7539" fill="#84BE84" rx="3" ry="3" style="stroke: #038048; stroke-width: 1.0;"/><text fill="#000000" font-family="sans-serif" font-size="11" lengthAdjust="spacingAndGlyphs" textLength="77" x="26" y="203.062">upvote(): void</text><ellipse cx="17" cy="213.5586" fill="#84BE84" rx="3" ry="3" style="stroke: #038048; stroke-width: 1.0;"/><text fill="#000000" font-family="sans-serif" font-size="11" lengthAdjust="spacingAndGlyphs" textLength="93" x="26" y="215.8667">downvote(): void</text><ellipse cx="17" cy="226.3633" fill="#84BE84" rx="3" ry="3" style="stroke: #038048; stroke-width: 1.0;"/><text fill="#000000" font-family="sans-serif" font-size="11" lengthAdjust="spacingAndGlyphs" textLength="78" x="26" y="228.6714">update(): void</text></a></g></svg>