<?xml version="1.0" encoding="UTF-8" standalone="no"?><svg xmlns="http://www.w3.org/2000/svg" xmlns:xlink="http://www.w3.org/1999/xlink" contentScriptType="application/ecmascript" contentStyleType="text/css" height="77px" preserveAspectRatio="none" style="width:271px;height:77px;" version="1.1" viewBox="0 0 271 77" width="271px" zoomAndPan="magnify"><defs><filter height="300%" id="fed6dxl" width="300%" x="-1" y="-1"><feGaussianBlur result="blurOut" stdDeviation="2.0"/><feColorMatrix in="blurOut" result="blurOut2" type="matrix" values="0 0 0 0 0 0 0 0 0 0 0 0 0 0 0 0 0 0 .4 0"/><feOffset dx="4.0" dy="4.0" in="blurOut2" result="blurOut3"/><feBlend in="SourceGraphic" in2="blurOut3" mode="normal"/></filter></defs><g><!--class VoteComparator--><a target="_top" xlink:actuate="onRequest" xlink:href="VoteComparator.html" xlink:show="new" xlink:title="VoteComparator.html" xlink:type="simple"><rect fill="#FEFECE" filter="url(#fed6dxl)" height="60.8047" style="stroke: #A80036; stroke-width: 1.5;" width="256" x="6" y="8"/><ellipse cx="78.25" cy="24" fill="#ADD1B2" rx="11" ry="11" style="stroke: #A80036; stroke-width: 1.0;"/><path d="M81.2188,29.6406 Q80.6406,29.9375 80,30.0859 Q79.3594,30.2344 78.6563,30.2344 Q76.1563,30.2344 74.8359,28.5859 Q73.5156,26.9375 73.5156,23.8125 Q73.5156,20.6875 74.8359,19.0313 Q76.1563,17.375 78.6563,17.375 Q79.3594,17.375 80.0078,17.5313 Q80.6563,17.6875 81.2188,17.9844 L81.2188,20.7031 Q80.5938,20.125 80,19.8516 Q79.4063,19.5781 78.7813,19.5781 Q77.4375,19.5781 76.75,20.6484 Q76.0625,21.7188 76.0625,23.8125 Q76.0625,25.9063 76.75,26.9766 Q77.4375,28.0469 78.7813,28.0469 Q79.4063,28.0469 80,27.7734 Q80.5938,27.5 81.2188,26.9219 L81.2188,29.6406 Z "/><text fill="#000000" font-family="sans-serif" font-size="12" lengthAdjust="spacingAndGlyphs" textLength="103" x="98.75" y="28.1543">VoteComparator</text><line style="stroke: #A80036; stroke-width: 1.5;" x1="7" x2="261" y1="40" y2="40"/><line style="stroke: #A80036; stroke-width: 1.5;" x1="7" x2="261" y1="48" y2="48"/><ellipse cx="17" cy="59.9023" fill="#84BE84" rx="3" ry="3" style="stroke: #038048; stroke-width: 1.0;"/><text fill="#000000" font-family="sans-serif" font-size="11" lengthAdjust="spacingAndGlyphs" textLength="230" x="26" y="62.2104">compare(PlaylistTrack, PlaylistTrack): int</text></a></g></svg>