<?xml version="1.0" encoding="UTF-8" standalone="no"?><svg xmlns="http://www.w3.org/2000/svg" xmlns:xlink="http://www.w3.org/1999/xlink" contentScriptType="application/ecmascript" contentStyleType="text/css" height="90px" preserveAspectRatio="none" style="width:252px;height:90px;" version="1.1" viewBox="0 0 252 90" width="252px" zoomAndPan="magnify"><defs><filter height="300%" id="fvkiyz9" width="300%" x="-1" y="-1"><feGaussianBlur result="blurOut" stdDeviation="2.0"/><feColorMatrix in="blurOut" result="blurOut2" type="matrix" values="0 0 0 0 0 0 0 0 0 0 0 0 0 0 0 0 0 0 .4 0"/><feOffset dx="4.0" dy="4.0" in="blurOut2" result="blurOut3"/><feBlend in="SourceGraphic" in2="blurOut3" mode="normal"/></filter></defs><g><!--class ISessionManager--><a target="_top" xlink:actuate="onRequest" xlink:href="ISessionManager.html" xlink:show="new" xlink:title="ISessionManager.html" xlink:type="simple"><rect fill="#FEFECE" filter="url(#fvkiyz9)" height="73.6094" style="stroke: #A80036; stroke-width: 1.5;" width="237" x="6" y="8"/><ellipse cx="67.25" cy="24" fill="#B4A7E5" rx="11" ry="11" style="stroke: #A80036; stroke-width: 1.0;"/><path d="M63.1719,19.7656 L63.1719,17.6094 L70.5625,17.6094 L70.5625,19.7656 L68.0938,19.7656 L68.0938,27.8438 L70.5625,27.8438 L70.5625,30 L63.1719,30 L63.1719,27.8438 L65.6406,27.8438 L65.6406,19.7656 L63.1719,19.7656 Z "/><text fill="#000000" font-family="sans-serif" font-size="12" font-style="italic" lengthAdjust="spacingAndGlyphs" textLength="106" x="87.75" y="28.1543">ISessionManager</text><line style="stroke: #A80036; stroke-width: 1.5;" x1="7" x2="242" y1="40" y2="40"/><ellipse cx="17" cy="51.9023" fill="none" rx="3" ry="3" style="stroke: #038048; stroke-width: 1.0;"/><text fill="#000000" font-family="sans-serif" font-size="11" lengthAdjust="spacingAndGlyphs" text-decoration="underline" textLength="211" x="26" y="54.2104">TIME_BEFORE_SESSION_INACTIVE: int</text><line style="stroke: #000000; stroke-width: 1.0;" x1="26" x2="237" y1="56.2104" y2="56.2104"/><line style="stroke: #A80036; stroke-width: 1.5;" x1="7" x2="242" y1="60.8047" y2="60.8047"/><ellipse cx="17" cy="72.707" fill="#84BE84" rx="3" ry="3" style="stroke: #038048; stroke-width: 1.0;"/><text fill="#000000" font-family="sans-serif" font-size="11" font-style="italic" lengthAdjust="spacingAndGlyphs" textLength="64" x="26" y="75.0151">stop(): void</text></a></g></svg>