<?xml version="1.0" encoding="UTF-8" standalone="no"?><svg xmlns="http://www.w3.org/2000/svg" xmlns:xlink="http://www.w3.org/1999/xlink" contentScriptType="application/ecmascript" contentStyleType="text/css" height="699px" preserveAspectRatio="none" style="width:1400px;height:699px;" version="1.1" viewBox="0 0 1400 699" width="1400px" zoomAndPan="magnify"><defs><filter height="300%" id="flyxglc" width="300%" x="-1" y="-1"><feGaussianBlur result="blurOut" stdDeviation="2.0"/><feColorMatrix in="blurOut" result="blurOut2" type="matrix" values="0 0 0 0 0 0 0 0 0 0 0 0 0 0 0 0 0 0 .4 0"/><feOffset dx="4.0" dy="4.0" in="blurOut2" result="blurOut3"/><feBlend in="SourceGraphic" in2="blurOut3" mode="normal"/></filter></defs><g><!--cluster ch.tofind.commusica.session--><polygon fill="#FFFFFF" filter="url(#flyxglc)" points="22,24,257,24,264,46.2969,1393,46.2969,1393,692,22,692,22,24" style="stroke: #000000; stroke-width: 2.0;"/><line style="stroke: #000000; stroke-width: 2.0;" x1="22" x2="264" y1="46.2969" y2="46.2969"/><text fill="#000000" font-family="sans-serif" font-size="14" font-weight="bold" lengthAdjust="spacingAndGlyphs" textLength="229" x="26" y="38.9951">ch.tofind.commusica.session</text><!--class ch.tofind.commusica.session.ServerSessionManager--><a target="_top" xlink:actuate="onRequest" xlink:href="ServerSessionManager.html" xlink:show="new" xlink:title="ServerSessionManager.html" xlink:type="simple"><rect fill="#FEFECE" filter="url(#flyxglc)" height="176.0469" style="stroke: #A80036; stroke-width: 1.5;" width="393" x="38.5" y="352.5"/><ellipse cx="158.75" cy="368.5" fill="#ADD1B2" rx="11" ry="11" style="stroke: #A80036; stroke-width: 1.0;"/><path d="M161.7188,374.1406 Q161.1406,374.4375 160.5,374.5859 Q159.8594,374.7344 159.1563,374.7344 Q156.6563,374.7344 155.3359,373.0859 Q154.0156,371.4375 154.0156,368.3125 Q154.0156,365.1875 155.3359,363.5313 Q156.6563,361.875 159.1563,361.875 Q159.8594,361.875 160.5078,362.0313 Q161.1563,362.1875 161.7188,362.4844 L161.7188,365.2031 Q161.0938,364.625 160.5,364.3516 Q159.9063,364.0781 159.2813,364.0781 Q157.9375,364.0781 157.25,365.1484 Q156.5625,366.2188 156.5625,368.3125 Q156.5625,370.4063 157.25,371.4766 Q157.9375,372.5469 159.2813,372.5469 Q159.9063,372.5469 160.5,372.2734 Q161.0938,372 161.7188,371.4219 L161.7188,374.1406 Z "/><text fill="#000000" font-family="sans-serif" font-size="12" lengthAdjust="spacingAndGlyphs" textLength="144" x="179.25" y="372.6543">ServerSessionManager</text><line style="stroke: #A80036; stroke-width: 1.5;" x1="39.5" x2="430.5" y1="384.5" y2="384.5"/><rect fill="none" height="6" style="stroke: #C82930; stroke-width: 1.0;" width="6" x="46.5" y="393.4023"/><text fill="#000000" font-family="sans-serif" font-size="11" lengthAdjust="spacingAndGlyphs" text-decoration="underline" textLength="71" x="58.5" y="398.7104">LOG: Logger</text><line style="stroke: #000000; stroke-width: 1.0;" x1="58.5" x2="129.5" y1="400.7104" y2="400.7104"/><rect fill="none" height="6" style="stroke: #C82930; stroke-width: 1.0;" width="6" x="46.5" y="406.207"/><text fill="#000000" font-family="sans-serif" font-size="11" lengthAdjust="spacingAndGlyphs" text-decoration="underline" textLength="189" x="58.5" y="411.5151">instance: ServerSessionManager</text><line style="stroke: #000000; stroke-width: 1.0;" x1="58.5" x2="247.5" y1="413.5151" y2="413.5151"/><rect fill="none" height="6" style="stroke: #C82930; stroke-width: 1.0;" width="6" x="46.5" y="419.0117"/><text fill="#000000" font-family="sans-serif" font-size="11" lengthAdjust="spacingAndGlyphs" text-decoration="underline" textLength="341" x="58.5" y="424.3198">availableServers: ObservableMap&lt;Integer, ServerSession&gt;</text><line style="stroke: #000000; stroke-width: 1.0;" x1="58.5" x2="399.5" y1="426.3198" y2="426.3198"/><rect fill="none" height="6" style="stroke: #C82930; stroke-width: 1.0;" width="6" x="46.5" y="431.8164"/><text fill="#000000" font-family="sans-serif" font-size="11" lengthAdjust="spacingAndGlyphs" textLength="307" x="58.5" y="437.1245">scheduledExecutorService: ScheduledExecutorService</text><line style="stroke: #A80036; stroke-width: 1.5;" x1="39.5" x2="430.5" y1="443.7188" y2="443.7188"/><ellipse cx="49.5" cy="455.6211" fill="#84BE84" rx="3" ry="3" style="stroke: #038048; stroke-width: 1.0;"/><text fill="#000000" font-family="sans-serif" font-size="11" lengthAdjust="spacingAndGlyphs" text-decoration="underline" textLength="215" x="58.5" y="457.9292">getInstance(): ServerSessionManager</text><line style="stroke: #000000; stroke-width: 1.0;" x1="58.5" x2="273.5" y1="459.9292" y2="459.9292"/><ellipse cx="49.5" cy="468.4258" fill="#84BE84" rx="3" ry="3" style="stroke: #038048; stroke-width: 1.0;"/><text fill="#000000" font-family="sans-serif" font-size="11" lengthAdjust="spacingAndGlyphs" textLength="227" x="58.5" y="470.7339">store(Integer, InetAddress, String): void</text><ellipse cx="49.5" cy="481.2305" fill="#84BE84" rx="3" ry="3" style="stroke: #038048; stroke-width: 1.0;"/><text fill="#000000" font-family="sans-serif" font-size="11" lengthAdjust="spacingAndGlyphs" textLength="367" x="58.5" y="483.5386">getAvailableServers(): ObservableMap&lt;Integer, ServerSession&gt;</text><rect fill="#F24D5C" height="6" style="stroke: #C82930; stroke-width: 1.0;" width="6" x="46.5" y="491.0352"/><text fill="#000000" font-family="sans-serif" font-size="11" lengthAdjust="spacingAndGlyphs" textLength="178" x="58.5" y="496.3433">deleteObsoleteSessions(): void</text><ellipse cx="49.5" cy="506.8398" fill="#84BE84" rx="3" ry="3" style="stroke: #038048; stroke-width: 1.0;"/><text fill="#000000" font-family="sans-serif" font-size="11" lengthAdjust="spacingAndGlyphs" textLength="67" x="58.5" y="509.1479">clear(): void</text><ellipse cx="49.5" cy="519.6445" fill="#84BE84" rx="3" ry="3" style="stroke: #038048; stroke-width: 1.0;"/><text fill="#000000" font-family="sans-serif" font-size="11" lengthAdjust="spacingAndGlyphs" textLength="64" x="58.5" y="521.9526">stop(): void</text></a><!--class ch.tofind.commusica.session.UserSessionManager--><a target="_top" xlink:actuate="onRequest" xlink:href="UserSessionManager.html" xlink:show="new" xlink:title="UserSessionManager.html" xlink:type="simple"><rect fill="#FEFECE" filter="url(#flyxglc)" height="470.5547" style="stroke: #A80036; stroke-width: 1.5;" width="333" x="466.5" y="205"/><ellipse cx="562.25" cy="221" fill="#ADD1B2" rx="11" ry="11" style="stroke: #A80036; stroke-width: 1.0;"/><path d="M565.2188,226.6406 Q564.6406,226.9375 564,227.0859 Q563.3594,227.2344 562.6563,227.2344 Q560.1563,227.2344 558.8359,225.5859 Q557.5156,223.9375 557.5156,220.8125 Q557.5156,217.6875 558.8359,216.0313 Q560.1563,214.375 562.6563,214.375 Q563.3594,214.375 564.0078,214.5313 Q564.6563,214.6875 565.2188,214.9844 L565.2188,217.7031 Q564.5938,217.125 564,216.8516 Q563.4063,216.5781 562.7813,216.5781 Q561.4375,216.5781 560.75,217.6484 Q560.0625,218.7188 560.0625,220.8125 Q560.0625,222.9063 560.75,223.9766 Q561.4375,225.0469 562.7813,225.0469 Q563.4063,225.0469 564,224.7734 Q564.5938,224.5 565.2188,223.9219 L565.2188,226.6406 Z "/><text fill="#000000" font-family="sans-serif" font-size="12" lengthAdjust="spacingAndGlyphs" textLength="133" x="582.75" y="225.1543">UserSessionManager</text><line style="stroke: #A80036; stroke-width: 1.5;" x1="467.5" x2="798.5" y1="237" y2="237"/><rect fill="none" height="6" style="stroke: #C82930; stroke-width: 1.0;" width="6" x="474.5" y="245.9023"/><text fill="#000000" font-family="sans-serif" font-size="11" lengthAdjust="spacingAndGlyphs" text-decoration="underline" textLength="71" x="486.5" y="251.2104">LOG: Logger</text><line style="stroke: #000000; stroke-width: 1.0;" x1="486.5" x2="557.5" y1="253.2104" y2="253.2104"/><rect fill="none" height="6" style="stroke: #C82930; stroke-width: 1.0;" width="6" x="474.5" y="258.707"/><text fill="#000000" font-family="sans-serif" font-size="11" lengthAdjust="spacingAndGlyphs" text-decoration="underline" textLength="178" x="486.5" y="264.0151">instance: UserSessionManager</text><line style="stroke: #000000; stroke-width: 1.0;" x1="486.5" x2="664.5" y1="266.0151" y2="266.0151"/><rect fill="none" height="6" style="stroke: #C82930; stroke-width: 1.0;" width="6" x="474.5" y="271.5117"/><text fill="#000000" font-family="sans-serif" font-size="11" lengthAdjust="spacingAndGlyphs" textLength="256" x="486.5" y="276.8198">activeSessions: Map&lt;Integer, UserSession&gt;</text><rect fill="none" height="6" style="stroke: #C82930; stroke-width: 1.0;" width="6" x="474.5" y="284.3164"/><text fill="#000000" font-family="sans-serif" font-size="11" lengthAdjust="spacingAndGlyphs" textLength="266" x="486.5" y="289.6245">inactiveSessions: Map&lt;Integer, UserSession&gt;</text><rect fill="none" height="6" style="stroke: #C82930; stroke-width: 1.0;" width="6" x="474.5" y="297.1211"/><text fill="#000000" font-family="sans-serif" font-size="11" lengthAdjust="spacingAndGlyphs" textLength="228" x="486.5" y="302.4292">usersAskedForPlayPause: Set&lt;Integer&gt;</text><rect fill="none" height="6" style="stroke: #C82930; stroke-width: 1.0;" width="6" x="474.5" y="309.9258"/><text fill="#000000" font-family="sans-serif" font-size="11" lengthAdjust="spacingAndGlyphs" textLength="226" x="486.5" y="315.2339">usersAskedForNextTrack: Set&lt;Integer&gt;</text><rect fill="none" height="6" style="stroke: #C82930; stroke-width: 1.0;" width="6" x="474.5" y="322.7305"/><text fill="#000000" font-family="sans-serif" font-size="11" lengthAdjust="spacingAndGlyphs" textLength="250" x="486.5" y="328.0386">usersAskedForPreviousTrack: Set&lt;Integer&gt;</text><rect fill="none" height="6" style="stroke: #C82930; stroke-width: 1.0;" width="6" x="474.5" y="335.5352"/><text fill="#000000" font-family="sans-serif" font-size="11" lengthAdjust="spacingAndGlyphs" textLength="249" x="486.5" y="340.8433">usersAskedToTurnVolumeUp: Set&lt;Integer&gt;</text><rect fill="none" height="6" style="stroke: #C82930; stroke-width: 1.0;" width="6" x="474.5" y="348.3398"/><text fill="#000000" font-family="sans-serif" font-size="11" lengthAdjust="spacingAndGlyphs" textLength="265" x="486.5" y="353.6479">usersAskedToTurnVolumeDown: Set&lt;Integer&gt;</text><rect fill="none" height="6" style="stroke: #C82930; stroke-width: 1.0;" width="6" x="474.5" y="361.1445"/><text fill="#000000" font-family="sans-serif" font-size="11" lengthAdjust="spacingAndGlyphs" textLength="307" x="486.5" y="366.4526">scheduledExecutorService: ScheduledExecutorService</text><line style="stroke: #A80036; stroke-width: 1.5;" x1="467.5" x2="798.5" y1="373.0469" y2="373.0469"/><ellipse cx="477.5" cy="384.9492" fill="#84BE84" rx="3" ry="3" style="stroke: #038048; stroke-width: 1.0;"/><text fill="#000000" font-family="sans-serif" font-size="11" lengthAdjust="spacingAndGlyphs" text-decoration="underline" textLength="204" x="486.5" y="387.2573">getInstance(): UserSessionManager</text><line style="stroke: #000000; stroke-width: 1.0;" x1="486.5" x2="690.5" y1="389.2573" y2="389.2573"/><ellipse cx="477.5" cy="397.7539" fill="#84BE84" rx="3" ry="3" style="stroke: #038048; stroke-width: 1.0;"/><text fill="#000000" font-family="sans-serif" font-size="11" lengthAdjust="spacingAndGlyphs" textLength="109" x="486.5" y="400.062">store(Integer): void</text><ellipse cx="477.5" cy="410.5586" fill="#84BE84" rx="3" ry="3" style="stroke: #038048; stroke-width: 1.0;"/><text fill="#000000" font-family="sans-serif" font-size="11" lengthAdjust="spacingAndGlyphs" textLength="147" x="486.5" y="412.8667">countActiveSessions(): int</text><ellipse cx="477.5" cy="423.3633" fill="#84BE84" rx="3" ry="3" style="stroke: #038048; stroke-width: 1.0;"/><text fill="#000000" font-family="sans-serif" font-size="11" lengthAdjust="spacingAndGlyphs" textLength="157" x="486.5" y="425.6714">countInactiveSessions(): int</text><ellipse cx="477.5" cy="436.168" fill="#84BE84" rx="3" ry="3" style="stroke: #038048; stroke-width: 1.0;"/><text fill="#000000" font-family="sans-serif" font-size="11" lengthAdjust="spacingAndGlyphs" textLength="172" x="486.5" y="438.4761">countPlayPauseRequests(): int</text><ellipse cx="477.5" cy="448.9727" fill="#84BE84" rx="3" ry="3" style="stroke: #038048; stroke-width: 1.0;"/><text fill="#000000" font-family="sans-serif" font-size="11" lengthAdjust="spacingAndGlyphs" textLength="170" x="486.5" y="451.2808">countNextTrackRequests(): int</text><ellipse cx="477.5" cy="461.7773" fill="#84BE84" rx="3" ry="3" style="stroke: #038048; stroke-width: 1.0;"/><text fill="#000000" font-family="sans-serif" font-size="11" lengthAdjust="spacingAndGlyphs" textLength="194" x="486.5" y="464.0854">countPreviousTrackRequests(): int</text><ellipse cx="477.5" cy="474.582" fill="#84BE84" rx="3" ry="3" style="stroke: #038048; stroke-width: 1.0;"/><text fill="#000000" font-family="sans-serif" font-size="11" lengthAdjust="spacingAndGlyphs" textLength="197" x="486.5" y="476.8901">countTurnVolumeUpRequests(): int</text><ellipse cx="477.5" cy="487.3867" fill="#84BE84" rx="3" ry="3" style="stroke: #038048; stroke-width: 1.0;"/><text fill="#000000" font-family="sans-serif" font-size="11" lengthAdjust="spacingAndGlyphs" textLength="213" x="486.5" y="489.6948">countTurnVolumeDownRequests(): int</text><ellipse cx="477.5" cy="500.1914" fill="#84BE84" rx="3" ry="3" style="stroke: #038048; stroke-width: 1.0;"/><text fill="#000000" font-family="sans-serif" font-size="11" lengthAdjust="spacingAndGlyphs" textLength="137" x="486.5" y="502.4995">playPause(Integer): void</text><ellipse cx="477.5" cy="512.9961" fill="#84BE84" rx="3" ry="3" style="stroke: #038048; stroke-width: 1.0;"/><text fill="#000000" font-family="sans-serif" font-size="11" lengthAdjust="spacingAndGlyphs" textLength="159" x="486.5" y="515.3042">previousTrack(Integer): void</text><ellipse cx="477.5" cy="525.8008" fill="#84BE84" rx="3" ry="3" style="stroke: #038048; stroke-width: 1.0;"/><text fill="#000000" font-family="sans-serif" font-size="11" lengthAdjust="spacingAndGlyphs" textLength="134" x="486.5" y="528.1089">nextTrack(Integer): void</text><ellipse cx="477.5" cy="538.6055" fill="#84BE84" rx="3" ry="3" style="stroke: #038048; stroke-width: 1.0;"/><text fill="#000000" font-family="sans-serif" font-size="11" lengthAdjust="spacingAndGlyphs" textLength="159" x="486.5" y="540.9136">upvote(Integer, String): void</text><ellipse cx="477.5" cy="551.4102" fill="#84BE84" rx="3" ry="3" style="stroke: #038048; stroke-width: 1.0;"/><text fill="#000000" font-family="sans-serif" font-size="11" lengthAdjust="spacingAndGlyphs" textLength="175" x="486.5" y="553.7183">downvote(Integer, String): void</text><ellipse cx="477.5" cy="564.2148" fill="#84BE84" rx="3" ry="3" style="stroke: #038048; stroke-width: 1.0;"/><text fill="#000000" font-family="sans-serif" font-size="11" lengthAdjust="spacingAndGlyphs" textLength="159" x="486.5" y="566.5229">turnVolumeUp(Integer): void</text><ellipse cx="477.5" cy="577.0195" fill="#84BE84" rx="3" ry="3" style="stroke: #038048; stroke-width: 1.0;"/><text fill="#000000" font-family="sans-serif" font-size="11" lengthAdjust="spacingAndGlyphs" textLength="175" x="486.5" y="579.3276">turnVolumeDown(Integer): void</text><ellipse cx="477.5" cy="589.8242" fill="#84BE84" rx="3" ry="3" style="stroke: #038048; stroke-width: 1.0;"/><text fill="#000000" font-family="sans-serif" font-size="11" lengthAdjust="spacingAndGlyphs" textLength="178" x="486.5" y="592.1323">resetNextTrackRequests(): void</text><ellipse cx="477.5" cy="602.6289" fill="#84BE84" rx="3" ry="3" style="stroke: #038048; stroke-width: 1.0;"/><text fill="#000000" font-family="sans-serif" font-size="11" lengthAdjust="spacingAndGlyphs" textLength="202" x="486.5" y="604.937">resetPreviousTrackRequests(): void</text><ellipse cx="477.5" cy="615.4336" fill="#84BE84" rx="3" ry="3" style="stroke: #038048; stroke-width: 1.0;"/><text fill="#000000" font-family="sans-serif" font-size="11" lengthAdjust="spacingAndGlyphs" textLength="205" x="486.5" y="617.7417">resetTurnVolumeUpRequests(): void</text><ellipse cx="477.5" cy="628.2383" fill="#84BE84" rx="3" ry="3" style="stroke: #038048; stroke-width: 1.0;"/><text fill="#000000" font-family="sans-serif" font-size="11" lengthAdjust="spacingAndGlyphs" textLength="221" x="486.5" y="630.5464">resetTurnVolumeDownRequests(): void</text><ellipse cx="477.5" cy="641.043" fill="#84BE84" rx="3" ry="3" style="stroke: #038048; stroke-width: 1.0;"/><text fill="#000000" font-family="sans-serif" font-size="11" lengthAdjust="spacingAndGlyphs" textLength="180" x="486.5" y="643.3511">resetPlayPauseRequests(): void</text><rect fill="#F24D5C" height="6" style="stroke: #C82930; stroke-width: 1.0;" width="6" x="474.5" y="650.8477"/><text fill="#000000" font-family="sans-serif" font-size="11" lengthAdjust="spacingAndGlyphs" textLength="178" x="486.5" y="656.1558">deleteObsoleteSessions(): void</text><ellipse cx="477.5" cy="666.6523" fill="#84BE84" rx="3" ry="3" style="stroke: #038048; stroke-width: 1.0;"/><text fill="#000000" font-family="sans-serif" font-size="11" lengthAdjust="spacingAndGlyphs" textLength="64" x="486.5" y="668.9604">stop(): void</text></a><!--class ch.tofind.commusica.session.ISession--><a target="_top" xlink:actuate="onRequest" xlink:href="ISession.html" xlink:show="new" xlink:title="ISession.html" xlink:type="simple"><rect fill="#FEFECE" filter="url(#flyxglc)" height="86.4141" style="stroke: #A80036; stroke-width: 1.5;" width="149" x="1042.5" y="59"/><ellipse cx="1087.25" cy="75" fill="#B4A7E5" rx="11" ry="11" style="stroke: #A80036; stroke-width: 1.0;"/><path d="M1083.1719,70.7656 L1083.1719,68.6094 L1090.5625,68.6094 L1090.5625,70.7656 L1088.0938,70.7656 L1088.0938,78.8438 L1090.5625,78.8438 L1090.5625,81 L1083.1719,81 L1083.1719,78.8438 L1085.6406,78.8438 L1085.6406,70.7656 L1083.1719,70.7656 Z "/><text fill="#000000" font-family="sans-serif" font-size="12" font-style="italic" lengthAdjust="spacingAndGlyphs" textLength="51" x="1107.75" y="79.1543">ISession</text><line style="stroke: #A80036; stroke-width: 1.5;" x1="1043.5" x2="1190.5" y1="91" y2="91"/><line style="stroke: #A80036; stroke-width: 1.5;" x1="1043.5" x2="1190.5" y1="99" y2="99"/><ellipse cx="1053.5" cy="110.9023" fill="#84BE84" rx="3" ry="3" style="stroke: #038048; stroke-width: 1.0;"/><text fill="#000000" font-family="sans-serif" font-size="11" font-style="italic" lengthAdjust="spacingAndGlyphs" textLength="84" x="1062.5" y="113.2104">getId(): Integer</text><ellipse cx="1053.5" cy="123.707" fill="#84BE84" rx="3" ry="3" style="stroke: #038048; stroke-width: 1.0;"/><text fill="#000000" font-family="sans-serif" font-size="11" font-style="italic" lengthAdjust="spacingAndGlyphs" textLength="79" x="1062.5" y="126.0151">update(): void</text><ellipse cx="1053.5" cy="136.5117" fill="#84BE84" rx="3" ry="3" style="stroke: #038048; stroke-width: 1.0;"/><text fill="#000000" font-family="sans-serif" font-size="11" font-style="italic" lengthAdjust="spacingAndGlyphs" textLength="123" x="1062.5" y="138.8198">getLastUpdate(): Date</text></a><!--class ch.tofind.commusica.session.ServerSession--><a target="_top" xlink:actuate="onRequest" xlink:href="ServerSession.html" xlink:show="new" xlink:title="ServerSession.html" xlink:type="simple"><rect fill="#FEFECE" filter="url(#flyxglc)" height="176.0469" style="stroke: #A80036; stroke-width: 1.5;" width="276" x="835" y="352.5"/><ellipse cx="924.25" cy="368.5" fill="#ADD1B2" rx="11" ry="11" style="stroke: #A80036; stroke-width: 1.0;"/><path d="M927.2188,374.1406 Q926.6406,374.4375 926,374.5859 Q925.3594,374.7344 924.6563,374.7344 Q922.1563,374.7344 920.8359,373.0859 Q919.5156,371.4375 919.5156,368.3125 Q919.5156,365.1875 920.8359,363.5313 Q922.1563,361.875 924.6563,361.875 Q925.3594,361.875 926.0078,362.0313 Q926.6563,362.1875 927.2188,362.4844 L927.2188,365.2031 Q926.5938,364.625 926,364.3516 Q925.4063,364.0781 924.7813,364.0781 Q923.4375,364.0781 922.75,365.1484 Q922.0625,366.2188 922.0625,368.3125 Q922.0625,370.4063 922.75,371.4766 Q923.4375,372.5469 924.7813,372.5469 Q925.4063,372.5469 926,372.2734 Q926.5938,372 927.2188,371.4219 L927.2188,374.1406 Z "/><text fill="#000000" font-family="sans-serif" font-size="12" lengthAdjust="spacingAndGlyphs" textLength="89" x="944.75" y="372.6543">ServerSession</text><line style="stroke: #A80036; stroke-width: 1.5;" x1="836" x2="1110" y1="384.5" y2="384.5"/><rect fill="none" height="6" style="stroke: #C82930; stroke-width: 1.0;" width="6" x="843" y="393.4023"/><text fill="#000000" font-family="sans-serif" font-size="11" lengthAdjust="spacingAndGlyphs" textLength="58" x="855" y="398.7104">id: Integer</text><rect fill="none" height="6" style="stroke: #C82930; stroke-width: 1.0;" width="6" x="843" y="406.207"/><text fill="#000000" font-family="sans-serif" font-size="11" lengthAdjust="spacingAndGlyphs" textLength="123" x="855" y="411.5151">serverIp: InetAddress</text><rect fill="none" height="6" style="stroke: #C82930; stroke-width: 1.0;" width="6" x="843" y="419.0117"/><text fill="#000000" font-family="sans-serif" font-size="11" lengthAdjust="spacingAndGlyphs" textLength="112" x="855" y="424.3198">serverName: String</text><rect fill="none" height="6" style="stroke: #C82930; stroke-width: 1.0;" width="6" x="843" y="431.8164"/><text fill="#000000" font-family="sans-serif" font-size="11" lengthAdjust="spacingAndGlyphs" textLength="80" x="855" y="437.1245">updated: Date</text><line style="stroke: #A80036; stroke-width: 1.5;" x1="836" x2="1110" y1="443.7188" y2="443.7188"/><ellipse cx="846" cy="455.6211" fill="#84BE84" rx="3" ry="3" style="stroke: #038048; stroke-width: 1.0;"/><text fill="#000000" font-family="sans-serif" font-size="11" lengthAdjust="spacingAndGlyphs" textLength="250" x="855" y="457.9292">ServerSession(Integer, InetAddress, String)</text><ellipse cx="846" cy="468.4258" fill="#84BE84" rx="3" ry="3" style="stroke: #038048; stroke-width: 1.0;"/><text fill="#000000" font-family="sans-serif" font-size="11" lengthAdjust="spacingAndGlyphs" textLength="150" x="855" y="470.7339">getServerIp(): InetAddress</text><ellipse cx="846" cy="481.2305" fill="#84BE84" rx="3" ry="3" style="stroke: #038048; stroke-width: 1.0;"/><text fill="#000000" font-family="sans-serif" font-size="11" lengthAdjust="spacingAndGlyphs" textLength="139" x="855" y="483.5386">getServerName(): String</text><ellipse cx="846" cy="494.0352" fill="#84BE84" rx="3" ry="3" style="stroke: #038048; stroke-width: 1.0;"/><text fill="#000000" font-family="sans-serif" font-size="11" lengthAdjust="spacingAndGlyphs" textLength="84" x="855" y="496.3433">getId(): Integer</text><ellipse cx="846" cy="506.8398" fill="#84BE84" rx="3" ry="3" style="stroke: #038048; stroke-width: 1.0;"/><text fill="#000000" font-family="sans-serif" font-size="11" lengthAdjust="spacingAndGlyphs" textLength="78" x="855" y="509.1479">update(): void</text><ellipse cx="846" cy="519.6445" fill="#84BE84" rx="3" ry="3" style="stroke: #038048; stroke-width: 1.0;"/><text fill="#000000" font-family="sans-serif" font-size="11" lengthAdjust="spacingAndGlyphs" textLength="124" x="855" y="521.9526">getLastUpdate(): Date</text></a><!--class ch.tofind.commusica.session.ISessionManager--><a target="_top" xlink:actuate="onRequest" xlink:href="ISessionManager.html" xlink:show="new" xlink:title="ISessionManager.html" xlink:type="simple"><rect fill="#FEFECE" filter="url(#flyxglc)" height="73.6094" style="stroke: #A80036; stroke-width: 1.5;" width="237" x="315.5" y="65"/><ellipse cx="376.75" cy="81" fill="#B4A7E5" rx="11" ry="11" style="stroke: #A80036; stroke-width: 1.0;"/><path d="M372.6719,76.7656 L372.6719,74.6094 L380.0625,74.6094 L380.0625,76.7656 L377.5938,76.7656 L377.5938,84.8438 L380.0625,84.8438 L380.0625,87 L372.6719,87 L372.6719,84.8438 L375.1406,84.8438 L375.1406,76.7656 L372.6719,76.7656 Z "/><text fill="#000000" font-family="sans-serif" font-size="12" font-style="italic" lengthAdjust="spacingAndGlyphs" textLength="106" x="397.25" y="85.1543">ISessionManager</text><line style="stroke: #A80036; stroke-width: 1.5;" x1="316.5" x2="551.5" y1="97" y2="97"/><ellipse cx="326.5" cy="108.9023" fill="none" rx="3" ry="3" style="stroke: #038048; stroke-width: 1.0;"/><text fill="#000000" font-family="sans-serif" font-size="11" lengthAdjust="spacingAndGlyphs" text-decoration="underline" textLength="211" x="335.5" y="111.2104">TIME_BEFORE_SESSION_INACTIVE: int</text><line style="stroke: #000000; stroke-width: 1.0;" x1="335.5" x2="546.5" y1="113.2104" y2="113.2104"/><line style="stroke: #A80036; stroke-width: 1.5;" x1="316.5" x2="551.5" y1="117.8047" y2="117.8047"/><ellipse cx="326.5" cy="129.707" fill="#84BE84" rx="3" ry="3" style="stroke: #038048; stroke-width: 1.0;"/><text fill="#000000" font-family="sans-serif" font-size="11" font-style="italic" lengthAdjust="spacingAndGlyphs" textLength="64" x="335.5" y="132.0151">stop(): void</text></a><!--class ch.tofind.commusica.session.UserSession--><a target="_top" xlink:actuate="onRequest" xlink:href="UserSession.html" xlink:show="new" xlink:title="UserSession.html" xlink:type="simple"><rect fill="#FEFECE" filter="url(#flyxglc)" height="201.6563" style="stroke: #A80036; stroke-width: 1.5;" width="231" x="1146.5" y="339.5"/><ellipse cx="1218.75" cy="355.5" fill="#ADD1B2" rx="11" ry="11" style="stroke: #A80036; stroke-width: 1.0;"/><path d="M1221.7188,361.1406 Q1221.1406,361.4375 1220.5,361.5859 Q1219.8594,361.7344 1219.1563,361.7344 Q1216.6563,361.7344 1215.3359,360.0859 Q1214.0156,358.4375 1214.0156,355.3125 Q1214.0156,352.1875 1215.3359,350.5313 Q1216.6563,348.875 1219.1563,348.875 Q1219.8594,348.875 1220.5078,349.0313 Q1221.1563,349.1875 1221.7188,349.4844 L1221.7188,352.2031 Q1221.0938,351.625 1220.5,351.3516 Q1219.9063,351.0781 1219.2813,351.0781 Q1217.9375,351.0781 1217.25,352.1484 Q1216.5625,353.2188 1216.5625,355.3125 Q1216.5625,357.4063 1217.25,358.4766 Q1217.9375,359.5469 1219.2813,359.5469 Q1219.9063,359.5469 1220.5,359.2734 Q1221.0938,359 1221.7188,358.4219 L1221.7188,361.1406 Z "/><text fill="#000000" font-family="sans-serif" font-size="12" lengthAdjust="spacingAndGlyphs" textLength="78" x="1239.25" y="359.6543">UserSession</text><line style="stroke: #A80036; stroke-width: 1.5;" x1="1147.5" x2="1376.5" y1="371.5" y2="371.5"/><rect fill="none" height="6" style="stroke: #C82930; stroke-width: 1.0;" width="6" x="1154.5" y="380.4023"/><text fill="#000000" font-family="sans-serif" font-size="11" lengthAdjust="spacingAndGlyphs" textLength="58" x="1166.5" y="385.7104">id: Integer</text><rect fill="none" height="6" style="stroke: #C82930; stroke-width: 1.0;" width="6" x="1154.5" y="393.207"/><text fill="#000000" font-family="sans-serif" font-size="11" lengthAdjust="spacingAndGlyphs" textLength="80" x="1166.5" y="398.5151">updated: Date</text><rect fill="none" height="6" style="stroke: #C82930; stroke-width: 1.0;" width="6" x="1154.5" y="406.0117"/><text fill="#000000" font-family="sans-serif" font-size="11" lengthAdjust="spacingAndGlyphs" textLength="162" x="1166.5" y="411.3198">upvotedTracks: Set&lt;String&gt;</text><rect fill="none" height="6" style="stroke: #C82930; stroke-width: 1.0;" width="6" x="1154.5" y="418.8164"/><text fill="#000000" font-family="sans-serif" font-size="11" lengthAdjust="spacingAndGlyphs" textLength="178" x="1166.5" y="424.1245">downvotedTracks: Set&lt;String&gt;</text><line style="stroke: #A80036; stroke-width: 1.5;" x1="1147.5" x2="1376.5" y1="430.7188" y2="430.7188"/><ellipse cx="1157.5" cy="442.6211" fill="#84BE84" rx="3" ry="3" style="stroke: #038048; stroke-width: 1.0;"/><text fill="#000000" font-family="sans-serif" font-size="11" lengthAdjust="spacingAndGlyphs" textLength="121" x="1166.5" y="444.9292">UserSession(Integer)</text><ellipse cx="1157.5" cy="455.4258" fill="#84BE84" rx="3" ry="3" style="stroke: #038048; stroke-width: 1.0;"/><text fill="#000000" font-family="sans-serif" font-size="11" lengthAdjust="spacingAndGlyphs" textLength="189" x="1166.5" y="457.7339">getUpvotedTracks(): Set&lt;String&gt;</text><ellipse cx="1157.5" cy="468.2305" fill="#84BE84" rx="3" ry="3" style="stroke: #038048; stroke-width: 1.0;"/><text fill="#000000" font-family="sans-serif" font-size="11" lengthAdjust="spacingAndGlyphs" textLength="205" x="1166.5" y="470.5386">getDownvotedTracks(): Set&lt;String&gt;</text><ellipse cx="1157.5" cy="481.0352" fill="#84BE84" rx="3" ry="3" style="stroke: #038048; stroke-width: 1.0;"/><text fill="#000000" font-family="sans-serif" font-size="11" lengthAdjust="spacingAndGlyphs" textLength="171" x="1166.5" y="483.3433">addUpvotedTrack(String): void</text><ellipse cx="1157.5" cy="493.8398" fill="#84BE84" rx="3" ry="3" style="stroke: #038048; stroke-width: 1.0;"/><text fill="#000000" font-family="sans-serif" font-size="11" lengthAdjust="spacingAndGlyphs" textLength="187" x="1166.5" y="496.1479">addDownvotedTrack(String): void</text><ellipse cx="1157.5" cy="506.6445" fill="#84BE84" rx="3" ry="3" style="stroke: #038048; stroke-width: 1.0;"/><text fill="#000000" font-family="sans-serif" font-size="11" lengthAdjust="spacingAndGlyphs" textLength="84" x="1166.5" y="508.9526">getId(): Integer</text><ellipse cx="1157.5" cy="519.4492" fill="#84BE84" rx="3" ry="3" style="stroke: #038048; stroke-width: 1.0;"/><text fill="#000000" font-family="sans-serif" font-size="11" lengthAdjust="spacingAndGlyphs" textLength="78" x="1166.5" y="521.7573">update(): void</text><ellipse cx="1157.5" cy="532.2539" fill="#84BE84" rx="3" ry="3" style="stroke: #038048; stroke-width: 1.0;"/><text fill="#000000" font-family="sans-serif" font-size="11" lengthAdjust="spacingAndGlyphs" textLength="124" x="1166.5" y="534.562">getLastUpdate(): Date</text></a><path d="M402.448,156.353 C371.319,208.991 323.202,290.354 286.522,352.378 " fill="none" style="stroke: #A80036; stroke-width: 1.0; stroke-dasharray: 7.0,7.0;"/><polygon fill="none" points="396.498,152.663,412.704,139.011,408.548,159.79,396.498,152.663" style="stroke: #A80036; stroke-width: 1.0;"/><path d="M465.643,156.506 C474.096,170.8 483.797,187.205 494.179,204.76 " fill="none" style="stroke: #A80036; stroke-width: 1.0; stroke-dasharray: 7.0,7.0;"/><polygon fill="none" points="459.452,159.79,455.296,139.011,471.502,152.663,459.452,159.79" style="stroke: #A80036; stroke-width: 1.0;"/><path d="M1090.96,163.85 C1068.43,216.51 1035.57,293.287 1010.25,352.447 " fill="none" style="stroke: #A80036; stroke-width: 1.0; stroke-dasharray: 7.0,7.0;"/><polygon fill="none" points="1084.6,160.91,1098.91,145.277,1097.48,166.418,1084.6,160.91" style="stroke: #A80036; stroke-width: 1.0;"/><path d="M1143.23,163.866 C1164.26,212.682 1194.23,282.217 1218.79,339.231 " fill="none" style="stroke: #A80036; stroke-width: 1.0; stroke-dasharray: 7.0,7.0;"/><polygon fill="none" points="1136.7,166.415,1135.22,145.277,1149.56,160.874,1136.7,166.415" style="stroke: #A80036; stroke-width: 1.0;"/></g></svg>