<?xml version="1.0" encoding="UTF-8" standalone="no"?><svg xmlns="http://www.w3.org/2000/svg" xmlns:xlink="http://www.w3.org/1999/xlink" contentScriptType="application/ecmascript" contentStyleType="text/css" height="193px" preserveAspectRatio="none" style="width:408px;height:193px;" version="1.1" viewBox="0 0 408 193" width="408px" zoomAndPan="magnify"><defs><filter height="300%" id="fjm9ybh" width="300%" x="-1" y="-1"><feGaussianBlur result="blurOut" stdDeviation="2.0"/><feColorMatrix in="blurOut" result="blurOut2" type="matrix" values="0 0 0 0 0 0 0 0 0 0 0 0 0 0 0 0 0 0 .4 0"/><feOffset dx="4.0" dy="4.0" in="blurOut2" result="blurOut3"/><feBlend in="SourceGraphic" in2="blurOut3" mode="normal"/></filter></defs><g><!--class ServerSessionManager--><a target="_top" xlink:actuate="onRequest" xlink:href="ServerSessionManager.html" xlink:show="new" xlink:title="ServerSessionManager.html" xlink:type="simple"><rect fill="#FEFECE" filter="url(#fjm9ybh)" height="176.0469" style="stroke: #A80036; stroke-width: 1.5;" width="393" x="6" y="8"/><ellipse cx="126.25" cy="24" fill="#ADD1B2" rx="11" ry="11" style="stroke: #A80036; stroke-width: 1.0;"/><path d="M129.2188,29.6406 Q128.6406,29.9375 128,30.0859 Q127.3594,30.2344 126.6563,30.2344 Q124.1563,30.2344 122.8359,28.5859 Q121.5156,26.9375 121.5156,23.8125 Q121.5156,20.6875 122.8359,19.0313 Q124.1563,17.375 126.6563,17.375 Q127.3594,17.375 128.0078,17.5313 Q128.6563,17.6875 129.2188,17.9844 L129.2188,20.7031 Q128.5938,20.125 128,19.8516 Q127.4063,19.5781 126.7813,19.5781 Q125.4375,19.5781 124.75,20.6484 Q124.0625,21.7188 124.0625,23.8125 Q124.0625,25.9063 124.75,26.9766 Q125.4375,28.0469 126.7813,28.0469 Q127.4063,28.0469 128,27.7734 Q128.5938,27.5 129.2188,26.9219 L129.2188,29.6406 Z "/><text fill="#000000" font-family="sans-serif" font-size="12" lengthAdjust="spacingAndGlyphs" textLength="144" x="146.75" y="28.1543">ServerSessionManager</text><line style="stroke: #A80036; stroke-width: 1.5;" x1="7" x2="398" y1="40" y2="40"/><rect fill="none" height="6" style="stroke: #C82930; stroke-width: 1.0;" width="6" x="14" y="48.9023"/><text fill="#000000" font-family="sans-serif" font-size="11" lengthAdjust="spacingAndGlyphs" text-decoration="underline" textLength="71" x="26" y="54.2104">LOG: Logger</text><line style="stroke: #000000; stroke-width: 1.0;" x1="26" x2="97" y1="56.2104" y2="56.2104"/><rect fill="none" height="6" style="stroke: #C82930; stroke-width: 1.0;" width="6" x="14" y="61.707"/><text fill="#000000" font-family="sans-serif" font-size="11" lengthAdjust="spacingAndGlyphs" text-decoration="underline" textLength="189" x="26" y="67.0151">instance: ServerSessionManager</text><line style="stroke: #000000; stroke-width: 1.0;" x1="26" x2="215" y1="69.0151" y2="69.0151"/><rect fill="none" height="6" style="stroke: #C82930; stroke-width: 1.0;" width="6" x="14" y="74.5117"/><text fill="#000000" font-family="sans-serif" font-size="11" lengthAdjust="spacingAndGlyphs" text-decoration="underline" textLength="341" x="26" y="79.8198">availableServers: ObservableMap&lt;Integer, ServerSession&gt;</text><line style="stroke: #000000; stroke-width: 1.0;" x1="26" x2="367" y1="81.8198" y2="81.8198"/><rect fill="none" height="6" style="stroke: #C82930; stroke-width: 1.0;" width="6" x="14" y="87.3164"/><text fill="#000000" font-family="sans-serif" font-size="11" lengthAdjust="spacingAndGlyphs" textLength="307" x="26" y="92.6245">scheduledExecutorService: ScheduledExecutorService</text><line style="stroke: #A80036; stroke-width: 1.5;" x1="7" x2="398" y1="99.2188" y2="99.2188"/><ellipse cx="17" cy="111.1211" fill="#84BE84" rx="3" ry="3" style="stroke: #038048; stroke-width: 1.0;"/><text fill="#000000" font-family="sans-serif" font-size="11" lengthAdjust="spacingAndGlyphs" text-decoration="underline" textLength="215" x="26" y="113.4292">getInstance(): ServerSessionManager</text><line style="stroke: #000000; stroke-width: 1.0;" x1="26" x2="241" y1="115.4292" y2="115.4292"/><ellipse cx="17" cy="123.9258" fill="#84BE84" rx="3" ry="3" style="stroke: #038048; stroke-width: 1.0;"/><text fill="#000000" font-family="sans-serif" font-size="11" lengthAdjust="spacingAndGlyphs" textLength="227" x="26" y="126.2339">store(Integer, InetAddress, String): void</text><ellipse cx="17" cy="136.7305" fill="#84BE84" rx="3" ry="3" style="stroke: #038048; stroke-width: 1.0;"/><text fill="#000000" font-family="sans-serif" font-size="11" lengthAdjust="spacingAndGlyphs" textLength="367" x="26" y="139.0386">getAvailableServers(): ObservableMap&lt;Integer, ServerSession&gt;</text><rect fill="#F24D5C" height="6" style="stroke: #C82930; stroke-width: 1.0;" width="6" x="14" y="146.5352"/><text fill="#000000" font-family="sans-serif" font-size="11" lengthAdjust="spacingAndGlyphs" textLength="178" x="26" y="151.8433">deleteObsoleteSessions(): void</text><ellipse cx="17" cy="162.3398" fill="#84BE84" rx="3" ry="3" style="stroke: #038048; stroke-width: 1.0;"/><text fill="#000000" font-family="sans-serif" font-size="11" lengthAdjust="spacingAndGlyphs" textLength="67" x="26" y="164.6479">clear(): void</text><ellipse cx="17" cy="175.1445" fill="#84BE84" rx="3" ry="3" style="stroke: #038048; stroke-width: 1.0;"/><text fill="#000000" font-family="sans-serif" font-size="11" lengthAdjust="spacingAndGlyphs" textLength="64" x="26" y="177.4526">stop(): void</text></a></g></svg>