<?xml version="1.0" encoding="UTF-8" standalone="no"?><svg xmlns="http://www.w3.org/2000/svg" xmlns:xlink="http://www.w3.org/1999/xlink" contentScriptType="application/ecmascript" contentStyleType="text/css" height="193px" preserveAspectRatio="none" style="width:291px;height:193px;" version="1.1" viewBox="0 0 291 193" width="291px" zoomAndPan="magnify"><defs><filter height="300%" id="f534aib" width="300%" x="-1" y="-1"><feGaussianBlur result="blurOut" stdDeviation="2.0"/><feColorMatrix in="blurOut" result="blurOut2" type="matrix" values="0 0 0 0 0 0 0 0 0 0 0 0 0 0 0 0 0 0 .4 0"/><feOffset dx="4.0" dy="4.0" in="blurOut2" result="blurOut3"/><feBlend in="SourceGraphic" in2="blurOut3" mode="normal"/></filter></defs><g><!--class ServerSession--><a target="_top" xlink:actuate="onRequest" xlink:href="ServerSession.html" xlink:show="new" xlink:title="ServerSession.html" xlink:type="simple"><rect fill="#FEFECE" filter="url(#f534aib)" height="176.0469" style="stroke: #A80036; stroke-width: 1.5;" width="276" x="6" y="8"/><ellipse cx="95.25" cy="24" fill="#ADD1B2" rx="11" ry="11" style="stroke: #A80036; stroke-width: 1.0;"/><path d="M98.2188,29.6406 Q97.6406,29.9375 97,30.0859 Q96.3594,30.2344 95.6563,30.2344 Q93.1563,30.2344 91.8359,28.5859 Q90.5156,26.9375 90.5156,23.8125 Q90.5156,20.6875 91.8359,19.0313 Q93.1563,17.375 95.6563,17.375 Q96.3594,17.375 97.0078,17.5313 Q97.6563,17.6875 98.2188,17.9844 L98.2188,20.7031 Q97.5938,20.125 97,19.8516 Q96.4063,19.5781 95.7813,19.5781 Q94.4375,19.5781 93.75,20.6484 Q93.0625,21.7188 93.0625,23.8125 Q93.0625,25.9063 93.75,26.9766 Q94.4375,28.0469 95.7813,28.0469 Q96.4063,28.0469 97,27.7734 Q97.5938,27.5 98.2188,26.9219 L98.2188,29.6406 Z "/><text fill="#000000" font-family="sans-serif" font-size="12" lengthAdjust="spacingAndGlyphs" textLength="89" x="115.75" y="28.1543">ServerSession</text><line style="stroke: #A80036; stroke-width: 1.5;" x1="7" x2="281" y1="40" y2="40"/><rect fill="none" height="6" style="stroke: #C82930; stroke-width: 1.0;" width="6" x="14" y="48.9023"/><text fill="#000000" font-family="sans-serif" font-size="11" lengthAdjust="spacingAndGlyphs" textLength="58" x="26" y="54.2104">id: Integer</text><rect fill="none" height="6" style="stroke: #C82930; stroke-width: 1.0;" width="6" x="14" y="61.707"/><text fill="#000000" font-family="sans-serif" font-size="11" lengthAdjust="spacingAndGlyphs" textLength="123" x="26" y="67.0151">serverIp: InetAddress</text><rect fill="none" height="6" style="stroke: #C82930; stroke-width: 1.0;" width="6" x="14" y="74.5117"/><text fill="#000000" font-family="sans-serif" font-size="11" lengthAdjust="spacingAndGlyphs" textLength="112" x="26" y="79.8198">serverName: String</text><rect fill="none" height="6" style="stroke: #C82930; stroke-width: 1.0;" width="6" x="14" y="87.3164"/><text fill="#000000" font-family="sans-serif" font-size="11" lengthAdjust="spacingAndGlyphs" textLength="80" x="26" y="92.6245">updated: Date</text><line style="stroke: #A80036; stroke-width: 1.5;" x1="7" x2="281" y1="99.2188" y2="99.2188"/><ellipse cx="17" cy="111.1211" fill="#84BE84" rx="3" ry="3" style="stroke: #038048; stroke-width: 1.0;"/><text fill="#000000" font-family="sans-serif" font-size="11" lengthAdjust="spacingAndGlyphs" textLength="250" x="26" y="113.4292">ServerSession(Integer, InetAddress, String)</text><ellipse cx="17" cy="123.9258" fill="#84BE84" rx="3" ry="3" style="stroke: #038048; stroke-width: 1.0;"/><text fill="#000000" font-family="sans-serif" font-size="11" lengthAdjust="spacingAndGlyphs" textLength="150" x="26" y="126.2339">getServerIp(): InetAddress</text><ellipse cx="17" cy="136.7305" fill="#84BE84" rx="3" ry="3" style="stroke: #038048; stroke-width: 1.0;"/><text fill="#000000" font-family="sans-serif" font-size="11" lengthAdjust="spacingAndGlyphs" textLength="139" x="26" y="139.0386">getServerName(): String</text><ellipse cx="17" cy="149.5352" fill="#84BE84" rx="3" ry="3" style="stroke: #038048; stroke-width: 1.0;"/><text fill="#000000" font-family="sans-serif" font-size="11" lengthAdjust="spacingAndGlyphs" textLength="84" x="26" y="151.8433">getId(): Integer</text><ellipse cx="17" cy="162.3398" fill="#84BE84" rx="3" ry="3" style="stroke: #038048; stroke-width: 1.0;"/><text fill="#000000" font-family="sans-serif" font-size="11" lengthAdjust="spacingAndGlyphs" textLength="78" x="26" y="164.6479">update(): void</text><ellipse cx="17" cy="175.1445" fill="#84BE84" rx="3" ry="3" style="stroke: #038048; stroke-width: 1.0;"/><text fill="#000000" font-family="sans-serif" font-size="11" lengthAdjust="spacingAndGlyphs" textLength="124" x="26" y="177.4526">getLastUpdate(): Date</text></a></g></svg>