<?xml version="1.0" encoding="UTF-8" standalone="no"?><svg xmlns="http://www.w3.org/2000/svg" xmlns:xlink="http://www.w3.org/1999/xlink" contentScriptType="application/ecmascript" contentStyleType="text/css" height="487px" preserveAspectRatio="none" style="width:348px;height:487px;" version="1.1" viewBox="0 0 348 487" width="348px" zoomAndPan="magnify"><defs><filter height="300%" id="fo7pg0t" width="300%" x="-1" y="-1"><feGaussianBlur result="blurOut" stdDeviation="2.0"/><feColorMatrix in="blurOut" result="blurOut2" type="matrix" values="0 0 0 0 0 0 0 0 0 0 0 0 0 0 0 0 0 0 .4 0"/><feOffset dx="4.0" dy="4.0" in="blurOut2" result="blurOut3"/><feBlend in="SourceGraphic" in2="blurOut3" mode="normal"/></filter></defs><g><!--class UserSessionManager--><a target="_top" xlink:actuate="onRequest" xlink:href="UserSessionManager.html" xlink:show="new" xlink:title="UserSessionManager.html" xlink:type="simple"><rect fill="#FEFECE" filter="url(#fo7pg0t)" height="470.5547" style="stroke: #A80036; stroke-width: 1.5;" width="333" x="6" y="8"/><ellipse cx="101.75" cy="24" fill="#ADD1B2" rx="11" ry="11" style="stroke: #A80036; stroke-width: 1.0;"/><path d="M104.7188,29.6406 Q104.1406,29.9375 103.5,30.0859 Q102.8594,30.2344 102.1563,30.2344 Q99.6563,30.2344 98.3359,28.5859 Q97.0156,26.9375 97.0156,23.8125 Q97.0156,20.6875 98.3359,19.0313 Q99.6563,17.375 102.1563,17.375 Q102.8594,17.375 103.5078,17.5313 Q104.1563,17.6875 104.7188,17.9844 L104.7188,20.7031 Q104.0938,20.125 103.5,19.8516 Q102.9063,19.5781 102.2813,19.5781 Q100.9375,19.5781 100.25,20.6484 Q99.5625,21.7188 99.5625,23.8125 Q99.5625,25.9063 100.25,26.9766 Q100.9375,28.0469 102.2813,28.0469 Q102.9063,28.0469 103.5,27.7734 Q104.0938,27.5 104.7188,26.9219 L104.7188,29.6406 Z "/><text fill="#000000" font-family="sans-serif" font-size="12" lengthAdjust="spacingAndGlyphs" textLength="133" x="122.25" y="28.1543">UserSessionManager</text><line style="stroke: #A80036; stroke-width: 1.5;" x1="7" x2="338" y1="40" y2="40"/><rect fill="none" height="6" style="stroke: #C82930; stroke-width: 1.0;" width="6" x="14" y="48.9023"/><text fill="#000000" font-family="sans-serif" font-size="11" lengthAdjust="spacingAndGlyphs" text-decoration="underline" textLength="71" x="26" y="54.2104">LOG: Logger</text><line style="stroke: #000000; stroke-width: 1.0;" x1="26" x2="97" y1="56.2104" y2="56.2104"/><rect fill="none" height="6" style="stroke: #C82930; stroke-width: 1.0;" width="6" x="14" y="61.707"/><text fill="#000000" font-family="sans-serif" font-size="11" lengthAdjust="spacingAndGlyphs" text-decoration="underline" textLength="178" x="26" y="67.0151">instance: UserSessionManager</text><line style="stroke: #000000; stroke-width: 1.0;" x1="26" x2="204" y1="69.0151" y2="69.0151"/><rect fill="none" height="6" style="stroke: #C82930; stroke-width: 1.0;" width="6" x="14" y="74.5117"/><text fill="#000000" font-family="sans-serif" font-size="11" lengthAdjust="spacingAndGlyphs" textLength="256" x="26" y="79.8198">activeSessions: Map&lt;Integer, UserSession&gt;</text><rect fill="none" height="6" style="stroke: #C82930; stroke-width: 1.0;" width="6" x="14" y="87.3164"/><text fill="#000000" font-family="sans-serif" font-size="11" lengthAdjust="spacingAndGlyphs" textLength="266" x="26" y="92.6245">inactiveSessions: Map&lt;Integer, UserSession&gt;</text><rect fill="none" height="6" style="stroke: #C82930; stroke-width: 1.0;" width="6" x="14" y="100.1211"/><text fill="#000000" font-family="sans-serif" font-size="11" lengthAdjust="spacingAndGlyphs" textLength="228" x="26" y="105.4292">usersAskedForPlayPause: Set&lt;Integer&gt;</text><rect fill="none" height="6" style="stroke: #C82930; stroke-width: 1.0;" width="6" x="14" y="112.9258"/><text fill="#000000" font-family="sans-serif" font-size="11" lengthAdjust="spacingAndGlyphs" textLength="226" x="26" y="118.2339">usersAskedForNextTrack: Set&lt;Integer&gt;</text><rect fill="none" height="6" style="stroke: #C82930; stroke-width: 1.0;" width="6" x="14" y="125.7305"/><text fill="#000000" font-family="sans-serif" font-size="11" lengthAdjust="spacingAndGlyphs" textLength="250" x="26" y="131.0386">usersAskedForPreviousTrack: Set&lt;Integer&gt;</text><rect fill="none" height="6" style="stroke: #C82930; stroke-width: 1.0;" width="6" x="14" y="138.5352"/><text fill="#000000" font-family="sans-serif" font-size="11" lengthAdjust="spacingAndGlyphs" textLength="249" x="26" y="143.8433">usersAskedToTurnVolumeUp: Set&lt;Integer&gt;</text><rect fill="none" height="6" style="stroke: #C82930; stroke-width: 1.0;" width="6" x="14" y="151.3398"/><text fill="#000000" font-family="sans-serif" font-size="11" lengthAdjust="spacingAndGlyphs" textLength="265" x="26" y="156.6479">usersAskedToTurnVolumeDown: Set&lt;Integer&gt;</text><rect fill="none" height="6" style="stroke: #C82930; stroke-width: 1.0;" width="6" x="14" y="164.1445"/><text fill="#000000" font-family="sans-serif" font-size="11" lengthAdjust="spacingAndGlyphs" textLength="307" x="26" y="169.4526">scheduledExecutorService: ScheduledExecutorService</text><line style="stroke: #A80036; stroke-width: 1.5;" x1="7" x2="338" y1="176.0469" y2="176.0469"/><ellipse cx="17" cy="187.9492" fill="#84BE84" rx="3" ry="3" style="stroke: #038048; stroke-width: 1.0;"/><text fill="#000000" font-family="sans-serif" font-size="11" lengthAdjust="spacingAndGlyphs" text-decoration="underline" textLength="204" x="26" y="190.2573">getInstance(): UserSessionManager</text><line style="stroke: #000000; stroke-width: 1.0;" x1="26" x2="230" y1="192.2573" y2="192.2573"/><ellipse cx="17" cy="200.7539" fill="#84BE84" rx="3" ry="3" style="stroke: #038048; stroke-width: 1.0;"/><text fill="#000000" font-family="sans-serif" font-size="11" lengthAdjust="spacingAndGlyphs" textLength="109" x="26" y="203.062">store(Integer): void</text><ellipse cx="17" cy="213.5586" fill="#84BE84" rx="3" ry="3" style="stroke: #038048; stroke-width: 1.0;"/><text fill="#000000" font-family="sans-serif" font-size="11" lengthAdjust="spacingAndGlyphs" textLength="147" x="26" y="215.8667">countActiveSessions(): int</text><ellipse cx="17" cy="226.3633" fill="#84BE84" rx="3" ry="3" style="stroke: #038048; stroke-width: 1.0;"/><text fill="#000000" font-family="sans-serif" font-size="11" lengthAdjust="spacingAndGlyphs" textLength="157" x="26" y="228.6714">countInactiveSessions(): int</text><ellipse cx="17" cy="239.168" fill="#84BE84" rx="3" ry="3" style="stroke: #038048; stroke-width: 1.0;"/><text fill="#000000" font-family="sans-serif" font-size="11" lengthAdjust="spacingAndGlyphs" textLength="172" x="26" y="241.4761">countPlayPauseRequests(): int</text><ellipse cx="17" cy="251.9727" fill="#84BE84" rx="3" ry="3" style="stroke: #038048; stroke-width: 1.0;"/><text fill="#000000" font-family="sans-serif" font-size="11" lengthAdjust="spacingAndGlyphs" textLength="170" x="26" y="254.2808">countNextTrackRequests(): int</text><ellipse cx="17" cy="264.7773" fill="#84BE84" rx="3" ry="3" style="stroke: #038048; stroke-width: 1.0;"/><text fill="#000000" font-family="sans-serif" font-size="11" lengthAdjust="spacingAndGlyphs" textLength="194" x="26" y="267.0854">countPreviousTrackRequests(): int</text><ellipse cx="17" cy="277.582" fill="#84BE84" rx="3" ry="3" style="stroke: #038048; stroke-width: 1.0;"/><text fill="#000000" font-family="sans-serif" font-size="11" lengthAdjust="spacingAndGlyphs" textLength="197" x="26" y="279.8901">countTurnVolumeUpRequests(): int</text><ellipse cx="17" cy="290.3867" fill="#84BE84" rx="3" ry="3" style="stroke: #038048; stroke-width: 1.0;"/><text fill="#000000" font-family="sans-serif" font-size="11" lengthAdjust="spacingAndGlyphs" textLength="213" x="26" y="292.6948">countTurnVolumeDownRequests(): int</text><ellipse cx="17" cy="303.1914" fill="#84BE84" rx="3" ry="3" style="stroke: #038048; stroke-width: 1.0;"/><text fill="#000000" font-family="sans-serif" font-size="11" lengthAdjust="spacingAndGlyphs" textLength="137" x="26" y="305.4995">playPause(Integer): void</text><ellipse cx="17" cy="315.9961" fill="#84BE84" rx="3" ry="3" style="stroke: #038048; stroke-width: 1.0;"/><text fill="#000000" font-family="sans-serif" font-size="11" lengthAdjust="spacingAndGlyphs" textLength="159" x="26" y="318.3042">previousTrack(Integer): void</text><ellipse cx="17" cy="328.8008" fill="#84BE84" rx="3" ry="3" style="stroke: #038048; stroke-width: 1.0;"/><text fill="#000000" font-family="sans-serif" font-size="11" lengthAdjust="spacingAndGlyphs" textLength="134" x="26" y="331.1089">nextTrack(Integer): void</text><ellipse cx="17" cy="341.6055" fill="#84BE84" rx="3" ry="3" style="stroke: #038048; stroke-width: 1.0;"/><text fill="#000000" font-family="sans-serif" font-size="11" lengthAdjust="spacingAndGlyphs" textLength="159" x="26" y="343.9136">upvote(Integer, String): void</text><ellipse cx="17" cy="354.4102" fill="#84BE84" rx="3" ry="3" style="stroke: #038048; stroke-width: 1.0;"/><text fill="#000000" font-family="sans-serif" font-size="11" lengthAdjust="spacingAndGlyphs" textLength="175" x="26" y="356.7183">downvote(Integer, String): void</text><ellipse cx="17" cy="367.2148" fill="#84BE84" rx="3" ry="3" style="stroke: #038048; stroke-width: 1.0;"/><text fill="#000000" font-family="sans-serif" font-size="11" lengthAdjust="spacingAndGlyphs" textLength="159" x="26" y="369.5229">turnVolumeUp(Integer): void</text><ellipse cx="17" cy="380.0195" fill="#84BE84" rx="3" ry="3" style="stroke: #038048; stroke-width: 1.0;"/><text fill="#000000" font-family="sans-serif" font-size="11" lengthAdjust="spacingAndGlyphs" textLength="175" x="26" y="382.3276">turnVolumeDown(Integer): void</text><ellipse cx="17" cy="392.8242" fill="#84BE84" rx="3" ry="3" style="stroke: #038048; stroke-width: 1.0;"/><text fill="#000000" font-family="sans-serif" font-size="11" lengthAdjust="spacingAndGlyphs" textLength="178" x="26" y="395.1323">resetNextTrackRequests(): void</text><ellipse cx="17" cy="405.6289" fill="#84BE84" rx="3" ry="3" style="stroke: #038048; stroke-width: 1.0;"/><text fill="#000000" font-family="sans-serif" font-size="11" lengthAdjust="spacingAndGlyphs" textLength="202" x="26" y="407.937">resetPreviousTrackRequests(): void</text><ellipse cx="17" cy="418.4336" fill="#84BE84" rx="3" ry="3" style="stroke: #038048; stroke-width: 1.0;"/><text fill="#000000" font-family="sans-serif" font-size="11" lengthAdjust="spacingAndGlyphs" textLength="205" x="26" y="420.7417">resetTurnVolumeUpRequests(): void</text><ellipse cx="17" cy="431.2383" fill="#84BE84" rx="3" ry="3" style="stroke: #038048; stroke-width: 1.0;"/><text fill="#000000" font-family="sans-serif" font-size="11" lengthAdjust="spacingAndGlyphs" textLength="221" x="26" y="433.5464">resetTurnVolumeDownRequests(): void</text><ellipse cx="17" cy="444.043" fill="#84BE84" rx="3" ry="3" style="stroke: #038048; stroke-width: 1.0;"/><text fill="#000000" font-family="sans-serif" font-size="11" lengthAdjust="spacingAndGlyphs" textLength="180" x="26" y="446.3511">resetPlayPauseRequests(): void</text><rect fill="#F24D5C" height="6" style="stroke: #C82930; stroke-width: 1.0;" width="6" x="14" y="453.8477"/><text fill="#000000" font-family="sans-serif" font-size="11" lengthAdjust="spacingAndGlyphs" textLength="178" x="26" y="459.1558">deleteObsoleteSessions(): void</text><ellipse cx="17" cy="469.6523" fill="#84BE84" rx="3" ry="3" style="stroke: #038048; stroke-width: 1.0;"/><text fill="#000000" font-family="sans-serif" font-size="11" lengthAdjust="spacingAndGlyphs" textLength="64" x="26" y="471.9604">stop(): void</text></a></g></svg>