<?xml version="1.0" encoding="UTF-8" standalone="no"?><svg xmlns="http://www.w3.org/2000/svg" xmlns:xlink="http://www.w3.org/1999/xlink" contentScriptType="application/ecmascript" contentStyleType="text/css" height="218px" preserveAspectRatio="none" style="width:226px;height:218px;" version="1.1" viewBox="0 0 226 218" width="226px" zoomAndPan="magnify"><defs><filter height="300%" id="f5q8svp" width="300%" x="-1" y="-1"><feGaussianBlur result="blurOut" stdDeviation="2.0"/><feColorMatrix in="blurOut" result="blurOut2" type="matrix" values="0 0 0 0 0 0 0 0 0 0 0 0 0 0 0 0 0 0 .4 0"/><feOffset dx="4.0" dy="4.0" in="blurOut2" result="blurOut3"/><feBlend in="SourceGraphic" in2="blurOut3" mode="normal"/></filter></defs><g><!--class DatabaseManager--><a target="_top" xlink:actuate="onRequest" xlink:href="DatabaseManager.html" xlink:show="new" xlink:title="DatabaseManager.html" xlink:type="simple"><rect fill="#FEFECE" filter="url(#f5q8svp)" height="201.6563" style="stroke: #A80036; stroke-width: 1.5;" width="211" x="6" y="8"/><ellipse cx="49.35" cy="24" fill="#ADD1B2" rx="11" ry="11" style="stroke: #A80036; stroke-width: 1.0;"/><path d="M52.3188,29.6406 Q51.7406,29.9375 51.1,30.0859 Q50.4594,30.2344 49.7563,30.2344 Q47.2563,30.2344 45.9359,28.5859 Q44.6156,26.9375 44.6156,23.8125 Q44.6156,20.6875 45.9359,19.0313 Q47.2563,17.375 49.7563,17.375 Q50.4594,17.375 51.1078,17.5313 Q51.7563,17.6875 52.3188,17.9844 L52.3188,20.7031 Q51.6938,20.125 51.1,19.8516 Q50.5063,19.5781 49.8813,19.5781 Q48.5375,19.5781 47.85,20.6484 Q47.1625,21.7188 47.1625,23.8125 Q47.1625,25.9063 47.85,26.9766 Q48.5375,28.0469 49.8813,28.0469 Q50.5063,28.0469 51.1,27.7734 Q51.6938,27.5 52.3188,26.9219 L52.3188,29.6406 Z "/><text fill="#000000" font-family="sans-serif" font-size="12" lengthAdjust="spacingAndGlyphs" textLength="116" x="69.65" y="28.1543">DatabaseManager</text><line style="stroke: #A80036; stroke-width: 1.5;" x1="7" x2="216" y1="40" y2="40"/><rect fill="none" height="6" style="stroke: #C82930; stroke-width: 1.0;" width="6" x="14" y="48.9023"/><text fill="#000000" font-family="sans-serif" font-size="11" lengthAdjust="spacingAndGlyphs" text-decoration="underline" textLength="71" x="26" y="54.2104">LOG: Logger</text><line style="stroke: #000000; stroke-width: 1.0;" x1="26" x2="97" y1="56.2104" y2="56.2104"/><rect fill="none" height="6" style="stroke: #C82930; stroke-width: 1.0;" width="6" x="14" y="61.707"/><text fill="#000000" font-family="sans-serif" font-size="11" lengthAdjust="spacingAndGlyphs" text-decoration="underline" textLength="159" x="26" y="67.0151">instance: DatabaseManager</text><line style="stroke: #000000; stroke-width: 1.0;" x1="26" x2="185" y1="69.0151" y2="69.0151"/><rect fill="none" height="6" style="stroke: #C82930; stroke-width: 1.0;" width="6" x="14" y="74.5117"/><text fill="#000000" font-family="sans-serif" font-size="11" lengthAdjust="spacingAndGlyphs" textLength="134" x="26" y="79.8198">factory: SessionFactory</text><rect fill="none" height="6" style="stroke: #C82930; stroke-width: 1.0;" width="6" x="14" y="87.3164"/><text fill="#000000" font-family="sans-serif" font-size="11" lengthAdjust="spacingAndGlyphs" textLength="99" x="26" y="92.6245">session: Session</text><rect fill="none" height="6" style="stroke: #C82930; stroke-width: 1.0;" width="6" x="14" y="100.1211"/><text fill="#000000" font-family="sans-serif" font-size="11" lengthAdjust="spacingAndGlyphs" textLength="139" x="26" y="105.4292">transaction: Transaction</text><line style="stroke: #A80036; stroke-width: 1.5;" x1="7" x2="216" y1="112.0234" y2="112.0234"/><ellipse cx="17" cy="123.9258" fill="#84BE84" rx="3" ry="3" style="stroke: #038048; stroke-width: 1.0;"/><text fill="#000000" font-family="sans-serif" font-size="11" lengthAdjust="spacingAndGlyphs" text-decoration="underline" textLength="185" x="26" y="126.2339">getInstance(): DatabaseManager</text><line style="stroke: #000000; stroke-width: 1.0;" x1="26" x2="211" y1="128.2339" y2="128.2339"/><ellipse cx="17" cy="136.7305" fill="#84BE84" rx="3" ry="3" style="stroke: #038048; stroke-width: 1.0;"/><text fill="#000000" font-family="sans-serif" font-size="11" lengthAdjust="spacingAndGlyphs" textLength="126" x="26" y="139.0386">getSession(): Session</text><ellipse cx="17" cy="149.5352" fill="#84BE84" rx="3" ry="3" style="stroke: #038048; stroke-width: 1.0;"/><text fill="#000000" font-family="sans-serif" font-size="11" lengthAdjust="spacingAndGlyphs" textLength="117" x="26" y="151.8433">execute(Query): void</text><ellipse cx="17" cy="162.3398" fill="#84BE84" rx="3" ry="3" style="stroke: #038048; stroke-width: 1.0;"/><text fill="#000000" font-family="sans-serif" font-size="11" lengthAdjust="spacingAndGlyphs" textLength="102" x="26" y="164.6479">save(Object): void</text><ellipse cx="17" cy="175.1445" fill="#84BE84" rx="3" ry="3" style="stroke: #038048; stroke-width: 1.0;"/><text fill="#000000" font-family="sans-serif" font-size="11" lengthAdjust="spacingAndGlyphs" textLength="110" x="26" y="177.4526">delete(Object): void</text><ellipse cx="17" cy="187.9492" fill="#84BE84" rx="3" ry="3" style="stroke: #038048; stroke-width: 1.0;"/><text fill="#000000" font-family="sans-serif" font-size="11" lengthAdjust="spacingAndGlyphs" textLength="114" x="26" y="190.2573">update(Object): void</text><ellipse cx="17" cy="200.7539" fill="#84BE84" rx="3" ry="3" style="stroke: #038048; stroke-width: 1.0;"/><text fill="#000000" font-family="sans-serif" font-size="11" lengthAdjust="spacingAndGlyphs" textLength="69" x="26" y="203.062">close(): void</text></a></g></svg>