<?xml version="1.0" encoding="UTF-8" standalone="no"?><svg xmlns="http://www.w3.org/2000/svg" xmlns:xlink="http://www.w3.org/1999/xlink" contentScriptType="application/ecmascript" contentStyleType="text/css" height="284px" preserveAspectRatio="none" style="width:285px;height:284px;" version="1.1" viewBox="0 0 285 284" width="285px" zoomAndPan="magnify"><defs><filter height="300%" id="f04fnpb" width="300%" x="-1" y="-1"><feGaussianBlur result="blurOut" stdDeviation="2.0"/><feColorMatrix in="blurOut" result="blurOut2" type="matrix" values="0 0 0 0 0 0 0 0 0 0 0 0 0 0 0 0 0 0 .4 0"/><feOffset dx="4.0" dy="4.0" in="blurOut2" result="blurOut3"/><feBlend in="SourceGraphic" in2="blurOut3" mode="normal"/></filter></defs><g><!--cluster ch.tofind.commusica.database--><polygon fill="#FFFFFF" filter="url(#f04fnpb)" points="22,24,268,24,275,46.2969,278,46.2969,278,277,22,277,22,24" style="stroke: #000000; stroke-width: 2.0;"/><line style="stroke: #000000; stroke-width: 2.0;" x1="22" x2="275" y1="46.2969" y2="46.2969"/><text fill="#000000" font-family="sans-serif" font-size="14" font-weight="bold" lengthAdjust="spacingAndGlyphs" textLength="240" x="26" y="38.9951">ch.tofind.commusica.database</text><!--class ch.tofind.commusica.database.DatabaseManager--><a target="_top" xlink:actuate="onRequest" xlink:href="DatabaseManager.html" xlink:show="new" xlink:title="DatabaseManager.html" xlink:type="simple"><rect fill="#FEFECE" filter="url(#f04fnpb)" height="201.6563" style="stroke: #A80036; stroke-width: 1.5;" width="211" x="44.5" y="59"/><ellipse cx="87.85" cy="75" fill="#ADD1B2" rx="11" ry="11" style="stroke: #A80036; stroke-width: 1.0;"/><path d="M90.8188,80.6406 Q90.2406,80.9375 89.6,81.0859 Q88.9594,81.2344 88.2563,81.2344 Q85.7563,81.2344 84.4359,79.5859 Q83.1156,77.9375 83.1156,74.8125 Q83.1156,71.6875 84.4359,70.0313 Q85.7563,68.375 88.2563,68.375 Q88.9594,68.375 89.6078,68.5313 Q90.2563,68.6875 90.8188,68.9844 L90.8188,71.7031 Q90.1938,71.125 89.6,70.8516 Q89.0063,70.5781 88.3813,70.5781 Q87.0375,70.5781 86.35,71.6484 Q85.6625,72.7188 85.6625,74.8125 Q85.6625,76.9063 86.35,77.9766 Q87.0375,79.0469 88.3813,79.0469 Q89.0063,79.0469 89.6,78.7734 Q90.1938,78.5 90.8188,77.9219 L90.8188,80.6406 Z "/><text fill="#000000" font-family="sans-serif" font-size="12" lengthAdjust="spacingAndGlyphs" textLength="116" x="108.15" y="79.1543">DatabaseManager</text><line style="stroke: #A80036; stroke-width: 1.5;" x1="45.5" x2="254.5" y1="91" y2="91"/><rect fill="none" height="6" style="stroke: #C82930; stroke-width: 1.0;" width="6" x="52.5" y="99.9023"/><text fill="#000000" font-family="sans-serif" font-size="11" lengthAdjust="spacingAndGlyphs" text-decoration="underline" textLength="71" x="64.5" y="105.2104">LOG: Logger</text><line style="stroke: #000000; stroke-width: 1.0;" x1="64.5" x2="135.5" y1="107.2104" y2="107.2104"/><rect fill="none" height="6" style="stroke: #C82930; stroke-width: 1.0;" width="6" x="52.5" y="112.707"/><text fill="#000000" font-family="sans-serif" font-size="11" lengthAdjust="spacingAndGlyphs" text-decoration="underline" textLength="159" x="64.5" y="118.0151">instance: DatabaseManager</text><line style="stroke: #000000; stroke-width: 1.0;" x1="64.5" x2="223.5" y1="120.0151" y2="120.0151"/><rect fill="none" height="6" style="stroke: #C82930; stroke-width: 1.0;" width="6" x="52.5" y="125.5117"/><text fill="#000000" font-family="sans-serif" font-size="11" lengthAdjust="spacingAndGlyphs" textLength="134" x="64.5" y="130.8198">factory: SessionFactory</text><rect fill="none" height="6" style="stroke: #C82930; stroke-width: 1.0;" width="6" x="52.5" y="138.3164"/><text fill="#000000" font-family="sans-serif" font-size="11" lengthAdjust="spacingAndGlyphs" textLength="99" x="64.5" y="143.6245">session: Session</text><rect fill="none" height="6" style="stroke: #C82930; stroke-width: 1.0;" width="6" x="52.5" y="151.1211"/><text fill="#000000" font-family="sans-serif" font-size="11" lengthAdjust="spacingAndGlyphs" textLength="139" x="64.5" y="156.4292">transaction: Transaction</text><line style="stroke: #A80036; stroke-width: 1.5;" x1="45.5" x2="254.5" y1="163.0234" y2="163.0234"/><ellipse cx="55.5" cy="174.9258" fill="#84BE84" rx="3" ry="3" style="stroke: #038048; stroke-width: 1.0;"/><text fill="#000000" font-family="sans-serif" font-size="11" lengthAdjust="spacingAndGlyphs" text-decoration="underline" textLength="185" x="64.5" y="177.2339">getInstance(): DatabaseManager</text><line style="stroke: #000000; stroke-width: 1.0;" x1="64.5" x2="249.5" y1="179.2339" y2="179.2339"/><ellipse cx="55.5" cy="187.7305" fill="#84BE84" rx="3" ry="3" style="stroke: #038048; stroke-width: 1.0;"/><text fill="#000000" font-family="sans-serif" font-size="11" lengthAdjust="spacingAndGlyphs" textLength="126" x="64.5" y="190.0386">getSession(): Session</text><ellipse cx="55.5" cy="200.5352" fill="#84BE84" rx="3" ry="3" style="stroke: #038048; stroke-width: 1.0;"/><text fill="#000000" font-family="sans-serif" font-size="11" lengthAdjust="spacingAndGlyphs" textLength="117" x="64.5" y="202.8433">execute(Query): void</text><ellipse cx="55.5" cy="213.3398" fill="#84BE84" rx="3" ry="3" style="stroke: #038048; stroke-width: 1.0;"/><text fill="#000000" font-family="sans-serif" font-size="11" lengthAdjust="spacingAndGlyphs" textLength="102" x="64.5" y="215.6479">save(Object): void</text><ellipse cx="55.5" cy="226.1445" fill="#84BE84" rx="3" ry="3" style="stroke: #038048; stroke-width: 1.0;"/><text fill="#000000" font-family="sans-serif" font-size="11" lengthAdjust="spacingAndGlyphs" textLength="110" x="64.5" y="228.4526">delete(Object): void</text><ellipse cx="55.5" cy="238.9492" fill="#84BE84" rx="3" ry="3" style="stroke: #038048; stroke-width: 1.0;"/><text fill="#000000" font-family="sans-serif" font-size="11" lengthAdjust="spacingAndGlyphs" textLength="114" x="64.5" y="241.2573">update(Object): void</text><ellipse cx="55.5" cy="251.7539" fill="#84BE84" rx="3" ry="3" style="stroke: #038048; stroke-width: 1.0;"/><text fill="#000000" font-family="sans-serif" font-size="11" lengthAdjust="spacingAndGlyphs" textLength="69" x="64.5" y="254.062">close(): void</text></a></g></svg>