<?xml version="1.0" encoding="UTF-8" standalone="no"?><svg xmlns="http://www.w3.org/2000/svg" xmlns:xlink="http://www.w3.org/1999/xlink" contentScriptType="application/ecmascript" contentStyleType="text/css" height="193px" preserveAspectRatio="none" style="width:231px;height:193px;" version="1.1" viewBox="0 0 231 193" width="231px" zoomAndPan="magnify"><defs><filter height="300%" id="fp9rxxl" width="300%" x="-1" y="-1"><feGaussianBlur result="blurOut" stdDeviation="2.0"/><feColorMatrix in="blurOut" result="blurOut2" type="matrix" values="0 0 0 0 0 0 0 0 0 0 0 0 0 0 0 0 0 0 .4 0"/><feOffset dx="4.0" dy="4.0" in="blurOut2" result="blurOut3"/><feBlend in="SourceGraphic" in2="blurOut3" mode="normal"/></filter></defs><g><!--class FileManager--><a target="_top" xlink:actuate="onRequest" xlink:href="FileManager.html" xlink:show="new" xlink:title="FileManager.html" xlink:type="simple"><rect fill="#FEFECE" filter="url(#fp9rxxl)" height="176.0469" style="stroke: #A80036; stroke-width: 1.5;" width="216" x="6" y="8"/><ellipse cx="71.75" cy="24" fill="#ADD1B2" rx="11" ry="11" style="stroke: #A80036; stroke-width: 1.0;"/><path d="M74.7188,29.6406 Q74.1406,29.9375 73.5,30.0859 Q72.8594,30.2344 72.1563,30.2344 Q69.6563,30.2344 68.3359,28.5859 Q67.0156,26.9375 67.0156,23.8125 Q67.0156,20.6875 68.3359,19.0313 Q69.6563,17.375 72.1563,17.375 Q72.8594,17.375 73.5078,17.5313 Q74.1563,17.6875 74.7188,17.9844 L74.7188,20.7031 Q74.0938,20.125 73.5,19.8516 Q72.9063,19.5781 72.2813,19.5781 Q70.9375,19.5781 70.25,20.6484 Q69.5625,21.7188 69.5625,23.8125 Q69.5625,25.9063 70.25,26.9766 Q70.9375,28.0469 72.2813,28.0469 Q72.9063,28.0469 73.5,27.7734 Q74.0938,27.5 74.7188,26.9219 L74.7188,29.6406 Z "/><text fill="#000000" font-family="sans-serif" font-size="12" lengthAdjust="spacingAndGlyphs" textLength="76" x="92.25" y="28.1543">FileManager</text><line style="stroke: #A80036; stroke-width: 1.5;" x1="7" x2="221" y1="40" y2="40"/><rect fill="none" height="6" style="stroke: #C82930; stroke-width: 1.0;" width="6" x="14" y="48.9023"/><text fill="#000000" font-family="sans-serif" font-size="11" lengthAdjust="spacingAndGlyphs" text-decoration="underline" textLength="71" x="26" y="54.2104">LOG: Logger</text><line style="stroke: #000000; stroke-width: 1.0;" x1="26" x2="97" y1="56.2104" y2="56.2104"/><rect fill="none" height="6" style="stroke: #C82930; stroke-width: 1.0;" width="6" x="14" y="61.707"/><text fill="#000000" font-family="sans-serif" font-size="11" lengthAdjust="spacingAndGlyphs" text-decoration="underline" textLength="124" x="26" y="67.0151">instance: FileManager</text><line style="stroke: #000000; stroke-width: 1.0;" x1="26" x2="150" y1="69.0151" y2="69.0151"/><ellipse cx="17" cy="77.5117" fill="none" rx="3" ry="3" style="stroke: #038048; stroke-width: 1.0;"/><text fill="#000000" font-family="sans-serif" font-size="11" lengthAdjust="spacingAndGlyphs" text-decoration="underline" textLength="157" x="26" y="79.8198">OUTPUT_DIRECTORY: String</text><line style="stroke: #000000; stroke-width: 1.0;" x1="26" x2="183" y1="81.8198" y2="81.8198"/><line style="stroke: #A80036; stroke-width: 1.5;" x1="7" x2="221" y1="86.4141" y2="86.4141"/><ellipse cx="17" cy="98.3164" fill="#84BE84" rx="3" ry="3" style="stroke: #038048; stroke-width: 1.0;"/><text fill="#000000" font-family="sans-serif" font-size="11" lengthAdjust="spacingAndGlyphs" text-decoration="underline" textLength="150" x="26" y="100.6245">getInstance(): FileManager</text><line style="stroke: #000000; stroke-width: 1.0;" x1="26" x2="176" y1="102.6245" y2="102.6245"/><ellipse cx="17" cy="111.1211" fill="#84BE84" rx="3" ry="3" style="stroke: #038048; stroke-width: 1.0;"/><text fill="#000000" font-family="sans-serif" font-size="11" lengthAdjust="spacingAndGlyphs" textLength="190" x="26" y="113.4292">retrieveFile(InputStream, int): File</text><ellipse cx="17" cy="123.9258" fill="#84BE84" rx="3" ry="3" style="stroke: #038048; stroke-width: 1.0;"/><text fill="#000000" font-family="sans-serif" font-size="11" lengthAdjust="spacingAndGlyphs" textLength="182" x="26" y="126.2339">getFormatExtension(File): String</text><ellipse cx="17" cy="136.7305" fill="#84BE84" rx="3" ry="3" style="stroke: #038048; stroke-width: 1.0;"/><text fill="#000000" font-family="sans-serif" font-size="11" lengthAdjust="spacingAndGlyphs" textLength="139" x="26" y="139.0386">getBytes(File, int): byte[]</text><ellipse cx="17" cy="149.5352" fill="#84BE84" rx="3" ry="3" style="stroke: #038048; stroke-width: 1.0;"/><text fill="#000000" font-family="sans-serif" font-size="11" lengthAdjust="spacingAndGlyphs" textLength="93" x="26" y="151.8433">delete(File): void</text><ellipse cx="17" cy="162.3398" fill="#84BE84" rx="3" ry="3" style="stroke: #038048; stroke-width: 1.0;"/><text fill="#000000" font-family="sans-serif" font-size="11" lengthAdjust="spacingAndGlyphs" textLength="129" x="26" y="164.6479">rename(File, File): void</text><ellipse cx="17" cy="175.1445" fill="#84BE84" rx="3" ry="3" style="stroke: #038048; stroke-width: 1.0;"/><text fill="#000000" font-family="sans-serif" font-size="11" lengthAdjust="spacingAndGlyphs" textLength="170" x="26" y="177.4526">getMD5Checksum(File): String</text></a></g></svg>