<?xml version="1.0" encoding="UTF-8" standalone="no"?><svg xmlns="http://www.w3.org/2000/svg" xmlns:xlink="http://www.w3.org/1999/xlink" contentScriptType="application/ecmascript" contentStyleType="text/css" height="180px" preserveAspectRatio="none" style="width:185px;height:180px;" version="1.1" viewBox="0 0 185 180" width="185px" zoomAndPan="magnify"><defs><filter height="300%" id="fx9jpar" width="300%" x="-1" y="-1"><feGaussianBlur result="blurOut" stdDeviation="2.0"/><feColorMatrix in="blurOut" result="blurOut2" type="matrix" values="0 0 0 0 0 0 0 0 0 0 0 0 0 0 0 0 0 0 .4 0"/><feOffset dx="4.0" dy="4.0" in="blurOut2" result="blurOut3"/><feBlend in="SourceGraphic" in2="blurOut3" mode="normal"/></filter></defs><g><!--class FilesFormats--><a target="_top" xlink:actuate="onRequest" xlink:href="FilesFormats.html" xlink:show="new" xlink:title="FilesFormats.html" xlink:type="simple"><rect fill="#FEFECE" filter="url(#fx9jpar)" height="163.2422" style="stroke: #A80036; stroke-width: 1.5;" width="170" x="6" y="8"/><ellipse cx="47.55" cy="24" fill="#ADD1B2" rx="11" ry="11" style="stroke: #A80036; stroke-width: 1.0;"/><path d="M50.5188,29.6406 Q49.9406,29.9375 49.3,30.0859 Q48.6594,30.2344 47.9563,30.2344 Q45.4563,30.2344 44.1359,28.5859 Q42.8156,26.9375 42.8156,23.8125 Q42.8156,20.6875 44.1359,19.0313 Q45.4563,17.375 47.9563,17.375 Q48.6594,17.375 49.3078,17.5313 Q49.9563,17.6875 50.5188,17.9844 L50.5188,20.7031 Q49.8938,20.125 49.3,19.8516 Q48.7063,19.5781 48.0813,19.5781 Q46.7375,19.5781 46.05,20.6484 Q45.3625,21.7188 45.3625,23.8125 Q45.3625,25.9063 46.05,26.9766 Q46.7375,28.0469 48.0813,28.0469 Q48.7063,28.0469 49.3,27.7734 Q49.8938,27.5 50.5188,26.9219 L50.5188,29.6406 Z "/><text fill="#000000" font-family="sans-serif" font-size="12" lengthAdjust="spacingAndGlyphs" textLength="79" x="67.45" y="28.1543">FilesFormats</text><line style="stroke: #A80036; stroke-width: 1.5;" x1="7" x2="175" y1="40" y2="40"/><ellipse cx="17" cy="51.9023" fill="none" rx="3" ry="3" style="stroke: #038048; stroke-width: 1.0;"/><text fill="#000000" font-family="sans-serif" font-size="11" lengthAdjust="spacingAndGlyphs" text-decoration="underline" textLength="113" x="26" y="54.2104">MP3_HEADER: byte[]</text><line style="stroke: #000000; stroke-width: 1.0;" x1="26" x2="139" y1="56.2104" y2="56.2104"/><ellipse cx="17" cy="64.707" fill="none" rx="3" ry="3" style="stroke: #038048; stroke-width: 1.0;"/><text fill="#000000" font-family="sans-serif" font-size="11" lengthAdjust="spacingAndGlyphs" text-decoration="underline" textLength="144" x="26" y="67.0151">MP3_HEADER_OFFSET: int</text><line style="stroke: #000000; stroke-width: 1.0;" x1="26" x2="170" y1="69.0151" y2="69.0151"/><ellipse cx="17" cy="77.5117" fill="none" rx="3" ry="3" style="stroke: #038048; stroke-width: 1.0;"/><text fill="#000000" font-family="sans-serif" font-size="11" lengthAdjust="spacingAndGlyphs" text-decoration="underline" textLength="135" x="26" y="79.8198">MP3_EXTENSION: String</text><line style="stroke: #000000; stroke-width: 1.0;" x1="26" x2="161" y1="81.8198" y2="81.8198"/><ellipse cx="17" cy="90.3164" fill="none" rx="3" ry="3" style="stroke: #038048; stroke-width: 1.0;"/><text fill="#000000" font-family="sans-serif" font-size="11" lengthAdjust="spacingAndGlyphs" text-decoration="underline" textLength="113" x="26" y="92.6245">M4A_HEADER: byte[]</text><line style="stroke: #000000; stroke-width: 1.0;" x1="26" x2="139" y1="94.6245" y2="94.6245"/><ellipse cx="17" cy="103.1211" fill="none" rx="3" ry="3" style="stroke: #038048; stroke-width: 1.0;"/><text fill="#000000" font-family="sans-serif" font-size="11" lengthAdjust="spacingAndGlyphs" text-decoration="underline" textLength="144" x="26" y="105.4292">M4A_HEADER_OFFSET: int</text><line style="stroke: #000000; stroke-width: 1.0;" x1="26" x2="170" y1="107.4292" y2="107.4292"/><ellipse cx="17" cy="115.9258" fill="none" rx="3" ry="3" style="stroke: #038048; stroke-width: 1.0;"/><text fill="#000000" font-family="sans-serif" font-size="11" lengthAdjust="spacingAndGlyphs" text-decoration="underline" textLength="135" x="26" y="118.2339">M4A_EXTENSION: String</text><line style="stroke: #000000; stroke-width: 1.0;" x1="26" x2="161" y1="120.2339" y2="120.2339"/><ellipse cx="17" cy="128.7305" fill="none" rx="3" ry="3" style="stroke: #038048; stroke-width: 1.0;"/><text fill="#000000" font-family="sans-serif" font-size="11" lengthAdjust="spacingAndGlyphs" text-decoration="underline" textLength="113" x="26" y="131.0386">WAV_HEADER: byte[]</text><line style="stroke: #000000; stroke-width: 1.0;" x1="26" x2="139" y1="133.0386" y2="133.0386"/><ellipse cx="17" cy="141.5352" fill="none" rx="3" ry="3" style="stroke: #038048; stroke-width: 1.0;"/><text fill="#000000" font-family="sans-serif" font-size="11" lengthAdjust="spacingAndGlyphs" text-decoration="underline" textLength="144" x="26" y="143.8433">WAV_HEADER_OFFSET: int</text><line style="stroke: #000000; stroke-width: 1.0;" x1="26" x2="170" y1="145.8433" y2="145.8433"/><ellipse cx="17" cy="154.3398" fill="none" rx="3" ry="3" style="stroke: #038048; stroke-width: 1.0;"/><text fill="#000000" font-family="sans-serif" font-size="11" lengthAdjust="spacingAndGlyphs" text-decoration="underline" textLength="135" x="26" y="156.6479">WAV_EXTENSION: String</text><line style="stroke: #000000; stroke-width: 1.0;" x1="26" x2="161" y1="158.6479" y2="158.6479"/><line style="stroke: #A80036; stroke-width: 1.5;" x1="7" x2="175" y1="163.2422" y2="163.2422"/></a></g></svg>