<?xml version="1.0" encoding="UTF-8" standalone="no"?><svg xmlns="http://www.w3.org/2000/svg" xmlns:xlink="http://www.w3.org/1999/xlink" contentScriptType="application/ecmascript" contentStyleType="text/css" height="258px" preserveAspectRatio="none" style="width:482px;height:258px;" version="1.1" viewBox="0 0 482 258" width="482px" zoomAndPan="magnify"><defs><filter height="300%" id="fpt14va" width="300%" x="-1" y="-1"><feGaussianBlur result="blurOut" stdDeviation="2.0"/><feColorMatrix in="blurOut" result="blurOut2" type="matrix" values="0 0 0 0 0 0 0 0 0 0 0 0 0 0 0 0 0 0 .4 0"/><feOffset dx="4.0" dy="4.0" in="blurOut2" result="blurOut3"/><feBlend in="SourceGraphic" in2="blurOut3" mode="normal"/></filter></defs><g><!--cluster ch.tofind.commusica.file--><polygon fill="#FFFFFF" filter="url(#fpt14va)" points="22,24,220,24,227,46.2969,475,46.2969,475,251,22,251,22,24" style="stroke: #000000; stroke-width: 2.0;"/><line style="stroke: #000000; stroke-width: 2.0;" x1="22" x2="227" y1="46.2969" y2="46.2969"/><text fill="#000000" font-family="sans-serif" font-size="14" font-weight="bold" lengthAdjust="spacingAndGlyphs" textLength="192" x="26" y="38.9951">ch.tofind.commusica.file</text><!--class ch.tofind.commusica.file.FilesFormats--><a target="_top" xlink:actuate="onRequest" xlink:href="FilesFormats.html" xlink:show="new" xlink:title="FilesFormats.html" xlink:type="simple"><rect fill="#FEFECE" filter="url(#fpt14va)" height="163.2422" style="stroke: #A80036; stroke-width: 1.5;" width="170" x="289" y="65.5"/><ellipse cx="330.55" cy="81.5" fill="#ADD1B2" rx="11" ry="11" style="stroke: #A80036; stroke-width: 1.0;"/><path d="M333.5188,87.1406 Q332.9406,87.4375 332.3,87.5859 Q331.6594,87.7344 330.9563,87.7344 Q328.4563,87.7344 327.1359,86.0859 Q325.8156,84.4375 325.8156,81.3125 Q325.8156,78.1875 327.1359,76.5313 Q328.4563,74.875 330.9563,74.875 Q331.6594,74.875 332.3078,75.0313 Q332.9563,75.1875 333.5188,75.4844 L333.5188,78.2031 Q332.8938,77.625 332.3,77.3516 Q331.7063,77.0781 331.0813,77.0781 Q329.7375,77.0781 329.05,78.1484 Q328.3625,79.2188 328.3625,81.3125 Q328.3625,83.4063 329.05,84.4766 Q329.7375,85.5469 331.0813,85.5469 Q331.7063,85.5469 332.3,85.2734 Q332.8938,85 333.5188,84.4219 L333.5188,87.1406 Z "/><text fill="#000000" font-family="sans-serif" font-size="12" lengthAdjust="spacingAndGlyphs" textLength="79" x="350.45" y="85.6543">FilesFormats</text><line style="stroke: #A80036; stroke-width: 1.5;" x1="290" x2="458" y1="97.5" y2="97.5"/><ellipse cx="300" cy="109.4023" fill="none" rx="3" ry="3" style="stroke: #038048; stroke-width: 1.0;"/><text fill="#000000" font-family="sans-serif" font-size="11" lengthAdjust="spacingAndGlyphs" text-decoration="underline" textLength="113" x="309" y="111.7104">MP3_HEADER: byte[]</text><line style="stroke: #000000; stroke-width: 1.0;" x1="309" x2="422" y1="113.7104" y2="113.7104"/><ellipse cx="300" cy="122.207" fill="none" rx="3" ry="3" style="stroke: #038048; stroke-width: 1.0;"/><text fill="#000000" font-family="sans-serif" font-size="11" lengthAdjust="spacingAndGlyphs" text-decoration="underline" textLength="144" x="309" y="124.5151">MP3_HEADER_OFFSET: int</text><line style="stroke: #000000; stroke-width: 1.0;" x1="309" x2="453" y1="126.5151" y2="126.5151"/><ellipse cx="300" cy="135.0117" fill="none" rx="3" ry="3" style="stroke: #038048; stroke-width: 1.0;"/><text fill="#000000" font-family="sans-serif" font-size="11" lengthAdjust="spacingAndGlyphs" text-decoration="underline" textLength="135" x="309" y="137.3198">MP3_EXTENSION: String</text><line style="stroke: #000000; stroke-width: 1.0;" x1="309" x2="444" y1="139.3198" y2="139.3198"/><ellipse cx="300" cy="147.8164" fill="none" rx="3" ry="3" style="stroke: #038048; stroke-width: 1.0;"/><text fill="#000000" font-family="sans-serif" font-size="11" lengthAdjust="spacingAndGlyphs" text-decoration="underline" textLength="113" x="309" y="150.1245">M4A_HEADER: byte[]</text><line style="stroke: #000000; stroke-width: 1.0;" x1="309" x2="422" y1="152.1245" y2="152.1245"/><ellipse cx="300" cy="160.6211" fill="none" rx="3" ry="3" style="stroke: #038048; stroke-width: 1.0;"/><text fill="#000000" font-family="sans-serif" font-size="11" lengthAdjust="spacingAndGlyphs" text-decoration="underline" textLength="144" x="309" y="162.9292">M4A_HEADER_OFFSET: int</text><line style="stroke: #000000; stroke-width: 1.0;" x1="309" x2="453" y1="164.9292" y2="164.9292"/><ellipse cx="300" cy="173.4258" fill="none" rx="3" ry="3" style="stroke: #038048; stroke-width: 1.0;"/><text fill="#000000" font-family="sans-serif" font-size="11" lengthAdjust="spacingAndGlyphs" text-decoration="underline" textLength="135" x="309" y="175.7339">M4A_EXTENSION: String</text><line style="stroke: #000000; stroke-width: 1.0;" x1="309" x2="444" y1="177.7339" y2="177.7339"/><ellipse cx="300" cy="186.2305" fill="none" rx="3" ry="3" style="stroke: #038048; stroke-width: 1.0;"/><text fill="#000000" font-family="sans-serif" font-size="11" lengthAdjust="spacingAndGlyphs" text-decoration="underline" textLength="113" x="309" y="188.5386">WAV_HEADER: byte[]</text><line style="stroke: #000000; stroke-width: 1.0;" x1="309" x2="422" y1="190.5386" y2="190.5386"/><ellipse cx="300" cy="199.0352" fill="none" rx="3" ry="3" style="stroke: #038048; stroke-width: 1.0;"/><text fill="#000000" font-family="sans-serif" font-size="11" lengthAdjust="spacingAndGlyphs" text-decoration="underline" textLength="144" x="309" y="201.3433">WAV_HEADER_OFFSET: int</text><line style="stroke: #000000; stroke-width: 1.0;" x1="309" x2="453" y1="203.3433" y2="203.3433"/><ellipse cx="300" cy="211.8398" fill="none" rx="3" ry="3" style="stroke: #038048; stroke-width: 1.0;"/><text fill="#000000" font-family="sans-serif" font-size="11" lengthAdjust="spacingAndGlyphs" text-decoration="underline" textLength="135" x="309" y="214.1479">WAV_EXTENSION: String</text><line style="stroke: #000000; stroke-width: 1.0;" x1="309" x2="444" y1="216.1479" y2="216.1479"/><line style="stroke: #A80036; stroke-width: 1.5;" x1="290" x2="458" y1="220.7422" y2="220.7422"/></a><!--class ch.tofind.commusica.file.FileManager--><a target="_top" xlink:actuate="onRequest" xlink:href="FileManager.html" xlink:show="new" xlink:title="FileManager.html" xlink:type="simple"><rect fill="#FEFECE" filter="url(#fpt14va)" height="176.0469" style="stroke: #A80036; stroke-width: 1.5;" width="216" x="38" y="59"/><ellipse cx="103.75" cy="75" fill="#ADD1B2" rx="11" ry="11" style="stroke: #A80036; stroke-width: 1.0;"/><path d="M106.7188,80.6406 Q106.1406,80.9375 105.5,81.0859 Q104.8594,81.2344 104.1563,81.2344 Q101.6563,81.2344 100.3359,79.5859 Q99.0156,77.9375 99.0156,74.8125 Q99.0156,71.6875 100.3359,70.0313 Q101.6563,68.375 104.1563,68.375 Q104.8594,68.375 105.5078,68.5313 Q106.1563,68.6875 106.7188,68.9844 L106.7188,71.7031 Q106.0938,71.125 105.5,70.8516 Q104.9063,70.5781 104.2813,70.5781 Q102.9375,70.5781 102.25,71.6484 Q101.5625,72.7188 101.5625,74.8125 Q101.5625,76.9063 102.25,77.9766 Q102.9375,79.0469 104.2813,79.0469 Q104.9063,79.0469 105.5,78.7734 Q106.0938,78.5 106.7188,77.9219 L106.7188,80.6406 Z "/><text fill="#000000" font-family="sans-serif" font-size="12" lengthAdjust="spacingAndGlyphs" textLength="76" x="124.25" y="79.1543">FileManager</text><line style="stroke: #A80036; stroke-width: 1.5;" x1="39" x2="253" y1="91" y2="91"/><rect fill="none" height="6" style="stroke: #C82930; stroke-width: 1.0;" width="6" x="46" y="99.9023"/><text fill="#000000" font-family="sans-serif" font-size="11" lengthAdjust="spacingAndGlyphs" text-decoration="underline" textLength="71" x="58" y="105.2104">LOG: Logger</text><line style="stroke: #000000; stroke-width: 1.0;" x1="58" x2="129" y1="107.2104" y2="107.2104"/><rect fill="none" height="6" style="stroke: #C82930; stroke-width: 1.0;" width="6" x="46" y="112.707"/><text fill="#000000" font-family="sans-serif" font-size="11" lengthAdjust="spacingAndGlyphs" text-decoration="underline" textLength="124" x="58" y="118.0151">instance: FileManager</text><line style="stroke: #000000; stroke-width: 1.0;" x1="58" x2="182" y1="120.0151" y2="120.0151"/><ellipse cx="49" cy="128.5117" fill="none" rx="3" ry="3" style="stroke: #038048; stroke-width: 1.0;"/><text fill="#000000" font-family="sans-serif" font-size="11" lengthAdjust="spacingAndGlyphs" text-decoration="underline" textLength="157" x="58" y="130.8198">OUTPUT_DIRECTORY: String</text><line style="stroke: #000000; stroke-width: 1.0;" x1="58" x2="215" y1="132.8198" y2="132.8198"/><line style="stroke: #A80036; stroke-width: 1.5;" x1="39" x2="253" y1="137.4141" y2="137.4141"/><ellipse cx="49" cy="149.3164" fill="#84BE84" rx="3" ry="3" style="stroke: #038048; stroke-width: 1.0;"/><text fill="#000000" font-family="sans-serif" font-size="11" lengthAdjust="spacingAndGlyphs" text-decoration="underline" textLength="150" x="58" y="151.6245">getInstance(): FileManager</text><line style="stroke: #000000; stroke-width: 1.0;" x1="58" x2="208" y1="153.6245" y2="153.6245"/><ellipse cx="49" cy="162.1211" fill="#84BE84" rx="3" ry="3" style="stroke: #038048; stroke-width: 1.0;"/><text fill="#000000" font-family="sans-serif" font-size="11" lengthAdjust="spacingAndGlyphs" textLength="190" x="58" y="164.4292">retrieveFile(InputStream, int): File</text><ellipse cx="49" cy="174.9258" fill="#84BE84" rx="3" ry="3" style="stroke: #038048; stroke-width: 1.0;"/><text fill="#000000" font-family="sans-serif" font-size="11" lengthAdjust="spacingAndGlyphs" textLength="182" x="58" y="177.2339">getFormatExtension(File): String</text><ellipse cx="49" cy="187.7305" fill="#84BE84" rx="3" ry="3" style="stroke: #038048; stroke-width: 1.0;"/><text fill="#000000" font-family="sans-serif" font-size="11" lengthAdjust="spacingAndGlyphs" textLength="139" x="58" y="190.0386">getBytes(File, int): byte[]</text><ellipse cx="49" cy="200.5352" fill="#84BE84" rx="3" ry="3" style="stroke: #038048; stroke-width: 1.0;"/><text fill="#000000" font-family="sans-serif" font-size="11" lengthAdjust="spacingAndGlyphs" textLength="93" x="58" y="202.8433">delete(File): void</text><ellipse cx="49" cy="213.3398" fill="#84BE84" rx="3" ry="3" style="stroke: #038048; stroke-width: 1.0;"/><text fill="#000000" font-family="sans-serif" font-size="11" lengthAdjust="spacingAndGlyphs" textLength="129" x="58" y="215.6479">rename(File, File): void</text><ellipse cx="49" cy="226.1445" fill="#84BE84" rx="3" ry="3" style="stroke: #038048; stroke-width: 1.0;"/><text fill="#000000" font-family="sans-serif" font-size="11" lengthAdjust="spacingAndGlyphs" textLength="170" x="58" y="228.4526">getMD5Checksum(File): String</text></a></g></svg>