<?xml version="1.0" encoding="UTF-8" standalone="no"?><svg xmlns="http://www.w3.org/2000/svg" xmlns:xlink="http://www.w3.org/1999/xlink" contentScriptType="application/ecmascript" contentStyleType="text/css" height="90px" preserveAspectRatio="none" style="width:150px;height:90px;" version="1.1" viewBox="0 0 150 90" width="150px" zoomAndPan="magnify"><defs><filter height="300%" id="fimzo35" width="300%" x="-1" y="-1"><feGaussianBlur result="blurOut" stdDeviation="2.0"/><feColorMatrix in="blurOut" result="blurOut2" type="matrix" values="0 0 0 0 0 0 0 0 0 0 0 0 0 0 0 0 0 0 .4 0"/><feOffset dx="4.0" dy="4.0" in="blurOut2" result="blurOut3"/><feBlend in="SourceGraphic" in2="blurOut3" mode="normal"/></filter></defs><g><!--class Commusica--><a target="_top" xlink:actuate="onRequest" xlink:href="Commusica.html" xlink:show="new" xlink:title="Commusica.html" xlink:type="simple"><rect fill="#FEFECE" filter="url(#fimzo35)" height="73.6094" style="stroke: #A80036; stroke-width: 1.5;" width="135" x="6" y="8"/><ellipse cx="35.4" cy="24" fill="#ADD1B2" rx="11" ry="11" style="stroke: #A80036; stroke-width: 1.0;"/><path d="M38.3688,29.6406 Q37.7906,29.9375 37.15,30.0859 Q36.5094,30.2344 35.8063,30.2344 Q33.3063,30.2344 31.9859,28.5859 Q30.6656,26.9375 30.6656,23.8125 Q30.6656,20.6875 31.9859,19.0313 Q33.3063,17.375 35.8063,17.375 Q36.5094,17.375 37.1578,17.5313 Q37.8063,17.6875 38.3688,17.9844 L38.3688,20.7031 Q37.7438,20.125 37.15,19.8516 Q36.5563,19.5781 35.9313,19.5781 Q34.5875,19.5781 33.9,20.6484 Q33.2125,21.7188 33.2125,23.8125 Q33.2125,25.9063 33.9,26.9766 Q34.5875,28.0469 35.9313,28.0469 Q36.5563,28.0469 37.15,27.7734 Q37.7438,27.5 38.3688,26.9219 L38.3688,29.6406 Z "/><text fill="#000000" font-family="sans-serif" font-size="12" lengthAdjust="spacingAndGlyphs" textLength="71" x="52.6" y="28.1543">Commusica</text><line style="stroke: #A80036; stroke-width: 1.5;" x1="7" x2="140" y1="40" y2="40"/><rect fill="none" height="6" style="stroke: #C82930; stroke-width: 1.0;" width="6" x="14" y="48.9023"/><text fill="#000000" font-family="sans-serif" font-size="11" lengthAdjust="spacingAndGlyphs" text-decoration="underline" textLength="71" x="26" y="54.2104">LOG: Logger</text><line style="stroke: #000000; stroke-width: 1.0;" x1="26" x2="97" y1="56.2104" y2="56.2104"/><line style="stroke: #A80036; stroke-width: 1.5;" x1="7" x2="140" y1="60.8047" y2="60.8047"/><ellipse cx="17" cy="72.707" fill="#84BE84" rx="3" ry="3" style="stroke: #038048; stroke-width: 1.0;"/><text fill="#000000" font-family="sans-serif" font-size="11" lengthAdjust="spacingAndGlyphs" text-decoration="underline" textLength="109" x="26" y="75.0151">main(String[]): void</text><line style="stroke: #000000; stroke-width: 1.0;" x1="26" x2="135" y1="77.0151" y2="77.0151"/></a></g></svg>