<?xml version="1.0" encoding="UTF-8" standalone="no"?><svg xmlns="http://www.w3.org/2000/svg" xmlns:xlink="http://www.w3.org/1999/xlink" contentScriptType="application/ecmascript" contentStyleType="text/css" height="156px" preserveAspectRatio="none" style="width:208px;height:156px;" version="1.1" viewBox="0 0 208 156" width="208px" zoomAndPan="magnify"><defs><filter height="300%" id="f1ymgdn" width="300%" x="-1" y="-1"><feGaussianBlur result="blurOut" stdDeviation="2.0"/><feColorMatrix in="blurOut" result="blurOut2" type="matrix" values="0 0 0 0 0 0 0 0 0 0 0 0 0 0 0 0 0 0 .4 0"/><feOffset dx="4.0" dy="4.0" in="blurOut2" result="blurOut3"/><feBlend in="SourceGraphic" in2="blurOut3" mode="normal"/></filter></defs><g><!--cluster ch.tofind.commusica--><polygon fill="#FFFFFF" filter="url(#f1ymgdn)" points="22,24,191,24,198,46.2969,201,46.2969,201,149,22,149,22,24" style="stroke: #000000; stroke-width: 2.0;"/><line style="stroke: #000000; stroke-width: 2.0;" x1="22" x2="198" y1="46.2969" y2="46.2969"/><text fill="#000000" font-family="sans-serif" font-size="14" font-weight="bold" lengthAdjust="spacingAndGlyphs" textLength="163" x="26" y="38.9951">ch.tofind.commusica</text><!--class ch.tofind.commusica.Commusica--><a target="_top" xlink:actuate="onRequest" xlink:href="Commusica.html" xlink:show="new" xlink:title="Commusica.html" xlink:type="simple"><rect fill="#FEFECE" filter="url(#f1ymgdn)" height="73.6094" style="stroke: #A80036; stroke-width: 1.5;" width="135" x="43.5" y="59"/><ellipse cx="72.9" cy="75" fill="#ADD1B2" rx="11" ry="11" style="stroke: #A80036; stroke-width: 1.0;"/><path d="M75.8688,80.6406 Q75.2906,80.9375 74.65,81.0859 Q74.0094,81.2344 73.3063,81.2344 Q70.8063,81.2344 69.4859,79.5859 Q68.1656,77.9375 68.1656,74.8125 Q68.1656,71.6875 69.4859,70.0313 Q70.8063,68.375 73.3063,68.375 Q74.0094,68.375 74.6578,68.5313 Q75.3063,68.6875 75.8688,68.9844 L75.8688,71.7031 Q75.2438,71.125 74.65,70.8516 Q74.0563,70.5781 73.4313,70.5781 Q72.0875,70.5781 71.4,71.6484 Q70.7125,72.7188 70.7125,74.8125 Q70.7125,76.9063 71.4,77.9766 Q72.0875,79.0469 73.4313,79.0469 Q74.0563,79.0469 74.65,78.7734 Q75.2438,78.5 75.8688,77.9219 L75.8688,80.6406 Z "/><text fill="#000000" font-family="sans-serif" font-size="12" lengthAdjust="spacingAndGlyphs" textLength="71" x="90.1" y="79.1543">Commusica</text><line style="stroke: #A80036; stroke-width: 1.5;" x1="44.5" x2="177.5" y1="91" y2="91"/><rect fill="none" height="6" style="stroke: #C82930; stroke-width: 1.0;" width="6" x="51.5" y="99.9023"/><text fill="#000000" font-family="sans-serif" font-size="11" lengthAdjust="spacingAndGlyphs" text-decoration="underline" textLength="71" x="63.5" y="105.2104">LOG: Logger</text><line style="stroke: #000000; stroke-width: 1.0;" x1="63.5" x2="134.5" y1="107.2104" y2="107.2104"/><line style="stroke: #A80036; stroke-width: 1.5;" x1="44.5" x2="177.5" y1="111.8047" y2="111.8047"/><ellipse cx="54.5" cy="123.707" fill="#84BE84" rx="3" ry="3" style="stroke: #038048; stroke-width: 1.0;"/><text fill="#000000" font-family="sans-serif" font-size="11" lengthAdjust="spacingAndGlyphs" text-decoration="underline" textLength="109" x="63.5" y="126.0151">main(String[]): void</text><line style="stroke: #000000; stroke-width: 1.0;" x1="63.5" x2="172.5" y1="128.0151" y2="128.0151"/></a></g></svg>