<?xml version="1.0" encoding="UTF-8" standalone="no"?><svg xmlns="http://www.w3.org/2000/svg" xmlns:xlink="http://www.w3.org/1999/xlink" contentScriptType="application/ecmascript" contentStyleType="text/css" height="282px" preserveAspectRatio="none" style="width:227px;height:282px;" version="1.1" viewBox="0 0 227 282" width="227px" zoomAndPan="magnify"><defs><filter height="300%" id="f4w3xrl" width="300%" x="-1" y="-1"><feGaussianBlur result="blurOut" stdDeviation="2.0"/><feColorMatrix in="blurOut" result="blurOut2" type="matrix" values="0 0 0 0 0 0 0 0 0 0 0 0 0 0 0 0 0 0 .4 0"/><feOffset dx="4.0" dy="4.0" in="blurOut2" result="blurOut3"/><feBlend in="SourceGraphic" in2="blurOut3" mode="normal"/></filter></defs><g><!--class CurrentTrackView--><a target="_top" xlink:actuate="onRequest" xlink:href="CurrentTrackView.html" xlink:show="new" xlink:title="CurrentTrackView.html" xlink:type="simple"><rect fill="#FEFECE" filter="url(#f4w3xrl)" height="265.6797" style="stroke: #A80036; stroke-width: 1.5;" width="212" x="6" y="8"/><ellipse cx="53.25" cy="24" fill="#ADD1B2" rx="11" ry="11" style="stroke: #A80036; stroke-width: 1.0;"/><path d="M56.2188,29.6406 Q55.6406,29.9375 55,30.0859 Q54.3594,30.2344 53.6563,30.2344 Q51.1563,30.2344 49.8359,28.5859 Q48.5156,26.9375 48.5156,23.8125 Q48.5156,20.6875 49.8359,19.0313 Q51.1563,17.375 53.6563,17.375 Q54.3594,17.375 55.0078,17.5313 Q55.6563,17.6875 56.2188,17.9844 L56.2188,20.7031 Q55.5938,20.125 55,19.8516 Q54.4063,19.5781 53.7813,19.5781 Q52.4375,19.5781 51.75,20.6484 Q51.0625,21.7188 51.0625,23.8125 Q51.0625,25.9063 51.75,26.9766 Q52.4375,28.0469 53.7813,28.0469 Q54.4063,28.0469 55,27.7734 Q55.5938,27.5 56.2188,26.9219 L56.2188,29.6406 Z "/><text fill="#000000" font-family="sans-serif" font-size="12" lengthAdjust="spacingAndGlyphs" textLength="109" x="73.75" y="28.1543">CurrentTrackView</text><line style="stroke: #A80036; stroke-width: 1.5;" x1="7" x2="217" y1="40" y2="40"/><ellipse cx="17" cy="51.9023" fill="none" rx="3" ry="3" style="stroke: #038048; stroke-width: 1.0;"/><text fill="#000000" font-family="sans-serif" font-size="11" lengthAdjust="spacingAndGlyphs" text-decoration="underline" textLength="109" x="26" y="54.2104">CSS_CLASS: String</text><line style="stroke: #000000; stroke-width: 1.0;" x1="26" x2="135" y1="56.2104" y2="56.2104"/><rect fill="none" height="6" style="stroke: #C82930; stroke-width: 1.0;" width="6" x="14" y="61.707"/><text fill="#000000" font-family="sans-serif" font-size="11" lengthAdjust="spacingAndGlyphs" text-decoration="underline" textLength="94" x="26" y="67.0151">CSS_FILE: String</text><line style="stroke: #000000; stroke-width: 1.0;" x1="26" x2="120" y1="69.0151" y2="69.0151"/><rect fill="none" height="6" style="stroke: #C82930; stroke-width: 1.0;" width="6" x="14" y="74.5117"/><text fill="#000000" font-family="sans-serif" font-size="11" lengthAdjust="spacingAndGlyphs" text-decoration="underline" textLength="146" x="26" y="79.8198">FAV_EMPTY_IMAGE: String</text><line style="stroke: #000000; stroke-width: 1.0;" x1="26" x2="172" y1="81.8198" y2="81.8198"/><rect fill="none" height="6" style="stroke: #C82930; stroke-width: 1.0;" width="6" x="14" y="87.3164"/><text fill="#000000" font-family="sans-serif" font-size="11" lengthAdjust="spacingAndGlyphs" text-decoration="underline" textLength="135" x="26" y="92.6245">FAV_FULL_IMAGE: String</text><line style="stroke: #000000; stroke-width: 1.0;" x1="26" x2="161" y1="94.6245" y2="94.6245"/><rect fill="none" height="6" style="stroke: #C82930; stroke-width: 1.0;" width="6" x="14" y="100.1211"/><text fill="#000000" font-family="sans-serif" font-size="11" lengthAdjust="spacingAndGlyphs" text-decoration="underline" textLength="98" x="26" y="105.4292">FXML_FILE: String</text><line style="stroke: #000000; stroke-width: 1.0;" x1="26" x2="124" y1="107.4292" y2="107.4292"/><rect fill="none" height="6" style="stroke: #C82930; stroke-width: 1.0;" width="6" x="14" y="112.9258"/><text fill="#000000" font-family="sans-serif" font-size="11" lengthAdjust="spacingAndGlyphs" text-decoration="underline" textLength="78" x="26" y="118.2339">player: Player</text><line style="stroke: #000000; stroke-width: 1.0;" x1="26" x2="104" y1="120.2339" y2="120.2339"/><rect fill="none" height="6" style="stroke: #C82930; stroke-width: 1.0;" width="6" x="14" y="125.7305"/><text fill="#000000" font-family="sans-serif" font-size="11" lengthAdjust="spacingAndGlyphs" text-decoration="underline" textLength="186" x="26" y="131.0386">playlistManager: PlaylistManager</text><line style="stroke: #000000; stroke-width: 1.0;" x1="26" x2="212" y1="133.0386" y2="133.0386"/><rect fill="none" height="6" style="stroke: #C82930; stroke-width: 1.0;" width="6" x="14" y="138.5352"/><text fill="#000000" font-family="sans-serif" font-size="11" lengthAdjust="spacingAndGlyphs" textLength="103" x="26" y="143.8433">albumLabel: Label</text><rect fill="none" height="6" style="stroke: #C82930; stroke-width: 1.0;" width="6" x="14" y="151.3398"/><text fill="#000000" font-family="sans-serif" font-size="11" lengthAdjust="spacingAndGlyphs" textLength="98" x="26" y="156.6479">artistLabel: Label</text><rect fill="none" height="6" style="stroke: #C82930; stroke-width: 1.0;" width="6" x="14" y="164.1445"/><text fill="#000000" font-family="sans-serif" font-size="11" lengthAdjust="spacingAndGlyphs" textLength="147" x="26" y="169.4526">durationBar: ProgressBar</text><rect fill="none" height="6" style="stroke: #C82930; stroke-width: 1.0;" width="6" x="14" y="176.9492"/><text fill="#000000" font-family="sans-serif" font-size="11" lengthAdjust="spacingAndGlyphs" textLength="115" x="26" y="182.2573">durationLabel: Label</text><rect fill="none" height="6" style="stroke: #C82930; stroke-width: 1.0;" width="6" x="14" y="189.7539"/><text fill="#000000" font-family="sans-serif" font-size="11" lengthAdjust="spacingAndGlyphs" textLength="173" x="26" y="195.062">favoriteImageView: ImageView</text><rect fill="none" height="6" style="stroke: #C82930; stroke-width: 1.0;" width="6" x="14" y="202.5586"/><text fill="#000000" font-family="sans-serif" font-size="11" lengthAdjust="spacingAndGlyphs" textLength="89" x="26" y="207.8667">titleLabel: Label</text><rect fill="none" height="6" style="stroke: #C82930; stroke-width: 1.0;" width="6" x="14" y="215.3633"/><text fill="#000000" font-family="sans-serif" font-size="11" lengthAdjust="spacingAndGlyphs" textLength="99" x="26" y="220.6714">votesLabel: Label</text><line style="stroke: #A80036; stroke-width: 1.5;" x1="7" x2="217" y1="227.2656" y2="227.2656"/><rect fill="#F24D5C" height="6" style="stroke: #C82930; stroke-width: 1.0;" width="6" x="14" y="236.168"/><text fill="#000000" font-family="sans-serif" font-size="11" lengthAdjust="spacingAndGlyphs" textLength="161" x="26" y="241.4761">downvote(MouseEvent): void</text><rect fill="#F24D5C" height="6" style="stroke: #C82930; stroke-width: 1.0;" width="6" x="14" y="248.9727"/><text fill="#000000" font-family="sans-serif" font-size="11" lengthAdjust="spacingAndGlyphs" textLength="150" x="26" y="254.2808">favorite(MouseEvent): void</text><rect fill="#F24D5C" height="6" style="stroke: #C82930; stroke-width: 1.0;" width="6" x="14" y="261.7773"/><text fill="#000000" font-family="sans-serif" font-size="11" lengthAdjust="spacingAndGlyphs" textLength="145" x="26" y="267.0854">upvote(MouseEvent): void</text></a></g></svg>