<?xml version="1.0" encoding="UTF-8" standalone="no"?><svg xmlns="http://www.w3.org/2000/svg" xmlns:xlink="http://www.w3.org/1999/xlink" contentScriptType="application/ecmascript" contentStyleType="text/css" height="244px" preserveAspectRatio="none" style="width:229px;height:244px;" version="1.1" viewBox="0 0 229 244" width="229px" zoomAndPan="magnify"><defs><filter height="300%" id="f401o9z" width="300%" x="-1" y="-1"><feGaussianBlur result="blurOut" stdDeviation="2.0"/><feColorMatrix in="blurOut" result="blurOut2" type="matrix" values="0 0 0 0 0 0 0 0 0 0 0 0 0 0 0 0 0 0 .4 0"/><feOffset dx="4.0" dy="4.0" in="blurOut2" result="blurOut3"/><feBlend in="SourceGraphic" in2="blurOut3" mode="normal"/></filter></defs><g><!--class PlayerControlsView--><a target="_top" xlink:actuate="onRequest" xlink:href="PlayerControlsView.html" xlink:show="new" xlink:title="PlayerControlsView.html" xlink:type="simple"><rect fill="#FEFECE" filter="url(#f401o9z)" height="227.2656" style="stroke: #A80036; stroke-width: 1.5;" width="214" x="6" y="8"/><ellipse cx="49.8" cy="24" fill="#ADD1B2" rx="11" ry="11" style="stroke: #A80036; stroke-width: 1.0;"/><path d="M52.7688,29.6406 Q52.1906,29.9375 51.55,30.0859 Q50.9094,30.2344 50.2063,30.2344 Q47.7063,30.2344 46.3859,28.5859 Q45.0656,26.9375 45.0656,23.8125 Q45.0656,20.6875 46.3859,19.0313 Q47.7063,17.375 50.2063,17.375 Q50.9094,17.375 51.5578,17.5313 Q52.2063,17.6875 52.7688,17.9844 L52.7688,20.7031 Q52.1438,20.125 51.55,19.8516 Q50.9563,19.5781 50.3313,19.5781 Q48.9875,19.5781 48.3,20.6484 Q47.6125,21.7188 47.6125,23.8125 Q47.6125,25.9063 48.3,26.9766 Q48.9875,28.0469 50.3313,28.0469 Q50.9563,28.0469 51.55,27.7734 Q52.1438,27.5 52.7688,26.9219 L52.7688,29.6406 Z "/><text fill="#000000" font-family="sans-serif" font-size="12" lengthAdjust="spacingAndGlyphs" textLength="118" x="70.2" y="28.1543">PlayerControlsView</text><line style="stroke: #A80036; stroke-width: 1.5;" x1="7" x2="219" y1="40" y2="40"/><rect fill="none" height="6" style="stroke: #C82930; stroke-width: 1.0;" width="6" x="14" y="48.9023"/><text fill="#000000" font-family="sans-serif" font-size="11" lengthAdjust="spacingAndGlyphs" text-decoration="underline" textLength="71" x="26" y="54.2104">LOG: Logger</text><line style="stroke: #000000; stroke-width: 1.0;" x1="26" x2="97" y1="56.2104" y2="56.2104"/><ellipse cx="17" cy="64.707" fill="none" rx="3" ry="3" style="stroke: #038048; stroke-width: 1.0;"/><text fill="#000000" font-family="sans-serif" font-size="11" lengthAdjust="spacingAndGlyphs" text-decoration="underline" textLength="109" x="26" y="67.0151">CSS_CLASS: String</text><line style="stroke: #000000; stroke-width: 1.0;" x1="26" x2="135" y1="69.0151" y2="69.0151"/><rect fill="none" height="6" style="stroke: #C82930; stroke-width: 1.0;" width="6" x="14" y="74.5117"/><text fill="#000000" font-family="sans-serif" font-size="11" lengthAdjust="spacingAndGlyphs" text-decoration="underline" textLength="94" x="26" y="79.8198">CSS_FILE: String</text><line style="stroke: #000000; stroke-width: 1.0;" x1="26" x2="120" y1="81.8198" y2="81.8198"/><rect fill="none" height="6" style="stroke: #C82930; stroke-width: 1.0;" width="6" x="14" y="87.3164"/><text fill="#000000" font-family="sans-serif" font-size="11" lengthAdjust="spacingAndGlyphs" text-decoration="underline" textLength="98" x="26" y="92.6245">FXML_FILE: String</text><line style="stroke: #000000; stroke-width: 1.0;" x1="26" x2="124" y1="94.6245" y2="94.6245"/><rect fill="none" height="6" style="stroke: #C82930; stroke-width: 1.0;" width="6" x="14" y="100.1211"/><text fill="#000000" font-family="sans-serif" font-size="11" lengthAdjust="spacingAndGlyphs" text-decoration="underline" textLength="78" x="26" y="105.4292">player: Player</text><line style="stroke: #000000; stroke-width: 1.0;" x1="26" x2="104" y1="107.4292" y2="107.4292"/><rect fill="none" height="6" style="stroke: #C82930; stroke-width: 1.0;" width="6" x="14" y="112.9258"/><text fill="#000000" font-family="sans-serif" font-size="11" lengthAdjust="spacingAndGlyphs" text-decoration="underline" textLength="110" x="26" y="118.2339">PLAY_IMAGE: String</text><line style="stroke: #000000; stroke-width: 1.0;" x1="26" x2="136" y1="120.2339" y2="120.2339"/><rect fill="none" height="6" style="stroke: #C82930; stroke-width: 1.0;" width="6" x="14" y="125.7305"/><text fill="#000000" font-family="sans-serif" font-size="11" lengthAdjust="spacingAndGlyphs" text-decoration="underline" textLength="120" x="26" y="131.0386">PAUSE_IMAGE: String</text><line style="stroke: #000000; stroke-width: 1.0;" x1="26" x2="146" y1="133.0386" y2="133.0386"/><rect fill="none" height="6" style="stroke: #C82930; stroke-width: 1.0;" width="6" x="14" y="138.5352"/><text fill="#000000" font-family="sans-serif" font-size="11" lengthAdjust="spacingAndGlyphs" textLength="188" x="26" y="143.8433">playPauseImageView: ImageView</text><rect fill="none" height="6" style="stroke: #C82930; stroke-width: 1.0;" width="6" x="14" y="151.3398"/><text fill="#000000" font-family="sans-serif" font-size="11" lengthAdjust="spacingAndGlyphs" textLength="115" x="26" y="156.6479">volumeSlider: Slider</text><line style="stroke: #A80036; stroke-width: 1.5;" x1="7" x2="219" y1="163.2422" y2="163.2422"/><rect fill="#F24D5C" height="6" style="stroke: #C82930; stroke-width: 1.0;" width="6" x="14" y="172.1445"/><text fill="#000000" font-family="sans-serif" font-size="11" lengthAdjust="spacingAndGlyphs" textLength="180" x="26" y="177.4526">lowerVolume(MouseEvent): void</text><rect fill="#F24D5C" height="6" style="stroke: #C82930; stroke-width: 1.0;" width="6" x="14" y="184.9492"/><text fill="#000000" font-family="sans-serif" font-size="11" lengthAdjust="spacingAndGlyphs" textLength="131" x="26" y="190.2573">next(MouseEvent): void</text><rect fill="#F24D5C" height="6" style="stroke: #C82930; stroke-width: 1.0;" width="6" x="14" y="197.7539"/><text fill="#000000" font-family="sans-serif" font-size="11" lengthAdjust="spacingAndGlyphs" textLength="165" x="26" y="203.062">playPause(MouseEvent): void</text><rect fill="#F24D5C" height="6" style="stroke: #C82930; stroke-width: 1.0;" width="6" x="14" y="210.5586"/><text fill="#000000" font-family="sans-serif" font-size="11" lengthAdjust="spacingAndGlyphs" textLength="156" x="26" y="215.8667">previous(MouseEvent): void</text><rect fill="#F24D5C" height="6" style="stroke: #C82930; stroke-width: 1.0;" width="6" x="14" y="223.3633"/><text fill="#000000" font-family="sans-serif" font-size="11" lengthAdjust="spacingAndGlyphs" textLength="171" x="26" y="228.6714">riseVolume(MouseEvent): void</text></a></g></svg>