<?xml version="1.0" encoding="UTF-8" standalone="no"?><svg xmlns="http://www.w3.org/2000/svg" xmlns:xlink="http://www.w3.org/1999/xlink" contentScriptType="application/ecmascript" contentStyleType="text/css" height="180px" preserveAspectRatio="none" style="width:264px;height:180px;" version="1.1" viewBox="0 0 264 180" width="264px" zoomAndPan="magnify"><defs><filter height="300%" id="ff9k8sl" width="300%" x="-1" y="-1"><feGaussianBlur result="blurOut" stdDeviation="2.0"/><feColorMatrix in="blurOut" result="blurOut2" type="matrix" values="0 0 0 0 0 0 0 0 0 0 0 0 0 0 0 0 0 0 .4 0"/><feOffset dx="4.0" dy="4.0" in="blurOut2" result="blurOut3"/><feBlend in="SourceGraphic" in2="blurOut3" mode="normal"/></filter></defs><g><!--class PlaylistsListView--><a target="_top" xlink:actuate="onRequest" xlink:href="PlaylistsListView.html" xlink:show="new" xlink:title="PlaylistsListView.html" xlink:type="simple"><rect fill="#FEFECE" filter="url(#ff9k8sl)" height="163.2422" style="stroke: #A80036; stroke-width: 1.5;" width="249" x="6" y="8"/><ellipse cx="76.75" cy="24" fill="#ADD1B2" rx="11" ry="11" style="stroke: #A80036; stroke-width: 1.0;"/><path d="M79.7188,29.6406 Q79.1406,29.9375 78.5,30.0859 Q77.8594,30.2344 77.1563,30.2344 Q74.6563,30.2344 73.3359,28.5859 Q72.0156,26.9375 72.0156,23.8125 Q72.0156,20.6875 73.3359,19.0313 Q74.6563,17.375 77.1563,17.375 Q77.8594,17.375 78.5078,17.5313 Q79.1563,17.6875 79.7188,17.9844 L79.7188,20.7031 Q79.0938,20.125 78.5,19.8516 Q77.9063,19.5781 77.2813,19.5781 Q75.9375,19.5781 75.25,20.6484 Q74.5625,21.7188 74.5625,23.8125 Q74.5625,25.9063 75.25,26.9766 Q75.9375,28.0469 77.2813,28.0469 Q77.9063,28.0469 78.5,27.7734 Q79.0938,27.5 79.7188,26.9219 L79.7188,29.6406 Z "/><text fill="#000000" font-family="sans-serif" font-size="12" lengthAdjust="spacingAndGlyphs" textLength="99" x="97.25" y="28.1543">PlaylistsListView</text><line style="stroke: #A80036; stroke-width: 1.5;" x1="7" x2="254" y1="40" y2="40"/><rect fill="none" height="6" style="stroke: #C82930; stroke-width: 1.0;" width="6" x="14" y="48.9023"/><text fill="#000000" font-family="sans-serif" font-size="11" lengthAdjust="spacingAndGlyphs" text-decoration="underline" textLength="94" x="26" y="54.2104">CSS_FILE: String</text><line style="stroke: #000000; stroke-width: 1.0;" x1="26" x2="120" y1="56.2104" y2="56.2104"/><rect fill="none" height="6" style="stroke: #C82930; stroke-width: 1.0;" width="6" x="14" y="61.707"/><text fill="#000000" font-family="sans-serif" font-size="11" lengthAdjust="spacingAndGlyphs" text-decoration="underline" textLength="98" x="26" y="67.0151">FXML_FILE: String</text><line style="stroke: #000000; stroke-width: 1.0;" x1="26" x2="124" y1="69.0151" y2="69.0151"/><rect fill="none" height="6" style="stroke: #C82930; stroke-width: 1.0;" width="6" x="14" y="74.5117"/><text fill="#000000" font-family="sans-serif" font-size="11" lengthAdjust="spacingAndGlyphs" text-decoration="underline" textLength="148" x="26" y="79.8198">manager: PlaylistManager</text><line style="stroke: #000000; stroke-width: 1.0;" x1="26" x2="174" y1="81.8198" y2="81.8198"/><polygon fill="none" points="17,86.3164,13,92.3164,21,92.3164" style="stroke: #1963A0; stroke-width: 1.0;"/><text fill="#000000" font-family="sans-serif" font-size="11" lengthAdjust="spacingAndGlyphs" textLength="118" x="26" y="92.6245">favoritesLabel: Label</text><polygon fill="none" points="17,99.1211,13,105.1211,21,105.1211" style="stroke: #1963A0; stroke-width: 1.0;"/><text fill="#000000" font-family="sans-serif" font-size="11" lengthAdjust="spacingAndGlyphs" textLength="108" x="26" y="105.4292">playingLabel: Label</text><polygon fill="none" points="17,111.9258,13,117.9258,21,117.9258" style="stroke: #1963A0; stroke-width: 1.0;"/><text fill="#000000" font-family="sans-serif" font-size="11" lengthAdjust="spacingAndGlyphs" textLength="220" x="26" y="118.2339">playlistsView: ListView&lt;SavedPlaylist&gt;</text><line style="stroke: #A80036; stroke-width: 1.5;" x1="7" x2="254" y1="124.8281" y2="124.8281"/><ellipse cx="17" cy="136.7305" fill="#84BE84" rx="3" ry="3" style="stroke: #038048; stroke-width: 1.0;"/><text fill="#000000" font-family="sans-serif" font-size="11" lengthAdjust="spacingAndGlyphs" textLength="81" x="26" y="139.0386">refresh(): void</text><rect fill="#F24D5C" height="6" style="stroke: #C82930; stroke-width: 1.0;" width="6" x="14" y="146.5352"/><text fill="#000000" font-family="sans-serif" font-size="11" lengthAdjust="spacingAndGlyphs" textLength="223" x="26" y="151.8433">loadFavoritesPlaylist(MouseEvent): void</text><rect fill="#F24D5C" height="6" style="stroke: #C82930; stroke-width: 1.0;" width="6" x="14" y="159.3398"/><text fill="#000000" font-family="sans-serif" font-size="11" lengthAdjust="spacingAndGlyphs" textLength="211" x="26" y="164.6479">loadPlayingPlaylist(MouseEvent): void</text></a></g></svg>