<?xml version="1.0" encoding="UTF-8" standalone="no"?><svg xmlns="http://www.w3.org/2000/svg" xmlns:xlink="http://www.w3.org/1999/xlink" contentScriptType="application/ecmascript" contentStyleType="text/css" height="218px" preserveAspectRatio="none" style="width:214px;height:218px;" version="1.1" viewBox="0 0 214 218" width="214px" zoomAndPan="magnify"><defs><filter height="300%" id="f813f1b" width="300%" x="-1" y="-1"><feGaussianBlur result="blurOut" stdDeviation="2.0"/><feColorMatrix in="blurOut" result="blurOut2" type="matrix" values="0 0 0 0 0 0 0 0 0 0 0 0 0 0 0 0 0 0 .4 0"/><feOffset dx="4.0" dy="4.0" in="blurOut2" result="blurOut3"/><feBlend in="SourceGraphic" in2="blurOut3" mode="normal"/></filter></defs><g><!--class PreviousTrackView--><a target="_top" xlink:actuate="onRequest" xlink:href="PreviousTrackView.html" xlink:show="new" xlink:title="PreviousTrackView.html" xlink:type="simple"><rect fill="#FEFECE" filter="url(#f813f1b)" height="201.6563" style="stroke: #A80036; stroke-width: 1.5;" width="199" x="6" y="8"/><ellipse cx="44.4" cy="24" fill="#ADD1B2" rx="11" ry="11" style="stroke: #A80036; stroke-width: 1.0;"/><path d="M47.3688,29.6406 Q46.7906,29.9375 46.15,30.0859 Q45.5094,30.2344 44.8063,30.2344 Q42.3063,30.2344 40.9859,28.5859 Q39.6656,26.9375 39.6656,23.8125 Q39.6656,20.6875 40.9859,19.0313 Q42.3063,17.375 44.8063,17.375 Q45.5094,17.375 46.1578,17.5313 Q46.8063,17.6875 47.3688,17.9844 L47.3688,20.7031 Q46.7438,20.125 46.15,19.8516 Q45.5563,19.5781 44.9313,19.5781 Q43.5875,19.5781 42.9,20.6484 Q42.2125,21.7188 42.2125,23.8125 Q42.2125,25.9063 42.9,26.9766 Q43.5875,28.0469 44.9313,28.0469 Q45.5563,28.0469 46.15,27.7734 Q46.7438,27.5 47.3688,26.9219 L47.3688,29.6406 Z "/><text fill="#000000" font-family="sans-serif" font-size="12" lengthAdjust="spacingAndGlyphs" textLength="115" x="63.6" y="28.1543">PreviousTrackView</text><line style="stroke: #A80036; stroke-width: 1.5;" x1="7" x2="204" y1="40" y2="40"/><ellipse cx="17" cy="51.9023" fill="none" rx="3" ry="3" style="stroke: #038048; stroke-width: 1.0;"/><text fill="#000000" font-family="sans-serif" font-size="11" lengthAdjust="spacingAndGlyphs" text-decoration="underline" textLength="109" x="26" y="54.2104">CSS_CLASS: String</text><line style="stroke: #000000; stroke-width: 1.0;" x1="26" x2="135" y1="56.2104" y2="56.2104"/><rect fill="none" height="6" style="stroke: #C82930; stroke-width: 1.0;" width="6" x="14" y="61.707"/><text fill="#000000" font-family="sans-serif" font-size="11" lengthAdjust="spacingAndGlyphs" text-decoration="underline" textLength="94" x="26" y="67.0151">CSS_FILE: String</text><line style="stroke: #000000; stroke-width: 1.0;" x1="26" x2="120" y1="69.0151" y2="69.0151"/><rect fill="none" height="6" style="stroke: #C82930; stroke-width: 1.0;" width="6" x="14" y="74.5117"/><text fill="#000000" font-family="sans-serif" font-size="11" lengthAdjust="spacingAndGlyphs" text-decoration="underline" textLength="146" x="26" y="79.8198">FAV_EMPTY_IMAGE: String</text><line style="stroke: #000000; stroke-width: 1.0;" x1="26" x2="172" y1="81.8198" y2="81.8198"/><rect fill="none" height="6" style="stroke: #C82930; stroke-width: 1.0;" width="6" x="14" y="87.3164"/><text fill="#000000" font-family="sans-serif" font-size="11" lengthAdjust="spacingAndGlyphs" text-decoration="underline" textLength="135" x="26" y="92.6245">FAV_FULL_IMAGE: String</text><line style="stroke: #000000; stroke-width: 1.0;" x1="26" x2="161" y1="94.6245" y2="94.6245"/><rect fill="none" height="6" style="stroke: #C82930; stroke-width: 1.0;" width="6" x="14" y="100.1211"/><text fill="#000000" font-family="sans-serif" font-size="11" lengthAdjust="spacingAndGlyphs" text-decoration="underline" textLength="98" x="26" y="105.4292">FXML_FILE: String</text><line style="stroke: #000000; stroke-width: 1.0;" x1="26" x2="124" y1="107.4292" y2="107.4292"/><rect fill="none" height="6" style="stroke: #C82930; stroke-width: 1.0;" width="6" x="14" y="112.9258"/><text fill="#000000" font-family="sans-serif" font-size="11" lengthAdjust="spacingAndGlyphs" text-decoration="underline" textLength="78" x="26" y="118.2339">player: Player</text><line style="stroke: #000000; stroke-width: 1.0;" x1="26" x2="104" y1="120.2339" y2="120.2339"/><rect fill="none" height="6" style="stroke: #C82930; stroke-width: 1.0;" width="6" x="14" y="125.7305"/><text fill="#000000" font-family="sans-serif" font-size="11" lengthAdjust="spacingAndGlyphs" textLength="119" x="26" y="131.0386">previousTrack: Track</text><rect fill="none" height="6" style="stroke: #C82930; stroke-width: 1.0;" width="6" x="14" y="138.5352"/><text fill="#000000" font-family="sans-serif" font-size="11" lengthAdjust="spacingAndGlyphs" textLength="103" x="26" y="143.8433">albumLabel: Label</text><rect fill="none" height="6" style="stroke: #C82930; stroke-width: 1.0;" width="6" x="14" y="151.3398"/><text fill="#000000" font-family="sans-serif" font-size="11" lengthAdjust="spacingAndGlyphs" textLength="98" x="26" y="156.6479">artistLabel: Label</text><rect fill="none" height="6" style="stroke: #C82930; stroke-width: 1.0;" width="6" x="14" y="164.1445"/><text fill="#000000" font-family="sans-serif" font-size="11" lengthAdjust="spacingAndGlyphs" textLength="173" x="26" y="169.4526">favoriteImageView: ImageView</text><rect fill="none" height="6" style="stroke: #C82930; stroke-width: 1.0;" width="6" x="14" y="176.9492"/><text fill="#000000" font-family="sans-serif" font-size="11" lengthAdjust="spacingAndGlyphs" textLength="89" x="26" y="182.2573">titleLabel: Label</text><line style="stroke: #A80036; stroke-width: 1.5;" x1="7" x2="204" y1="188.8516" y2="188.8516"/><rect fill="#F24D5C" height="6" style="stroke: #C82930; stroke-width: 1.0;" width="6" x="14" y="197.7539"/><text fill="#000000" font-family="sans-serif" font-size="11" lengthAdjust="spacingAndGlyphs" textLength="150" x="26" y="203.062">favorite(MouseEvent): void</text></a></g></svg>