<?xml version="1.0" encoding="UTF-8" standalone="no"?><svg xmlns="http://www.w3.org/2000/svg" xmlns:xlink="http://www.w3.org/1999/xlink" contentScriptType="application/ecmascript" contentStyleType="text/css" height="180px" preserveAspectRatio="none" style="width:389px;height:180px;" version="1.1" viewBox="0 0 389 180" width="389px" zoomAndPan="magnify"><defs><filter height="300%" id="fu270vm" width="300%" x="-1" y="-1"><feGaussianBlur result="blurOut" stdDeviation="2.0"/><feColorMatrix in="blurOut" result="blurOut2" type="matrix" values="0 0 0 0 0 0 0 0 0 0 0 0 0 0 0 0 0 0 .4 0"/><feOffset dx="4.0" dy="4.0" in="blurOut2" result="blurOut3"/><feBlend in="SourceGraphic" in2="blurOut3" mode="normal"/></filter></defs><g><!--class SettingsView--><a target="_top" xlink:actuate="onRequest" xlink:href="SettingsView.html" xlink:show="new" xlink:title="SettingsView.html" xlink:type="simple"><rect fill="#FEFECE" filter="url(#fu270vm)" height="163.2422" style="stroke: #A80036; stroke-width: 1.5;" width="374" x="6" y="8"/><ellipse cx="148.75" cy="24" fill="#ADD1B2" rx="11" ry="11" style="stroke: #A80036; stroke-width: 1.0;"/><path d="M151.7188,29.6406 Q151.1406,29.9375 150.5,30.0859 Q149.8594,30.2344 149.1563,30.2344 Q146.6563,30.2344 145.3359,28.5859 Q144.0156,26.9375 144.0156,23.8125 Q144.0156,20.6875 145.3359,19.0313 Q146.6563,17.375 149.1563,17.375 Q149.8594,17.375 150.5078,17.5313 Q151.1563,17.6875 151.7188,17.9844 L151.7188,20.7031 Q151.0938,20.125 150.5,19.8516 Q149.9063,19.5781 149.2813,19.5781 Q147.9375,19.5781 147.25,20.6484 Q146.5625,21.7188 146.5625,23.8125 Q146.5625,25.9063 147.25,26.9766 Q147.9375,28.0469 149.2813,28.0469 Q149.9063,28.0469 150.5,27.7734 Q151.0938,27.5 151.7188,26.9219 L151.7188,29.6406 Z "/><text fill="#000000" font-family="sans-serif" font-size="12" lengthAdjust="spacingAndGlyphs" textLength="80" x="169.25" y="28.1543">SettingsView</text><line style="stroke: #A80036; stroke-width: 1.5;" x1="7" x2="379" y1="40" y2="40"/><rect fill="none" height="6" style="stroke: #C82930; stroke-width: 1.0;" width="6" x="14" y="48.9023"/><text fill="#000000" font-family="sans-serif" font-size="11" lengthAdjust="spacingAndGlyphs" text-decoration="underline" textLength="98" x="26" y="54.2104">FXML_FILE: String</text><line style="stroke: #000000; stroke-width: 1.0;" x1="26" x2="124" y1="56.2104" y2="56.2104"/><rect fill="none" height="6" style="stroke: #C82930; stroke-width: 1.0;" width="6" x="14" y="61.707"/><text fill="#000000" font-family="sans-serif" font-size="11" lengthAdjust="spacingAndGlyphs" textLength="348" x="26" y="67.0151">interfacesList: ComboBox&lt;Map.Entry&lt;String, InetAddress&gt;&gt;</text><rect fill="none" height="6" style="stroke: #C82930; stroke-width: 1.0;" width="6" x="14" y="74.5117"/><text fill="#000000" font-family="sans-serif" font-size="11" lengthAdjust="spacingAndGlyphs" textLength="154" x="26" y="79.8198">serverNameField: TextField</text><rect fill="none" height="6" style="stroke: #C82930; stroke-width: 1.0;" width="6" x="14" y="87.3164"/><text fill="#000000" font-family="sans-serif" font-size="11" lengthAdjust="spacingAndGlyphs" textLength="138" x="26" y="92.6245">serverNameLabel: Label</text><rect fill="none" height="6" style="stroke: #C82930; stroke-width: 1.0;" width="6" x="14" y="100.1211"/><text fill="#000000" font-family="sans-serif" font-size="11" lengthAdjust="spacingAndGlyphs" textLength="235" x="26" y="105.4292">serversList: ComboBox&lt;ServerSession&gt;</text><rect fill="none" height="6" style="stroke: #C82930; stroke-width: 1.0;" width="6" x="14" y="112.9258"/><text fill="#000000" font-family="sans-serif" font-size="11" lengthAdjust="spacingAndGlyphs" textLength="132" x="26" y="118.2339">serversListLabel: Label</text><line style="stroke: #A80036; stroke-width: 1.5;" x1="7" x2="379" y1="124.8281" y2="124.8281"/><rect fill="#F24D5C" height="6" style="stroke: #C82930; stroke-width: 1.0;" width="6" x="14" y="133.7305"/><text fill="#000000" font-family="sans-serif" font-size="11" lengthAdjust="spacingAndGlyphs" textLength="161" x="26" y="139.0386">initializeInterfacesList(): void</text><rect fill="#F24D5C" height="6" style="stroke: #C82930; stroke-width: 1.0;" width="6" x="14" y="146.5352"/><text fill="#000000" font-family="sans-serif" font-size="11" lengthAdjust="spacingAndGlyphs" textLength="181" x="26" y="151.8433">initializeServerNameField(): void</text><rect fill="#F24D5C" height="6" style="stroke: #C82930; stroke-width: 1.0;" width="6" x="14" y="159.3398"/><text fill="#000000" font-family="sans-serif" font-size="11" lengthAdjust="spacingAndGlyphs" textLength="149" x="26" y="164.6479">initializeServersList(): void</text></a></g></svg>