<?xml version="1.0" encoding="UTF-8" standalone="no"?><svg xmlns="http://www.w3.org/2000/svg" xmlns:xlink="http://www.w3.org/1999/xlink" contentScriptType="application/ecmascript" contentStyleType="text/css" height="116px" preserveAspectRatio="none" style="width:227px;height:116px;" version="1.1" viewBox="0 0 227 116" width="227px" zoomAndPan="magnify"><defs><filter height="300%" id="fg8mvh5" width="300%" x="-1" y="-1"><feGaussianBlur result="blurOut" stdDeviation="2.0"/><feColorMatrix in="blurOut" result="blurOut2" type="matrix" values="0 0 0 0 0 0 0 0 0 0 0 0 0 0 0 0 0 0 .4 0"/><feOffset dx="4.0" dy="4.0" in="blurOut2" result="blurOut3"/><feBlend in="SourceGraphic" in2="blurOut3" mode="normal"/></filter></defs><g><!--class TracksListView--><a target="_top" xlink:actuate="onRequest" xlink:href="TracksListView.html" xlink:show="new" xlink:title="TracksListView.html" xlink:type="simple"><rect fill="#FEFECE" filter="url(#fg8mvh5)" height="99.2188" style="stroke: #A80036; stroke-width: 1.5;" width="212" x="6" y="8"/><ellipse cx="62.75" cy="24" fill="#ADD1B2" rx="11" ry="11" style="stroke: #A80036; stroke-width: 1.0;"/><path d="M65.7188,29.6406 Q65.1406,29.9375 64.5,30.0859 Q63.8594,30.2344 63.1563,30.2344 Q60.6563,30.2344 59.3359,28.5859 Q58.0156,26.9375 58.0156,23.8125 Q58.0156,20.6875 59.3359,19.0313 Q60.6563,17.375 63.1563,17.375 Q63.8594,17.375 64.5078,17.5313 Q65.1563,17.6875 65.7188,17.9844 L65.7188,20.7031 Q65.0938,20.125 64.5,19.8516 Q63.9063,19.5781 63.2813,19.5781 Q61.9375,19.5781 61.25,20.6484 Q60.5625,21.7188 60.5625,23.8125 Q60.5625,25.9063 61.25,26.9766 Q61.9375,28.0469 63.2813,28.0469 Q63.9063,28.0469 64.5,27.7734 Q65.0938,27.5 65.7188,26.9219 L65.7188,29.6406 Z "/><text fill="#000000" font-family="sans-serif" font-size="12" lengthAdjust="spacingAndGlyphs" textLength="90" x="83.25" y="28.1543">TracksListView</text><line style="stroke: #A80036; stroke-width: 1.5;" x1="7" x2="217" y1="40" y2="40"/><rect fill="none" height="6" style="stroke: #C82930; stroke-width: 1.0;" width="6" x="14" y="48.9023"/><text fill="#000000" font-family="sans-serif" font-size="11" lengthAdjust="spacingAndGlyphs" text-decoration="underline" textLength="71" x="26" y="54.2104">LOG: Logger</text><line style="stroke: #000000; stroke-width: 1.0;" x1="26" x2="97" y1="56.2104" y2="56.2104"/><rect fill="none" height="6" style="stroke: #C82930; stroke-width: 1.0;" width="6" x="14" y="61.707"/><text fill="#000000" font-family="sans-serif" font-size="11" lengthAdjust="spacingAndGlyphs" text-decoration="underline" textLength="186" x="26" y="67.0151">playlistManager: PlaylistManager</text><line style="stroke: #000000; stroke-width: 1.0;" x1="26" x2="212" y1="69.0151" y2="69.0151"/><line style="stroke: #A80036; stroke-width: 1.5;" x1="7" x2="217" y1="73.6094" y2="73.6094"/><ellipse cx="17" cy="85.5117" fill="#84BE84" rx="3" ry="3" style="stroke: #038048; stroke-width: 1.0;"/><text fill="#000000" font-family="sans-serif" font-size="11" lengthAdjust="spacingAndGlyphs" textLength="152" x="26" y="87.8198">showPlaylist(IPlaylist): void</text><rect fill="#F24D5C" height="6" style="stroke: #C82930; stroke-width: 1.0;" width="6" x="14" y="95.3164"/><text fill="#000000" font-family="sans-serif" font-size="11" lengthAdjust="spacingAndGlyphs" textLength="159" x="26" y="100.6245">initializeDragAndDrop(): void</text></a></g></svg>