<?xml version="1.0" encoding="UTF-8" standalone="no"?><svg xmlns="http://www.w3.org/2000/svg" xmlns:xlink="http://www.w3.org/1999/xlink" contentScriptType="application/ecmascript" contentStyleType="text/css" height="257px" preserveAspectRatio="none" style="width:303px;height:257px;" version="1.1" viewBox="0 0 303 257" width="303px" zoomAndPan="magnify"><defs><filter height="300%" id="fmmnivl" width="300%" x="-1" y="-1"><feGaussianBlur result="blurOut" stdDeviation="2.0"/><feColorMatrix in="blurOut" result="blurOut2" type="matrix" values="0 0 0 0 0 0 0 0 0 0 0 0 0 0 0 0 0 0 .4 0"/><feOffset dx="4.0" dy="4.0" in="blurOut2" result="blurOut3"/><feBlend in="SourceGraphic" in2="blurOut3" mode="normal"/></filter></defs><g><!--class UIController--><a target="_top" xlink:actuate="onRequest" xlink:href="UIController.html" xlink:show="new" xlink:title="UIController.html" xlink:type="simple"><rect fill="#FEFECE" filter="url(#fmmnivl)" height="240.0703" style="stroke: #A80036; stroke-width: 1.5;" width="288" x="6" y="8"/><ellipse cx="109.25" cy="24" fill="#ADD1B2" rx="11" ry="11" style="stroke: #A80036; stroke-width: 1.0;"/><path d="M112.2188,29.6406 Q111.6406,29.9375 111,30.0859 Q110.3594,30.2344 109.6563,30.2344 Q107.1563,30.2344 105.8359,28.5859 Q104.5156,26.9375 104.5156,23.8125 Q104.5156,20.6875 105.8359,19.0313 Q107.1563,17.375 109.6563,17.375 Q110.3594,17.375 111.0078,17.5313 Q111.6563,17.6875 112.2188,17.9844 L112.2188,20.7031 Q111.5938,20.125 111,19.8516 Q110.4063,19.5781 109.7813,19.5781 Q108.4375,19.5781 107.75,20.6484 Q107.0625,21.7188 107.0625,23.8125 Q107.0625,25.9063 107.75,26.9766 Q108.4375,28.0469 109.7813,28.0469 Q110.4063,28.0469 111,27.7734 Q111.5938,27.5 112.2188,26.9219 L112.2188,29.6406 Z "/><text fill="#000000" font-family="sans-serif" font-size="12" lengthAdjust="spacingAndGlyphs" textLength="73" x="129.75" y="28.1543">UIController</text><line style="stroke: #A80036; stroke-width: 1.5;" x1="7" x2="293" y1="40" y2="40"/><rect fill="none" height="6" style="stroke: #C82930; stroke-width: 1.0;" width="6" x="14" y="48.9023"/><text fill="#000000" font-family="sans-serif" font-size="11" lengthAdjust="spacingAndGlyphs" text-decoration="underline" textLength="71" x="26" y="54.2104">LOG: Logger</text><line style="stroke: #000000; stroke-width: 1.0;" x1="26" x2="97" y1="56.2104" y2="56.2104"/><rect fill="none" height="6" style="stroke: #C82930; stroke-width: 1.0;" width="6" x="14" y="61.707"/><text fill="#000000" font-family="sans-serif" font-size="11" lengthAdjust="spacingAndGlyphs" text-decoration="underline" textLength="111" x="26" y="67.0151">loader: FXMLLoader</text><line style="stroke: #000000; stroke-width: 1.0;" x1="26" x2="137" y1="69.0151" y2="69.0151"/><rect fill="none" height="6" style="stroke: #C82930; stroke-width: 1.0;" width="6" x="14" y="74.5117"/><text fill="#000000" font-family="sans-serif" font-size="11" lengthAdjust="spacingAndGlyphs" text-decoration="underline" textLength="98" x="26" y="79.8198">FXML_FILE: String</text><line style="stroke: #000000; stroke-width: 1.0;" x1="26" x2="124" y1="81.8198" y2="81.8198"/><rect fill="none" height="6" style="stroke: #C82930; stroke-width: 1.0;" width="6" x="14" y="87.3164"/><text fill="#000000" font-family="sans-serif" font-size="11" lengthAdjust="spacingAndGlyphs" textLength="132" x="26" y="92.6245">currentPlaylist: IPlaylist</text><rect fill="none" height="6" style="stroke: #C82930; stroke-width: 1.0;" width="6" x="14" y="100.1211"/><text fill="#000000" font-family="sans-serif" font-size="11" lengthAdjust="spacingAndGlyphs" textLength="194" x="26" y="105.4292">playlistsListView: PlaylistsListView</text><rect fill="none" height="6" style="stroke: #C82930; stroke-width: 1.0;" width="6" x="14" y="112.9258"/><text fill="#000000" font-family="sans-serif" font-size="11" lengthAdjust="spacingAndGlyphs" textLength="173" x="26" y="118.2339">tracksListView: TracksListView</text><line style="stroke: #A80036; stroke-width: 1.5;" x1="7" x2="293" y1="124.8281" y2="124.8281"/><ellipse cx="17" cy="136.7305" fill="#84BE84" rx="3" ry="3" style="stroke: #038048; stroke-width: 1.0;"/><text fill="#000000" font-family="sans-serif" font-size="11" lengthAdjust="spacingAndGlyphs" text-decoration="underline" textLength="157" x="26" y="139.0386">getController(): UIController</text><line style="stroke: #000000; stroke-width: 1.0;" x1="26" x2="183" y1="141.0386" y2="141.0386"/><ellipse cx="17" cy="149.5352" fill="#84BE84" rx="3" ry="3" style="stroke: #038048; stroke-width: 1.0;"/><text fill="#000000" font-family="sans-serif" font-size="11" lengthAdjust="spacingAndGlyphs" textLength="152" x="26" y="151.8433">showPlaylist(IPlaylist): void</text><ellipse cx="17" cy="162.3398" fill="#84BE84" rx="3" ry="3" style="stroke: #038048; stroke-width: 1.0;"/><text fill="#000000" font-family="sans-serif" font-size="11" lengthAdjust="spacingAndGlyphs" textLength="121" x="26" y="164.6479">refreshPlaylist(): void</text><ellipse cx="17" cy="175.1445" fill="#84BE84" rx="3" ry="3" style="stroke: #038048; stroke-width: 1.0;"/><text fill="#000000" font-family="sans-serif" font-size="11" lengthAdjust="spacingAndGlyphs" textLength="148" x="26" y="177.4526">refreshPlaylistsList(): void</text><ellipse cx="17" cy="187.9492" fill="#84BE84" rx="3" ry="3" style="stroke: #038048; stroke-width: 1.0;"/><text fill="#000000" font-family="sans-serif" font-size="11" lengthAdjust="spacingAndGlyphs" textLength="160" x="26" y="190.2573">getCurrentPlaylist(): IPlaylist</text><ellipse cx="17" cy="200.7539" fill="#84BE84" rx="3" ry="3" style="stroke: #038048; stroke-width: 1.0;"/><text fill="#000000" font-family="sans-serif" font-size="11" lengthAdjust="spacingAndGlyphs" textLength="262" x="26" y="203.062">showAlert(String, String, Alert.AlertType): void</text><ellipse cx="17" cy="213.5586" fill="#84BE84" rx="3" ry="3" style="stroke: #038048; stroke-width: 1.0;"/><text fill="#000000" font-family="sans-serif" font-size="11" lengthAdjust="spacingAndGlyphs" textLength="99" x="26" y="215.8667">start(Stage): void</text><ellipse cx="17" cy="226.3633" fill="#84BE84" rx="3" ry="3" style="stroke: #038048; stroke-width: 1.0;"/><text fill="#000000" font-family="sans-serif" font-size="11" lengthAdjust="spacingAndGlyphs" textLength="205" x="26" y="228.6714">initialize(URL, ResourceBundle): void</text><ellipse cx="17" cy="239.168" fill="#84BE84" rx="3" ry="3" style="stroke: #038048; stroke-width: 1.0;"/><text fill="#000000" font-family="sans-serif" font-size="11" lengthAdjust="spacingAndGlyphs" textLength="64" x="26" y="241.4761">stop(): void</text></a></g></svg>