<?xml version="1.0" encoding="UTF-8" standalone="no"?><svg xmlns="http://www.w3.org/2000/svg" xmlns:xlink="http://www.w3.org/1999/xlink" contentScriptType="application/ecmascript" contentStyleType="text/css" height="141px" preserveAspectRatio="none" style="width:199px;height:141px;" version="1.1" viewBox="0 0 199 141" width="199px" zoomAndPan="magnify"><defs><filter height="300%" id="fod7zfc" width="300%" x="-1" y="-1"><feGaussianBlur result="blurOut" stdDeviation="2.0"/><feColorMatrix in="blurOut" result="blurOut2" type="matrix" values="0 0 0 0 0 0 0 0 0 0 0 0 0 0 0 0 0 0 .4 0"/><feOffset dx="4.0" dy="4.0" in="blurOut2" result="blurOut3"/><feBlend in="SourceGraphic" in2="blurOut3" mode="normal"/></filter></defs><g><!--class Configuration--><a target="_top" xlink:actuate="onRequest" xlink:href="Configuration.html" xlink:show="new" xlink:title="Configuration.html" xlink:type="simple"><rect fill="#FEFECE" filter="url(#fod7zfc)" height="124.8281" style="stroke: #A80036; stroke-width: 1.5;" width="184" x="6" y="8"/><ellipse cx="51.75" cy="24" fill="#ADD1B2" rx="11" ry="11" style="stroke: #A80036; stroke-width: 1.0;"/><path d="M54.7188,29.6406 Q54.1406,29.9375 53.5,30.0859 Q52.8594,30.2344 52.1563,30.2344 Q49.6563,30.2344 48.3359,28.5859 Q47.0156,26.9375 47.0156,23.8125 Q47.0156,20.6875 48.3359,19.0313 Q49.6563,17.375 52.1563,17.375 Q52.8594,17.375 53.5078,17.5313 Q54.1563,17.6875 54.7188,17.9844 L54.7188,20.7031 Q54.0938,20.125 53.5,19.8516 Q52.9063,19.5781 52.2813,19.5781 Q50.9375,19.5781 50.25,20.6484 Q49.5625,21.7188 49.5625,23.8125 Q49.5625,25.9063 50.25,26.9766 Q50.9375,28.0469 52.2813,28.0469 Q52.9063,28.0469 53.5,27.7734 Q54.0938,27.5 54.7188,26.9219 L54.7188,29.6406 Z "/><text fill="#000000" font-family="sans-serif" font-size="12" lengthAdjust="spacingAndGlyphs" textLength="84" x="72.25" y="28.1543">Configuration</text><line style="stroke: #A80036; stroke-width: 1.5;" x1="7" x2="189" y1="40" y2="40"/><rect fill="none" height="6" style="stroke: #C82930; stroke-width: 1.0;" width="6" x="14" y="48.9023"/><text fill="#000000" font-family="sans-serif" font-size="11" lengthAdjust="spacingAndGlyphs" text-decoration="underline" textLength="71" x="26" y="54.2104">LOG: Logger</text><line style="stroke: #000000; stroke-width: 1.0;" x1="26" x2="97" y1="56.2104" y2="56.2104"/><rect fill="none" height="6" style="stroke: #C82930; stroke-width: 1.0;" width="6" x="14" y="61.707"/><text fill="#000000" font-family="sans-serif" font-size="11" lengthAdjust="spacingAndGlyphs" text-decoration="underline" textLength="113" x="26" y="67.0151">CONFIG_FILE: String</text><line style="stroke: #000000; stroke-width: 1.0;" x1="26" x2="139" y1="69.0151" y2="69.0151"/><rect fill="none" height="6" style="stroke: #C82930; stroke-width: 1.0;" width="6" x="14" y="74.5117"/><text fill="#000000" font-family="sans-serif" font-size="11" lengthAdjust="spacingAndGlyphs" text-decoration="underline" textLength="132" x="26" y="79.8198">instance: Configuration</text><line style="stroke: #000000; stroke-width: 1.0;" x1="26" x2="158" y1="81.8198" y2="81.8198"/><rect fill="none" height="6" style="stroke: #C82930; stroke-width: 1.0;" width="6" x="14" y="87.3164"/><text fill="#000000" font-family="sans-serif" font-size="11" lengthAdjust="spacingAndGlyphs" textLength="141" x="26" y="92.6245">configuration: Properties</text><line style="stroke: #A80036; stroke-width: 1.5;" x1="7" x2="189" y1="99.2188" y2="99.2188"/><ellipse cx="17" cy="111.1211" fill="#84BE84" rx="3" ry="3" style="stroke: #038048; stroke-width: 1.0;"/><text fill="#000000" font-family="sans-serif" font-size="11" lengthAdjust="spacingAndGlyphs" text-decoration="underline" textLength="158" x="26" y="113.4292">getInstance(): Configuration</text><line style="stroke: #000000; stroke-width: 1.0;" x1="26" x2="184" y1="115.4292" y2="115.4292"/><ellipse cx="17" cy="123.9258" fill="#84BE84" rx="3" ry="3" style="stroke: #038048; stroke-width: 1.0;"/><text fill="#000000" font-family="sans-serif" font-size="11" lengthAdjust="spacingAndGlyphs" textLength="102" x="26" y="126.2339">get(String): String</text></a></g></svg>