<?xml version="1.0" encoding="UTF-8" standalone="no"?><svg xmlns="http://www.w3.org/2000/svg" xmlns:xlink="http://www.w3.org/1999/xlink" contentScriptType="application/ecmascript" contentStyleType="text/css" height="103px" preserveAspectRatio="none" style="width:482px;height:103px;" version="1.1" viewBox="0 0 482 103" width="482px" zoomAndPan="magnify"><defs><filter height="300%" id="fsw2key" width="300%" x="-1" y="-1"><feGaussianBlur result="blurOut" stdDeviation="2.0"/><feColorMatrix in="blurOut" result="blurOut2" type="matrix" values="0 0 0 0 0 0 0 0 0 0 0 0 0 0 0 0 0 0 .4 0"/><feOffset dx="4.0" dy="4.0" in="blurOut2" result="blurOut3"/><feBlend in="SourceGraphic" in2="blurOut3" mode="normal"/></filter></defs><g><!--class EphemeralPlaylistSerializer--><a target="_top" xlink:actuate="onRequest" xlink:href="EphemeralPlaylistSerializer.html" xlink:show="new" xlink:title="EphemeralPlaylistSerializer.html" xlink:type="simple"><rect fill="#FEFECE" filter="url(#fsw2key)" height="86.4141" style="stroke: #A80036; stroke-width: 1.5;" width="467" x="6" y="8"/><ellipse cx="152.25" cy="24" fill="#ADD1B2" rx="11" ry="11" style="stroke: #A80036; stroke-width: 1.0;"/><path d="M155.2188,29.6406 Q154.6406,29.9375 154,30.0859 Q153.3594,30.2344 152.6563,30.2344 Q150.1563,30.2344 148.8359,28.5859 Q147.5156,26.9375 147.5156,23.8125 Q147.5156,20.6875 148.8359,19.0313 Q150.1563,17.375 152.6563,17.375 Q153.3594,17.375 154.0078,17.5313 Q154.6563,17.6875 155.2188,17.9844 L155.2188,20.7031 Q154.5938,20.125 154,19.8516 Q153.4063,19.5781 152.7813,19.5781 Q151.4375,19.5781 150.75,20.6484 Q150.0625,21.7188 150.0625,23.8125 Q150.0625,25.9063 150.75,26.9766 Q151.4375,28.0469 152.7813,28.0469 Q153.4063,28.0469 154,27.7734 Q154.5938,27.5 155.2188,26.9219 L155.2188,29.6406 Z "/><text fill="#000000" font-family="sans-serif" font-size="12" lengthAdjust="spacingAndGlyphs" textLength="166" x="172.75" y="28.1543">EphemeralPlaylistSerializer</text><line style="stroke: #A80036; stroke-width: 1.5;" x1="7" x2="472" y1="40" y2="40"/><rect fill="none" height="6" style="stroke: #C82930; stroke-width: 1.0;" width="6" x="14" y="48.9023"/><text fill="#000000" font-family="sans-serif" font-size="11" lengthAdjust="spacingAndGlyphs" text-decoration="underline" textLength="71" x="26" y="54.2104">LOG: Logger</text><line style="stroke: #000000; stroke-width: 1.0;" x1="26" x2="97" y1="56.2104" y2="56.2104"/><line style="stroke: #A80036; stroke-width: 1.5;" x1="7" x2="472" y1="60.8047" y2="60.8047"/><ellipse cx="17" cy="72.707" fill="#84BE84" rx="3" ry="3" style="stroke: #038048; stroke-width: 1.0;"/><text fill="#000000" font-family="sans-serif" font-size="11" lengthAdjust="spacingAndGlyphs" textLength="441" x="26" y="75.0151">deserialize(JsonElement, Type, JsonDeserializationContext): EphemeralPlaylist</text><ellipse cx="17" cy="85.5117" fill="#84BE84" rx="3" ry="3" style="stroke: #038048; stroke-width: 1.0;"/><text fill="#000000" font-family="sans-serif" font-size="11" lengthAdjust="spacingAndGlyphs" textLength="413" x="26" y="87.8198">serialize(EphemeralPlaylist, Type, JsonSerializationContext): JsonElement</text></a></g></svg>