<?xml version="1.0" encoding="UTF-8" standalone="no"?><svg xmlns="http://www.w3.org/2000/svg" xmlns:xlink="http://www.w3.org/1999/xlink" contentScriptType="application/ecmascript" contentStyleType="text/css" height="180px" preserveAspectRatio="none" style="width:231px;height:180px;" version="1.1" viewBox="0 0 231 180" width="231px" zoomAndPan="magnify"><defs><filter height="300%" id="fv2n72a" width="300%" x="-1" y="-1"><feGaussianBlur result="blurOut" stdDeviation="2.0"/><feColorMatrix in="blurOut" result="blurOut2" type="matrix" values="0 0 0 0 0 0 0 0 0 0 0 0 0 0 0 0 0 0 .4 0"/><feOffset dx="4.0" dy="4.0" in="blurOut2" result="blurOut3"/><feBlend in="SourceGraphic" in2="blurOut3" mode="normal"/></filter></defs><g><!--class Logger--><a target="_top" xlink:actuate="onRequest" xlink:href="Logger.html" xlink:show="new" xlink:title="Logger.html" xlink:type="simple"><rect fill="#FEFECE" filter="url(#fv2n72a)" height="163.2422" style="stroke: #A80036; stroke-width: 1.5;" width="216" x="6" y="8"/><ellipse cx="88.25" cy="24" fill="#ADD1B2" rx="11" ry="11" style="stroke: #A80036; stroke-width: 1.0;"/><path d="M91.2188,29.6406 Q90.6406,29.9375 90,30.0859 Q89.3594,30.2344 88.6563,30.2344 Q86.1563,30.2344 84.8359,28.5859 Q83.5156,26.9375 83.5156,23.8125 Q83.5156,20.6875 84.8359,19.0313 Q86.1563,17.375 88.6563,17.375 Q89.3594,17.375 90.0078,17.5313 Q90.6563,17.6875 91.2188,17.9844 L91.2188,20.7031 Q90.5938,20.125 90,19.8516 Q89.4063,19.5781 88.7813,19.5781 Q87.4375,19.5781 86.75,20.6484 Q86.0625,21.7188 86.0625,23.8125 Q86.0625,25.9063 86.75,26.9766 Q87.4375,28.0469 88.7813,28.0469 Q89.4063,28.0469 90,27.7734 Q90.5938,27.5 91.2188,26.9219 L91.2188,29.6406 Z "/><text fill="#000000" font-family="sans-serif" font-size="12" lengthAdjust="spacingAndGlyphs" textLength="43" x="108.75" y="28.1543">Logger</text><line style="stroke: #A80036; stroke-width: 1.5;" x1="7" x2="221" y1="40" y2="40"/><rect fill="none" height="6" style="stroke: #C82930; stroke-width: 1.0;" width="6" x="14" y="48.9023"/><text fill="#000000" font-family="sans-serif" font-size="11" lengthAdjust="spacingAndGlyphs" text-decoration="underline" textLength="93" x="26" y="54.2104">DEBUG: boolean</text><line style="stroke: #000000; stroke-width: 1.0;" x1="26" x2="119" y1="56.2104" y2="56.2104"/><rect fill="none" height="6" style="stroke: #C82930; stroke-width: 1.0;" width="6" x="14" y="61.707"/><text fill="#000000" font-family="sans-serif" font-size="11" lengthAdjust="spacingAndGlyphs" textLength="105" x="26" y="67.0151">className: String</text><line style="stroke: #A80036; stroke-width: 1.5;" x1="7" x2="221" y1="73.6094" y2="73.6094"/><ellipse cx="17" cy="85.5117" fill="#84BE84" rx="3" ry="3" style="stroke: #038048; stroke-width: 1.0;"/><text fill="#000000" font-family="sans-serif" font-size="11" lengthAdjust="spacingAndGlyphs" textLength="81" x="26" y="87.8198">Logger(String)</text><rect fill="#F24D5C" height="6" style="stroke: #C82930; stroke-width: 1.0;" width="6" x="14" y="95.3164"/><text fill="#000000" font-family="sans-serif" font-size="11" lengthAdjust="spacingAndGlyphs" textLength="170" x="26" y="100.6245">log(Logger.Level, String): void</text><rect fill="#F24D5C" height="6" style="stroke: #C82930; stroke-width: 1.0;" width="6" x="14" y="108.1211"/><text fill="#000000" font-family="sans-serif" font-size="11" lengthAdjust="spacingAndGlyphs" textLength="190" x="26" y="113.4292">log(Logger.Level, Exception): void</text><ellipse cx="17" cy="123.9258" fill="#84BE84" rx="3" ry="3" style="stroke: #038048; stroke-width: 1.0;"/><text fill="#000000" font-family="sans-serif" font-size="11" lengthAdjust="spacingAndGlyphs" textLength="94" x="26" y="126.2339">info(String): void</text><ellipse cx="17" cy="136.7305" fill="#84BE84" rx="3" ry="3" style="stroke: #038048; stroke-width: 1.0;"/><text fill="#000000" font-family="sans-serif" font-size="11" lengthAdjust="spacingAndGlyphs" textLength="118" x="26" y="139.0386">warning(String): void</text><ellipse cx="17" cy="149.5352" fill="#84BE84" rx="3" ry="3" style="stroke: #038048; stroke-width: 1.0;"/><text fill="#000000" font-family="sans-serif" font-size="11" lengthAdjust="spacingAndGlyphs" textLength="102" x="26" y="151.8433">error(String): void</text><ellipse cx="17" cy="162.3398" fill="#84BE84" rx="3" ry="3" style="stroke: #038048; stroke-width: 1.0;"/><text fill="#000000" font-family="sans-serif" font-size="11" lengthAdjust="spacingAndGlyphs" textLength="122" x="26" y="164.6479">error(Exception): void</text></a></g></svg>