<?xml version="1.0" encoding="UTF-8" standalone="no"?><svg xmlns="http://www.w3.org/2000/svg" xmlns:xlink="http://www.w3.org/1999/xlink" contentScriptType="application/ecmascript" contentStyleType="text/css" height="220px" preserveAspectRatio="none" style="width:223px;height:220px;" version="1.1" viewBox="0 0 223 220" width="223px" zoomAndPan="magnify"><defs><filter height="300%" id="fhtqrsy" width="300%" x="-1" y="-1"><feGaussianBlur result="blurOut" stdDeviation="2.0"/><feColorMatrix in="blurOut" result="blurOut2" type="matrix" values="0 0 0 0 0 0 0 0 0 0 0 0 0 0 0 0 0 0 .4 0"/><feOffset dx="4.0" dy="4.0" in="blurOut2" result="blurOut3"/><feBlend in="SourceGraphic" in2="blurOut3" mode="normal"/></filter></defs><g><!--cluster Logger--><polygon fill="#FFFFFF" filter="url(#fhtqrsy)" points="22,24,84,24,91,46.2969,216,46.2969,216,213,22,213,22,24" style="stroke: #000000; stroke-width: 2.0;"/><line style="stroke: #000000; stroke-width: 2.0;" x1="22" x2="91" y1="46.2969" y2="46.2969"/><text fill="#000000" font-family="sans-serif" font-size="14" font-weight="bold" lengthAdjust="spacingAndGlyphs" textLength="56" x="26" y="38.9951">Logger</text><!--class Logger.Level--><a target="_top" xlink:actuate="onRequest" xlink:href="Logger.Level.html" xlink:show="new" xlink:title="Logger.Level.html" xlink:type="simple"><rect fill="#FEFECE" filter="url(#fhtqrsy)" height="137.6328" style="stroke: #A80036; stroke-width: 1.5;" width="162" x="38" y="59"/><ellipse cx="99.25" cy="75" fill="#EB937F" rx="11" ry="11" style="stroke: #A80036; stroke-width: 1.0;"/><path d="M103.3594,81 L95.6406,81 L95.6406,68.6094 L103.3594,68.6094 L103.3594,70.7656 L98.0938,70.7656 L98.0938,73.4375 L102.8594,73.4375 L102.8594,75.5938 L98.0938,75.5938 L98.0938,78.8438 L103.3594,78.8438 L103.3594,81 Z "/><text fill="#000000" font-family="sans-serif" font-size="12" lengthAdjust="spacingAndGlyphs" textLength="31" x="119.75" y="79.1543">Level</text><line style="stroke: #A80036; stroke-width: 1.5;" x1="39" x2="199" y1="91" y2="91"/><ellipse cx="49" cy="102.9023" fill="none" rx="3" ry="3" style="stroke: #038048; stroke-width: 1.0;"/><text fill="#000000" font-family="sans-serif" font-size="11" lengthAdjust="spacingAndGlyphs" text-decoration="underline" textLength="26" x="58" y="105.2104">INFO</text><line style="stroke: #000000; stroke-width: 1.0;" x1="58" x2="84" y1="107.2104" y2="107.2104"/><ellipse cx="49" cy="115.707" fill="none" rx="3" ry="3" style="stroke: #038048; stroke-width: 1.0;"/><text fill="#000000" font-family="sans-serif" font-size="11" lengthAdjust="spacingAndGlyphs" text-decoration="underline" textLength="43" x="58" y="118.0151">SEVERE</text><line style="stroke: #000000; stroke-width: 1.0;" x1="58" x2="101" y1="120.0151" y2="120.0151"/><ellipse cx="49" cy="128.5117" fill="none" rx="3" ry="3" style="stroke: #038048; stroke-width: 1.0;"/><text fill="#000000" font-family="sans-serif" font-size="11" lengthAdjust="spacingAndGlyphs" text-decoration="underline" textLength="55" x="58" y="130.8198">SUCCESS</text><line style="stroke: #000000; stroke-width: 1.0;" x1="58" x2="113" y1="132.8198" y2="132.8198"/><ellipse cx="49" cy="141.3164" fill="none" rx="3" ry="3" style="stroke: #038048; stroke-width: 1.0;"/><text fill="#000000" font-family="sans-serif" font-size="11" lengthAdjust="spacingAndGlyphs" text-decoration="underline" textLength="51" x="58" y="143.6245">WARNING</text><line style="stroke: #000000; stroke-width: 1.0;" x1="58" x2="109" y1="145.6245" y2="145.6245"/><polygon fill="none" points="49,150.1211,45,156.1211,53,156.1211" style="stroke: #1963A0; stroke-width: 1.0;"/><text fill="#000000" font-family="sans-serif" font-size="11" lengthAdjust="spacingAndGlyphs" textLength="135" x="58" y="156.4292">color: Logger.ANSIColor</text><line style="stroke: #A80036; stroke-width: 1.5;" x1="39" x2="199" y1="163.0234" y2="163.0234"/><rect fill="#F24D5C" height="6" style="stroke: #C82930; stroke-width: 1.0;" width="6" x="46" y="171.9258"/><text fill="#000000" font-family="sans-serif" font-size="11" lengthAdjust="spacingAndGlyphs" textLength="136" x="58" y="177.2339">Level(Logger.ANSIColor)</text><ellipse cx="49" cy="187.7305" fill="#84BE84" rx="3" ry="3" style="stroke: #038048; stroke-width: 1.0;"/><text fill="#000000" font-family="sans-serif" font-size="11" lengthAdjust="spacingAndGlyphs" textLength="95" x="58" y="190.0386">toString(): String</text></a></g></svg>