<?xml version="1.0" encoding="UTF-8" standalone="no"?><svg xmlns="http://www.w3.org/2000/svg" xmlns:xlink="http://www.w3.org/1999/xlink" contentScriptType="application/ecmascript" contentStyleType="text/css" height="129px" preserveAspectRatio="none" style="width:389px;height:129px;" version="1.1" viewBox="0 0 389 129" width="389px" zoomAndPan="magnify"><defs><filter height="300%" id="f6ydc8u" width="300%" x="-1" y="-1"><feGaussianBlur result="blurOut" stdDeviation="2.0"/><feColorMatrix in="blurOut" result="blurOut2" type="matrix" values="0 0 0 0 0 0 0 0 0 0 0 0 0 0 0 0 0 0 .4 0"/><feOffset dx="4.0" dy="4.0" in="blurOut2" result="blurOut3"/><feBlend in="SourceGraphic" in2="blurOut3" mode="normal"/></filter></defs><g><!--class Network--><a target="_top" xlink:actuate="onRequest" xlink:href="Network.html" xlink:show="new" xlink:title="Network.html" xlink:type="simple"><rect fill="#FEFECE" filter="url(#f6ydc8u)" height="112.0234" style="stroke: #A80036; stroke-width: 1.5;" width="374" x="6" y="8"/><ellipse cx="163.25" cy="24" fill="#ADD1B2" rx="11" ry="11" style="stroke: #A80036; stroke-width: 1.0;"/><path d="M166.2188,29.6406 Q165.6406,29.9375 165,30.0859 Q164.3594,30.2344 163.6563,30.2344 Q161.1563,30.2344 159.8359,28.5859 Q158.5156,26.9375 158.5156,23.8125 Q158.5156,20.6875 159.8359,19.0313 Q161.1563,17.375 163.6563,17.375 Q164.3594,17.375 165.0078,17.5313 Q165.6563,17.6875 166.2188,17.9844 L166.2188,20.7031 Q165.5938,20.125 165,19.8516 Q164.4063,19.5781 163.7813,19.5781 Q162.4375,19.5781 161.75,20.6484 Q161.0625,21.7188 161.0625,23.8125 Q161.0625,25.9063 161.75,26.9766 Q162.4375,28.0469 163.7813,28.0469 Q164.4063,28.0469 165,27.7734 Q165.5938,27.5 166.2188,26.9219 L166.2188,29.6406 Z "/><text fill="#000000" font-family="sans-serif" font-size="12" lengthAdjust="spacingAndGlyphs" textLength="51" x="183.75" y="28.1543">Network</text><line style="stroke: #A80036; stroke-width: 1.5;" x1="7" x2="379" y1="40" y2="40"/><line style="stroke: #A80036; stroke-width: 1.5;" x1="7" x2="379" y1="48" y2="48"/><ellipse cx="17" cy="59.9023" fill="#84BE84" rx="3" ry="3" style="stroke: #038048; stroke-width: 1.0;"/><text fill="#000000" font-family="sans-serif" font-size="11" lengthAdjust="spacingAndGlyphs" text-decoration="underline" textLength="138" x="26" y="62.2104">configureNetwork(): void</text><line style="stroke: #000000; stroke-width: 1.0;" x1="26" x2="164" y1="64.2104" y2="64.2104"/><ellipse cx="17" cy="72.707" fill="#84BE84" rx="3" ry="3" style="stroke: #038048; stroke-width: 1.0;"/><text fill="#000000" font-family="sans-serif" font-size="11" lengthAdjust="spacingAndGlyphs" text-decoration="underline" textLength="203" x="26" y="75.0151">getMacAddress(InetAddress): byte[]</text><line style="stroke: #000000; stroke-width: 1.0;" x1="26" x2="229" y1="77.0151" y2="77.0151"/><ellipse cx="17" cy="85.5117" fill="#84BE84" rx="3" ry="3" style="stroke: #038048; stroke-width: 1.0;"/><text fill="#000000" font-family="sans-serif" font-size="11" lengthAdjust="spacingAndGlyphs" text-decoration="underline" textLength="301" x="26" y="87.8198">getNetworkInterfaces(): ArrayList&lt;NetworkInterface&gt;</text><line style="stroke: #000000; stroke-width: 1.0;" x1="26" x2="327" y1="89.8198" y2="89.8198"/><ellipse cx="17" cy="98.3164" fill="#84BE84" rx="3" ry="3" style="stroke: #038048; stroke-width: 1.0;"/><text fill="#000000" font-family="sans-serif" font-size="11" lengthAdjust="spacingAndGlyphs" text-decoration="underline" textLength="291" x="26" y="100.6245">getIPv4Interfaces(): TreeMap&lt;String, InetAddress&gt;</text><line style="stroke: #000000; stroke-width: 1.0;" x1="26" x2="317" y1="102.6245" y2="102.6245"/><ellipse cx="17" cy="111.1211" fill="#84BE84" rx="3" ry="3" style="stroke: #038048; stroke-width: 1.0;"/><text fill="#000000" font-family="sans-serif" font-size="11" lengthAdjust="spacingAndGlyphs" text-decoration="underline" textLength="348" x="26" y="113.4292">getInetAddresses(NetworkInterface): ArrayList&lt;InetAddress&gt;</text><line style="stroke: #000000; stroke-width: 1.0;" x1="26" x2="374" y1="115.4292" y2="115.4292"/></a></g></svg>