<?xml version="1.0" encoding="UTF-8" standalone="no"?><svg xmlns="http://www.w3.org/2000/svg" xmlns:xlink="http://www.w3.org/1999/xlink" contentScriptType="application/ecmascript" contentStyleType="text/css" height="605px" preserveAspectRatio="none" style="width:2215px;height:605px;" version="1.1" viewBox="0 0 2215 605" width="2215px" zoomAndPan="magnify"><defs><filter height="300%" id="fgsvlvz" width="300%" x="-1" y="-1"><feGaussianBlur result="blurOut" stdDeviation="2.0"/><feColorMatrix in="blurOut" result="blurOut2" type="matrix" values="0 0 0 0 0 0 0 0 0 0 0 0 0 0 0 0 0 0 .4 0"/><feOffset dx="4.0" dy="4.0" in="blurOut2" result="blurOut3"/><feBlend in="SourceGraphic" in2="blurOut3" mode="normal"/></filter></defs><g><!--cluster ch.tofind.commusica.utils--><polygon fill="#FFFFFF" filter="url(#fgsvlvz)" points="329,160,536,160,543,182.2969,2208,182.2969,2208,598,329,598,329,160" style="stroke: #000000; stroke-width: 2.0;"/><line style="stroke: #000000; stroke-width: 2.0;" x1="329" x2="543" y1="182.2969" y2="182.2969"/><text fill="#000000" font-family="sans-serif" font-size="14" font-weight="bold" lengthAdjust="spacingAndGlyphs" textLength="201" x="333" y="174.9951">ch.tofind.commusica.utils</text><!--cluster com.google.gson--><polygon fill="#FFFFFF" filter="url(#fgsvlvz)" points="22,24,164,24,171,46.2969,807,46.2969,807,136,22,136,22,24" style="stroke: #000000; stroke-width: 2.0;"/><line style="stroke: #000000; stroke-width: 2.0;" x1="22" x2="171" y1="46.2969" y2="46.2969"/><text fill="#000000" font-family="sans-serif" font-size="14" font-weight="bold" lengthAdjust="spacingAndGlyphs" textLength="136" x="26" y="38.9951">com.google.gson</text><!--cluster javafx.collections--><polygon fill="#FFFFFF" filter="url(#fgsvlvz)" points="871,30.5,1013,30.5,1020,52.7969,1067,52.7969,1067,129.5,871,129.5,871,30.5" style="stroke: #000000; stroke-width: 2.0;"/><line style="stroke: #000000; stroke-width: 2.0;" x1="871" x2="1020" y1="52.7969" y2="52.7969"/><text fill="#000000" font-family="sans-serif" font-size="14" font-weight="bold" lengthAdjust="spacingAndGlyphs" textLength="136" x="875" y="45.4951">javafx.collections</text><!--cluster javafx.beans.property--><polygon fill="#FFFFFF" filter="url(#fgsvlvz)" points="1107,30.5,1286,30.5,1293,52.7969,1305,52.7969,1305,129.5,1107,129.5,1107,30.5" style="stroke: #000000; stroke-width: 2.0;"/><line style="stroke: #000000; stroke-width: 2.0;" x1="1107" x2="1293" y1="52.7969" y2="52.7969"/><text fill="#000000" font-family="sans-serif" font-size="14" font-weight="bold" lengthAdjust="spacingAndGlyphs" textLength="173" x="1111" y="45.4951">javafx.beans.property</text><!--class ch.tofind.commusica.utils.Network--><a target="_top" xlink:actuate="onRequest" xlink:href="Network.html" xlink:show="new" xlink:title="Network.html" xlink:type="simple"><rect fill="#FEFECE" filter="url(#fgsvlvz)" height="112.0234" style="stroke: #A80036; stroke-width: 1.5;" width="374" x="1573" y="233.5"/><ellipse cx="1730.25" cy="249.5" fill="#ADD1B2" rx="11" ry="11" style="stroke: #A80036; stroke-width: 1.0;"/><path d="M1733.2188,255.1406 Q1732.6406,255.4375 1732,255.5859 Q1731.3594,255.7344 1730.6563,255.7344 Q1728.1563,255.7344 1726.8359,254.0859 Q1725.5156,252.4375 1725.5156,249.3125 Q1725.5156,246.1875 1726.8359,244.5313 Q1728.1563,242.875 1730.6563,242.875 Q1731.3594,242.875 1732.0078,243.0313 Q1732.6563,243.1875 1733.2188,243.4844 L1733.2188,246.2031 Q1732.5938,245.625 1732,245.3516 Q1731.4063,245.0781 1730.7813,245.0781 Q1729.4375,245.0781 1728.75,246.1484 Q1728.0625,247.2188 1728.0625,249.3125 Q1728.0625,251.4063 1728.75,252.4766 Q1729.4375,253.5469 1730.7813,253.5469 Q1731.4063,253.5469 1732,253.2734 Q1732.5938,253 1733.2188,252.4219 L1733.2188,255.1406 Z "/><text fill="#000000" font-family="sans-serif" font-size="12" lengthAdjust="spacingAndGlyphs" textLength="51" x="1750.75" y="253.6543">Network</text><line style="stroke: #A80036; stroke-width: 1.5;" x1="1574" x2="1946" y1="265.5" y2="265.5"/><line style="stroke: #A80036; stroke-width: 1.5;" x1="1574" x2="1946" y1="273.5" y2="273.5"/><ellipse cx="1584" cy="285.4023" fill="#84BE84" rx="3" ry="3" style="stroke: #038048; stroke-width: 1.0;"/><text fill="#000000" font-family="sans-serif" font-size="11" lengthAdjust="spacingAndGlyphs" text-decoration="underline" textLength="138" x="1593" y="287.7104">configureNetwork(): void</text><line style="stroke: #000000; stroke-width: 1.0;" x1="1593" x2="1731" y1="289.7104" y2="289.7104"/><ellipse cx="1584" cy="298.207" fill="#84BE84" rx="3" ry="3" style="stroke: #038048; stroke-width: 1.0;"/><text fill="#000000" font-family="sans-serif" font-size="11" lengthAdjust="spacingAndGlyphs" text-decoration="underline" textLength="203" x="1593" y="300.5151">getMacAddress(InetAddress): byte[]</text><line style="stroke: #000000; stroke-width: 1.0;" x1="1593" x2="1796" y1="302.5151" y2="302.5151"/><ellipse cx="1584" cy="311.0117" fill="#84BE84" rx="3" ry="3" style="stroke: #038048; stroke-width: 1.0;"/><text fill="#000000" font-family="sans-serif" font-size="11" lengthAdjust="spacingAndGlyphs" text-decoration="underline" textLength="301" x="1593" y="313.3198">getNetworkInterfaces(): ArrayList&lt;NetworkInterface&gt;</text><line style="stroke: #000000; stroke-width: 1.0;" x1="1593" x2="1894" y1="315.3198" y2="315.3198"/><ellipse cx="1584" cy="323.8164" fill="#84BE84" rx="3" ry="3" style="stroke: #038048; stroke-width: 1.0;"/><text fill="#000000" font-family="sans-serif" font-size="11" lengthAdjust="spacingAndGlyphs" text-decoration="underline" textLength="291" x="1593" y="326.1245">getIPv4Interfaces(): TreeMap&lt;String, InetAddress&gt;</text><line style="stroke: #000000; stroke-width: 1.0;" x1="1593" x2="1884" y1="328.1245" y2="328.1245"/><ellipse cx="1584" cy="336.6211" fill="#84BE84" rx="3" ry="3" style="stroke: #038048; stroke-width: 1.0;"/><text fill="#000000" font-family="sans-serif" font-size="11" lengthAdjust="spacingAndGlyphs" text-decoration="underline" textLength="348" x="1593" y="338.9292">getInetAddresses(NetworkInterface): ArrayList&lt;InetAddress&gt;</text><line style="stroke: #000000; stroke-width: 1.0;" x1="1593" x2="1941" y1="340.9292" y2="340.9292"/></a><!--class ch.tofind.commusica.utils.Serialize--><a target="_top" xlink:actuate="onRequest" xlink:href="Serialize.html" xlink:show="new" xlink:title="Serialize.html" xlink:type="simple"><rect fill="#FEFECE" filter="url(#fgsvlvz)" height="99.2188" style="stroke: #A80036; stroke-width: 1.5;" width="209" x="1982.5" y="240"/><ellipse cx="2057.25" cy="256" fill="#ADD1B2" rx="11" ry="11" style="stroke: #A80036; stroke-width: 1.0;"/><path d="M2060.2188,261.6406 Q2059.6406,261.9375 2059,262.0859 Q2058.3594,262.2344 2057.6563,262.2344 Q2055.1563,262.2344 2053.8359,260.5859 Q2052.5156,258.9375 2052.5156,255.8125 Q2052.5156,252.6875 2053.8359,251.0313 Q2055.1563,249.375 2057.6563,249.375 Q2058.3594,249.375 2059.0078,249.5313 Q2059.6563,249.6875 2060.2188,249.9844 L2060.2188,252.7031 Q2059.5938,252.125 2059,251.8516 Q2058.4063,251.5781 2057.7813,251.5781 Q2056.4375,251.5781 2055.75,252.6484 Q2055.0625,253.7188 2055.0625,255.8125 Q2055.0625,257.9063 2055.75,258.9766 Q2056.4375,260.0469 2057.7813,260.0469 Q2058.4063,260.0469 2059,259.7734 Q2059.5938,259.5 2060.2188,258.9219 L2060.2188,261.6406 Z "/><text fill="#000000" font-family="sans-serif" font-size="12" lengthAdjust="spacingAndGlyphs" textLength="51" x="2077.75" y="260.1543">Serialize</text><line style="stroke: #A80036; stroke-width: 1.5;" x1="1983.5" x2="2190.5" y1="272" y2="272"/><rect fill="none" height="6" style="stroke: #C82930; stroke-width: 1.0;" width="6" x="1990.5" y="280.9023"/><text fill="#000000" font-family="sans-serif" font-size="11" lengthAdjust="spacingAndGlyphs" text-decoration="underline" textLength="117" x="2002.5" y="286.2104">builder: GsonBuilder</text><line style="stroke: #000000; stroke-width: 1.0;" x1="2002.5" x2="2119.5" y1="288.2104" y2="288.2104"/><rect fill="none" height="6" style="stroke: #C82930; stroke-width: 1.0;" width="6" x="1990.5" y="293.707"/><text fill="#000000" font-family="sans-serif" font-size="11" lengthAdjust="spacingAndGlyphs" text-decoration="underline" textLength="66" x="2002.5" y="299.0151">gson: Gson</text><line style="stroke: #000000; stroke-width: 1.0;" x1="2002.5" x2="2068.5" y1="301.0151" y2="301.0151"/><line style="stroke: #A80036; stroke-width: 1.5;" x1="1983.5" x2="2190.5" y1="305.6094" y2="305.6094"/><ellipse cx="1993.5" cy="317.5117" fill="#84BE84" rx="3" ry="3" style="stroke: #038048; stroke-width: 1.0;"/><text fill="#000000" font-family="sans-serif" font-size="11" lengthAdjust="spacingAndGlyphs" text-decoration="underline" textLength="133" x="2002.5" y="319.8198">serialize(Object): String</text><line style="stroke: #000000; stroke-width: 1.0;" x1="2002.5" x2="2135.5" y1="321.8198" y2="321.8198"/><ellipse cx="1993.5" cy="330.3164" fill="#84BE84" rx="3" ry="3" style="stroke: #038048; stroke-width: 1.0;"/><text fill="#000000" font-family="sans-serif" font-size="11" lengthAdjust="spacingAndGlyphs" text-decoration="underline" textLength="183" x="2002.5" y="332.6245">unserialize(String, Class&lt;T&gt;): T</text><line style="stroke: #000000; stroke-width: 1.0;" x1="2002.5" x2="2185.5" y1="334.6245" y2="334.6245"/></a><!--class ch.tofind.commusica.utils.Logger--><a target="_top" xlink:actuate="onRequest" xlink:href="Logger.html" xlink:show="new" xlink:title="Logger.html" xlink:type="simple"><rect fill="#FEFECE" filter="url(#fgsvlvz)" height="163.2422" style="stroke: #A80036; stroke-width: 1.5;" width="216" x="1322" y="208"/><ellipse cx="1404.25" cy="224" fill="#ADD1B2" rx="11" ry="11" style="stroke: #A80036; stroke-width: 1.0;"/><path d="M1407.2188,229.6406 Q1406.6406,229.9375 1406,230.0859 Q1405.3594,230.2344 1404.6563,230.2344 Q1402.1563,230.2344 1400.8359,228.5859 Q1399.5156,226.9375 1399.5156,223.8125 Q1399.5156,220.6875 1400.8359,219.0313 Q1402.1563,217.375 1404.6563,217.375 Q1405.3594,217.375 1406.0078,217.5313 Q1406.6563,217.6875 1407.2188,217.9844 L1407.2188,220.7031 Q1406.5938,220.125 1406,219.8516 Q1405.4063,219.5781 1404.7813,219.5781 Q1403.4375,219.5781 1402.75,220.6484 Q1402.0625,221.7188 1402.0625,223.8125 Q1402.0625,225.9063 1402.75,226.9766 Q1403.4375,228.0469 1404.7813,228.0469 Q1405.4063,228.0469 1406,227.7734 Q1406.5938,227.5 1407.2188,226.9219 L1407.2188,229.6406 Z "/><text fill="#000000" font-family="sans-serif" font-size="12" lengthAdjust="spacingAndGlyphs" textLength="43" x="1424.75" y="228.1543">Logger</text><line style="stroke: #A80036; stroke-width: 1.5;" x1="1323" x2="1537" y1="240" y2="240"/><rect fill="none" height="6" style="stroke: #C82930; stroke-width: 1.0;" width="6" x="1330" y="248.9023"/><text fill="#000000" font-family="sans-serif" font-size="11" lengthAdjust="spacingAndGlyphs" text-decoration="underline" textLength="93" x="1342" y="254.2104">DEBUG: boolean</text><line style="stroke: #000000; stroke-width: 1.0;" x1="1342" x2="1435" y1="256.2104" y2="256.2104"/><rect fill="none" height="6" style="stroke: #C82930; stroke-width: 1.0;" width="6" x="1330" y="261.707"/><text fill="#000000" font-family="sans-serif" font-size="11" lengthAdjust="spacingAndGlyphs" textLength="105" x="1342" y="267.0151">className: String</text><line style="stroke: #A80036; stroke-width: 1.5;" x1="1323" x2="1537" y1="273.6094" y2="273.6094"/><ellipse cx="1333" cy="285.5117" fill="#84BE84" rx="3" ry="3" style="stroke: #038048; stroke-width: 1.0;"/><text fill="#000000" font-family="sans-serif" font-size="11" lengthAdjust="spacingAndGlyphs" textLength="81" x="1342" y="287.8198">Logger(String)</text><rect fill="#F24D5C" height="6" style="stroke: #C82930; stroke-width: 1.0;" width="6" x="1330" y="295.3164"/><text fill="#000000" font-family="sans-serif" font-size="11" lengthAdjust="spacingAndGlyphs" textLength="170" x="1342" y="300.6245">log(Logger.Level, String): void</text><rect fill="#F24D5C" height="6" style="stroke: #C82930; stroke-width: 1.0;" width="6" x="1330" y="308.1211"/><text fill="#000000" font-family="sans-serif" font-size="11" lengthAdjust="spacingAndGlyphs" textLength="190" x="1342" y="313.4292">log(Logger.Level, Exception): void</text><ellipse cx="1333" cy="323.9258" fill="#84BE84" rx="3" ry="3" style="stroke: #038048; stroke-width: 1.0;"/><text fill="#000000" font-family="sans-serif" font-size="11" lengthAdjust="spacingAndGlyphs" textLength="94" x="1342" y="326.2339">info(String): void</text><ellipse cx="1333" cy="336.7305" fill="#84BE84" rx="3" ry="3" style="stroke: #038048; stroke-width: 1.0;"/><text fill="#000000" font-family="sans-serif" font-size="11" lengthAdjust="spacingAndGlyphs" textLength="118" x="1342" y="339.0386">warning(String): void</text><ellipse cx="1333" cy="349.5352" fill="#84BE84" rx="3" ry="3" style="stroke: #038048; stroke-width: 1.0;"/><text fill="#000000" font-family="sans-serif" font-size="11" lengthAdjust="spacingAndGlyphs" textLength="102" x="1342" y="351.8433">error(String): void</text><ellipse cx="1333" cy="362.3398" fill="#84BE84" rx="3" ry="3" style="stroke: #038048; stroke-width: 1.0;"/><text fill="#000000" font-family="sans-serif" font-size="11" lengthAdjust="spacingAndGlyphs" textLength="122" x="1342" y="364.6479">error(Exception): void</text></a><!--class ch.tofind.commusica.utils.Logger.Level--><a target="_top" xlink:actuate="onRequest" xlink:href="Logger.Level.html" xlink:show="new" xlink:title="Logger.Level.html" xlink:type="simple"><rect fill="#FEFECE" filter="url(#fgsvlvz)" height="137.6328" style="stroke: #A80036; stroke-width: 1.5;" width="162" x="1349" y="444"/><ellipse cx="1387.4" cy="460" fill="#EB937F" rx="11" ry="11" style="stroke: #A80036; stroke-width: 1.0;"/><path d="M1391.5094,466 L1383.7906,466 L1383.7906,453.6094 L1391.5094,453.6094 L1391.5094,455.7656 L1386.2438,455.7656 L1386.2438,458.4375 L1391.0094,458.4375 L1391.0094,460.5938 L1386.2438,460.5938 L1386.2438,463.8438 L1391.5094,463.8438 L1391.5094,466 Z "/><text fill="#000000" font-family="sans-serif" font-size="12" lengthAdjust="spacingAndGlyphs" textLength="78" x="1406.6" y="464.1543">Logger.Level</text><line style="stroke: #A80036; stroke-width: 1.5;" x1="1350" x2="1510" y1="476" y2="476"/><ellipse cx="1360" cy="487.9023" fill="none" rx="3" ry="3" style="stroke: #038048; stroke-width: 1.0;"/><text fill="#000000" font-family="sans-serif" font-size="11" lengthAdjust="spacingAndGlyphs" text-decoration="underline" textLength="26" x="1369" y="490.2104">INFO</text><line style="stroke: #000000; stroke-width: 1.0;" x1="1369" x2="1395" y1="492.2104" y2="492.2104"/><ellipse cx="1360" cy="500.707" fill="none" rx="3" ry="3" style="stroke: #038048; stroke-width: 1.0;"/><text fill="#000000" font-family="sans-serif" font-size="11" lengthAdjust="spacingAndGlyphs" text-decoration="underline" textLength="43" x="1369" y="503.0151">SEVERE</text><line style="stroke: #000000; stroke-width: 1.0;" x1="1369" x2="1412" y1="505.0151" y2="505.0151"/><ellipse cx="1360" cy="513.5117" fill="none" rx="3" ry="3" style="stroke: #038048; stroke-width: 1.0;"/><text fill="#000000" font-family="sans-serif" font-size="11" lengthAdjust="spacingAndGlyphs" text-decoration="underline" textLength="55" x="1369" y="515.8198">SUCCESS</text><line style="stroke: #000000; stroke-width: 1.0;" x1="1369" x2="1424" y1="517.8198" y2="517.8198"/><ellipse cx="1360" cy="526.3164" fill="none" rx="3" ry="3" style="stroke: #038048; stroke-width: 1.0;"/><text fill="#000000" font-family="sans-serif" font-size="11" lengthAdjust="spacingAndGlyphs" text-decoration="underline" textLength="51" x="1369" y="528.6245">WARNING</text><line style="stroke: #000000; stroke-width: 1.0;" x1="1369" x2="1420" y1="530.6245" y2="530.6245"/><polygon fill="none" points="1360,535.1211,1356,541.1211,1364,541.1211" style="stroke: #1963A0; stroke-width: 1.0;"/><text fill="#000000" font-family="sans-serif" font-size="11" lengthAdjust="spacingAndGlyphs" textLength="135" x="1369" y="541.4292">color: Logger.ANSIColor</text><line style="stroke: #A80036; stroke-width: 1.5;" x1="1350" x2="1510" y1="548.0234" y2="548.0234"/><rect fill="#F24D5C" height="6" style="stroke: #C82930; stroke-width: 1.0;" width="6" x="1357" y="556.9258"/><text fill="#000000" font-family="sans-serif" font-size="11" lengthAdjust="spacingAndGlyphs" textLength="136" x="1369" y="562.2339">Level(Logger.ANSIColor)</text><ellipse cx="1360" cy="572.7305" fill="#84BE84" rx="3" ry="3" style="stroke: #038048; stroke-width: 1.0;"/><text fill="#000000" font-family="sans-serif" font-size="11" lengthAdjust="spacingAndGlyphs" textLength="95" x="1369" y="575.0386">toString(): String</text></a><!--class ch.tofind.commusica.utils.EphemeralPlaylistSerializer--><a target="_top" xlink:actuate="onRequest" xlink:href="EphemeralPlaylistSerializer.html" xlink:show="new" xlink:title="EphemeralPlaylistSerializer.html" xlink:type="simple"><rect fill="#FEFECE" filter="url(#fgsvlvz)" height="86.4141" style="stroke: #A80036; stroke-width: 1.5;" width="467" x="345.5" y="246.5"/><ellipse cx="491.75" cy="262.5" fill="#ADD1B2" rx="11" ry="11" style="stroke: #A80036; stroke-width: 1.0;"/><path d="M494.7188,268.1406 Q494.1406,268.4375 493.5,268.5859 Q492.8594,268.7344 492.1563,268.7344 Q489.6563,268.7344 488.3359,267.0859 Q487.0156,265.4375 487.0156,262.3125 Q487.0156,259.1875 488.3359,257.5313 Q489.6563,255.875 492.1563,255.875 Q492.8594,255.875 493.5078,256.0313 Q494.1563,256.1875 494.7188,256.4844 L494.7188,259.2031 Q494.0938,258.625 493.5,258.3516 Q492.9063,258.0781 492.2813,258.0781 Q490.9375,258.0781 490.25,259.1484 Q489.5625,260.2188 489.5625,262.3125 Q489.5625,264.4063 490.25,265.4766 Q490.9375,266.5469 492.2813,266.5469 Q492.9063,266.5469 493.5,266.2734 Q494.0938,266 494.7188,265.4219 L494.7188,268.1406 Z "/><text fill="#000000" font-family="sans-serif" font-size="12" lengthAdjust="spacingAndGlyphs" textLength="166" x="512.25" y="266.6543">EphemeralPlaylistSerializer</text><line style="stroke: #A80036; stroke-width: 1.5;" x1="346.5" x2="811.5" y1="278.5" y2="278.5"/><rect fill="none" height="6" style="stroke: #C82930; stroke-width: 1.0;" width="6" x="353.5" y="287.4023"/><text fill="#000000" font-family="sans-serif" font-size="11" lengthAdjust="spacingAndGlyphs" text-decoration="underline" textLength="71" x="365.5" y="292.7104">LOG: Logger</text><line style="stroke: #000000; stroke-width: 1.0;" x1="365.5" x2="436.5" y1="294.7104" y2="294.7104"/><line style="stroke: #A80036; stroke-width: 1.5;" x1="346.5" x2="811.5" y1="299.3047" y2="299.3047"/><ellipse cx="356.5" cy="311.207" fill="#84BE84" rx="3" ry="3" style="stroke: #038048; stroke-width: 1.0;"/><text fill="#000000" font-family="sans-serif" font-size="11" lengthAdjust="spacingAndGlyphs" textLength="441" x="365.5" y="313.5151">deserialize(JsonElement, Type, JsonDeserializationContext): EphemeralPlaylist</text><ellipse cx="356.5" cy="324.0117" fill="#84BE84" rx="3" ry="3" style="stroke: #038048; stroke-width: 1.0;"/><text fill="#000000" font-family="sans-serif" font-size="11" lengthAdjust="spacingAndGlyphs" textLength="413" x="365.5" y="326.3198">serialize(EphemeralPlaylist, Type, JsonSerializationContext): JsonElement</text></a><!--class ch.tofind.commusica.utils.Configuration--><a target="_top" xlink:actuate="onRequest" xlink:href="Configuration.html" xlink:show="new" xlink:title="Configuration.html" xlink:type="simple"><rect fill="#FEFECE" filter="url(#fgsvlvz)" height="124.8281" style="stroke: #A80036; stroke-width: 1.5;" width="184" x="1668" y="450.5"/><ellipse cx="1713.75" cy="466.5" fill="#ADD1B2" rx="11" ry="11" style="stroke: #A80036; stroke-width: 1.0;"/><path d="M1716.7188,472.1406 Q1716.1406,472.4375 1715.5,472.5859 Q1714.8594,472.7344 1714.1563,472.7344 Q1711.6563,472.7344 1710.3359,471.0859 Q1709.0156,469.4375 1709.0156,466.3125 Q1709.0156,463.1875 1710.3359,461.5313 Q1711.6563,459.875 1714.1563,459.875 Q1714.8594,459.875 1715.5078,460.0313 Q1716.1563,460.1875 1716.7188,460.4844 L1716.7188,463.2031 Q1716.0938,462.625 1715.5,462.3516 Q1714.9063,462.0781 1714.2813,462.0781 Q1712.9375,462.0781 1712.25,463.1484 Q1711.5625,464.2188 1711.5625,466.3125 Q1711.5625,468.4063 1712.25,469.4766 Q1712.9375,470.5469 1714.2813,470.5469 Q1714.9063,470.5469 1715.5,470.2734 Q1716.0938,470 1716.7188,469.4219 L1716.7188,472.1406 Z "/><text fill="#000000" font-family="sans-serif" font-size="12" lengthAdjust="spacingAndGlyphs" textLength="84" x="1734.25" y="470.6543">Configuration</text><line style="stroke: #A80036; stroke-width: 1.5;" x1="1669" x2="1851" y1="482.5" y2="482.5"/><rect fill="none" height="6" style="stroke: #C82930; stroke-width: 1.0;" width="6" x="1676" y="491.4023"/><text fill="#000000" font-family="sans-serif" font-size="11" lengthAdjust="spacingAndGlyphs" text-decoration="underline" textLength="71" x="1688" y="496.7104">LOG: Logger</text><line style="stroke: #000000; stroke-width: 1.0;" x1="1688" x2="1759" y1="498.7104" y2="498.7104"/><rect fill="none" height="6" style="stroke: #C82930; stroke-width: 1.0;" width="6" x="1676" y="504.207"/><text fill="#000000" font-family="sans-serif" font-size="11" lengthAdjust="spacingAndGlyphs" text-decoration="underline" textLength="113" x="1688" y="509.5151">CONFIG_FILE: String</text><line style="stroke: #000000; stroke-width: 1.0;" x1="1688" x2="1801" y1="511.5151" y2="511.5151"/><rect fill="none" height="6" style="stroke: #C82930; stroke-width: 1.0;" width="6" x="1676" y="517.0117"/><text fill="#000000" font-family="sans-serif" font-size="11" lengthAdjust="spacingAndGlyphs" text-decoration="underline" textLength="132" x="1688" y="522.3198">instance: Configuration</text><line style="stroke: #000000; stroke-width: 1.0;" x1="1688" x2="1820" y1="524.3198" y2="524.3198"/><rect fill="none" height="6" style="stroke: #C82930; stroke-width: 1.0;" width="6" x="1676" y="529.8164"/><text fill="#000000" font-family="sans-serif" font-size="11" lengthAdjust="spacingAndGlyphs" textLength="141" x="1688" y="535.1245">configuration: Properties</text><line style="stroke: #A80036; stroke-width: 1.5;" x1="1669" x2="1851" y1="541.7188" y2="541.7188"/><ellipse cx="1679" cy="553.6211" fill="#84BE84" rx="3" ry="3" style="stroke: #038048; stroke-width: 1.0;"/><text fill="#000000" font-family="sans-serif" font-size="11" lengthAdjust="spacingAndGlyphs" text-decoration="underline" textLength="158" x="1688" y="555.9292">getInstance(): Configuration</text><line style="stroke: #000000; stroke-width: 1.0;" x1="1688" x2="1846" y1="557.9292" y2="557.9292"/><ellipse cx="1679" cy="566.4258" fill="#84BE84" rx="3" ry="3" style="stroke: #038048; stroke-width: 1.0;"/><text fill="#000000" font-family="sans-serif" font-size="11" lengthAdjust="spacingAndGlyphs" textLength="102" x="1688" y="568.7339">get(String): String</text></a><!--class ch.tofind.commusica.utils.ObservableSortedPlaylistTrackList--><a target="_top" xlink:actuate="onRequest" xlink:href="ObservableSortedPlaylistTrackList.html" xlink:show="new" xlink:title="ObservableSortedPlaylistTrackList.html" xlink:type="simple"><rect fill="#FEFECE" filter="url(#fgsvlvz)" height="188.8516" style="stroke: #A80036; stroke-width: 1.5;" width="242" x="848" y="195"/><ellipse cx="863" cy="211" fill="#ADD1B2" rx="11" ry="11" style="stroke: #A80036; stroke-width: 1.0;"/><path d="M865.9688,216.6406 Q865.3906,216.9375 864.75,217.0859 Q864.1094,217.2344 863.4063,217.2344 Q860.9063,217.2344 859.5859,215.5859 Q858.2656,213.9375 858.2656,210.8125 Q858.2656,207.6875 859.5859,206.0313 Q860.9063,204.375 863.4063,204.375 Q864.1094,204.375 864.7578,204.5313 Q865.4063,204.6875 865.9688,204.9844 L865.9688,207.7031 Q865.3438,207.125 864.75,206.8516 Q864.1563,206.5781 863.5313,206.5781 Q862.1875,206.5781 861.5,207.6484 Q860.8125,208.7188 860.8125,210.8125 Q860.8125,212.9063 861.5,213.9766 Q862.1875,215.0469 863.5313,215.0469 Q864.1563,215.0469 864.75,214.7734 Q865.3438,214.5 865.9688,213.9219 L865.9688,216.6406 Z "/><text fill="#000000" font-family="sans-serif" font-size="12" lengthAdjust="spacingAndGlyphs" textLength="210" x="877" y="215.1543">ObservableSortedPlaylistTrackList</text><line style="stroke: #A80036; stroke-width: 1.5;" x1="849" x2="1089" y1="227" y2="227"/><rect fill="none" height="6" style="stroke: #C82930; stroke-width: 1.0;" width="6" x="856" y="235.9023"/><text fill="#000000" font-family="sans-serif" font-size="11" lengthAdjust="spacingAndGlyphs" textLength="166" x="868" y="241.2104">delegate: List&lt;PlaylistTrack&gt;</text><rect fill="none" height="6" style="stroke: #C82930; stroke-width: 1.0;" width="6" x="856" y="248.707"/><text fill="#000000" font-family="sans-serif" font-size="11" lengthAdjust="spacingAndGlyphs" textLength="167" x="868" y="254.0151">comparator: VoteComparator</text><rect fill="none" height="6" style="stroke: #C82930; stroke-width: 1.0;" width="6" x="856" y="261.5117"/><text fill="#000000" font-family="sans-serif" font-size="11" lengthAdjust="spacingAndGlyphs" textLength="53" x="868" y="266.8198">count: int</text><line style="stroke: #A80036; stroke-width: 1.5;" x1="849" x2="1089" y1="273.4141" y2="273.4141"/><ellipse cx="859" cy="285.3164" fill="#84BE84" rx="3" ry="3" style="stroke: #038048; stroke-width: 1.0;"/><text fill="#000000" font-family="sans-serif" font-size="11" lengthAdjust="spacingAndGlyphs" textLength="153" x="868" y="287.6245">add(PlaylistTrack): boolean</text><ellipse cx="859" cy="298.1211" fill="#84BE84" rx="3" ry="3" style="stroke: #038048; stroke-width: 1.0;"/><text fill="#000000" font-family="sans-serif" font-size="11" lengthAdjust="spacingAndGlyphs" textLength="67" x="868" y="300.4292">clear(): void</text><ellipse cx="859" cy="310.9258" fill="#84BE84" rx="3" ry="3" style="stroke: #038048; stroke-width: 1.0;"/><text fill="#000000" font-family="sans-serif" font-size="11" lengthAdjust="spacingAndGlyphs" textLength="119" x="868" y="313.2339">get(int): PlaylistTrack</text><ellipse cx="859" cy="323.7305" fill="#84BE84" rx="3" ry="3" style="stroke: #038048; stroke-width: 1.0;"/><text fill="#000000" font-family="sans-serif" font-size="11" lengthAdjust="spacingAndGlyphs" textLength="161" x="868" y="326.0386">getNextTrack(): PlaylistTrack</text><ellipse cx="859" cy="336.5352" fill="#84BE84" rx="3" ry="3" style="stroke: #038048; stroke-width: 1.0;"/><text fill="#000000" font-family="sans-serif" font-size="11" lengthAdjust="spacingAndGlyphs" textLength="153" x="868" y="338.8433">remove(PlaylistTrack): void</text><ellipse cx="859" cy="349.3398" fill="#84BE84" rx="3" ry="3" style="stroke: #038048; stroke-width: 1.0;"/><text fill="#000000" font-family="sans-serif" font-size="11" lengthAdjust="spacingAndGlyphs" textLength="52" x="868" y="351.6479">size(): int</text><rect fill="#F24D5C" height="6" style="stroke: #C82930; stroke-width: 1.0;" width="6" x="856" y="359.1445"/><text fill="#000000" font-family="sans-serif" font-size="11" lengthAdjust="spacingAndGlyphs" textLength="62" x="868" y="364.4526">sort(): void</text><ellipse cx="859" cy="374.9492" fill="#84BE84" rx="3" ry="3" style="stroke: #038048; stroke-width: 1.0;"/><text fill="#000000" font-family="sans-serif" font-size="11" lengthAdjust="spacingAndGlyphs" textLength="95" x="868" y="377.2573">toString(): String</text></a><!--class ch.tofind.commusica.utils.PlaylistTrackProperty--><a target="_top" xlink:actuate="onRequest" xlink:href="PlaylistTrackProperty.html" xlink:show="new" xlink:title="PlaylistTrackProperty.html" xlink:type="simple"><rect fill="#FEFECE" filter="url(#fgsvlvz)" height="86.4141" style="stroke: #A80036; stroke-width: 1.5;" width="162" x="1125" y="246.5"/><ellipse cx="1140" cy="262.5" fill="#ADD1B2" rx="11" ry="11" style="stroke: #A80036; stroke-width: 1.0;"/><path d="M1142.9688,268.1406 Q1142.3906,268.4375 1141.75,268.5859 Q1141.1094,268.7344 1140.4063,268.7344 Q1137.9063,268.7344 1136.5859,267.0859 Q1135.2656,265.4375 1135.2656,262.3125 Q1135.2656,259.1875 1136.5859,257.5313 Q1137.9063,255.875 1140.4063,255.875 Q1141.1094,255.875 1141.7578,256.0313 Q1142.4063,256.1875 1142.9688,256.4844 L1142.9688,259.2031 Q1142.3438,258.625 1141.75,258.3516 Q1141.1563,258.0781 1140.5313,258.0781 Q1139.1875,258.0781 1138.5,259.1484 Q1137.8125,260.2188 1137.8125,262.3125 Q1137.8125,264.4063 1138.5,265.4766 Q1139.1875,266.5469 1140.5313,266.5469 Q1141.1563,266.5469 1141.75,266.2734 Q1142.3438,266 1142.9688,265.4219 L1142.9688,268.1406 Z "/><text fill="#000000" font-family="sans-serif" font-size="12" lengthAdjust="spacingAndGlyphs" textLength="130" x="1154" y="266.6543">PlaylistTrackProperty</text><line style="stroke: #A80036; stroke-width: 1.5;" x1="1126" x2="1286" y1="278.5" y2="278.5"/><line style="stroke: #A80036; stroke-width: 1.5;" x1="1126" x2="1286" y1="286.5" y2="286.5"/><ellipse cx="1136" cy="298.4023" fill="#84BE84" rx="3" ry="3" style="stroke: #038048; stroke-width: 1.0;"/><text fill="#000000" font-family="sans-serif" font-size="11" lengthAdjust="spacingAndGlyphs" textLength="96" x="1145" y="300.7104">getTrack(): Track</text><ellipse cx="1136" cy="311.207" fill="#84BE84" rx="3" ry="3" style="stroke: #038048; stroke-width: 1.0;"/><text fill="#000000" font-family="sans-serif" font-size="11" lengthAdjust="spacingAndGlyphs" textLength="99" x="1145" y="313.5151">getBean(): Object</text><ellipse cx="1136" cy="324.0117" fill="#84BE84" rx="3" ry="3" style="stroke: #038048; stroke-width: 1.0;"/><text fill="#000000" font-family="sans-serif" font-size="11" lengthAdjust="spacingAndGlyphs" textLength="101" x="1145" y="326.3198">getName(): String</text></a><!--class com.google.gson.JsonSerializer--><rect fill="#FEFECE" filter="url(#fgsvlvz)" height="60.8047" style="stroke: #A80036; stroke-width: 1.5;" width="345" x="446.5" y="59"/><ellipse cx="567.75" cy="75" fill="#B4A7E5" rx="11" ry="11" style="stroke: #A80036; stroke-width: 1.0;"/><path d="M563.6719,70.7656 L563.6719,68.6094 L571.0625,68.6094 L571.0625,70.7656 L568.5938,70.7656 L568.5938,78.8438 L571.0625,78.8438 L571.0625,81 L563.6719,81 L563.6719,78.8438 L566.1406,78.8438 L566.1406,70.7656 L563.6719,70.7656 Z "/><text fill="#000000" font-family="sans-serif" font-size="12" font-style="italic" lengthAdjust="spacingAndGlyphs" textLength="83" x="588.25" y="79.1543">JsonSerializer</text><rect fill="#FFFFFF" height="15.9688" style="stroke: #000000; stroke-width: 1.0; stroke-dasharray: 2.0,2.0;" width="9" x="785.5" y="56"/><text fill="#000000" font-family="sans-serif" font-size="12" font-style="italic" lengthAdjust="spacingAndGlyphs" textLength="7" x="786.5" y="68.1387">T</text><line style="stroke: #A80036; stroke-width: 1.5;" x1="447.5" x2="790.5" y1="91" y2="91"/><line style="stroke: #A80036; stroke-width: 1.5;" x1="447.5" x2="790.5" y1="99" y2="99"/><ellipse cx="457.5" cy="110.9023" fill="#84BE84" rx="3" ry="3" style="stroke: #038048; stroke-width: 1.0;"/><text fill="#000000" font-family="sans-serif" font-size="11" font-style="italic" lengthAdjust="spacingAndGlyphs" textLength="319" x="466.5" y="113.2104">serialize(T, Type, JsonSerializationContext): JsonElement</text><!--class com.google.gson.JsonDeserializer--><rect fill="#FEFECE" filter="url(#fgsvlvz)" height="60.8047" style="stroke: #A80036; stroke-width: 1.5;" width="373" x="38.5" y="59"/><ellipse cx="166.25" cy="75" fill="#B4A7E5" rx="11" ry="11" style="stroke: #A80036; stroke-width: 1.0;"/><path d="M162.1719,70.7656 L162.1719,68.6094 L169.5625,68.6094 L169.5625,70.7656 L167.0938,70.7656 L167.0938,78.8438 L169.5625,78.8438 L169.5625,81 L162.1719,81 L162.1719,78.8438 L164.6406,78.8438 L164.6406,70.7656 L162.1719,70.7656 Z "/><text fill="#000000" font-family="sans-serif" font-size="12" font-style="italic" lengthAdjust="spacingAndGlyphs" textLength="98" x="186.75" y="79.1543">JsonDeserializer</text><rect fill="#FFFFFF" height="15.9688" style="stroke: #000000; stroke-width: 1.0; stroke-dasharray: 2.0,2.0;" width="9" x="405.5" y="56"/><text fill="#000000" font-family="sans-serif" font-size="12" font-style="italic" lengthAdjust="spacingAndGlyphs" textLength="7" x="406.5" y="68.1387">T</text><line style="stroke: #A80036; stroke-width: 1.5;" x1="39.5" x2="410.5" y1="91" y2="91"/><line style="stroke: #A80036; stroke-width: 1.5;" x1="39.5" x2="410.5" y1="99" y2="99"/><ellipse cx="49.5" cy="110.9023" fill="#84BE84" rx="3" ry="3" style="stroke: #038048; stroke-width: 1.0;"/><text fill="#000000" font-family="sans-serif" font-size="11" font-style="italic" lengthAdjust="spacingAndGlyphs" textLength="347" x="58.5" y="113.2104">deserialize(JsonElement, Type, JsonDeserializationContext): T</text><!--class javafx.collections.ObservableListBase--><rect fill="#FEFECE" filter="url(#fgsvlvz)" height="48" style="stroke: #A80036; stroke-width: 1.5;" width="163" x="887.5" y="65.5"/><ellipse cx="902.5" cy="81.5" fill="#A9DCDF" rx="11" ry="11" style="stroke: #A80036; stroke-width: 1.0;"/><path d="M902.6094,76.8438 L901.4531,81.9219 L903.7813,81.9219 L902.6094,76.8438 Z M901.125,74.6094 L904.1094,74.6094 L907.4688,87 L905.0156,87 L904.25,83.9375 L900.9688,83.9375 L900.2188,87 L897.7813,87 L901.125,74.6094 Z "/><text fill="#000000" font-family="sans-serif" font-size="12" font-style="italic" lengthAdjust="spacingAndGlyphs" textLength="119" x="916.5" y="85.6543">ObservableListBase</text><rect fill="#FFFFFF" height="15.9688" style="stroke: #000000; stroke-width: 1.0; stroke-dasharray: 2.0,2.0;" width="10" x="1043.5" y="62.5"/><text fill="#000000" font-family="sans-serif" font-size="12" font-style="italic" lengthAdjust="spacingAndGlyphs" textLength="8" x="1044.5" y="74.6387">E</text><line style="stroke: #A80036; stroke-width: 1.5;" x1="888.5" x2="1049.5" y1="97.5" y2="97.5"/><line style="stroke: #A80036; stroke-width: 1.5;" x1="888.5" x2="1049.5" y1="105.5" y2="105.5"/><!--class javafx.beans.property.ObjectPropertyBase--><rect fill="#FEFECE" filter="url(#fgsvlvz)" height="48" style="stroke: #A80036; stroke-width: 1.5;" width="165" x="1123.5" y="65.5"/><ellipse cx="1138.5" cy="81.5" fill="#A9DCDF" rx="11" ry="11" style="stroke: #A80036; stroke-width: 1.0;"/><path d="M1138.6094,76.8438 L1137.4531,81.9219 L1139.7813,81.9219 L1138.6094,76.8438 Z M1137.125,74.6094 L1140.1094,74.6094 L1143.4688,87 L1141.0156,87 L1140.25,83.9375 L1136.9688,83.9375 L1136.2188,87 L1133.7813,87 L1137.125,74.6094 Z "/><text fill="#000000" font-family="sans-serif" font-size="12" font-style="italic" lengthAdjust="spacingAndGlyphs" textLength="122" x="1152.5" y="85.6543">ObjectPropertyBase</text><rect fill="#FFFFFF" height="15.9688" style="stroke: #000000; stroke-width: 1.0; stroke-dasharray: 2.0,2.0;" width="9" x="1282.5" y="62.5"/><text fill="#000000" font-family="sans-serif" font-size="12" font-style="italic" lengthAdjust="spacingAndGlyphs" textLength="7" x="1283.5" y="74.6387">T</text><line style="stroke: #A80036; stroke-width: 1.5;" x1="1124.5" x2="1287.5" y1="97.5" y2="97.5"/><line style="stroke: #A80036; stroke-width: 1.5;" x1="1124.5" x2="1287.5" y1="105.5" y2="105.5"/><path d="M1430,386.137 C1430,405.565 1430,425.626 1430,443.866 " fill="none" style="stroke: #A80036; stroke-width: 1.0;"/><ellipse cx="1430" cy="379.093" fill="#FFFFFF" rx="8" ry="8" style="stroke: #A80036; stroke-width: 1.0;"/><line style="stroke: #A80036; stroke-width: 1.0;" x1="1430" x2="1430" y1="387.093" y2="371.093"/><line style="stroke: #A80036; stroke-width: 1.0;" x1="1422" x2="1438" y1="379.093" y2="379.093"/><path d="M608.999,140.006 C602.396,172.69 593.835,215.065 587.55,246.178 " fill="none" style="stroke: #A80036; stroke-width: 1.0; stroke-dasharray: 7.0,7.0;"/><polygon fill="none" points="602.19,138.36,613.012,120.143,615.913,141.133,602.19,138.36" style="stroke: #A80036; stroke-width: 1.0;"/><path d="M295.789,130.094 C355.988,163.764 442.196,211.983 503.661,246.361 " fill="none" style="stroke: #A80036; stroke-width: 1.0; stroke-dasharray: 7.0,7.0;"/><polygon fill="none" points="292.035,136.015,277.997,120.143,298.87,123.796,292.035,136.015" style="stroke: #A80036; stroke-width: 1.0;"/><path d="M969,133.785 C969,151.752 969,173.35 969,194.63 " fill="none" style="stroke: #A80036; stroke-width: 1.0;"/><polygon fill="none" points="962,133.601,969,113.601,976,133.601,962,133.601" style="stroke: #A80036; stroke-width: 1.0;"/><path d="M1206,133.929 C1206,167.286 1206,213.091 1206,246.17 " fill="none" style="stroke: #A80036; stroke-width: 1.0;"/><polygon fill="none" points="1199,133.601,1206,113.601,1213,133.601,1199,133.601" style="stroke: #A80036; stroke-width: 1.0;"/></g></svg>