<?xml version="1.0" encoding="UTF-8" standalone="no"?><svg xmlns="http://www.w3.org/2000/svg" xmlns:xlink="http://www.w3.org/1999/xlink" contentScriptType="application/ecmascript" contentStyleType="text/css" height="116px" preserveAspectRatio="none" style="width:224px;height:116px;" version="1.1" viewBox="0 0 224 116" width="224px" zoomAndPan="magnify"><defs><filter height="300%" id="fr7rfbu" width="300%" x="-1" y="-1"><feGaussianBlur result="blurOut" stdDeviation="2.0"/><feColorMatrix in="blurOut" result="blurOut2" type="matrix" values="0 0 0 0 0 0 0 0 0 0 0 0 0 0 0 0 0 0 .4 0"/><feOffset dx="4.0" dy="4.0" in="blurOut2" result="blurOut3"/><feBlend in="SourceGraphic" in2="blurOut3" mode="normal"/></filter></defs><g><!--class Serialize--><a target="_top" xlink:actuate="onRequest" xlink:href="Serialize.html" xlink:show="new" xlink:title="Serialize.html" xlink:type="simple"><rect fill="#FEFECE" filter="url(#fr7rfbu)" height="99.2188" style="stroke: #A80036; stroke-width: 1.5;" width="209" x="6" y="8"/><ellipse cx="80.75" cy="24" fill="#ADD1B2" rx="11" ry="11" style="stroke: #A80036; stroke-width: 1.0;"/><path d="M83.7188,29.6406 Q83.1406,29.9375 82.5,30.0859 Q81.8594,30.2344 81.1563,30.2344 Q78.6563,30.2344 77.3359,28.5859 Q76.0156,26.9375 76.0156,23.8125 Q76.0156,20.6875 77.3359,19.0313 Q78.6563,17.375 81.1563,17.375 Q81.8594,17.375 82.5078,17.5313 Q83.1563,17.6875 83.7188,17.9844 L83.7188,20.7031 Q83.0938,20.125 82.5,19.8516 Q81.9063,19.5781 81.2813,19.5781 Q79.9375,19.5781 79.25,20.6484 Q78.5625,21.7188 78.5625,23.8125 Q78.5625,25.9063 79.25,26.9766 Q79.9375,28.0469 81.2813,28.0469 Q81.9063,28.0469 82.5,27.7734 Q83.0938,27.5 83.7188,26.9219 L83.7188,29.6406 Z "/><text fill="#000000" font-family="sans-serif" font-size="12" lengthAdjust="spacingAndGlyphs" textLength="51" x="101.25" y="28.1543">Serialize</text><line style="stroke: #A80036; stroke-width: 1.5;" x1="7" x2="214" y1="40" y2="40"/><rect fill="none" height="6" style="stroke: #C82930; stroke-width: 1.0;" width="6" x="14" y="48.9023"/><text fill="#000000" font-family="sans-serif" font-size="11" lengthAdjust="spacingAndGlyphs" text-decoration="underline" textLength="117" x="26" y="54.2104">builder: GsonBuilder</text><line style="stroke: #000000; stroke-width: 1.0;" x1="26" x2="143" y1="56.2104" y2="56.2104"/><rect fill="none" height="6" style="stroke: #C82930; stroke-width: 1.0;" width="6" x="14" y="61.707"/><text fill="#000000" font-family="sans-serif" font-size="11" lengthAdjust="spacingAndGlyphs" text-decoration="underline" textLength="66" x="26" y="67.0151">gson: Gson</text><line style="stroke: #000000; stroke-width: 1.0;" x1="26" x2="92" y1="69.0151" y2="69.0151"/><line style="stroke: #A80036; stroke-width: 1.5;" x1="7" x2="214" y1="73.6094" y2="73.6094"/><ellipse cx="17" cy="85.5117" fill="#84BE84" rx="3" ry="3" style="stroke: #038048; stroke-width: 1.0;"/><text fill="#000000" font-family="sans-serif" font-size="11" lengthAdjust="spacingAndGlyphs" text-decoration="underline" textLength="133" x="26" y="87.8198">serialize(Object): String</text><line style="stroke: #000000; stroke-width: 1.0;" x1="26" x2="159" y1="89.8198" y2="89.8198"/><ellipse cx="17" cy="98.3164" fill="#84BE84" rx="3" ry="3" style="stroke: #038048; stroke-width: 1.0;"/><text fill="#000000" font-family="sans-serif" font-size="11" lengthAdjust="spacingAndGlyphs" text-decoration="underline" textLength="183" x="26" y="100.6245">unserialize(String, Class&lt;T&gt;): T</text><line style="stroke: #000000; stroke-width: 1.0;" x1="26" x2="209" y1="102.6245" y2="102.6245"/></a></g></svg>